G04 #@! TF.FileFunction,Legend,Top*
%FSLAX46Y46*%
G04 Gerber Fmt 4.6, Leading zero omitted, Abs format (unit mm)*
G04 Created by KiCad (PCBNEW 4.0.7-e0-6372~58~ubuntu16.04.1) date Wed May  1 15:48:21 2019*
%MOMM*%
%LPD*%
G01*
G04 APERTURE LIST*
%ADD10C,0.100000*%
%ADD11C,0.010000*%
%ADD12C,0.150000*%
G04 APERTURE END LIST*
D10*
D11*
G36*
X165249525Y-128895460D02*
X165576550Y-128898850D01*
X165576550Y-129546550D01*
X165258204Y-129549938D01*
X165170717Y-129550532D01*
X165091732Y-129550427D01*
X165024767Y-129549679D01*
X164973343Y-129548344D01*
X164940980Y-129546480D01*
X164931179Y-129544646D01*
X164928816Y-129530074D01*
X164926697Y-129493602D01*
X164924915Y-129438729D01*
X164923562Y-129368954D01*
X164922729Y-129287778D01*
X164922500Y-129214018D01*
X164922500Y-128892071D01*
X165249525Y-128895460D01*
X165249525Y-128895460D01*
G37*
X165249525Y-128895460D02*
X165576550Y-128898850D01*
X165576550Y-129546550D01*
X165258204Y-129549938D01*
X165170717Y-129550532D01*
X165091732Y-129550427D01*
X165024767Y-129549679D01*
X164973343Y-129548344D01*
X164940980Y-129546480D01*
X164931179Y-129544646D01*
X164928816Y-129530074D01*
X164926697Y-129493602D01*
X164924915Y-129438729D01*
X164923562Y-129368954D01*
X164922729Y-129287778D01*
X164922500Y-129214018D01*
X164922500Y-128892071D01*
X165249525Y-128895460D01*
G36*
X177000200Y-129552900D02*
X176352500Y-129552900D01*
X176352500Y-128892500D01*
X177000200Y-128892500D01*
X177000200Y-129552900D01*
X177000200Y-129552900D01*
G37*
X177000200Y-129552900D02*
X176352500Y-129552900D01*
X176352500Y-128892500D01*
X177000200Y-128892500D01*
X177000200Y-129552900D01*
G36*
X176352500Y-128892500D02*
X175692100Y-128892500D01*
X175692100Y-128244800D01*
X176352500Y-128244800D01*
X176352500Y-128892500D01*
X176352500Y-128892500D01*
G37*
X176352500Y-128892500D02*
X175692100Y-128892500D01*
X175692100Y-128244800D01*
X176352500Y-128244800D01*
X176352500Y-128892500D01*
G36*
X125400100Y-119227800D02*
X124765100Y-119227800D01*
X124765100Y-118592800D01*
X125400100Y-118592800D01*
X125400100Y-119227800D01*
X125400100Y-119227800D01*
G37*
X125400100Y-119227800D02*
X124765100Y-119227800D01*
X124765100Y-118592800D01*
X125400100Y-118592800D01*
X125400100Y-119227800D01*
G36*
X135712500Y-123101300D02*
X135712500Y-124383563D01*
X135391825Y-124386956D01*
X135071150Y-124390350D01*
X135064738Y-129540200D01*
X123469700Y-129540200D01*
X123469700Y-124384000D01*
X124117400Y-124384000D01*
X124117400Y-128905291D01*
X125841425Y-128902070D01*
X127565450Y-128898850D01*
X127571958Y-126962100D01*
X128206800Y-126962100D01*
X128206800Y-128905200D01*
X130784900Y-128905200D01*
X130784900Y-126962100D01*
X131432600Y-126962100D01*
X131432600Y-128905200D01*
X134429800Y-128905200D01*
X134429800Y-124384000D01*
X132499400Y-124384000D01*
X132499089Y-124711025D01*
X132498860Y-124824906D01*
X132498401Y-124953527D01*
X132497759Y-125087378D01*
X132496981Y-125216950D01*
X132496113Y-125332735D01*
X132495914Y-125355550D01*
X132493050Y-125673050D01*
X126695500Y-125679454D01*
X126695500Y-124384000D01*
X127343200Y-124384000D01*
X127343200Y-125031700D01*
X131851700Y-125031700D01*
X131851700Y-124384000D01*
X127343200Y-124384000D01*
X126695500Y-124384000D01*
X124117400Y-124384000D01*
X123469700Y-124384000D01*
X122822244Y-124384000D01*
X122822244Y-123101300D01*
X123469700Y-123101300D01*
X123469700Y-123749000D01*
X124434900Y-123749000D01*
X124434900Y-123101300D01*
X125082600Y-123101300D01*
X125082600Y-123749000D01*
X125730300Y-123749000D01*
X125730300Y-123101300D01*
X126378000Y-123101300D01*
X126378000Y-123749000D01*
X127013000Y-123749000D01*
X127013000Y-123101300D01*
X127660700Y-123101300D01*
X127660700Y-123749000D01*
X128308400Y-123749000D01*
X128308400Y-123101300D01*
X128943400Y-123101300D01*
X128943400Y-123416683D01*
X128943727Y-123503741D01*
X128944648Y-123582272D01*
X128946070Y-123648740D01*
X128947901Y-123699611D01*
X128950049Y-123731349D01*
X128951866Y-123740533D01*
X128966397Y-123742861D01*
X129002792Y-123744945D01*
X129057516Y-123746691D01*
X129127035Y-123748007D01*
X129207813Y-123748802D01*
X129275716Y-123749000D01*
X129591100Y-123749000D01*
X129591100Y-123101300D01*
X130238800Y-123101300D01*
X130238800Y-123749000D01*
X130886500Y-123749000D01*
X130886500Y-123101300D01*
X131521500Y-123101300D01*
X131521500Y-123416683D01*
X131521827Y-123503741D01*
X131522748Y-123582272D01*
X131524170Y-123648740D01*
X131526001Y-123699611D01*
X131528149Y-123731349D01*
X131529966Y-123740533D01*
X131544497Y-123742861D01*
X131580892Y-123744945D01*
X131635616Y-123746691D01*
X131705135Y-123748007D01*
X131785913Y-123748802D01*
X131853816Y-123749000D01*
X132169200Y-123749000D01*
X132169200Y-123101300D01*
X132816900Y-123101300D01*
X132816900Y-123749000D01*
X133464600Y-123749000D01*
X133464600Y-123101300D01*
X134099600Y-123101300D01*
X134099600Y-123749000D01*
X135064800Y-123749000D01*
X135064800Y-123101300D01*
X134099600Y-123101300D01*
X133464600Y-123101300D01*
X132816900Y-123101300D01*
X132169200Y-123101300D01*
X131521500Y-123101300D01*
X130886500Y-123101300D01*
X130238800Y-123101300D01*
X129591100Y-123101300D01*
X128943400Y-123101300D01*
X128308400Y-123101300D01*
X127660700Y-123101300D01*
X127013000Y-123101300D01*
X126378000Y-123101300D01*
X125730300Y-123101300D01*
X125082600Y-123101300D01*
X124434900Y-123101300D01*
X123469700Y-123101300D01*
X123469700Y-122453600D01*
X124536500Y-122453600D01*
X124536500Y-120523200D01*
X125171500Y-120523200D01*
X125171500Y-122453600D01*
X125819200Y-122453600D01*
X125819200Y-121170900D01*
X127114600Y-121170900D01*
X127114600Y-122453600D01*
X128168700Y-122453600D01*
X128168700Y-121805900D01*
X128816400Y-121805900D01*
X128816400Y-122453600D01*
X130099100Y-122453600D01*
X130099100Y-121805900D01*
X128816400Y-121805900D01*
X128168700Y-121805900D01*
X128168700Y-121170900D01*
X130746800Y-121170900D01*
X130746800Y-122453600D01*
X131623100Y-122453600D01*
X131623100Y-121170900D01*
X132905800Y-121170900D01*
X132905800Y-122453600D01*
X133553500Y-122453600D01*
X133553500Y-120523200D01*
X125171500Y-120523200D01*
X124536500Y-120523200D01*
X122821767Y-120523200D01*
X122825058Y-119878675D01*
X122828350Y-119234150D01*
X123149025Y-119230756D01*
X123469700Y-119227363D01*
X123469700Y-119875500D01*
X124117400Y-119875500D01*
X124117400Y-119227363D01*
X124438075Y-119230756D01*
X124758750Y-119234150D01*
X124765536Y-119875500D01*
X125819200Y-119875500D01*
X125819200Y-118592800D01*
X126466900Y-118592800D01*
X126466900Y-119875500D01*
X127114600Y-119875500D01*
X127114600Y-118592800D01*
X127749600Y-118592800D01*
X127749600Y-119875500D01*
X128397300Y-119875500D01*
X128397300Y-118592800D01*
X129045000Y-118592800D01*
X129045000Y-119875500D01*
X129692700Y-119875500D01*
X129692700Y-118592800D01*
X130327700Y-118592800D01*
X130327700Y-119875500D01*
X130975400Y-119875500D01*
X130975400Y-118592800D01*
X131623100Y-118592800D01*
X131623100Y-119875500D01*
X132270800Y-119875500D01*
X132270800Y-118592800D01*
X132905800Y-118592800D01*
X132905800Y-119875500D01*
X133782100Y-119875500D01*
X133782100Y-119227800D01*
X133134400Y-119227800D01*
X133134400Y-118592800D01*
X132905800Y-118592800D01*
X132270800Y-118592800D01*
X131623100Y-118592800D01*
X130975400Y-118592800D01*
X130327700Y-118592800D01*
X129692700Y-118592800D01*
X129045000Y-118592800D01*
X128397300Y-118592800D01*
X127749600Y-118592800D01*
X127114600Y-118592800D01*
X126466900Y-118592800D01*
X125819200Y-118592800D01*
X125400100Y-118592800D01*
X125400100Y-117945100D01*
X126047800Y-117945100D01*
X132499836Y-117945100D01*
X132493050Y-117303750D01*
X126047800Y-117297350D01*
X126047800Y-117945100D01*
X125400100Y-117945100D01*
X125400100Y-117297400D01*
X124765100Y-117297400D01*
X124765100Y-116662400D01*
X124117400Y-116662400D01*
X124117400Y-116014700D01*
X125399663Y-116014700D01*
X125403056Y-116335375D01*
X125406450Y-116656050D01*
X129270425Y-116659245D01*
X133134400Y-116662441D01*
X133134400Y-116014700D01*
X134430236Y-116014700D01*
X134423450Y-116656050D01*
X133782100Y-116662836D01*
X133782100Y-117297400D01*
X133134400Y-117297400D01*
X133134400Y-118592800D01*
X133782100Y-118592800D01*
X133782100Y-119227363D01*
X134102775Y-119230756D01*
X134423450Y-119234150D01*
X134430236Y-119875500D01*
X135064363Y-119875500D01*
X135067756Y-119554825D01*
X135071150Y-119234150D01*
X135391825Y-119230756D01*
X135712500Y-119227363D01*
X135712500Y-120523200D01*
X134201200Y-120523200D01*
X134201200Y-122453600D01*
X135064800Y-122453600D01*
X135064800Y-123101300D01*
X135712500Y-123101300D01*
X135712500Y-123101300D01*
G37*
X135712500Y-123101300D02*
X135712500Y-124383563D01*
X135391825Y-124386956D01*
X135071150Y-124390350D01*
X135064738Y-129540200D01*
X123469700Y-129540200D01*
X123469700Y-124384000D01*
X124117400Y-124384000D01*
X124117400Y-128905291D01*
X125841425Y-128902070D01*
X127565450Y-128898850D01*
X127571958Y-126962100D01*
X128206800Y-126962100D01*
X128206800Y-128905200D01*
X130784900Y-128905200D01*
X130784900Y-126962100D01*
X131432600Y-126962100D01*
X131432600Y-128905200D01*
X134429800Y-128905200D01*
X134429800Y-124384000D01*
X132499400Y-124384000D01*
X132499089Y-124711025D01*
X132498860Y-124824906D01*
X132498401Y-124953527D01*
X132497759Y-125087378D01*
X132496981Y-125216950D01*
X132496113Y-125332735D01*
X132495914Y-125355550D01*
X132493050Y-125673050D01*
X126695500Y-125679454D01*
X126695500Y-124384000D01*
X127343200Y-124384000D01*
X127343200Y-125031700D01*
X131851700Y-125031700D01*
X131851700Y-124384000D01*
X127343200Y-124384000D01*
X126695500Y-124384000D01*
X124117400Y-124384000D01*
X123469700Y-124384000D01*
X122822244Y-124384000D01*
X122822244Y-123101300D01*
X123469700Y-123101300D01*
X123469700Y-123749000D01*
X124434900Y-123749000D01*
X124434900Y-123101300D01*
X125082600Y-123101300D01*
X125082600Y-123749000D01*
X125730300Y-123749000D01*
X125730300Y-123101300D01*
X126378000Y-123101300D01*
X126378000Y-123749000D01*
X127013000Y-123749000D01*
X127013000Y-123101300D01*
X127660700Y-123101300D01*
X127660700Y-123749000D01*
X128308400Y-123749000D01*
X128308400Y-123101300D01*
X128943400Y-123101300D01*
X128943400Y-123416683D01*
X128943727Y-123503741D01*
X128944648Y-123582272D01*
X128946070Y-123648740D01*
X128947901Y-123699611D01*
X128950049Y-123731349D01*
X128951866Y-123740533D01*
X128966397Y-123742861D01*
X129002792Y-123744945D01*
X129057516Y-123746691D01*
X129127035Y-123748007D01*
X129207813Y-123748802D01*
X129275716Y-123749000D01*
X129591100Y-123749000D01*
X129591100Y-123101300D01*
X130238800Y-123101300D01*
X130238800Y-123749000D01*
X130886500Y-123749000D01*
X130886500Y-123101300D01*
X131521500Y-123101300D01*
X131521500Y-123416683D01*
X131521827Y-123503741D01*
X131522748Y-123582272D01*
X131524170Y-123648740D01*
X131526001Y-123699611D01*
X131528149Y-123731349D01*
X131529966Y-123740533D01*
X131544497Y-123742861D01*
X131580892Y-123744945D01*
X131635616Y-123746691D01*
X131705135Y-123748007D01*
X131785913Y-123748802D01*
X131853816Y-123749000D01*
X132169200Y-123749000D01*
X132169200Y-123101300D01*
X132816900Y-123101300D01*
X132816900Y-123749000D01*
X133464600Y-123749000D01*
X133464600Y-123101300D01*
X134099600Y-123101300D01*
X134099600Y-123749000D01*
X135064800Y-123749000D01*
X135064800Y-123101300D01*
X134099600Y-123101300D01*
X133464600Y-123101300D01*
X132816900Y-123101300D01*
X132169200Y-123101300D01*
X131521500Y-123101300D01*
X130886500Y-123101300D01*
X130238800Y-123101300D01*
X129591100Y-123101300D01*
X128943400Y-123101300D01*
X128308400Y-123101300D01*
X127660700Y-123101300D01*
X127013000Y-123101300D01*
X126378000Y-123101300D01*
X125730300Y-123101300D01*
X125082600Y-123101300D01*
X124434900Y-123101300D01*
X123469700Y-123101300D01*
X123469700Y-122453600D01*
X124536500Y-122453600D01*
X124536500Y-120523200D01*
X125171500Y-120523200D01*
X125171500Y-122453600D01*
X125819200Y-122453600D01*
X125819200Y-121170900D01*
X127114600Y-121170900D01*
X127114600Y-122453600D01*
X128168700Y-122453600D01*
X128168700Y-121805900D01*
X128816400Y-121805900D01*
X128816400Y-122453600D01*
X130099100Y-122453600D01*
X130099100Y-121805900D01*
X128816400Y-121805900D01*
X128168700Y-121805900D01*
X128168700Y-121170900D01*
X130746800Y-121170900D01*
X130746800Y-122453600D01*
X131623100Y-122453600D01*
X131623100Y-121170900D01*
X132905800Y-121170900D01*
X132905800Y-122453600D01*
X133553500Y-122453600D01*
X133553500Y-120523200D01*
X125171500Y-120523200D01*
X124536500Y-120523200D01*
X122821767Y-120523200D01*
X122825058Y-119878675D01*
X122828350Y-119234150D01*
X123149025Y-119230756D01*
X123469700Y-119227363D01*
X123469700Y-119875500D01*
X124117400Y-119875500D01*
X124117400Y-119227363D01*
X124438075Y-119230756D01*
X124758750Y-119234150D01*
X124765536Y-119875500D01*
X125819200Y-119875500D01*
X125819200Y-118592800D01*
X126466900Y-118592800D01*
X126466900Y-119875500D01*
X127114600Y-119875500D01*
X127114600Y-118592800D01*
X127749600Y-118592800D01*
X127749600Y-119875500D01*
X128397300Y-119875500D01*
X128397300Y-118592800D01*
X129045000Y-118592800D01*
X129045000Y-119875500D01*
X129692700Y-119875500D01*
X129692700Y-118592800D01*
X130327700Y-118592800D01*
X130327700Y-119875500D01*
X130975400Y-119875500D01*
X130975400Y-118592800D01*
X131623100Y-118592800D01*
X131623100Y-119875500D01*
X132270800Y-119875500D01*
X132270800Y-118592800D01*
X132905800Y-118592800D01*
X132905800Y-119875500D01*
X133782100Y-119875500D01*
X133782100Y-119227800D01*
X133134400Y-119227800D01*
X133134400Y-118592800D01*
X132905800Y-118592800D01*
X132270800Y-118592800D01*
X131623100Y-118592800D01*
X130975400Y-118592800D01*
X130327700Y-118592800D01*
X129692700Y-118592800D01*
X129045000Y-118592800D01*
X128397300Y-118592800D01*
X127749600Y-118592800D01*
X127114600Y-118592800D01*
X126466900Y-118592800D01*
X125819200Y-118592800D01*
X125400100Y-118592800D01*
X125400100Y-117945100D01*
X126047800Y-117945100D01*
X132499836Y-117945100D01*
X132493050Y-117303750D01*
X126047800Y-117297350D01*
X126047800Y-117945100D01*
X125400100Y-117945100D01*
X125400100Y-117297400D01*
X124765100Y-117297400D01*
X124765100Y-116662400D01*
X124117400Y-116662400D01*
X124117400Y-116014700D01*
X125399663Y-116014700D01*
X125403056Y-116335375D01*
X125406450Y-116656050D01*
X129270425Y-116659245D01*
X133134400Y-116662441D01*
X133134400Y-116014700D01*
X134430236Y-116014700D01*
X134423450Y-116656050D01*
X133782100Y-116662836D01*
X133782100Y-117297400D01*
X133134400Y-117297400D01*
X133134400Y-118592800D01*
X133782100Y-118592800D01*
X133782100Y-119227363D01*
X134102775Y-119230756D01*
X134423450Y-119234150D01*
X134430236Y-119875500D01*
X135064363Y-119875500D01*
X135067756Y-119554825D01*
X135071150Y-119234150D01*
X135391825Y-119230756D01*
X135712500Y-119227363D01*
X135712500Y-120523200D01*
X134201200Y-120523200D01*
X134201200Y-122453600D01*
X135064800Y-122453600D01*
X135064800Y-123101300D01*
X135712500Y-123101300D01*
G36*
X166230600Y-128892500D02*
X165582900Y-128892500D01*
X165582900Y-128244800D01*
X166230600Y-128244800D01*
X166230600Y-128892500D01*
X166230600Y-128892500D01*
G37*
X166230600Y-128892500D02*
X165582900Y-128892500D01*
X165582900Y-128244800D01*
X166230600Y-128244800D01*
X166230600Y-128892500D01*
G36*
X169989800Y-127749500D02*
X171945600Y-127749500D01*
X171945600Y-127101800D01*
X172593300Y-127101800D01*
X172593300Y-127749500D01*
X174549100Y-127749500D01*
X174549100Y-128397200D01*
X167373600Y-128397200D01*
X167373600Y-127749500D01*
X169329400Y-127749500D01*
X169329400Y-127101800D01*
X169989800Y-127101800D01*
X169989800Y-127749500D01*
X169989800Y-127749500D01*
G37*
X169989800Y-127749500D02*
X171945600Y-127749500D01*
X171945600Y-127101800D01*
X172593300Y-127101800D01*
X172593300Y-127749500D01*
X174549100Y-127749500D01*
X174549100Y-128397200D01*
X167373600Y-128397200D01*
X167373600Y-127749500D01*
X169329400Y-127749500D01*
X169329400Y-127101800D01*
X169989800Y-127101800D01*
X169989800Y-127749500D01*
G36*
X175196800Y-127749500D02*
X174549100Y-127749500D01*
X174549100Y-127101800D01*
X175196800Y-127101800D01*
X175196800Y-127749500D01*
X175196800Y-127749500D01*
G37*
X175196800Y-127749500D02*
X174549100Y-127749500D01*
X174549100Y-127101800D01*
X175196800Y-127101800D01*
X175196800Y-127749500D01*
G36*
X167700625Y-126444360D02*
X168027650Y-126447750D01*
X168027650Y-127095450D01*
X167373600Y-127102228D01*
X167373600Y-127749500D01*
X166725900Y-127749500D01*
X166725900Y-127101800D01*
X167373600Y-127101800D01*
X167373600Y-126440971D01*
X167700625Y-126444360D01*
X167700625Y-126444360D01*
G37*
X167700625Y-126444360D02*
X168027650Y-126447750D01*
X168027650Y-127095450D01*
X167373600Y-127102228D01*
X167373600Y-127749500D01*
X166725900Y-127749500D01*
X166725900Y-127101800D01*
X167373600Y-127101800D01*
X167373600Y-126440971D01*
X167700625Y-126444360D01*
G36*
X174549100Y-127101800D02*
X173901400Y-127101800D01*
X173901400Y-126441400D01*
X174549100Y-126441400D01*
X174549100Y-127101800D01*
X174549100Y-127101800D01*
G37*
X174549100Y-127101800D02*
X173901400Y-127101800D01*
X173901400Y-126441400D01*
X174549100Y-126441400D01*
X174549100Y-127101800D01*
G36*
X167373600Y-122529371D02*
X167700625Y-122532760D01*
X168027650Y-122536150D01*
X168027650Y-123831550D01*
X167373600Y-123838328D01*
X167373600Y-122529800D01*
X166725900Y-122529800D01*
X166725900Y-119265900D01*
X167373600Y-119265900D01*
X167373600Y-122529371D01*
X167373600Y-122529371D01*
G37*
X167373600Y-122529371D02*
X167700625Y-122532760D01*
X168027650Y-122536150D01*
X168027650Y-123831550D01*
X167373600Y-123838328D01*
X167373600Y-122529800D01*
X166725900Y-122529800D01*
X166725900Y-119265900D01*
X167373600Y-119265900D01*
X167373600Y-122529371D01*
G36*
X169329400Y-123837900D02*
X168681700Y-123837900D01*
X168681700Y-123190200D01*
X169329400Y-123190200D01*
X169329400Y-123837900D01*
X169329400Y-123837900D01*
G37*
X169329400Y-123837900D02*
X168681700Y-123837900D01*
X168681700Y-123190200D01*
X169329400Y-123190200D01*
X169329400Y-123837900D01*
G36*
X174549100Y-123837900D02*
X173901400Y-123837900D01*
X173901400Y-122529800D01*
X174549100Y-122529800D01*
X174549100Y-123837900D01*
X174549100Y-123837900D01*
G37*
X174549100Y-123837900D02*
X173901400Y-123837900D01*
X173901400Y-122529800D01*
X174549100Y-122529800D01*
X174549100Y-123837900D01*
G36*
X175196800Y-122529800D02*
X174549100Y-122529800D01*
X174549100Y-119926300D01*
X175196800Y-119926300D01*
X175196800Y-122529800D01*
X175196800Y-122529800D01*
G37*
X175196800Y-122529800D02*
X174549100Y-122529800D01*
X174549100Y-119926300D01*
X175196800Y-119926300D01*
X175196800Y-122529800D01*
G36*
X171945600Y-120574000D02*
X169989800Y-120574000D01*
X169989800Y-119926300D01*
X171945600Y-119926300D01*
X171945600Y-120574000D01*
X171945600Y-120574000D01*
G37*
X171945600Y-120574000D02*
X169989800Y-120574000D01*
X169989800Y-119926300D01*
X171945600Y-119926300D01*
X171945600Y-120574000D01*
G36*
X172920325Y-117310405D02*
X173034846Y-117310634D01*
X173164700Y-117311094D01*
X173300203Y-117311739D01*
X173431674Y-117312521D01*
X173549430Y-117313393D01*
X173571200Y-117313580D01*
X173895050Y-117316450D01*
X173901828Y-117970500D01*
X174549100Y-117970500D01*
X174549100Y-119926300D01*
X173901400Y-119926300D01*
X173901400Y-117970500D01*
X172593300Y-117970500D01*
X172593300Y-117310100D01*
X172920325Y-117310405D01*
X172920325Y-117310405D01*
G37*
X172920325Y-117310405D02*
X173034846Y-117310634D01*
X173164700Y-117311094D01*
X173300203Y-117311739D01*
X173431674Y-117312521D01*
X173549430Y-117313393D01*
X173571200Y-117313580D01*
X173895050Y-117316450D01*
X173901828Y-117970500D01*
X174549100Y-117970500D01*
X174549100Y-119926300D01*
X173901400Y-119926300D01*
X173901400Y-117970500D01*
X172593300Y-117970500D01*
X172593300Y-117310100D01*
X172920325Y-117310405D01*
G36*
X168033597Y-118297525D02*
X168033512Y-118411725D01*
X168033510Y-118540961D01*
X168033583Y-118675636D01*
X168033727Y-118806155D01*
X168033935Y-118922925D01*
X168033987Y-118945225D01*
X168034780Y-119265900D01*
X167373600Y-119265900D01*
X167373600Y-117970500D01*
X168034000Y-117970500D01*
X168033597Y-118297525D01*
X168033597Y-118297525D01*
G37*
X168033597Y-118297525D02*
X168033512Y-118411725D01*
X168033510Y-118540961D01*
X168033583Y-118675636D01*
X168033727Y-118806155D01*
X168033935Y-118922925D01*
X168033987Y-118945225D01*
X168034780Y-119265900D01*
X167373600Y-119265900D01*
X167373600Y-117970500D01*
X168034000Y-117970500D01*
X168033597Y-118297525D01*
G36*
X169329400Y-117970500D02*
X168034000Y-117970500D01*
X168034000Y-117310100D01*
X169329400Y-117310100D01*
X169329400Y-117970500D01*
X169329400Y-117970500D01*
G37*
X169329400Y-117970500D02*
X168034000Y-117970500D01*
X168034000Y-117310100D01*
X169329400Y-117310100D01*
X169329400Y-117970500D01*
G36*
X172593300Y-117310100D02*
X169329400Y-117310100D01*
X169329400Y-116662400D01*
X172593300Y-116662400D01*
X172593300Y-117310100D01*
X172593300Y-117310100D01*
G37*
X172593300Y-117310100D02*
X169329400Y-117310100D01*
X169329400Y-116662400D01*
X172593300Y-116662400D01*
X172593300Y-117310100D01*
G36*
X173241000Y-123190200D02*
X173241000Y-123837900D01*
X173901400Y-123837900D01*
X173901400Y-126441400D01*
X171946028Y-126441400D01*
X171939250Y-127095450D01*
X171291550Y-127095450D01*
X171288160Y-126768425D01*
X171284771Y-126441400D01*
X170637500Y-126441400D01*
X170637500Y-127101800D01*
X169989800Y-127101800D01*
X169989800Y-126441400D01*
X168034000Y-126441400D01*
X168034000Y-123837900D01*
X168681700Y-123837900D01*
X168681700Y-125793700D01*
X169989800Y-125793700D01*
X169989800Y-125146000D01*
X170637500Y-125146000D01*
X170637500Y-125793700D01*
X171285200Y-125793700D01*
X171285200Y-125146000D01*
X170637500Y-125146000D01*
X170637500Y-124485600D01*
X169989800Y-124485600D01*
X169989800Y-123190628D01*
X169948500Y-123190200D01*
X170637500Y-123190200D01*
X170637500Y-124485600D01*
X171285200Y-124485600D01*
X171285200Y-125146000D01*
X171945600Y-125146000D01*
X171945600Y-125793700D01*
X173241000Y-125793700D01*
X173241000Y-123837900D01*
X172593300Y-123837900D01*
X172593300Y-123190200D01*
X171945600Y-123190200D01*
X171945600Y-124485600D01*
X171285200Y-124485600D01*
X171285200Y-123190200D01*
X170637500Y-123190200D01*
X169948500Y-123190200D01*
X169335750Y-123183850D01*
X169329280Y-120573570D01*
X169983450Y-120580350D01*
X169990228Y-121234400D01*
X170637500Y-121234400D01*
X170637500Y-121882100D01*
X169989800Y-121882100D01*
X169989800Y-122529800D01*
X171945600Y-122529800D01*
X171945600Y-121882100D01*
X171285200Y-121882100D01*
X171285200Y-121234828D01*
X171939250Y-121228050D01*
X171946028Y-120574000D01*
X172593300Y-120574000D01*
X172593300Y-123190200D01*
X173241000Y-123190200D01*
X173241000Y-123190200D01*
G37*
X173241000Y-123190200D02*
X173241000Y-123837900D01*
X173901400Y-123837900D01*
X173901400Y-126441400D01*
X171946028Y-126441400D01*
X171939250Y-127095450D01*
X171291550Y-127095450D01*
X171288160Y-126768425D01*
X171284771Y-126441400D01*
X170637500Y-126441400D01*
X170637500Y-127101800D01*
X169989800Y-127101800D01*
X169989800Y-126441400D01*
X168034000Y-126441400D01*
X168034000Y-123837900D01*
X168681700Y-123837900D01*
X168681700Y-125793700D01*
X169989800Y-125793700D01*
X169989800Y-125146000D01*
X170637500Y-125146000D01*
X170637500Y-125793700D01*
X171285200Y-125793700D01*
X171285200Y-125146000D01*
X170637500Y-125146000D01*
X170637500Y-124485600D01*
X169989800Y-124485600D01*
X169989800Y-123190628D01*
X169948500Y-123190200D01*
X170637500Y-123190200D01*
X170637500Y-124485600D01*
X171285200Y-124485600D01*
X171285200Y-125146000D01*
X171945600Y-125146000D01*
X171945600Y-125793700D01*
X173241000Y-125793700D01*
X173241000Y-123837900D01*
X172593300Y-123837900D01*
X172593300Y-123190200D01*
X171945600Y-123190200D01*
X171945600Y-124485600D01*
X171285200Y-124485600D01*
X171285200Y-123190200D01*
X170637500Y-123190200D01*
X169948500Y-123190200D01*
X169335750Y-123183850D01*
X169329280Y-120573570D01*
X169983450Y-120580350D01*
X169990228Y-121234400D01*
X170637500Y-121234400D01*
X170637500Y-121882100D01*
X169989800Y-121882100D01*
X169989800Y-122529800D01*
X171945600Y-122529800D01*
X171945600Y-121882100D01*
X171285200Y-121882100D01*
X171285200Y-121234828D01*
X171939250Y-121228050D01*
X171946028Y-120574000D01*
X172593300Y-120574000D01*
X172593300Y-123190200D01*
X173241000Y-123190200D01*
G36*
X169656425Y-124488560D02*
X169983450Y-124491950D01*
X169983450Y-125139650D01*
X169665104Y-125143038D01*
X169577617Y-125143632D01*
X169498632Y-125143527D01*
X169431667Y-125142779D01*
X169380243Y-125141444D01*
X169347880Y-125139580D01*
X169338079Y-125137746D01*
X169335716Y-125123174D01*
X169333597Y-125086702D01*
X169331815Y-125031829D01*
X169330462Y-124962054D01*
X169329629Y-124880878D01*
X169329400Y-124807118D01*
X169329400Y-124485171D01*
X169656425Y-124488560D01*
X169656425Y-124488560D01*
G37*
X169656425Y-124488560D02*
X169983450Y-124491950D01*
X169983450Y-125139650D01*
X169665104Y-125143038D01*
X169577617Y-125143632D01*
X169498632Y-125143527D01*
X169431667Y-125142779D01*
X169380243Y-125141444D01*
X169347880Y-125139580D01*
X169338079Y-125137746D01*
X169335716Y-125123174D01*
X169333597Y-125086702D01*
X169331815Y-125031829D01*
X169330462Y-124962054D01*
X169329629Y-124880878D01*
X169329400Y-124807118D01*
X169329400Y-124485171D01*
X169656425Y-124488560D01*
G36*
X165824200Y-117310100D02*
X165176500Y-117310100D01*
X165176500Y-116662400D01*
X165824200Y-116662400D01*
X165824200Y-117310100D01*
X165824200Y-117310100D01*
G37*
X165824200Y-117310100D02*
X165176500Y-117310100D01*
X165176500Y-116662400D01*
X165824200Y-116662400D01*
X165824200Y-117310100D01*
G36*
X165176500Y-116662400D02*
X164516100Y-116662400D01*
X164516100Y-116014700D01*
X165176500Y-116014700D01*
X165176500Y-116662400D01*
X165176500Y-116662400D01*
G37*
X165176500Y-116662400D02*
X164516100Y-116662400D01*
X164516100Y-116014700D01*
X165176500Y-116014700D01*
X165176500Y-116662400D01*
G36*
X177152600Y-117310100D02*
X176504900Y-117310100D01*
X176504900Y-116662400D01*
X177152600Y-116662400D01*
X177152600Y-117310100D01*
X177152600Y-117310100D01*
G37*
X177152600Y-117310100D02*
X176504900Y-117310100D01*
X176504900Y-116662400D01*
X177152600Y-116662400D01*
X177152600Y-117310100D01*
G36*
X177813000Y-116662400D02*
X177152600Y-116662400D01*
X177152600Y-116014700D01*
X177813000Y-116014700D01*
X177813000Y-116662400D01*
X177813000Y-116662400D01*
G37*
X177813000Y-116662400D02*
X177152600Y-116662400D01*
X177152600Y-116014700D01*
X177813000Y-116014700D01*
X177813000Y-116662400D01*
G36*
X106858100Y-114643100D02*
X105092800Y-114643100D01*
X105092800Y-114287500D01*
X106858100Y-114287500D01*
X106858100Y-114643100D01*
X106858100Y-114643100D01*
G37*
X106858100Y-114643100D02*
X105092800Y-114643100D01*
X105092800Y-114287500D01*
X106858100Y-114287500D01*
X106858100Y-114643100D01*
G36*
X194653200Y-114643100D02*
X192875200Y-114643100D01*
X192875200Y-114287500D01*
X194653200Y-114287500D01*
X194653200Y-114643100D01*
X194653200Y-114643100D01*
G37*
X194653200Y-114643100D02*
X192875200Y-114643100D01*
X192875200Y-114287500D01*
X194653200Y-114287500D01*
X194653200Y-114643100D01*
G36*
X106070700Y-111836400D02*
X106781900Y-111836400D01*
X106781900Y-112204700D01*
X106070700Y-112204700D01*
X106070700Y-112915900D01*
X105701232Y-112915900D01*
X105702433Y-112734925D01*
X105702860Y-112648225D01*
X105703108Y-112550224D01*
X105703157Y-112453631D01*
X105703016Y-112379325D01*
X105702400Y-112204700D01*
X105015902Y-112204700D01*
X105022950Y-111842750D01*
X105362675Y-111839367D01*
X105702400Y-111835985D01*
X105703016Y-111661567D01*
X105703162Y-111576968D01*
X105703090Y-111479666D01*
X105702821Y-111382358D01*
X105702433Y-111306175D01*
X105701232Y-111125200D01*
X106070700Y-111125200D01*
X106070700Y-111836400D01*
X106070700Y-111836400D01*
G37*
X106070700Y-111836400D02*
X106781900Y-111836400D01*
X106781900Y-112204700D01*
X106070700Y-112204700D01*
X106070700Y-112915900D01*
X105701232Y-112915900D01*
X105702433Y-112734925D01*
X105702860Y-112648225D01*
X105703108Y-112550224D01*
X105703157Y-112453631D01*
X105703016Y-112379325D01*
X105702400Y-112204700D01*
X105015902Y-112204700D01*
X105022950Y-111842750D01*
X105362675Y-111839367D01*
X105702400Y-111835985D01*
X105703016Y-111661567D01*
X105703162Y-111576968D01*
X105703090Y-111479666D01*
X105702821Y-111382358D01*
X105702433Y-111306175D01*
X105701232Y-111125200D01*
X106070700Y-111125200D01*
X106070700Y-111836400D01*
G36*
X194030866Y-111306175D02*
X194030439Y-111392874D01*
X194030191Y-111490875D01*
X194030142Y-111587468D01*
X194030283Y-111661775D01*
X194030900Y-111836400D01*
X194716700Y-111836400D01*
X194716700Y-112204700D01*
X194030900Y-112204700D01*
X194030900Y-112915900D01*
X193662600Y-112915900D01*
X193662600Y-112204700D01*
X192951400Y-112204700D01*
X192951400Y-111836400D01*
X193662600Y-111836400D01*
X193663216Y-111661775D01*
X193663362Y-111577077D01*
X193663290Y-111479691D01*
X193663020Y-111382327D01*
X193662633Y-111306175D01*
X193661432Y-111125200D01*
X194032067Y-111125200D01*
X194030866Y-111306175D01*
X194030866Y-111306175D01*
G37*
X194030866Y-111306175D02*
X194030439Y-111392874D01*
X194030191Y-111490875D01*
X194030142Y-111587468D01*
X194030283Y-111661775D01*
X194030900Y-111836400D01*
X194716700Y-111836400D01*
X194716700Y-112204700D01*
X194030900Y-112204700D01*
X194030900Y-112915900D01*
X193662600Y-112915900D01*
X193662600Y-112204700D01*
X192951400Y-112204700D01*
X192951400Y-111836400D01*
X193662600Y-111836400D01*
X193663216Y-111661775D01*
X193663362Y-111577077D01*
X193663290Y-111479691D01*
X193663020Y-111382327D01*
X193662633Y-111306175D01*
X193661432Y-111125200D01*
X194032067Y-111125200D01*
X194030866Y-111306175D01*
G36*
X178127042Y-94205954D02*
X178345541Y-94262391D01*
X178551087Y-94340392D01*
X178743181Y-94439702D01*
X178921323Y-94560065D01*
X179072670Y-94689371D01*
X179222261Y-94846593D01*
X179349857Y-95013272D01*
X179456558Y-95191435D01*
X179543465Y-95383110D01*
X179611678Y-95590326D01*
X179650769Y-95754875D01*
X179652340Y-95763412D01*
X179653838Y-95773576D01*
X179655264Y-95785979D01*
X179656621Y-95801227D01*
X179657911Y-95819931D01*
X179659136Y-95842698D01*
X179660298Y-95870139D01*
X179661400Y-95902861D01*
X179662443Y-95941475D01*
X179663429Y-95986588D01*
X179664361Y-96038810D01*
X179665241Y-96098749D01*
X179666070Y-96167015D01*
X179666852Y-96244216D01*
X179667587Y-96330961D01*
X179668279Y-96427860D01*
X179668928Y-96535521D01*
X179669538Y-96654553D01*
X179670110Y-96785565D01*
X179670647Y-96929166D01*
X179671151Y-97085965D01*
X179671623Y-97256570D01*
X179672066Y-97441591D01*
X179672482Y-97641637D01*
X179672873Y-97857316D01*
X179673241Y-98089238D01*
X179673588Y-98338010D01*
X179673916Y-98604244D01*
X179674228Y-98888546D01*
X179674526Y-99191526D01*
X179674811Y-99513793D01*
X179675086Y-99855956D01*
X179675353Y-100218624D01*
X179675613Y-100602406D01*
X179675870Y-101007910D01*
X179676125Y-101435746D01*
X179676380Y-101886523D01*
X179676637Y-102360848D01*
X179676899Y-102859332D01*
X179677167Y-103382584D01*
X179677178Y-103403600D01*
X179677458Y-103988616D01*
X179677689Y-104548478D01*
X179677872Y-105083431D01*
X179678005Y-105593721D01*
X179678090Y-106079592D01*
X179678125Y-106541291D01*
X179678110Y-106979064D01*
X179678045Y-107393154D01*
X179677930Y-107783809D01*
X179677764Y-108151274D01*
X179677546Y-108495793D01*
X179677278Y-108817614D01*
X179676957Y-109116980D01*
X179676585Y-109394138D01*
X179676160Y-109649332D01*
X179675683Y-109882810D01*
X179675153Y-110094816D01*
X179674569Y-110285595D01*
X179673932Y-110455393D01*
X179673241Y-110604456D01*
X179672496Y-110733029D01*
X179671696Y-110841357D01*
X179670841Y-110929687D01*
X179669932Y-110998263D01*
X179668967Y-111047332D01*
X179667946Y-111077138D01*
X179667449Y-111084543D01*
X179647715Y-111243974D01*
X179619069Y-111387692D01*
X179579087Y-111524541D01*
X179525346Y-111663363D01*
X179483650Y-111755148D01*
X179379064Y-111945857D01*
X179254650Y-112121594D01*
X179111914Y-112281026D01*
X178952364Y-112422821D01*
X178777507Y-112545643D01*
X178588850Y-112648160D01*
X178387900Y-112729039D01*
X178380071Y-112731657D01*
X178256458Y-112769092D01*
X178138991Y-112796281D01*
X178016820Y-112815370D01*
X177897176Y-112827142D01*
X177879604Y-112827523D01*
X177837078Y-112827897D01*
X177770041Y-112828264D01*
X177678939Y-112828623D01*
X177564217Y-112828976D01*
X177426319Y-112829321D01*
X177265690Y-112829659D01*
X177082774Y-112829990D01*
X176878017Y-112830314D01*
X176651862Y-112830631D01*
X176404755Y-112830940D01*
X176137140Y-112831243D01*
X175849463Y-112831538D01*
X175542167Y-112831826D01*
X175215697Y-112832108D01*
X174870498Y-112832382D01*
X174507016Y-112832649D01*
X174125693Y-112832909D01*
X173726976Y-112833162D01*
X173311308Y-112833407D01*
X172879136Y-112833646D01*
X172430902Y-112833878D01*
X171967052Y-112834103D01*
X171488031Y-112834321D01*
X170994283Y-112834531D01*
X170486253Y-112834735D01*
X169964386Y-112834932D01*
X169429126Y-112835122D01*
X168880918Y-112835304D01*
X168320207Y-112835480D01*
X167747437Y-112835649D01*
X167163053Y-112835811D01*
X166567501Y-112835966D01*
X165961223Y-112836114D01*
X165344666Y-112836255D01*
X164718274Y-112836389D01*
X164082492Y-112836517D01*
X163437763Y-112836637D01*
X162784534Y-112836751D01*
X162123248Y-112836857D01*
X161454351Y-112836957D01*
X160778287Y-112837050D01*
X160095500Y-112837136D01*
X159406436Y-112837215D01*
X158711539Y-112837287D01*
X158011254Y-112837353D01*
X157306026Y-112837412D01*
X156596298Y-112837463D01*
X155882516Y-112837508D01*
X155165126Y-112837547D01*
X154444570Y-112837578D01*
X153721294Y-112837603D01*
X152995743Y-112837620D01*
X152268361Y-112837632D01*
X151539593Y-112837636D01*
X150809885Y-112837633D01*
X150079679Y-112837624D01*
X149349422Y-112837608D01*
X148619557Y-112837586D01*
X147890530Y-112837556D01*
X147162785Y-112837520D01*
X146436767Y-112837477D01*
X145712920Y-112837428D01*
X144991690Y-112837372D01*
X144273521Y-112837309D01*
X143558857Y-112837239D01*
X142848144Y-112837163D01*
X142141825Y-112837080D01*
X141440347Y-112836991D01*
X140744153Y-112836895D01*
X140053688Y-112836792D01*
X139369397Y-112836682D01*
X138691724Y-112836566D01*
X138021114Y-112836444D01*
X137358013Y-112836314D01*
X136702863Y-112836179D01*
X136056112Y-112836036D01*
X135418202Y-112835887D01*
X134789578Y-112835732D01*
X134170686Y-112835569D01*
X133561971Y-112835401D01*
X132963875Y-112835226D01*
X132376846Y-112835044D01*
X131801326Y-112834856D01*
X131237761Y-112834661D01*
X130686596Y-112834459D01*
X130148274Y-112834252D01*
X129623242Y-112834037D01*
X129111943Y-112833816D01*
X128614822Y-112833589D01*
X128132325Y-112833355D01*
X127664895Y-112833115D01*
X127212977Y-112832869D01*
X126777016Y-112832615D01*
X126357458Y-112832356D01*
X125954745Y-112832090D01*
X125569324Y-112831818D01*
X125201638Y-112831539D01*
X124852133Y-112831253D01*
X124521253Y-112830962D01*
X124209442Y-112830664D01*
X123917147Y-112830359D01*
X123644810Y-112830049D01*
X123392878Y-112829732D01*
X123161794Y-112829408D01*
X122952004Y-112829078D01*
X122763951Y-112828742D01*
X122598081Y-112828400D01*
X122454839Y-112828051D01*
X122334669Y-112827696D01*
X122238015Y-112827334D01*
X122165323Y-112826966D01*
X122117037Y-112826592D01*
X122093602Y-112826212D01*
X122091750Y-112826122D01*
X121877443Y-112796806D01*
X121668176Y-112743466D01*
X121466418Y-112667181D01*
X121274638Y-112569031D01*
X121095306Y-112450097D01*
X120944805Y-112324521D01*
X120792314Y-112166068D01*
X120660899Y-111993576D01*
X120550483Y-111806902D01*
X120460988Y-111605904D01*
X120392334Y-111390437D01*
X120361988Y-111258550D01*
X120360410Y-111249941D01*
X120358907Y-111239880D01*
X120357476Y-111227760D01*
X120356116Y-111212977D01*
X120354824Y-111194924D01*
X120353600Y-111172996D01*
X120352441Y-111146588D01*
X120351346Y-111115094D01*
X120350312Y-111077909D01*
X120349338Y-111034427D01*
X120348422Y-110984043D01*
X120347563Y-110926151D01*
X120346759Y-110860146D01*
X120346007Y-110785422D01*
X120345306Y-110701374D01*
X120344654Y-110607396D01*
X120344050Y-110502884D01*
X120343492Y-110387230D01*
X120342977Y-110259831D01*
X120342504Y-110120079D01*
X120342072Y-109967371D01*
X120341679Y-109801101D01*
X120341322Y-109620662D01*
X120341000Y-109425450D01*
X120340711Y-109214858D01*
X120340454Y-108988283D01*
X120340226Y-108745117D01*
X120340026Y-108484756D01*
X120339852Y-108206594D01*
X120339703Y-107910025D01*
X120339576Y-107594445D01*
X120339470Y-107259248D01*
X120339382Y-106903827D01*
X120339312Y-106527578D01*
X120339257Y-106129896D01*
X120339216Y-105710174D01*
X120339186Y-105267808D01*
X120339166Y-104802191D01*
X120339155Y-104312718D01*
X120339150Y-103798785D01*
X120339150Y-95916950D01*
X121139250Y-95916950D01*
X121139250Y-103498850D01*
X121139252Y-104024627D01*
X121139260Y-104525611D01*
X121139276Y-105002406D01*
X121139301Y-105455618D01*
X121139338Y-105885853D01*
X121139388Y-106293716D01*
X121139452Y-106679814D01*
X121139533Y-107044752D01*
X121139632Y-107389135D01*
X121139751Y-107713570D01*
X121139892Y-108018662D01*
X121140057Y-108305017D01*
X121140247Y-108573241D01*
X121140464Y-108823939D01*
X121140710Y-109057716D01*
X121140987Y-109275180D01*
X121141297Y-109476935D01*
X121141641Y-109663587D01*
X121142020Y-109835742D01*
X121142438Y-109994005D01*
X121142895Y-110138983D01*
X121143393Y-110271281D01*
X121143935Y-110391504D01*
X121144521Y-110500259D01*
X121145154Y-110598151D01*
X121145836Y-110685786D01*
X121146568Y-110763769D01*
X121147352Y-110832707D01*
X121148189Y-110893204D01*
X121149082Y-110945868D01*
X121150033Y-110991302D01*
X121151042Y-111030114D01*
X121152112Y-111062909D01*
X121153245Y-111090292D01*
X121154443Y-111112870D01*
X121155706Y-111131248D01*
X121157037Y-111146031D01*
X121158439Y-111157826D01*
X121159911Y-111167237D01*
X121161457Y-111174872D01*
X121161719Y-111176000D01*
X121211355Y-111333253D01*
X121282345Y-111479109D01*
X121372708Y-111611797D01*
X121480467Y-111729547D01*
X121603642Y-111830589D01*
X121740255Y-111913151D01*
X121888326Y-111975464D01*
X122045876Y-112015757D01*
X122111065Y-112025307D01*
X122127430Y-112025737D01*
X122168751Y-112026159D01*
X122234583Y-112026574D01*
X122324482Y-112026982D01*
X122438003Y-112027383D01*
X122574703Y-112027777D01*
X122734138Y-112028164D01*
X122915861Y-112028543D01*
X123119431Y-112028916D01*
X123344401Y-112029281D01*
X123590328Y-112029639D01*
X123856768Y-112029990D01*
X124143276Y-112030334D01*
X124449407Y-112030670D01*
X124774719Y-112031000D01*
X125118765Y-112031322D01*
X125481102Y-112031637D01*
X125861286Y-112031945D01*
X126258872Y-112032245D01*
X126673415Y-112032538D01*
X127104473Y-112032824D01*
X127551599Y-112033103D01*
X128014351Y-112033375D01*
X128492283Y-112033639D01*
X128984952Y-112033896D01*
X129491912Y-112034146D01*
X130012720Y-112034388D01*
X130546931Y-112034623D01*
X131094102Y-112034851D01*
X131653787Y-112035071D01*
X132225542Y-112035284D01*
X132808924Y-112035490D01*
X133403487Y-112035688D01*
X134008787Y-112035879D01*
X134624381Y-112036063D01*
X135249823Y-112036239D01*
X135884670Y-112036408D01*
X136528477Y-112036569D01*
X137180800Y-112036723D01*
X137841194Y-112036870D01*
X138509215Y-112037009D01*
X139184419Y-112037141D01*
X139866362Y-112037265D01*
X140554599Y-112037382D01*
X141248685Y-112037492D01*
X141948177Y-112037594D01*
X142652631Y-112037688D01*
X143361601Y-112037775D01*
X144074644Y-112037855D01*
X144791315Y-112037927D01*
X145511170Y-112037991D01*
X146233765Y-112038048D01*
X146958655Y-112038098D01*
X147685395Y-112038140D01*
X148413543Y-112038174D01*
X149142653Y-112038201D01*
X149872281Y-112038220D01*
X150601982Y-112038232D01*
X151331313Y-112038236D01*
X152059829Y-112038232D01*
X152787085Y-112038221D01*
X153512638Y-112038203D01*
X154236044Y-112038176D01*
X154956856Y-112038143D01*
X155674633Y-112038101D01*
X156388928Y-112038052D01*
X157099298Y-112037995D01*
X157805299Y-112037930D01*
X158506485Y-112037858D01*
X159202414Y-112037779D01*
X159892640Y-112037691D01*
X160576719Y-112037596D01*
X161254207Y-112037493D01*
X161924660Y-112037382D01*
X162587633Y-112037264D01*
X163242682Y-112037138D01*
X163889362Y-112037004D01*
X164527230Y-112036862D01*
X165155840Y-112036713D01*
X165774749Y-112036556D01*
X166383513Y-112036391D01*
X166981686Y-112036219D01*
X167568825Y-112036038D01*
X168144485Y-112035850D01*
X168708222Y-112035654D01*
X169259592Y-112035450D01*
X169798151Y-112035239D01*
X170323453Y-112035019D01*
X170835055Y-112034792D01*
X171332513Y-112034557D01*
X171815381Y-112034314D01*
X172283216Y-112034063D01*
X172735574Y-112033804D01*
X173172010Y-112033537D01*
X173592080Y-112033263D01*
X173995339Y-112032980D01*
X174381343Y-112032690D01*
X174749648Y-112032392D01*
X175099809Y-112032085D01*
X175431383Y-112031771D01*
X175743925Y-112031449D01*
X176036990Y-112031119D01*
X176310134Y-112030781D01*
X176562913Y-112030435D01*
X176794883Y-112030081D01*
X177005599Y-112029719D01*
X177194617Y-112029349D01*
X177361493Y-112028971D01*
X177505782Y-112028585D01*
X177627039Y-112028191D01*
X177724822Y-112027789D01*
X177798685Y-112027379D01*
X177848183Y-112026961D01*
X177872874Y-112026535D01*
X177875433Y-112026400D01*
X177999720Y-112008167D01*
X178111555Y-111978785D01*
X178222249Y-111934889D01*
X178283634Y-111904941D01*
X178423517Y-111819115D01*
X178547019Y-111714767D01*
X178652828Y-111593824D01*
X178739632Y-111458212D01*
X178806118Y-111309858D01*
X178850973Y-111150689D01*
X178867235Y-111048382D01*
X178868285Y-111029948D01*
X178869279Y-110993372D01*
X178870217Y-110938374D01*
X178871101Y-110864673D01*
X178871929Y-110771990D01*
X178872704Y-110660044D01*
X178873424Y-110528555D01*
X178874091Y-110377242D01*
X178874705Y-110205826D01*
X178875265Y-110014026D01*
X178875774Y-109801562D01*
X178876230Y-109568153D01*
X178876634Y-109313520D01*
X178876987Y-109037382D01*
X178877289Y-108739459D01*
X178877540Y-108419471D01*
X178877741Y-108077138D01*
X178877892Y-107712178D01*
X178877994Y-107324313D01*
X178878046Y-106913261D01*
X178878049Y-106478743D01*
X178878004Y-106020479D01*
X178877910Y-105538187D01*
X178877769Y-105031589D01*
X178877581Y-104500402D01*
X178877345Y-103944349D01*
X178877093Y-103422650D01*
X178873273Y-95916950D01*
X178844274Y-95809000D01*
X178788831Y-95648975D01*
X178712855Y-95502098D01*
X178618038Y-95369930D01*
X178506067Y-95254028D01*
X178378634Y-95155952D01*
X178237427Y-95077262D01*
X178084136Y-95019515D01*
X177956611Y-94989902D01*
X177950690Y-94989194D01*
X177941054Y-94988504D01*
X177927397Y-94987831D01*
X177909414Y-94987176D01*
X177886798Y-94986538D01*
X177859243Y-94985917D01*
X177826442Y-94985313D01*
X177788090Y-94984726D01*
X177743881Y-94984155D01*
X177693508Y-94983601D01*
X177636665Y-94983063D01*
X177573045Y-94982541D01*
X177502344Y-94982034D01*
X177424254Y-94981544D01*
X177338469Y-94981069D01*
X177244683Y-94980609D01*
X177142591Y-94980164D01*
X177031885Y-94979735D01*
X176912260Y-94979320D01*
X176783409Y-94978920D01*
X176645027Y-94978534D01*
X176496807Y-94978162D01*
X176338443Y-94977805D01*
X176169628Y-94977461D01*
X175990058Y-94977132D01*
X175799424Y-94976816D01*
X175597422Y-94976513D01*
X175383745Y-94976223D01*
X175158087Y-94975947D01*
X174920142Y-94975683D01*
X174669603Y-94975432D01*
X174406164Y-94975194D01*
X174129520Y-94974968D01*
X173839364Y-94974754D01*
X173535389Y-94974552D01*
X173217291Y-94974362D01*
X172884762Y-94974184D01*
X172537496Y-94974017D01*
X172175187Y-94973861D01*
X171797529Y-94973717D01*
X171404216Y-94973583D01*
X170994942Y-94973461D01*
X170569400Y-94973349D01*
X170127285Y-94973247D01*
X169668289Y-94973155D01*
X169192108Y-94973074D01*
X168698434Y-94973003D01*
X168186962Y-94972941D01*
X167657385Y-94972889D01*
X167109397Y-94972846D01*
X166542693Y-94972812D01*
X165956965Y-94972788D01*
X165351908Y-94972772D01*
X164727216Y-94972765D01*
X164082582Y-94972766D01*
X163417700Y-94972776D01*
X162732264Y-94972794D01*
X162025968Y-94972820D01*
X161298506Y-94972854D01*
X160549571Y-94972895D01*
X159778857Y-94972944D01*
X158986059Y-94973000D01*
X158170869Y-94973063D01*
X157332982Y-94973133D01*
X156472092Y-94973210D01*
X155587893Y-94973293D01*
X154680077Y-94973383D01*
X153748340Y-94973479D01*
X152792374Y-94973581D01*
X151811875Y-94973689D01*
X150806535Y-94973803D01*
X149955550Y-94973901D01*
X122066350Y-94977150D01*
X121964750Y-95005926D01*
X121801770Y-95064539D01*
X121653237Y-95143350D01*
X121520416Y-95241082D01*
X121404574Y-95356457D01*
X121306979Y-95488200D01*
X121228898Y-95635033D01*
X121171597Y-95795680D01*
X121167972Y-95809000D01*
X121139250Y-95916950D01*
X120339150Y-95916950D01*
X120339150Y-95866150D01*
X120368054Y-95723557D01*
X120421656Y-95511611D01*
X120493853Y-95315744D01*
X120586046Y-95133346D01*
X120699630Y-94961805D01*
X120836004Y-94798508D01*
X120897130Y-94735030D01*
X121057864Y-94589167D01*
X121225800Y-94466652D01*
X121403551Y-94366086D01*
X121593727Y-94286073D01*
X121798940Y-94225214D01*
X121885657Y-94205954D01*
X122028250Y-94177050D01*
X177984450Y-94177050D01*
X178127042Y-94205954D01*
X178127042Y-94205954D01*
G37*
X178127042Y-94205954D02*
X178345541Y-94262391D01*
X178551087Y-94340392D01*
X178743181Y-94439702D01*
X178921323Y-94560065D01*
X179072670Y-94689371D01*
X179222261Y-94846593D01*
X179349857Y-95013272D01*
X179456558Y-95191435D01*
X179543465Y-95383110D01*
X179611678Y-95590326D01*
X179650769Y-95754875D01*
X179652340Y-95763412D01*
X179653838Y-95773576D01*
X179655264Y-95785979D01*
X179656621Y-95801227D01*
X179657911Y-95819931D01*
X179659136Y-95842698D01*
X179660298Y-95870139D01*
X179661400Y-95902861D01*
X179662443Y-95941475D01*
X179663429Y-95986588D01*
X179664361Y-96038810D01*
X179665241Y-96098749D01*
X179666070Y-96167015D01*
X179666852Y-96244216D01*
X179667587Y-96330961D01*
X179668279Y-96427860D01*
X179668928Y-96535521D01*
X179669538Y-96654553D01*
X179670110Y-96785565D01*
X179670647Y-96929166D01*
X179671151Y-97085965D01*
X179671623Y-97256570D01*
X179672066Y-97441591D01*
X179672482Y-97641637D01*
X179672873Y-97857316D01*
X179673241Y-98089238D01*
X179673588Y-98338010D01*
X179673916Y-98604244D01*
X179674228Y-98888546D01*
X179674526Y-99191526D01*
X179674811Y-99513793D01*
X179675086Y-99855956D01*
X179675353Y-100218624D01*
X179675613Y-100602406D01*
X179675870Y-101007910D01*
X179676125Y-101435746D01*
X179676380Y-101886523D01*
X179676637Y-102360848D01*
X179676899Y-102859332D01*
X179677167Y-103382584D01*
X179677178Y-103403600D01*
X179677458Y-103988616D01*
X179677689Y-104548478D01*
X179677872Y-105083431D01*
X179678005Y-105593721D01*
X179678090Y-106079592D01*
X179678125Y-106541291D01*
X179678110Y-106979064D01*
X179678045Y-107393154D01*
X179677930Y-107783809D01*
X179677764Y-108151274D01*
X179677546Y-108495793D01*
X179677278Y-108817614D01*
X179676957Y-109116980D01*
X179676585Y-109394138D01*
X179676160Y-109649332D01*
X179675683Y-109882810D01*
X179675153Y-110094816D01*
X179674569Y-110285595D01*
X179673932Y-110455393D01*
X179673241Y-110604456D01*
X179672496Y-110733029D01*
X179671696Y-110841357D01*
X179670841Y-110929687D01*
X179669932Y-110998263D01*
X179668967Y-111047332D01*
X179667946Y-111077138D01*
X179667449Y-111084543D01*
X179647715Y-111243974D01*
X179619069Y-111387692D01*
X179579087Y-111524541D01*
X179525346Y-111663363D01*
X179483650Y-111755148D01*
X179379064Y-111945857D01*
X179254650Y-112121594D01*
X179111914Y-112281026D01*
X178952364Y-112422821D01*
X178777507Y-112545643D01*
X178588850Y-112648160D01*
X178387900Y-112729039D01*
X178380071Y-112731657D01*
X178256458Y-112769092D01*
X178138991Y-112796281D01*
X178016820Y-112815370D01*
X177897176Y-112827142D01*
X177879604Y-112827523D01*
X177837078Y-112827897D01*
X177770041Y-112828264D01*
X177678939Y-112828623D01*
X177564217Y-112828976D01*
X177426319Y-112829321D01*
X177265690Y-112829659D01*
X177082774Y-112829990D01*
X176878017Y-112830314D01*
X176651862Y-112830631D01*
X176404755Y-112830940D01*
X176137140Y-112831243D01*
X175849463Y-112831538D01*
X175542167Y-112831826D01*
X175215697Y-112832108D01*
X174870498Y-112832382D01*
X174507016Y-112832649D01*
X174125693Y-112832909D01*
X173726976Y-112833162D01*
X173311308Y-112833407D01*
X172879136Y-112833646D01*
X172430902Y-112833878D01*
X171967052Y-112834103D01*
X171488031Y-112834321D01*
X170994283Y-112834531D01*
X170486253Y-112834735D01*
X169964386Y-112834932D01*
X169429126Y-112835122D01*
X168880918Y-112835304D01*
X168320207Y-112835480D01*
X167747437Y-112835649D01*
X167163053Y-112835811D01*
X166567501Y-112835966D01*
X165961223Y-112836114D01*
X165344666Y-112836255D01*
X164718274Y-112836389D01*
X164082492Y-112836517D01*
X163437763Y-112836637D01*
X162784534Y-112836751D01*
X162123248Y-112836857D01*
X161454351Y-112836957D01*
X160778287Y-112837050D01*
X160095500Y-112837136D01*
X159406436Y-112837215D01*
X158711539Y-112837287D01*
X158011254Y-112837353D01*
X157306026Y-112837412D01*
X156596298Y-112837463D01*
X155882516Y-112837508D01*
X155165126Y-112837547D01*
X154444570Y-112837578D01*
X153721294Y-112837603D01*
X152995743Y-112837620D01*
X152268361Y-112837632D01*
X151539593Y-112837636D01*
X150809885Y-112837633D01*
X150079679Y-112837624D01*
X149349422Y-112837608D01*
X148619557Y-112837586D01*
X147890530Y-112837556D01*
X147162785Y-112837520D01*
X146436767Y-112837477D01*
X145712920Y-112837428D01*
X144991690Y-112837372D01*
X144273521Y-112837309D01*
X143558857Y-112837239D01*
X142848144Y-112837163D01*
X142141825Y-112837080D01*
X141440347Y-112836991D01*
X140744153Y-112836895D01*
X140053688Y-112836792D01*
X139369397Y-112836682D01*
X138691724Y-112836566D01*
X138021114Y-112836444D01*
X137358013Y-112836314D01*
X136702863Y-112836179D01*
X136056112Y-112836036D01*
X135418202Y-112835887D01*
X134789578Y-112835732D01*
X134170686Y-112835569D01*
X133561971Y-112835401D01*
X132963875Y-112835226D01*
X132376846Y-112835044D01*
X131801326Y-112834856D01*
X131237761Y-112834661D01*
X130686596Y-112834459D01*
X130148274Y-112834252D01*
X129623242Y-112834037D01*
X129111943Y-112833816D01*
X128614822Y-112833589D01*
X128132325Y-112833355D01*
X127664895Y-112833115D01*
X127212977Y-112832869D01*
X126777016Y-112832615D01*
X126357458Y-112832356D01*
X125954745Y-112832090D01*
X125569324Y-112831818D01*
X125201638Y-112831539D01*
X124852133Y-112831253D01*
X124521253Y-112830962D01*
X124209442Y-112830664D01*
X123917147Y-112830359D01*
X123644810Y-112830049D01*
X123392878Y-112829732D01*
X123161794Y-112829408D01*
X122952004Y-112829078D01*
X122763951Y-112828742D01*
X122598081Y-112828400D01*
X122454839Y-112828051D01*
X122334669Y-112827696D01*
X122238015Y-112827334D01*
X122165323Y-112826966D01*
X122117037Y-112826592D01*
X122093602Y-112826212D01*
X122091750Y-112826122D01*
X121877443Y-112796806D01*
X121668176Y-112743466D01*
X121466418Y-112667181D01*
X121274638Y-112569031D01*
X121095306Y-112450097D01*
X120944805Y-112324521D01*
X120792314Y-112166068D01*
X120660899Y-111993576D01*
X120550483Y-111806902D01*
X120460988Y-111605904D01*
X120392334Y-111390437D01*
X120361988Y-111258550D01*
X120360410Y-111249941D01*
X120358907Y-111239880D01*
X120357476Y-111227760D01*
X120356116Y-111212977D01*
X120354824Y-111194924D01*
X120353600Y-111172996D01*
X120352441Y-111146588D01*
X120351346Y-111115094D01*
X120350312Y-111077909D01*
X120349338Y-111034427D01*
X120348422Y-110984043D01*
X120347563Y-110926151D01*
X120346759Y-110860146D01*
X120346007Y-110785422D01*
X120345306Y-110701374D01*
X120344654Y-110607396D01*
X120344050Y-110502884D01*
X120343492Y-110387230D01*
X120342977Y-110259831D01*
X120342504Y-110120079D01*
X120342072Y-109967371D01*
X120341679Y-109801101D01*
X120341322Y-109620662D01*
X120341000Y-109425450D01*
X120340711Y-109214858D01*
X120340454Y-108988283D01*
X120340226Y-108745117D01*
X120340026Y-108484756D01*
X120339852Y-108206594D01*
X120339703Y-107910025D01*
X120339576Y-107594445D01*
X120339470Y-107259248D01*
X120339382Y-106903827D01*
X120339312Y-106527578D01*
X120339257Y-106129896D01*
X120339216Y-105710174D01*
X120339186Y-105267808D01*
X120339166Y-104802191D01*
X120339155Y-104312718D01*
X120339150Y-103798785D01*
X120339150Y-95916950D01*
X121139250Y-95916950D01*
X121139250Y-103498850D01*
X121139252Y-104024627D01*
X121139260Y-104525611D01*
X121139276Y-105002406D01*
X121139301Y-105455618D01*
X121139338Y-105885853D01*
X121139388Y-106293716D01*
X121139452Y-106679814D01*
X121139533Y-107044752D01*
X121139632Y-107389135D01*
X121139751Y-107713570D01*
X121139892Y-108018662D01*
X121140057Y-108305017D01*
X121140247Y-108573241D01*
X121140464Y-108823939D01*
X121140710Y-109057716D01*
X121140987Y-109275180D01*
X121141297Y-109476935D01*
X121141641Y-109663587D01*
X121142020Y-109835742D01*
X121142438Y-109994005D01*
X121142895Y-110138983D01*
X121143393Y-110271281D01*
X121143935Y-110391504D01*
X121144521Y-110500259D01*
X121145154Y-110598151D01*
X121145836Y-110685786D01*
X121146568Y-110763769D01*
X121147352Y-110832707D01*
X121148189Y-110893204D01*
X121149082Y-110945868D01*
X121150033Y-110991302D01*
X121151042Y-111030114D01*
X121152112Y-111062909D01*
X121153245Y-111090292D01*
X121154443Y-111112870D01*
X121155706Y-111131248D01*
X121157037Y-111146031D01*
X121158439Y-111157826D01*
X121159911Y-111167237D01*
X121161457Y-111174872D01*
X121161719Y-111176000D01*
X121211355Y-111333253D01*
X121282345Y-111479109D01*
X121372708Y-111611797D01*
X121480467Y-111729547D01*
X121603642Y-111830589D01*
X121740255Y-111913151D01*
X121888326Y-111975464D01*
X122045876Y-112015757D01*
X122111065Y-112025307D01*
X122127430Y-112025737D01*
X122168751Y-112026159D01*
X122234583Y-112026574D01*
X122324482Y-112026982D01*
X122438003Y-112027383D01*
X122574703Y-112027777D01*
X122734138Y-112028164D01*
X122915861Y-112028543D01*
X123119431Y-112028916D01*
X123344401Y-112029281D01*
X123590328Y-112029639D01*
X123856768Y-112029990D01*
X124143276Y-112030334D01*
X124449407Y-112030670D01*
X124774719Y-112031000D01*
X125118765Y-112031322D01*
X125481102Y-112031637D01*
X125861286Y-112031945D01*
X126258872Y-112032245D01*
X126673415Y-112032538D01*
X127104473Y-112032824D01*
X127551599Y-112033103D01*
X128014351Y-112033375D01*
X128492283Y-112033639D01*
X128984952Y-112033896D01*
X129491912Y-112034146D01*
X130012720Y-112034388D01*
X130546931Y-112034623D01*
X131094102Y-112034851D01*
X131653787Y-112035071D01*
X132225542Y-112035284D01*
X132808924Y-112035490D01*
X133403487Y-112035688D01*
X134008787Y-112035879D01*
X134624381Y-112036063D01*
X135249823Y-112036239D01*
X135884670Y-112036408D01*
X136528477Y-112036569D01*
X137180800Y-112036723D01*
X137841194Y-112036870D01*
X138509215Y-112037009D01*
X139184419Y-112037141D01*
X139866362Y-112037265D01*
X140554599Y-112037382D01*
X141248685Y-112037492D01*
X141948177Y-112037594D01*
X142652631Y-112037688D01*
X143361601Y-112037775D01*
X144074644Y-112037855D01*
X144791315Y-112037927D01*
X145511170Y-112037991D01*
X146233765Y-112038048D01*
X146958655Y-112038098D01*
X147685395Y-112038140D01*
X148413543Y-112038174D01*
X149142653Y-112038201D01*
X149872281Y-112038220D01*
X150601982Y-112038232D01*
X151331313Y-112038236D01*
X152059829Y-112038232D01*
X152787085Y-112038221D01*
X153512638Y-112038203D01*
X154236044Y-112038176D01*
X154956856Y-112038143D01*
X155674633Y-112038101D01*
X156388928Y-112038052D01*
X157099298Y-112037995D01*
X157805299Y-112037930D01*
X158506485Y-112037858D01*
X159202414Y-112037779D01*
X159892640Y-112037691D01*
X160576719Y-112037596D01*
X161254207Y-112037493D01*
X161924660Y-112037382D01*
X162587633Y-112037264D01*
X163242682Y-112037138D01*
X163889362Y-112037004D01*
X164527230Y-112036862D01*
X165155840Y-112036713D01*
X165774749Y-112036556D01*
X166383513Y-112036391D01*
X166981686Y-112036219D01*
X167568825Y-112036038D01*
X168144485Y-112035850D01*
X168708222Y-112035654D01*
X169259592Y-112035450D01*
X169798151Y-112035239D01*
X170323453Y-112035019D01*
X170835055Y-112034792D01*
X171332513Y-112034557D01*
X171815381Y-112034314D01*
X172283216Y-112034063D01*
X172735574Y-112033804D01*
X173172010Y-112033537D01*
X173592080Y-112033263D01*
X173995339Y-112032980D01*
X174381343Y-112032690D01*
X174749648Y-112032392D01*
X175099809Y-112032085D01*
X175431383Y-112031771D01*
X175743925Y-112031449D01*
X176036990Y-112031119D01*
X176310134Y-112030781D01*
X176562913Y-112030435D01*
X176794883Y-112030081D01*
X177005599Y-112029719D01*
X177194617Y-112029349D01*
X177361493Y-112028971D01*
X177505782Y-112028585D01*
X177627039Y-112028191D01*
X177724822Y-112027789D01*
X177798685Y-112027379D01*
X177848183Y-112026961D01*
X177872874Y-112026535D01*
X177875433Y-112026400D01*
X177999720Y-112008167D01*
X178111555Y-111978785D01*
X178222249Y-111934889D01*
X178283634Y-111904941D01*
X178423517Y-111819115D01*
X178547019Y-111714767D01*
X178652828Y-111593824D01*
X178739632Y-111458212D01*
X178806118Y-111309858D01*
X178850973Y-111150689D01*
X178867235Y-111048382D01*
X178868285Y-111029948D01*
X178869279Y-110993372D01*
X178870217Y-110938374D01*
X178871101Y-110864673D01*
X178871929Y-110771990D01*
X178872704Y-110660044D01*
X178873424Y-110528555D01*
X178874091Y-110377242D01*
X178874705Y-110205826D01*
X178875265Y-110014026D01*
X178875774Y-109801562D01*
X178876230Y-109568153D01*
X178876634Y-109313520D01*
X178876987Y-109037382D01*
X178877289Y-108739459D01*
X178877540Y-108419471D01*
X178877741Y-108077138D01*
X178877892Y-107712178D01*
X178877994Y-107324313D01*
X178878046Y-106913261D01*
X178878049Y-106478743D01*
X178878004Y-106020479D01*
X178877910Y-105538187D01*
X178877769Y-105031589D01*
X178877581Y-104500402D01*
X178877345Y-103944349D01*
X178877093Y-103422650D01*
X178873273Y-95916950D01*
X178844274Y-95809000D01*
X178788831Y-95648975D01*
X178712855Y-95502098D01*
X178618038Y-95369930D01*
X178506067Y-95254028D01*
X178378634Y-95155952D01*
X178237427Y-95077262D01*
X178084136Y-95019515D01*
X177956611Y-94989902D01*
X177950690Y-94989194D01*
X177941054Y-94988504D01*
X177927397Y-94987831D01*
X177909414Y-94987176D01*
X177886798Y-94986538D01*
X177859243Y-94985917D01*
X177826442Y-94985313D01*
X177788090Y-94984726D01*
X177743881Y-94984155D01*
X177693508Y-94983601D01*
X177636665Y-94983063D01*
X177573045Y-94982541D01*
X177502344Y-94982034D01*
X177424254Y-94981544D01*
X177338469Y-94981069D01*
X177244683Y-94980609D01*
X177142591Y-94980164D01*
X177031885Y-94979735D01*
X176912260Y-94979320D01*
X176783409Y-94978920D01*
X176645027Y-94978534D01*
X176496807Y-94978162D01*
X176338443Y-94977805D01*
X176169628Y-94977461D01*
X175990058Y-94977132D01*
X175799424Y-94976816D01*
X175597422Y-94976513D01*
X175383745Y-94976223D01*
X175158087Y-94975947D01*
X174920142Y-94975683D01*
X174669603Y-94975432D01*
X174406164Y-94975194D01*
X174129520Y-94974968D01*
X173839364Y-94974754D01*
X173535389Y-94974552D01*
X173217291Y-94974362D01*
X172884762Y-94974184D01*
X172537496Y-94974017D01*
X172175187Y-94973861D01*
X171797529Y-94973717D01*
X171404216Y-94973583D01*
X170994942Y-94973461D01*
X170569400Y-94973349D01*
X170127285Y-94973247D01*
X169668289Y-94973155D01*
X169192108Y-94973074D01*
X168698434Y-94973003D01*
X168186962Y-94972941D01*
X167657385Y-94972889D01*
X167109397Y-94972846D01*
X166542693Y-94972812D01*
X165956965Y-94972788D01*
X165351908Y-94972772D01*
X164727216Y-94972765D01*
X164082582Y-94972766D01*
X163417700Y-94972776D01*
X162732264Y-94972794D01*
X162025968Y-94972820D01*
X161298506Y-94972854D01*
X160549571Y-94972895D01*
X159778857Y-94972944D01*
X158986059Y-94973000D01*
X158170869Y-94973063D01*
X157332982Y-94973133D01*
X156472092Y-94973210D01*
X155587893Y-94973293D01*
X154680077Y-94973383D01*
X153748340Y-94973479D01*
X152792374Y-94973581D01*
X151811875Y-94973689D01*
X150806535Y-94973803D01*
X149955550Y-94973901D01*
X122066350Y-94977150D01*
X121964750Y-95005926D01*
X121801770Y-95064539D01*
X121653237Y-95143350D01*
X121520416Y-95241082D01*
X121404574Y-95356457D01*
X121306979Y-95488200D01*
X121228898Y-95635033D01*
X121171597Y-95795680D01*
X121167972Y-95809000D01*
X121139250Y-95916950D01*
X120339150Y-95916950D01*
X120339150Y-95866150D01*
X120368054Y-95723557D01*
X120421656Y-95511611D01*
X120493853Y-95315744D01*
X120586046Y-95133346D01*
X120699630Y-94961805D01*
X120836004Y-94798508D01*
X120897130Y-94735030D01*
X121057864Y-94589167D01*
X121225800Y-94466652D01*
X121403551Y-94366086D01*
X121593727Y-94286073D01*
X121798940Y-94225214D01*
X121885657Y-94205954D01*
X122028250Y-94177050D01*
X177984450Y-94177050D01*
X178127042Y-94205954D01*
G36*
X105029300Y-108890000D02*
X105359500Y-108890000D01*
X105359500Y-109245600D01*
X105727102Y-109245600D01*
X105734150Y-109607550D01*
X106083400Y-109614616D01*
X106083400Y-108534400D01*
X106451700Y-108534400D01*
X106451700Y-108890000D01*
X106769200Y-108890000D01*
X106769200Y-109244883D01*
X106943825Y-109248416D01*
X107118450Y-109251950D01*
X107121973Y-109432925D01*
X107125497Y-109613900D01*
X107467700Y-109613900D01*
X107467700Y-109969500D01*
X107810600Y-109969500D01*
X107810600Y-110337800D01*
X107455000Y-110337800D01*
X107455000Y-109969500D01*
X107112100Y-109969500D01*
X107112100Y-109613900D01*
X106756500Y-109613900D01*
X106756500Y-109258300D01*
X106439000Y-109258300D01*
X106439000Y-109798372D01*
X106438999Y-110338444D01*
X106238975Y-110334947D01*
X106038950Y-110331450D01*
X106031902Y-109969500D01*
X105689700Y-109969500D01*
X105689700Y-109613900D01*
X105346800Y-109613900D01*
X105346800Y-109258300D01*
X105029575Y-109258300D01*
X105026262Y-109794875D01*
X105022950Y-110331450D01*
X104850784Y-110334967D01*
X104787035Y-110335640D01*
X104732613Y-110335026D01*
X104692453Y-110333271D01*
X104671488Y-110330518D01*
X104669809Y-110329675D01*
X104666608Y-110314407D01*
X104663927Y-110278623D01*
X104661999Y-110227203D01*
X104661055Y-110165030D01*
X104661000Y-110145183D01*
X104661000Y-109969500D01*
X104305400Y-109969500D01*
X104305400Y-109613900D01*
X103949102Y-109613900D01*
X103956150Y-109251950D01*
X104311750Y-109251950D01*
X104315273Y-109432925D01*
X104318797Y-109613900D01*
X104661000Y-109613900D01*
X104661000Y-109342897D01*
X104661475Y-109237786D01*
X104662792Y-109118255D01*
X104664784Y-108994954D01*
X104667287Y-108878533D01*
X104669369Y-108803147D01*
X104677739Y-108534400D01*
X105029300Y-108534400D01*
X105029300Y-108890000D01*
X105029300Y-108890000D01*
G37*
X105029300Y-108890000D02*
X105359500Y-108890000D01*
X105359500Y-109245600D01*
X105727102Y-109245600D01*
X105734150Y-109607550D01*
X106083400Y-109614616D01*
X106083400Y-108534400D01*
X106451700Y-108534400D01*
X106451700Y-108890000D01*
X106769200Y-108890000D01*
X106769200Y-109244883D01*
X106943825Y-109248416D01*
X107118450Y-109251950D01*
X107121973Y-109432925D01*
X107125497Y-109613900D01*
X107467700Y-109613900D01*
X107467700Y-109969500D01*
X107810600Y-109969500D01*
X107810600Y-110337800D01*
X107455000Y-110337800D01*
X107455000Y-109969500D01*
X107112100Y-109969500D01*
X107112100Y-109613900D01*
X106756500Y-109613900D01*
X106756500Y-109258300D01*
X106439000Y-109258300D01*
X106439000Y-109798372D01*
X106438999Y-110338444D01*
X106238975Y-110334947D01*
X106038950Y-110331450D01*
X106031902Y-109969500D01*
X105689700Y-109969500D01*
X105689700Y-109613900D01*
X105346800Y-109613900D01*
X105346800Y-109258300D01*
X105029575Y-109258300D01*
X105026262Y-109794875D01*
X105022950Y-110331450D01*
X104850784Y-110334967D01*
X104787035Y-110335640D01*
X104732613Y-110335026D01*
X104692453Y-110333271D01*
X104671488Y-110330518D01*
X104669809Y-110329675D01*
X104666608Y-110314407D01*
X104663927Y-110278623D01*
X104661999Y-110227203D01*
X104661055Y-110165030D01*
X104661000Y-110145183D01*
X104661000Y-109969500D01*
X104305400Y-109969500D01*
X104305400Y-109613900D01*
X103949102Y-109613900D01*
X103956150Y-109251950D01*
X104311750Y-109251950D01*
X104315273Y-109432925D01*
X104318797Y-109613900D01*
X104661000Y-109613900D01*
X104661000Y-109342897D01*
X104661475Y-109237786D01*
X104662792Y-109118255D01*
X104664784Y-108994954D01*
X104667287Y-108878533D01*
X104669369Y-108803147D01*
X104677739Y-108534400D01*
X105029300Y-108534400D01*
X105029300Y-108890000D01*
G36*
X193649900Y-109613900D02*
X194005500Y-109613900D01*
X194005500Y-109245600D01*
X194386500Y-109245600D01*
X194386500Y-108890000D01*
X194704000Y-108890000D01*
X194704000Y-108534400D01*
X195072300Y-108534400D01*
X195072300Y-109613900D01*
X195414502Y-109613900D01*
X195421550Y-109251950D01*
X195783500Y-109244902D01*
X195783500Y-109613900D01*
X195427900Y-109613900D01*
X195427900Y-109969500D01*
X195072300Y-109969500D01*
X195072300Y-110337800D01*
X194716700Y-110337800D01*
X194716250Y-110156825D01*
X194716149Y-110093768D01*
X194716100Y-110011065D01*
X194716102Y-109914465D01*
X194716154Y-109809722D01*
X194716253Y-109702588D01*
X194716370Y-109617075D01*
X194716940Y-109258300D01*
X194399200Y-109258300D01*
X194399200Y-109613900D01*
X194043600Y-109613900D01*
X194043600Y-109968762D01*
X193707050Y-109975850D01*
X193700002Y-110337800D01*
X193294300Y-110337800D01*
X193294300Y-109258300D01*
X192976800Y-109258300D01*
X192976800Y-109613900D01*
X192633900Y-109613900D01*
X192633900Y-109968783D01*
X192459275Y-109972316D01*
X192284650Y-109975850D01*
X192277602Y-110337800D01*
X191922700Y-110337800D01*
X191922700Y-109969500D01*
X192265600Y-109969500D01*
X192265600Y-109614616D01*
X192614850Y-109607550D01*
X192618373Y-109426575D01*
X192621897Y-109245600D01*
X192964100Y-109245600D01*
X192964100Y-108890000D01*
X193281600Y-108890000D01*
X193281600Y-108534400D01*
X193649900Y-108534400D01*
X193649900Y-109613900D01*
X193649900Y-109613900D01*
G37*
X193649900Y-109613900D02*
X194005500Y-109613900D01*
X194005500Y-109245600D01*
X194386500Y-109245600D01*
X194386500Y-108890000D01*
X194704000Y-108890000D01*
X194704000Y-108534400D01*
X195072300Y-108534400D01*
X195072300Y-109613900D01*
X195414502Y-109613900D01*
X195421550Y-109251950D01*
X195783500Y-109244902D01*
X195783500Y-109613900D01*
X195427900Y-109613900D01*
X195427900Y-109969500D01*
X195072300Y-109969500D01*
X195072300Y-110337800D01*
X194716700Y-110337800D01*
X194716250Y-110156825D01*
X194716149Y-110093768D01*
X194716100Y-110011065D01*
X194716102Y-109914465D01*
X194716154Y-109809722D01*
X194716253Y-109702588D01*
X194716370Y-109617075D01*
X194716940Y-109258300D01*
X194399200Y-109258300D01*
X194399200Y-109613900D01*
X194043600Y-109613900D01*
X194043600Y-109968762D01*
X193707050Y-109975850D01*
X193700002Y-110337800D01*
X193294300Y-110337800D01*
X193294300Y-109258300D01*
X192976800Y-109258300D01*
X192976800Y-109613900D01*
X192633900Y-109613900D01*
X192633900Y-109968783D01*
X192459275Y-109972316D01*
X192284650Y-109975850D01*
X192277602Y-110337800D01*
X191922700Y-110337800D01*
X191922700Y-109969500D01*
X192265600Y-109969500D01*
X192265600Y-109614616D01*
X192614850Y-109607550D01*
X192618373Y-109426575D01*
X192621897Y-109245600D01*
X192964100Y-109245600D01*
X192964100Y-108890000D01*
X193281600Y-108890000D01*
X193281600Y-108534400D01*
X193649900Y-108534400D01*
X193649900Y-109613900D01*
G36*
X106172300Y-107391400D02*
X105830097Y-107391400D01*
X105826573Y-107572375D01*
X105823050Y-107753350D01*
X105642075Y-107756873D01*
X105461100Y-107760397D01*
X105461100Y-107391400D01*
X105803302Y-107391400D01*
X105810350Y-107029450D01*
X106172300Y-107022402D01*
X106172300Y-107391400D01*
X106172300Y-107391400D01*
G37*
X106172300Y-107391400D02*
X105830097Y-107391400D01*
X105826573Y-107572375D01*
X105823050Y-107753350D01*
X105642075Y-107756873D01*
X105461100Y-107760397D01*
X105461100Y-107391400D01*
X105803302Y-107391400D01*
X105810350Y-107029450D01*
X106172300Y-107022402D01*
X106172300Y-107391400D01*
G36*
X194284900Y-107391400D02*
X193942697Y-107391400D01*
X193939173Y-107572375D01*
X193935650Y-107753350D01*
X193754675Y-107756873D01*
X193573700Y-107760397D01*
X193573700Y-107391400D01*
X193916600Y-107391400D01*
X193916600Y-107023100D01*
X194284900Y-107023100D01*
X194284900Y-107391400D01*
X194284900Y-107391400D01*
G37*
X194284900Y-107391400D02*
X193942697Y-107391400D01*
X193939173Y-107572375D01*
X193935650Y-107753350D01*
X193754675Y-107756873D01*
X193573700Y-107760397D01*
X193573700Y-107391400D01*
X193916600Y-107391400D01*
X193916600Y-107023100D01*
X194284900Y-107023100D01*
X194284900Y-107391400D01*
G36*
X104876900Y-107391400D02*
X104521300Y-107391400D01*
X104521300Y-107747000D01*
X104165700Y-107747000D01*
X104165700Y-107391400D01*
X104507902Y-107391400D01*
X104514950Y-107029450D01*
X104876900Y-107022402D01*
X104876900Y-107391400D01*
X104876900Y-107391400D01*
G37*
X104876900Y-107391400D02*
X104521300Y-107391400D01*
X104521300Y-107747000D01*
X104165700Y-107747000D01*
X104165700Y-107391400D01*
X104507902Y-107391400D01*
X104514950Y-107029450D01*
X104876900Y-107022402D01*
X104876900Y-107391400D01*
G36*
X107467700Y-107391400D02*
X107124800Y-107391400D01*
X107124800Y-107747000D01*
X106756500Y-107747000D01*
X106756500Y-107391400D01*
X107112100Y-107391400D01*
X107112100Y-107023100D01*
X107467700Y-107023100D01*
X107467700Y-107391400D01*
X107467700Y-107391400D01*
G37*
X107467700Y-107391400D02*
X107124800Y-107391400D01*
X107124800Y-107747000D01*
X106756500Y-107747000D01*
X106756500Y-107391400D01*
X107112100Y-107391400D01*
X107112100Y-107023100D01*
X107467700Y-107023100D01*
X107467700Y-107391400D01*
G36*
X192986673Y-107210425D02*
X192990197Y-107391400D01*
X192633900Y-107391400D01*
X192633900Y-107747000D01*
X192278300Y-107747000D01*
X192278300Y-107391400D01*
X192620502Y-107391400D01*
X192627550Y-107029450D01*
X192983150Y-107029450D01*
X192986673Y-107210425D01*
X192986673Y-107210425D01*
G37*
X192986673Y-107210425D02*
X192990197Y-107391400D01*
X192633900Y-107391400D01*
X192633900Y-107747000D01*
X192278300Y-107747000D01*
X192278300Y-107391400D01*
X192620502Y-107391400D01*
X192627550Y-107029450D01*
X192983150Y-107029450D01*
X192986673Y-107210425D01*
G36*
X195577473Y-107210425D02*
X195580997Y-107391400D01*
X195224700Y-107391400D01*
X195224700Y-107747000D01*
X194869100Y-107747000D01*
X194869100Y-107391400D01*
X195211302Y-107391400D01*
X195218350Y-107029450D01*
X195573950Y-107029450D01*
X195577473Y-107210425D01*
X195577473Y-107210425D01*
G37*
X195577473Y-107210425D02*
X195580997Y-107391400D01*
X195224700Y-107391400D01*
X195224700Y-107747000D01*
X194869100Y-107747000D01*
X194869100Y-107391400D01*
X195211302Y-107391400D01*
X195218350Y-107029450D01*
X195573950Y-107029450D01*
X195577473Y-107210425D01*
G36*
X104876900Y-106680200D02*
X104508600Y-106680200D01*
X104508600Y-106324600D01*
X104876900Y-106324600D01*
X104876900Y-106680200D01*
X104876900Y-106680200D01*
G37*
X104876900Y-106680200D02*
X104508600Y-106680200D01*
X104508600Y-106324600D01*
X104876900Y-106324600D01*
X104876900Y-106680200D01*
G36*
X106172300Y-106680200D02*
X105803302Y-106680200D01*
X105810350Y-106318250D01*
X106172300Y-106311202D01*
X106172300Y-106680200D01*
X106172300Y-106680200D01*
G37*
X106172300Y-106680200D02*
X105803302Y-106680200D01*
X105810350Y-106318250D01*
X106172300Y-106311202D01*
X106172300Y-106680200D01*
G36*
X107467700Y-106680200D02*
X107112100Y-106680200D01*
X107112100Y-106324600D01*
X107467700Y-106324600D01*
X107467700Y-106680200D01*
X107467700Y-106680200D01*
G37*
X107467700Y-106680200D02*
X107112100Y-106680200D01*
X107112100Y-106324600D01*
X107467700Y-106324600D01*
X107467700Y-106680200D01*
G36*
X192989500Y-106680200D02*
X192621200Y-106680200D01*
X192621200Y-106324600D01*
X192989500Y-106324600D01*
X192989500Y-106680200D01*
X192989500Y-106680200D01*
G37*
X192989500Y-106680200D02*
X192621200Y-106680200D01*
X192621200Y-106324600D01*
X192989500Y-106324600D01*
X192989500Y-106680200D01*
G36*
X193929300Y-106311900D02*
X194284900Y-106311900D01*
X194284900Y-106680200D01*
X193916600Y-106680200D01*
X193916600Y-106311900D01*
X193560302Y-106311900D01*
X193567350Y-105949950D01*
X193929300Y-105942902D01*
X193929300Y-106311900D01*
X193929300Y-106311900D01*
G37*
X193929300Y-106311900D02*
X194284900Y-106311900D01*
X194284900Y-106680200D01*
X193916600Y-106680200D01*
X193916600Y-106311900D01*
X193560302Y-106311900D01*
X193567350Y-105949950D01*
X193929300Y-105942902D01*
X193929300Y-106311900D01*
G36*
X195580300Y-106680200D02*
X195212000Y-106680200D01*
X195212000Y-106324600D01*
X195580300Y-106324600D01*
X195580300Y-106680200D01*
X195580300Y-106680200D01*
G37*
X195580300Y-106680200D02*
X195212000Y-106680200D01*
X195212000Y-106324600D01*
X195580300Y-106324600D01*
X195580300Y-106680200D01*
G36*
X104521300Y-106311900D02*
X104165700Y-106311900D01*
X104165700Y-105956300D01*
X104521300Y-105956300D01*
X104521300Y-106311900D01*
X104521300Y-106311900D01*
G37*
X104521300Y-106311900D02*
X104165700Y-106311900D01*
X104165700Y-105956300D01*
X104521300Y-105956300D01*
X104521300Y-106311900D01*
G36*
X105816700Y-106311900D02*
X105447702Y-106311900D01*
X105454750Y-105949950D01*
X105816700Y-105942902D01*
X105816700Y-106311900D01*
X105816700Y-106311900D01*
G37*
X105816700Y-106311900D02*
X105447702Y-106311900D01*
X105454750Y-105949950D01*
X105816700Y-105942902D01*
X105816700Y-106311900D01*
G36*
X107112100Y-106311900D02*
X106756500Y-106311900D01*
X106756500Y-105956300D01*
X107112100Y-105956300D01*
X107112100Y-106311900D01*
X107112100Y-106311900D01*
G37*
X107112100Y-106311900D02*
X106756500Y-106311900D01*
X106756500Y-105956300D01*
X107112100Y-105956300D01*
X107112100Y-106311900D01*
G36*
X192633900Y-106311900D02*
X192265600Y-106311900D01*
X192265600Y-105956300D01*
X192633900Y-105956300D01*
X192633900Y-106311900D01*
X192633900Y-106311900D01*
G37*
X192633900Y-106311900D02*
X192265600Y-106311900D01*
X192265600Y-105956300D01*
X192633900Y-105956300D01*
X192633900Y-106311900D01*
G36*
X195224700Y-106311900D02*
X194856400Y-106311900D01*
X194856400Y-105956300D01*
X195224700Y-105956300D01*
X195224700Y-106311900D01*
X195224700Y-106311900D01*
G37*
X195224700Y-106311900D02*
X194856400Y-106311900D01*
X194856400Y-105956300D01*
X195224700Y-105956300D01*
X195224700Y-106311900D01*
G36*
X189601775Y-99634859D02*
X194824650Y-99638050D01*
X194827853Y-102378075D01*
X194831057Y-105118100D01*
X184378900Y-105118100D01*
X184378900Y-100139700D01*
X184874200Y-100139700D01*
X184874200Y-104610100D01*
X194323000Y-104610100D01*
X194323000Y-100139700D01*
X184874200Y-100139700D01*
X184378900Y-100139700D01*
X184378900Y-99631669D01*
X189601775Y-99634859D01*
X189601775Y-99634859D01*
G37*
X189601775Y-99634859D02*
X194824650Y-99638050D01*
X194827853Y-102378075D01*
X194831057Y-105118100D01*
X184378900Y-105118100D01*
X184378900Y-100139700D01*
X184874200Y-100139700D01*
X184874200Y-104610100D01*
X194323000Y-104610100D01*
X194323000Y-100139700D01*
X184874200Y-100139700D01*
X184378900Y-100139700D01*
X184378900Y-99631669D01*
X189601775Y-99634859D01*
G36*
X110429975Y-99609459D02*
X115665550Y-99612650D01*
X115668753Y-102352675D01*
X115671957Y-105092700D01*
X105194400Y-105092700D01*
X105194400Y-100114300D01*
X105702400Y-100114300D01*
X105702400Y-104597433D01*
X110429975Y-104594241D01*
X115157550Y-104591050D01*
X115163970Y-100114300D01*
X105702400Y-100114300D01*
X105194400Y-100114300D01*
X105194400Y-99606269D01*
X110429975Y-99609459D01*
X110429975Y-99609459D01*
G37*
X110429975Y-99609459D02*
X115665550Y-99612650D01*
X115668753Y-102352675D01*
X115671957Y-105092700D01*
X105194400Y-105092700D01*
X105194400Y-100114300D01*
X105702400Y-100114300D01*
X105702400Y-104597433D01*
X110429975Y-104594241D01*
X115157550Y-104591050D01*
X115163970Y-100114300D01*
X105702400Y-100114300D01*
X105194400Y-100114300D01*
X105194400Y-99606269D01*
X110429975Y-99609459D01*
G36*
X106540600Y-97206000D02*
X107137500Y-97206000D01*
X107137500Y-97802900D01*
X106832700Y-97802900D01*
X106832700Y-97510800D01*
X106540600Y-97510800D01*
X106540600Y-97802900D01*
X106235800Y-97802900D01*
X106235800Y-97510800D01*
X105346800Y-97510800D01*
X105346800Y-97206000D01*
X106235800Y-97206000D01*
X106235800Y-96913900D01*
X106540600Y-96913900D01*
X106540600Y-97206000D01*
X106540600Y-97206000D01*
G37*
X106540600Y-97206000D02*
X107137500Y-97206000D01*
X107137500Y-97802900D01*
X106832700Y-97802900D01*
X106832700Y-97510800D01*
X106540600Y-97510800D01*
X106540600Y-97802900D01*
X106235800Y-97802900D01*
X106235800Y-97510800D01*
X105346800Y-97510800D01*
X105346800Y-97206000D01*
X106235800Y-97206000D01*
X106235800Y-96913900D01*
X106540600Y-96913900D01*
X106540600Y-97206000D01*
G36*
X106540600Y-96012200D02*
X107137500Y-96012200D01*
X107137500Y-96609100D01*
X106832700Y-96609100D01*
X106832700Y-96304300D01*
X106540600Y-96304300D01*
X106540600Y-96609100D01*
X106235800Y-96609100D01*
X106235800Y-96304300D01*
X105346800Y-96304300D01*
X105346800Y-96012200D01*
X106234993Y-96012200D01*
X106238571Y-95862975D01*
X106242150Y-95713750D01*
X106391375Y-95710171D01*
X106540600Y-95706593D01*
X106540600Y-96012200D01*
X106540600Y-96012200D01*
G37*
X106540600Y-96012200D02*
X107137500Y-96012200D01*
X107137500Y-96609100D01*
X106832700Y-96609100D01*
X106832700Y-96304300D01*
X106540600Y-96304300D01*
X106540600Y-96609100D01*
X106235800Y-96609100D01*
X106235800Y-96304300D01*
X105346800Y-96304300D01*
X105346800Y-96012200D01*
X106234993Y-96012200D01*
X106238571Y-95862975D01*
X106242150Y-95713750D01*
X106391375Y-95710171D01*
X106540600Y-95706593D01*
X106540600Y-96012200D01*
G36*
X195059600Y-96532900D02*
X194754800Y-96532900D01*
X194754800Y-95936000D01*
X194462700Y-95936000D01*
X194462700Y-96240800D01*
X194157900Y-96240800D01*
X194157900Y-95936000D01*
X193561000Y-95936000D01*
X193561000Y-96532900D01*
X193268900Y-96532900D01*
X193268900Y-95643900D01*
X195059600Y-95643900D01*
X195059600Y-96532900D01*
X195059600Y-96532900D01*
G37*
X195059600Y-96532900D02*
X194754800Y-96532900D01*
X194754800Y-95936000D01*
X194462700Y-95936000D01*
X194462700Y-96240800D01*
X194157900Y-96240800D01*
X194157900Y-95936000D01*
X193561000Y-95936000D01*
X193561000Y-96532900D01*
X193268900Y-96532900D01*
X193268900Y-95643900D01*
X195059600Y-95643900D01*
X195059600Y-96532900D01*
G36*
X106540600Y-94818400D02*
X106540600Y-95110500D01*
X106235800Y-95110500D01*
X106235800Y-95415300D01*
X105638900Y-95415300D01*
X105638900Y-95110500D01*
X105346800Y-95110500D01*
X105346800Y-94818400D01*
X105638900Y-94818400D01*
X105638900Y-95110500D01*
X106235800Y-95110500D01*
X106235800Y-94818400D01*
X105638900Y-94818400D01*
X105638900Y-94513600D01*
X106235800Y-94513600D01*
X106235800Y-94818400D01*
X106540600Y-94818400D01*
X106540600Y-94818400D01*
G37*
X106540600Y-94818400D02*
X106540600Y-95110500D01*
X106235800Y-95110500D01*
X106235800Y-95415300D01*
X105638900Y-95415300D01*
X105638900Y-95110500D01*
X105346800Y-95110500D01*
X105346800Y-94818400D01*
X105638900Y-94818400D01*
X105638900Y-95110500D01*
X106235800Y-95110500D01*
X106235800Y-94818400D01*
X105638900Y-94818400D01*
X105638900Y-94513600D01*
X106235800Y-94513600D01*
X106235800Y-94818400D01*
X106540600Y-94818400D01*
G36*
X195059600Y-94741393D02*
X194910375Y-94744971D01*
X194761150Y-94748550D01*
X194761150Y-95040650D01*
X195059600Y-95047806D01*
X195059600Y-95339100D01*
X193268900Y-95339100D01*
X193268900Y-95047000D01*
X194157900Y-95047000D01*
X194157900Y-94742200D01*
X193268900Y-94742200D01*
X193268900Y-94437400D01*
X195059600Y-94437400D01*
X195059600Y-94741393D01*
X195059600Y-94741393D01*
G37*
X195059600Y-94741393D02*
X194910375Y-94744971D01*
X194761150Y-94748550D01*
X194761150Y-95040650D01*
X195059600Y-95047806D01*
X195059600Y-95339100D01*
X193268900Y-95339100D01*
X193268900Y-95047000D01*
X194157900Y-95047000D01*
X194157900Y-94742200D01*
X193268900Y-94742200D01*
X193268900Y-94437400D01*
X195059600Y-94437400D01*
X195059600Y-94741393D01*
G36*
X106540600Y-94208800D02*
X106235800Y-94208800D01*
X106235800Y-93916700D01*
X106540600Y-93916700D01*
X106540600Y-94208800D01*
X106540600Y-94208800D01*
G37*
X106540600Y-94208800D02*
X106235800Y-94208800D01*
X106235800Y-93916700D01*
X106540600Y-93916700D01*
X106540600Y-94208800D01*
G36*
X106235800Y-93916700D02*
X105943700Y-93916700D01*
X105943700Y-93611900D01*
X106235800Y-93611900D01*
X106235800Y-93916700D01*
X106235800Y-93916700D01*
G37*
X106235800Y-93916700D02*
X105943700Y-93916700D01*
X105943700Y-93611900D01*
X106235800Y-93611900D01*
X106235800Y-93916700D01*
G36*
X105943700Y-93611900D02*
X105638900Y-93611900D01*
X105638900Y-93319800D01*
X105943700Y-93319800D01*
X105943700Y-93611900D01*
X105943700Y-93611900D01*
G37*
X105943700Y-93611900D02*
X105638900Y-93611900D01*
X105638900Y-93319800D01*
X105943700Y-93319800D01*
X105943700Y-93611900D01*
G36*
X195059600Y-93548400D02*
X193561000Y-93548400D01*
X193561000Y-93840500D01*
X195059600Y-93840500D01*
X195059600Y-94145300D01*
X193268900Y-94145300D01*
X193268900Y-93243600D01*
X195059600Y-93243600D01*
X195059600Y-93548400D01*
X195059600Y-93548400D01*
G37*
X195059600Y-93548400D02*
X193561000Y-93548400D01*
X193561000Y-93840500D01*
X195059600Y-93840500D01*
X195059600Y-94145300D01*
X193268900Y-94145300D01*
X193268900Y-93243600D01*
X195059600Y-93243600D01*
X195059600Y-93548400D01*
G36*
X106235800Y-93015000D02*
X105346800Y-93015000D01*
X105346800Y-92722900D01*
X106235800Y-92722900D01*
X106235800Y-93015000D01*
X106235800Y-93015000D01*
G37*
X106235800Y-93015000D02*
X105346800Y-93015000D01*
X105346800Y-92722900D01*
X106235800Y-92722900D01*
X106235800Y-93015000D01*
G36*
X106540600Y-92722900D02*
X106235800Y-92722900D01*
X106235800Y-92418100D01*
X105346800Y-92418100D01*
X105346800Y-92113300D01*
X106540600Y-92113300D01*
X106540600Y-92722900D01*
X106540600Y-92722900D01*
G37*
X106540600Y-92722900D02*
X106235800Y-92722900D01*
X106235800Y-92418100D01*
X105346800Y-92418100D01*
X105346800Y-92113300D01*
X106540600Y-92113300D01*
X106540600Y-92722900D01*
G36*
X195059600Y-92341696D02*
X193567350Y-92348250D01*
X193560540Y-92951500D01*
X193268900Y-92951500D01*
X193268900Y-92049800D01*
X195059600Y-92049800D01*
X195059600Y-92341696D01*
X195059600Y-92341696D01*
G37*
X195059600Y-92341696D02*
X193567350Y-92348250D01*
X193560540Y-92951500D01*
X193268900Y-92951500D01*
X193268900Y-92049800D01*
X195059600Y-92049800D01*
X195059600Y-92341696D01*
G36*
X106540600Y-91224300D02*
X106540600Y-91516400D01*
X106235800Y-91516400D01*
X106235800Y-91821200D01*
X105638900Y-91821200D01*
X105638900Y-91516400D01*
X105346800Y-91516400D01*
X105346800Y-91224300D01*
X105638900Y-91224300D01*
X105638900Y-91516400D01*
X106235800Y-91516400D01*
X106235800Y-91224300D01*
X105638900Y-91224300D01*
X105638900Y-90919500D01*
X106235800Y-90919500D01*
X106235800Y-91224300D01*
X106540600Y-91224300D01*
X106540600Y-91224300D01*
G37*
X106540600Y-91224300D02*
X106540600Y-91516400D01*
X106235800Y-91516400D01*
X106235800Y-91821200D01*
X105638900Y-91821200D01*
X105638900Y-91516400D01*
X105346800Y-91516400D01*
X105346800Y-91224300D01*
X105638900Y-91224300D01*
X105638900Y-91516400D01*
X106235800Y-91516400D01*
X106235800Y-91224300D01*
X105638900Y-91224300D01*
X105638900Y-90919500D01*
X106235800Y-90919500D01*
X106235800Y-91224300D01*
X106540600Y-91224300D01*
G36*
X195059600Y-91148100D02*
X195059600Y-91452900D01*
X194754800Y-91452900D01*
X194754800Y-91745000D01*
X193561000Y-91745000D01*
X193561000Y-91452900D01*
X193268900Y-91452900D01*
X193268900Y-91148100D01*
X193561000Y-91148100D01*
X193561000Y-91452900D01*
X194754800Y-91452900D01*
X194754800Y-91148100D01*
X193561000Y-91148100D01*
X193561000Y-90856000D01*
X194754800Y-90856000D01*
X194754800Y-91148100D01*
X195059600Y-91148100D01*
X195059600Y-91148100D01*
G37*
X195059600Y-91148100D02*
X195059600Y-91452900D01*
X194754800Y-91452900D01*
X194754800Y-91745000D01*
X193561000Y-91745000D01*
X193561000Y-91452900D01*
X193268900Y-91452900D01*
X193268900Y-91148100D01*
X193561000Y-91148100D01*
X193561000Y-91452900D01*
X194754800Y-91452900D01*
X194754800Y-91148100D01*
X193561000Y-91148100D01*
X193561000Y-90856000D01*
X194754800Y-90856000D01*
X194754800Y-91148100D01*
X195059600Y-91148100D01*
G36*
X195059600Y-90551200D02*
X193865800Y-90551200D01*
X193865800Y-90246400D01*
X195059600Y-90246400D01*
X195059600Y-90551200D01*
X195059600Y-90551200D01*
G37*
X195059600Y-90551200D02*
X193865800Y-90551200D01*
X193865800Y-90246400D01*
X195059600Y-90246400D01*
X195059600Y-90551200D01*
G36*
X195059600Y-89954300D02*
X193865800Y-89954300D01*
X193865800Y-90246400D01*
X193561000Y-90246400D01*
X193561000Y-89954300D01*
X193268900Y-89954300D01*
X193268900Y-89649500D01*
X195059600Y-89649500D01*
X195059600Y-89954300D01*
X195059600Y-89954300D01*
G37*
X195059600Y-89954300D02*
X193865800Y-89954300D01*
X193865800Y-90246400D01*
X193561000Y-90246400D01*
X193561000Y-89954300D01*
X193268900Y-89954300D01*
X193268900Y-89649500D01*
X195059600Y-89649500D01*
X195059600Y-89954300D01*
G36*
X109588600Y-76225600D02*
X109944200Y-76225600D01*
X109944200Y-76593900D01*
X109588600Y-76593900D01*
X109588600Y-76924100D01*
X109233000Y-76924100D01*
X109233000Y-76593900D01*
X108877400Y-76593900D01*
X108877400Y-76238300D01*
X108521800Y-76238300D01*
X108521800Y-75882700D01*
X108877400Y-75882700D01*
X108877400Y-76225600D01*
X109233000Y-76225600D01*
X109233000Y-74498400D01*
X109588600Y-74498400D01*
X109588600Y-76225600D01*
X109588600Y-76225600D01*
G37*
X109588600Y-76225600D02*
X109944200Y-76225600D01*
X109944200Y-76593900D01*
X109588600Y-76593900D01*
X109588600Y-76924100D01*
X109233000Y-76924100D01*
X109233000Y-76593900D01*
X108877400Y-76593900D01*
X108877400Y-76238300D01*
X108521800Y-76238300D01*
X108521800Y-75882700D01*
X108877400Y-75882700D01*
X108877400Y-76225600D01*
X109233000Y-76225600D01*
X109233000Y-74498400D01*
X109588600Y-74498400D01*
X109588600Y-76225600D01*
G36*
X190957500Y-74828600D02*
X191313100Y-74828600D01*
X191313100Y-75196900D01*
X190957500Y-75196900D01*
X190957500Y-76924100D01*
X190601900Y-76924100D01*
X190601900Y-75196900D01*
X190246300Y-75196900D01*
X190246300Y-75539800D01*
X189890700Y-75539800D01*
X189890700Y-75184200D01*
X190245583Y-75184200D01*
X190249116Y-75009575D01*
X190252650Y-74834950D01*
X190427275Y-74831416D01*
X190601900Y-74827883D01*
X190601900Y-74498400D01*
X190957500Y-74498400D01*
X190957500Y-74828600D01*
X190957500Y-74828600D01*
G37*
X190957500Y-74828600D02*
X191313100Y-74828600D01*
X191313100Y-75196900D01*
X190957500Y-75196900D01*
X190957500Y-76924100D01*
X190601900Y-76924100D01*
X190601900Y-75196900D01*
X190246300Y-75196900D01*
X190246300Y-75539800D01*
X189890700Y-75539800D01*
X189890700Y-75184200D01*
X190245583Y-75184200D01*
X190249116Y-75009575D01*
X190252650Y-74834950D01*
X190427275Y-74831416D01*
X190601900Y-74827883D01*
X190601900Y-74498400D01*
X190957500Y-74498400D01*
X190957500Y-74828600D01*
G36*
X110312500Y-76238300D02*
X109956900Y-76238300D01*
X109956900Y-75882700D01*
X110312500Y-75882700D01*
X110312500Y-76238300D01*
X110312500Y-76238300D01*
G37*
X110312500Y-76238300D02*
X109956900Y-76238300D01*
X109956900Y-75882700D01*
X110312500Y-75882700D01*
X110312500Y-76238300D01*
G36*
X191681400Y-75552500D02*
X191325800Y-75552500D01*
X191325800Y-75184200D01*
X191681400Y-75184200D01*
X191681400Y-75552500D01*
X191681400Y-75552500D01*
G37*
X191681400Y-75552500D02*
X191325800Y-75552500D01*
X191325800Y-75184200D01*
X191681400Y-75184200D01*
X191681400Y-75552500D01*
G36*
X130784900Y-126962100D02*
X128206800Y-126962100D01*
X128206800Y-126327100D01*
X130784900Y-126327100D01*
X130784900Y-126962100D01*
X130784900Y-126962100D01*
G37*
X130784900Y-126962100D02*
X128206800Y-126962100D01*
X128206800Y-126327100D01*
X130784900Y-126327100D01*
X130784900Y-126962100D01*
G36*
X172593300Y-125146000D02*
X171945600Y-125146000D01*
X171945600Y-124485600D01*
X172593300Y-124485600D01*
X172593300Y-125146000D01*
X172593300Y-125146000D01*
G37*
X172593300Y-125146000D02*
X171945600Y-125146000D01*
X171945600Y-124485600D01*
X172593300Y-124485600D01*
X172593300Y-125146000D01*
G36*
X130007146Y-95610074D02*
X130435090Y-95655112D01*
X130858204Y-95723027D01*
X131089700Y-95770521D01*
X131488834Y-95871622D01*
X131884959Y-95997082D01*
X132275649Y-96145868D01*
X132658477Y-96316945D01*
X133031017Y-96509278D01*
X133390842Y-96721835D01*
X133524565Y-96808242D01*
X133875475Y-97055533D01*
X134215780Y-97325486D01*
X134544584Y-97617288D01*
X134860990Y-97930128D01*
X135164099Y-98263195D01*
X135263841Y-98380750D01*
X135531823Y-98721503D01*
X135778105Y-99074853D01*
X136002905Y-99441213D01*
X136206442Y-99821001D01*
X136388930Y-100214633D01*
X136550589Y-100622525D01*
X136691635Y-101045093D01*
X136738996Y-101206500D01*
X136788298Y-101386468D01*
X136830383Y-101553633D01*
X136865926Y-101712504D01*
X136895600Y-101867591D01*
X136920076Y-102023401D01*
X136940028Y-102184443D01*
X136956128Y-102355227D01*
X136969050Y-102540260D01*
X136979466Y-102744053D01*
X136983625Y-102845964D01*
X136988783Y-103041017D01*
X136989946Y-103244290D01*
X136987308Y-103451363D01*
X136981065Y-103657810D01*
X136971412Y-103859209D01*
X136958543Y-104051136D01*
X136942653Y-104229169D01*
X136923937Y-104388883D01*
X136912021Y-104470400D01*
X136878294Y-104655078D01*
X136833603Y-104856986D01*
X136779408Y-105071197D01*
X136717168Y-105292785D01*
X136648340Y-105516825D01*
X136574385Y-105738390D01*
X136496760Y-105952555D01*
X136416925Y-106154393D01*
X136404556Y-106183997D01*
X136221298Y-106587209D01*
X136017027Y-106976536D01*
X135792176Y-107351423D01*
X135547175Y-107711315D01*
X135282457Y-108055657D01*
X134998454Y-108383894D01*
X134695596Y-108695471D01*
X134374317Y-108989832D01*
X134035048Y-109266423D01*
X133966250Y-109318677D01*
X133742975Y-109479424D01*
X133505792Y-109637492D01*
X133260337Y-109789543D01*
X133012247Y-109932238D01*
X132767160Y-110062238D01*
X132530712Y-110176203D01*
X132480350Y-110198820D01*
X132121912Y-110347509D01*
X131764222Y-110475388D01*
X131403516Y-110583415D01*
X131036035Y-110672552D01*
X130658014Y-110743759D01*
X130265693Y-110797994D01*
X130041950Y-110820983D01*
X129979082Y-110825380D01*
X129895124Y-110829288D01*
X129794379Y-110832662D01*
X129681154Y-110835459D01*
X129559754Y-110837635D01*
X129434483Y-110839145D01*
X129309648Y-110839946D01*
X129189552Y-110839992D01*
X129078501Y-110839241D01*
X128980801Y-110837647D01*
X128900756Y-110835167D01*
X128860850Y-110833098D01*
X128424962Y-110793709D01*
X128001026Y-110732370D01*
X127587540Y-110648678D01*
X127183005Y-110542229D01*
X126785918Y-110412619D01*
X126394780Y-110259443D01*
X126008091Y-110082298D01*
X125933500Y-110045142D01*
X125542659Y-109833901D01*
X125167213Y-109602565D01*
X124807611Y-109351576D01*
X124464304Y-109081378D01*
X124137742Y-108792414D01*
X123828378Y-108485128D01*
X123536661Y-108159962D01*
X123263042Y-107817362D01*
X123007972Y-107457769D01*
X122771902Y-107081628D01*
X122590304Y-106756400D01*
X122467175Y-106509759D01*
X122349293Y-106246853D01*
X122238171Y-105972236D01*
X122135324Y-105690466D01*
X122042265Y-105406096D01*
X121960509Y-105123683D01*
X121891571Y-104847782D01*
X121836964Y-104582947D01*
X121807210Y-104400550D01*
X121794289Y-104306749D01*
X121783371Y-104218729D01*
X121774296Y-104133261D01*
X121766903Y-104047115D01*
X121761034Y-103957061D01*
X121756529Y-103859871D01*
X121753228Y-103752314D01*
X121750972Y-103631161D01*
X121749601Y-103493183D01*
X121748956Y-103335149D01*
X121748850Y-103219450D01*
X121748961Y-103195072D01*
X122641227Y-103195072D01*
X122642329Y-103496751D01*
X122658205Y-103803284D01*
X122688988Y-104120127D01*
X122726810Y-104400550D01*
X122755526Y-104576998D01*
X122786973Y-104744241D01*
X122820583Y-104900310D01*
X122855792Y-105043236D01*
X122892033Y-105171051D01*
X122928739Y-105281787D01*
X122965346Y-105373474D01*
X123001287Y-105444143D01*
X123035995Y-105491827D01*
X123042400Y-105498123D01*
X123061425Y-105514146D01*
X123079064Y-105521977D01*
X123103077Y-105522608D01*
X123141226Y-105517031D01*
X123161708Y-105513371D01*
X123233239Y-105498592D01*
X123320094Y-105477281D01*
X123423724Y-105449014D01*
X123545585Y-105413368D01*
X123687128Y-105369921D01*
X123849808Y-105318251D01*
X123996750Y-105270512D01*
X124098227Y-105237337D01*
X124194784Y-105205894D01*
X124283065Y-105177265D01*
X124359716Y-105152534D01*
X124421381Y-105132785D01*
X124464707Y-105119100D01*
X124482752Y-105113583D01*
X124549655Y-105093933D01*
X124581420Y-105141932D01*
X124597573Y-105169871D01*
X124621522Y-105215804D01*
X124650674Y-105274550D01*
X124682435Y-105340925D01*
X124701697Y-105382325D01*
X124764162Y-105514318D01*
X124827344Y-105639551D01*
X124894147Y-105763192D01*
X124967474Y-105890410D01*
X125050228Y-106026373D01*
X125145310Y-106176250D01*
X125162698Y-106203158D01*
X125237103Y-106320568D01*
X125295864Y-106418978D01*
X125339347Y-106499109D01*
X125367918Y-106561680D01*
X125381943Y-106607410D01*
X125382393Y-106634917D01*
X125370559Y-106651970D01*
X125340119Y-106684610D01*
X125291894Y-106732058D01*
X125226704Y-106793535D01*
X125145369Y-106868262D01*
X125048708Y-106955459D01*
X124988899Y-107008815D01*
X124840071Y-107142411D01*
X124710979Y-107261091D01*
X124601163Y-107365338D01*
X124510159Y-107455637D01*
X124437505Y-107532471D01*
X124382740Y-107596325D01*
X124345401Y-107647683D01*
X124325027Y-107687027D01*
X124320600Y-107708633D01*
X124327357Y-107735140D01*
X124348259Y-107771976D01*
X124384248Y-107820280D01*
X124436269Y-107881190D01*
X124505264Y-107955844D01*
X124592176Y-108045381D01*
X124637184Y-108090631D01*
X124851268Y-108297573D01*
X125060182Y-108484534D01*
X125268637Y-108654935D01*
X125481345Y-108812195D01*
X125703018Y-108959732D01*
X125938369Y-109100964D01*
X126192109Y-109239312D01*
X126289100Y-109289188D01*
X126544237Y-109414679D01*
X126784113Y-109524490D01*
X127012268Y-109620019D01*
X127232242Y-109702664D01*
X127447576Y-109773821D01*
X127661811Y-109834890D01*
X127690367Y-109842315D01*
X127804602Y-109869497D01*
X127897927Y-109886578D01*
X127972688Y-109893664D01*
X128031235Y-109890862D01*
X128075915Y-109878278D01*
X128103510Y-109861022D01*
X128122506Y-109841373D01*
X128141044Y-109813906D01*
X128159617Y-109776891D01*
X128178719Y-109728599D01*
X128198844Y-109667301D01*
X128220487Y-109591267D01*
X128244140Y-109498769D01*
X128270299Y-109388077D01*
X128299458Y-109257462D01*
X128332110Y-109105195D01*
X128366425Y-108940800D01*
X128394812Y-108805665D01*
X128419993Y-108690341D01*
X128441728Y-108595836D01*
X128459774Y-108523157D01*
X128473890Y-108473315D01*
X128483836Y-108447316D01*
X128484979Y-108445500D01*
X128496701Y-108431269D01*
X128511236Y-108419230D01*
X128530721Y-108409169D01*
X128557291Y-108400874D01*
X128593081Y-108394132D01*
X128640228Y-108388731D01*
X128700867Y-108384458D01*
X128777134Y-108381100D01*
X128871166Y-108378447D01*
X128985096Y-108376284D01*
X129121062Y-108374399D01*
X129210100Y-108373358D01*
X129413169Y-108371724D01*
X129591644Y-108371672D01*
X129746280Y-108373230D01*
X129877836Y-108376428D01*
X129987070Y-108381294D01*
X130074737Y-108387857D01*
X130141597Y-108396147D01*
X130188405Y-108406193D01*
X130203535Y-108411463D01*
X130215473Y-108415977D01*
X130225475Y-108419989D01*
X130234147Y-108425630D01*
X130242096Y-108435035D01*
X130249927Y-108450336D01*
X130258249Y-108473667D01*
X130267665Y-108507160D01*
X130278784Y-108552949D01*
X130292212Y-108613166D01*
X130308553Y-108689945D01*
X130328416Y-108785418D01*
X130352407Y-108901719D01*
X130377550Y-109023646D01*
X130412130Y-109189004D01*
X130442947Y-109331175D01*
X130470619Y-109451994D01*
X130495765Y-109553293D01*
X130519002Y-109636906D01*
X130540949Y-109704665D01*
X130562223Y-109758404D01*
X130583443Y-109799955D01*
X130605227Y-109831153D01*
X130628193Y-109853830D01*
X130652959Y-109869819D01*
X130664683Y-109875249D01*
X130699385Y-109886632D01*
X130737502Y-109891686D01*
X130783889Y-109890156D01*
X130843396Y-109881783D01*
X130920878Y-109866310D01*
X130948470Y-109860219D01*
X131130994Y-109813634D01*
X131329513Y-109752667D01*
X131540322Y-109678970D01*
X131759719Y-109594196D01*
X131983998Y-109499998D01*
X132209456Y-109398028D01*
X132432388Y-109289938D01*
X132649090Y-109177382D01*
X132855858Y-109062012D01*
X133048989Y-108945479D01*
X133159800Y-108873676D01*
X133271329Y-108796489D01*
X133386458Y-108711775D01*
X133503409Y-108621209D01*
X133620404Y-108526466D01*
X133735665Y-108429221D01*
X133847416Y-108331150D01*
X133953880Y-108233928D01*
X134053278Y-108139230D01*
X134143833Y-108048732D01*
X134223768Y-107964108D01*
X134291306Y-107887035D01*
X134344669Y-107819187D01*
X134382080Y-107762240D01*
X134401761Y-107717870D01*
X134404400Y-107700557D01*
X134396184Y-107670836D01*
X134371232Y-107629286D01*
X134329091Y-107575434D01*
X134269304Y-107508808D01*
X134191418Y-107428934D01*
X134094976Y-107335338D01*
X133979524Y-107227548D01*
X133844607Y-107105089D01*
X133756700Y-107026660D01*
X133656139Y-106937406D01*
X133572964Y-106863371D01*
X133505575Y-106802898D01*
X133452373Y-106754333D01*
X133411759Y-106716018D01*
X133382133Y-106686300D01*
X133361896Y-106663521D01*
X133349450Y-106646027D01*
X133343194Y-106632162D01*
X133341529Y-106620269D01*
X133342856Y-106608693D01*
X133344667Y-106600087D01*
X133353823Y-106568256D01*
X133369439Y-106530405D01*
X133393013Y-106483839D01*
X133426041Y-106425864D01*
X133470020Y-106353785D01*
X133526447Y-106264906D01*
X133557515Y-106216838D01*
X133713791Y-105966976D01*
X133851627Y-105727469D01*
X133970032Y-105500071D01*
X134011373Y-105413666D01*
X134055775Y-105319035D01*
X134091389Y-105245211D01*
X134119704Y-105189775D01*
X134142209Y-105150306D01*
X134160393Y-105124384D01*
X134175745Y-105109589D01*
X134189755Y-105103501D01*
X134202242Y-105103436D01*
X134221598Y-105108370D01*
X134261885Y-105120270D01*
X134319912Y-105138137D01*
X134392490Y-105160973D01*
X134476430Y-105187779D01*
X134568543Y-105217556D01*
X134613950Y-105232358D01*
X134787783Y-105288917D01*
X134939643Y-105337722D01*
X135071548Y-105379359D01*
X135185516Y-105414412D01*
X135283566Y-105443468D01*
X135367716Y-105467112D01*
X135439985Y-105485929D01*
X135502391Y-105500505D01*
X135556952Y-105511425D01*
X135600734Y-105518570D01*
X135638988Y-105522347D01*
X135663295Y-105517508D01*
X135684497Y-105500959D01*
X135692717Y-105492340D01*
X135731186Y-105438712D01*
X135769812Y-105361740D01*
X135808172Y-105263473D01*
X135845846Y-105145960D01*
X135882411Y-105011250D01*
X135917445Y-104861392D01*
X135950527Y-104698435D01*
X135981235Y-104524430D01*
X136009148Y-104341424D01*
X136033842Y-104151466D01*
X136054898Y-103956607D01*
X136071892Y-103758895D01*
X136082305Y-103599597D01*
X136088312Y-103414975D01*
X136086922Y-103216574D01*
X136078610Y-103008110D01*
X136063852Y-102793298D01*
X136043122Y-102575852D01*
X136016895Y-102359485D01*
X135985648Y-102147913D01*
X135949855Y-101944851D01*
X135909992Y-101754011D01*
X135866533Y-101579110D01*
X135819954Y-101423861D01*
X135794814Y-101352550D01*
X135760337Y-101267849D01*
X135728115Y-101205745D01*
X135696203Y-101163787D01*
X135662655Y-101139521D01*
X135625524Y-101130495D01*
X135618435Y-101130300D01*
X135583774Y-101134349D01*
X135527314Y-101146080D01*
X135451261Y-101164869D01*
X135357821Y-101190089D01*
X135249198Y-101221115D01*
X135127598Y-101257324D01*
X134995226Y-101298089D01*
X134854287Y-101342785D01*
X134753650Y-101375442D01*
X134616112Y-101420269D01*
X134500664Y-101457377D01*
X134405376Y-101487309D01*
X134328317Y-101510608D01*
X134267558Y-101527818D01*
X134221170Y-101539481D01*
X134187223Y-101546141D01*
X134163788Y-101548342D01*
X134148934Y-101546626D01*
X134147448Y-101546111D01*
X134135042Y-101530770D01*
X134121891Y-101498461D01*
X134114039Y-101469661D01*
X134102599Y-101434098D01*
X134080658Y-101379883D01*
X134049971Y-101310610D01*
X134012295Y-101229872D01*
X133969386Y-101141264D01*
X133923000Y-101048380D01*
X133874894Y-100954813D01*
X133826824Y-100864158D01*
X133780546Y-100780008D01*
X133755950Y-100736864D01*
X133680121Y-100608334D01*
X133609529Y-100494432D01*
X133538709Y-100386747D01*
X133462196Y-100276873D01*
X133410113Y-100204800D01*
X133361324Y-100136382D01*
X133328227Y-100085948D01*
X133310024Y-100052161D01*
X133305919Y-100033684D01*
X133306907Y-100031429D01*
X133319390Y-100018953D01*
X133348410Y-99992353D01*
X133391238Y-99954054D01*
X133445144Y-99906482D01*
X133507399Y-99852064D01*
X133562327Y-99804410D01*
X133697416Y-99686499D01*
X133838277Y-99561540D01*
X133979868Y-99434105D01*
X134117144Y-99308769D01*
X134245062Y-99190103D01*
X134358580Y-99082680D01*
X134363722Y-99077749D01*
X134494495Y-98952250D01*
X134270854Y-98720765D01*
X133988385Y-98441529D01*
X133701856Y-98184942D01*
X133407788Y-97948259D01*
X133102699Y-97728735D01*
X132783109Y-97523626D01*
X132660264Y-97450709D01*
X132534056Y-97380745D01*
X132395209Y-97309841D01*
X132246448Y-97238997D01*
X132090496Y-97169209D01*
X131930078Y-97101475D01*
X131767918Y-97036792D01*
X131606741Y-96976159D01*
X131449270Y-96920572D01*
X131298230Y-96871030D01*
X131156345Y-96828529D01*
X131026340Y-96794067D01*
X130910937Y-96768642D01*
X130812863Y-96753251D01*
X130743366Y-96748800D01*
X130691577Y-96749652D01*
X130657983Y-96753361D01*
X130635403Y-96761659D01*
X130616657Y-96776275D01*
X130612515Y-96780329D01*
X130596433Y-96798468D01*
X130581205Y-96820759D01*
X130566336Y-96849040D01*
X130551328Y-96885151D01*
X130535685Y-96930930D01*
X130518910Y-96988216D01*
X130500505Y-97058849D01*
X130479974Y-97144666D01*
X130456820Y-97247506D01*
X130430546Y-97369210D01*
X130400656Y-97511615D01*
X130366651Y-97676560D01*
X130355199Y-97732545D01*
X130256727Y-98214641D01*
X129654038Y-98215906D01*
X129504141Y-98216377D01*
X129376904Y-98217163D01*
X129269589Y-98218347D01*
X129179455Y-98220011D01*
X129103764Y-98222237D01*
X129039778Y-98225109D01*
X128984756Y-98228707D01*
X128935961Y-98233115D01*
X128890653Y-98238416D01*
X128886250Y-98238993D01*
X128812976Y-98247847D01*
X128738088Y-98255489D01*
X128670731Y-98261062D01*
X128623100Y-98263632D01*
X128594437Y-98265151D01*
X128569997Y-98266737D01*
X128549083Y-98266608D01*
X128530996Y-98262979D01*
X128515041Y-98254068D01*
X128500519Y-98238091D01*
X128486734Y-98213265D01*
X128472988Y-98177808D01*
X128458584Y-98129935D01*
X128442824Y-98067864D01*
X128425012Y-97989811D01*
X128404450Y-97893993D01*
X128380441Y-97778627D01*
X128352287Y-97641930D01*
X128321288Y-97491750D01*
X128292100Y-97353022D01*
X128266557Y-97236786D01*
X128243950Y-97140509D01*
X128223574Y-97061658D01*
X128204720Y-96997699D01*
X128186682Y-96946101D01*
X128168752Y-96904330D01*
X128150223Y-96869854D01*
X128145482Y-96862184D01*
X128114049Y-96820708D01*
X128077834Y-96790661D01*
X128033900Y-96771735D01*
X127979312Y-96763623D01*
X127911137Y-96766018D01*
X127826439Y-96778612D01*
X127722283Y-96801099D01*
X127674292Y-96812850D01*
X127393735Y-96891728D01*
X127106195Y-96988580D01*
X126816305Y-97101258D01*
X126528700Y-97227613D01*
X126248011Y-97365497D01*
X125978874Y-97512763D01*
X125725920Y-97667260D01*
X125504936Y-97818695D01*
X125378764Y-97912948D01*
X125250636Y-98013116D01*
X125122714Y-98117213D01*
X124997159Y-98223257D01*
X124876133Y-98329266D01*
X124761796Y-98433255D01*
X124656310Y-98533242D01*
X124561836Y-98627243D01*
X124480535Y-98713275D01*
X124414568Y-98789356D01*
X124366096Y-98853501D01*
X124350516Y-98878032D01*
X124328006Y-98927006D01*
X124325525Y-98963764D01*
X124325733Y-98964625D01*
X124343712Y-99003036D01*
X124382015Y-99056302D01*
X124440485Y-99124260D01*
X124518961Y-99206746D01*
X124617285Y-99303596D01*
X124735297Y-99414647D01*
X124872839Y-99539736D01*
X124968300Y-99624663D01*
X125068834Y-99713546D01*
X125151913Y-99787349D01*
X125219194Y-99847724D01*
X125272332Y-99896324D01*
X125312983Y-99934801D01*
X125342802Y-99964807D01*
X125363446Y-99987995D01*
X125376569Y-100006016D01*
X125383827Y-100020524D01*
X125386877Y-100033170D01*
X125387400Y-100042900D01*
X125384210Y-100067109D01*
X125373577Y-100097144D01*
X125353901Y-100135836D01*
X125323584Y-100186013D01*
X125281028Y-100250507D01*
X125224634Y-100332148D01*
X125221549Y-100336550D01*
X125141212Y-100456654D01*
X125054731Y-100596066D01*
X124964746Y-100750261D01*
X124873895Y-100914713D01*
X124784820Y-101084896D01*
X124783620Y-101087254D01*
X124727860Y-101198536D01*
X124684078Y-101289759D01*
X124651472Y-101362814D01*
X124629241Y-101419595D01*
X124616585Y-101461993D01*
X124612700Y-101491171D01*
X124611450Y-101511272D01*
X124606437Y-101526899D01*
X124595765Y-101537711D01*
X124577539Y-101543364D01*
X124549862Y-101543518D01*
X124510840Y-101537832D01*
X124458577Y-101525963D01*
X124391177Y-101507570D01*
X124306745Y-101482311D01*
X124203385Y-101449846D01*
X124079201Y-101409831D01*
X123977524Y-101376708D01*
X123822566Y-101326766D01*
X123677200Y-101281236D01*
X123543357Y-101240660D01*
X123422969Y-101205582D01*
X123317965Y-101176544D01*
X123230277Y-101154089D01*
X123161837Y-101138761D01*
X123114574Y-101131101D01*
X123101049Y-101130300D01*
X123064548Y-101138678D01*
X123038269Y-101155330D01*
X123002908Y-101202383D01*
X122966577Y-101272789D01*
X122929773Y-101364540D01*
X122892996Y-101475633D01*
X122856744Y-101604062D01*
X122821517Y-101747821D01*
X122787812Y-101904904D01*
X122756130Y-102073307D01*
X122726967Y-102251024D01*
X122700824Y-102436050D01*
X122682816Y-102584450D01*
X122654767Y-102892790D01*
X122641227Y-103195072D01*
X121748961Y-103195072D01*
X121749920Y-102985950D01*
X121753377Y-102774537D01*
X121759589Y-102581975D01*
X121768924Y-102405030D01*
X121781751Y-102240469D01*
X121798437Y-102085057D01*
X121819353Y-101935561D01*
X121844865Y-101788746D01*
X121875342Y-101641378D01*
X121911153Y-101490223D01*
X121952667Y-101332047D01*
X121971636Y-101263650D01*
X122099414Y-100846003D01*
X122242946Y-100447183D01*
X122403255Y-100065322D01*
X122581367Y-99698553D01*
X122778306Y-99345007D01*
X122995099Y-99002817D01*
X123232771Y-98670114D01*
X123492346Y-98345032D01*
X123710358Y-98095910D01*
X124021666Y-97771307D01*
X124346003Y-97468002D01*
X124682954Y-97186263D01*
X125032107Y-96926358D01*
X125393049Y-96688554D01*
X125765367Y-96473119D01*
X126148648Y-96280320D01*
X126542478Y-96110424D01*
X126946445Y-95963700D01*
X127056473Y-95928320D01*
X127458165Y-95815567D01*
X127870044Y-95725105D01*
X128289964Y-95657015D01*
X128715779Y-95611384D01*
X129145345Y-95588294D01*
X129576516Y-95587829D01*
X130007146Y-95610074D01*
X130007146Y-95610074D01*
G37*
X130007146Y-95610074D02*
X130435090Y-95655112D01*
X130858204Y-95723027D01*
X131089700Y-95770521D01*
X131488834Y-95871622D01*
X131884959Y-95997082D01*
X132275649Y-96145868D01*
X132658477Y-96316945D01*
X133031017Y-96509278D01*
X133390842Y-96721835D01*
X133524565Y-96808242D01*
X133875475Y-97055533D01*
X134215780Y-97325486D01*
X134544584Y-97617288D01*
X134860990Y-97930128D01*
X135164099Y-98263195D01*
X135263841Y-98380750D01*
X135531823Y-98721503D01*
X135778105Y-99074853D01*
X136002905Y-99441213D01*
X136206442Y-99821001D01*
X136388930Y-100214633D01*
X136550589Y-100622525D01*
X136691635Y-101045093D01*
X136738996Y-101206500D01*
X136788298Y-101386468D01*
X136830383Y-101553633D01*
X136865926Y-101712504D01*
X136895600Y-101867591D01*
X136920076Y-102023401D01*
X136940028Y-102184443D01*
X136956128Y-102355227D01*
X136969050Y-102540260D01*
X136979466Y-102744053D01*
X136983625Y-102845964D01*
X136988783Y-103041017D01*
X136989946Y-103244290D01*
X136987308Y-103451363D01*
X136981065Y-103657810D01*
X136971412Y-103859209D01*
X136958543Y-104051136D01*
X136942653Y-104229169D01*
X136923937Y-104388883D01*
X136912021Y-104470400D01*
X136878294Y-104655078D01*
X136833603Y-104856986D01*
X136779408Y-105071197D01*
X136717168Y-105292785D01*
X136648340Y-105516825D01*
X136574385Y-105738390D01*
X136496760Y-105952555D01*
X136416925Y-106154393D01*
X136404556Y-106183997D01*
X136221298Y-106587209D01*
X136017027Y-106976536D01*
X135792176Y-107351423D01*
X135547175Y-107711315D01*
X135282457Y-108055657D01*
X134998454Y-108383894D01*
X134695596Y-108695471D01*
X134374317Y-108989832D01*
X134035048Y-109266423D01*
X133966250Y-109318677D01*
X133742975Y-109479424D01*
X133505792Y-109637492D01*
X133260337Y-109789543D01*
X133012247Y-109932238D01*
X132767160Y-110062238D01*
X132530712Y-110176203D01*
X132480350Y-110198820D01*
X132121912Y-110347509D01*
X131764222Y-110475388D01*
X131403516Y-110583415D01*
X131036035Y-110672552D01*
X130658014Y-110743759D01*
X130265693Y-110797994D01*
X130041950Y-110820983D01*
X129979082Y-110825380D01*
X129895124Y-110829288D01*
X129794379Y-110832662D01*
X129681154Y-110835459D01*
X129559754Y-110837635D01*
X129434483Y-110839145D01*
X129309648Y-110839946D01*
X129189552Y-110839992D01*
X129078501Y-110839241D01*
X128980801Y-110837647D01*
X128900756Y-110835167D01*
X128860850Y-110833098D01*
X128424962Y-110793709D01*
X128001026Y-110732370D01*
X127587540Y-110648678D01*
X127183005Y-110542229D01*
X126785918Y-110412619D01*
X126394780Y-110259443D01*
X126008091Y-110082298D01*
X125933500Y-110045142D01*
X125542659Y-109833901D01*
X125167213Y-109602565D01*
X124807611Y-109351576D01*
X124464304Y-109081378D01*
X124137742Y-108792414D01*
X123828378Y-108485128D01*
X123536661Y-108159962D01*
X123263042Y-107817362D01*
X123007972Y-107457769D01*
X122771902Y-107081628D01*
X122590304Y-106756400D01*
X122467175Y-106509759D01*
X122349293Y-106246853D01*
X122238171Y-105972236D01*
X122135324Y-105690466D01*
X122042265Y-105406096D01*
X121960509Y-105123683D01*
X121891571Y-104847782D01*
X121836964Y-104582947D01*
X121807210Y-104400550D01*
X121794289Y-104306749D01*
X121783371Y-104218729D01*
X121774296Y-104133261D01*
X121766903Y-104047115D01*
X121761034Y-103957061D01*
X121756529Y-103859871D01*
X121753228Y-103752314D01*
X121750972Y-103631161D01*
X121749601Y-103493183D01*
X121748956Y-103335149D01*
X121748850Y-103219450D01*
X121748961Y-103195072D01*
X122641227Y-103195072D01*
X122642329Y-103496751D01*
X122658205Y-103803284D01*
X122688988Y-104120127D01*
X122726810Y-104400550D01*
X122755526Y-104576998D01*
X122786973Y-104744241D01*
X122820583Y-104900310D01*
X122855792Y-105043236D01*
X122892033Y-105171051D01*
X122928739Y-105281787D01*
X122965346Y-105373474D01*
X123001287Y-105444143D01*
X123035995Y-105491827D01*
X123042400Y-105498123D01*
X123061425Y-105514146D01*
X123079064Y-105521977D01*
X123103077Y-105522608D01*
X123141226Y-105517031D01*
X123161708Y-105513371D01*
X123233239Y-105498592D01*
X123320094Y-105477281D01*
X123423724Y-105449014D01*
X123545585Y-105413368D01*
X123687128Y-105369921D01*
X123849808Y-105318251D01*
X123996750Y-105270512D01*
X124098227Y-105237337D01*
X124194784Y-105205894D01*
X124283065Y-105177265D01*
X124359716Y-105152534D01*
X124421381Y-105132785D01*
X124464707Y-105119100D01*
X124482752Y-105113583D01*
X124549655Y-105093933D01*
X124581420Y-105141932D01*
X124597573Y-105169871D01*
X124621522Y-105215804D01*
X124650674Y-105274550D01*
X124682435Y-105340925D01*
X124701697Y-105382325D01*
X124764162Y-105514318D01*
X124827344Y-105639551D01*
X124894147Y-105763192D01*
X124967474Y-105890410D01*
X125050228Y-106026373D01*
X125145310Y-106176250D01*
X125162698Y-106203158D01*
X125237103Y-106320568D01*
X125295864Y-106418978D01*
X125339347Y-106499109D01*
X125367918Y-106561680D01*
X125381943Y-106607410D01*
X125382393Y-106634917D01*
X125370559Y-106651970D01*
X125340119Y-106684610D01*
X125291894Y-106732058D01*
X125226704Y-106793535D01*
X125145369Y-106868262D01*
X125048708Y-106955459D01*
X124988899Y-107008815D01*
X124840071Y-107142411D01*
X124710979Y-107261091D01*
X124601163Y-107365338D01*
X124510159Y-107455637D01*
X124437505Y-107532471D01*
X124382740Y-107596325D01*
X124345401Y-107647683D01*
X124325027Y-107687027D01*
X124320600Y-107708633D01*
X124327357Y-107735140D01*
X124348259Y-107771976D01*
X124384248Y-107820280D01*
X124436269Y-107881190D01*
X124505264Y-107955844D01*
X124592176Y-108045381D01*
X124637184Y-108090631D01*
X124851268Y-108297573D01*
X125060182Y-108484534D01*
X125268637Y-108654935D01*
X125481345Y-108812195D01*
X125703018Y-108959732D01*
X125938369Y-109100964D01*
X126192109Y-109239312D01*
X126289100Y-109289188D01*
X126544237Y-109414679D01*
X126784113Y-109524490D01*
X127012268Y-109620019D01*
X127232242Y-109702664D01*
X127447576Y-109773821D01*
X127661811Y-109834890D01*
X127690367Y-109842315D01*
X127804602Y-109869497D01*
X127897927Y-109886578D01*
X127972688Y-109893664D01*
X128031235Y-109890862D01*
X128075915Y-109878278D01*
X128103510Y-109861022D01*
X128122506Y-109841373D01*
X128141044Y-109813906D01*
X128159617Y-109776891D01*
X128178719Y-109728599D01*
X128198844Y-109667301D01*
X128220487Y-109591267D01*
X128244140Y-109498769D01*
X128270299Y-109388077D01*
X128299458Y-109257462D01*
X128332110Y-109105195D01*
X128366425Y-108940800D01*
X128394812Y-108805665D01*
X128419993Y-108690341D01*
X128441728Y-108595836D01*
X128459774Y-108523157D01*
X128473890Y-108473315D01*
X128483836Y-108447316D01*
X128484979Y-108445500D01*
X128496701Y-108431269D01*
X128511236Y-108419230D01*
X128530721Y-108409169D01*
X128557291Y-108400874D01*
X128593081Y-108394132D01*
X128640228Y-108388731D01*
X128700867Y-108384458D01*
X128777134Y-108381100D01*
X128871166Y-108378447D01*
X128985096Y-108376284D01*
X129121062Y-108374399D01*
X129210100Y-108373358D01*
X129413169Y-108371724D01*
X129591644Y-108371672D01*
X129746280Y-108373230D01*
X129877836Y-108376428D01*
X129987070Y-108381294D01*
X130074737Y-108387857D01*
X130141597Y-108396147D01*
X130188405Y-108406193D01*
X130203535Y-108411463D01*
X130215473Y-108415977D01*
X130225475Y-108419989D01*
X130234147Y-108425630D01*
X130242096Y-108435035D01*
X130249927Y-108450336D01*
X130258249Y-108473667D01*
X130267665Y-108507160D01*
X130278784Y-108552949D01*
X130292212Y-108613166D01*
X130308553Y-108689945D01*
X130328416Y-108785418D01*
X130352407Y-108901719D01*
X130377550Y-109023646D01*
X130412130Y-109189004D01*
X130442947Y-109331175D01*
X130470619Y-109451994D01*
X130495765Y-109553293D01*
X130519002Y-109636906D01*
X130540949Y-109704665D01*
X130562223Y-109758404D01*
X130583443Y-109799955D01*
X130605227Y-109831153D01*
X130628193Y-109853830D01*
X130652959Y-109869819D01*
X130664683Y-109875249D01*
X130699385Y-109886632D01*
X130737502Y-109891686D01*
X130783889Y-109890156D01*
X130843396Y-109881783D01*
X130920878Y-109866310D01*
X130948470Y-109860219D01*
X131130994Y-109813634D01*
X131329513Y-109752667D01*
X131540322Y-109678970D01*
X131759719Y-109594196D01*
X131983998Y-109499998D01*
X132209456Y-109398028D01*
X132432388Y-109289938D01*
X132649090Y-109177382D01*
X132855858Y-109062012D01*
X133048989Y-108945479D01*
X133159800Y-108873676D01*
X133271329Y-108796489D01*
X133386458Y-108711775D01*
X133503409Y-108621209D01*
X133620404Y-108526466D01*
X133735665Y-108429221D01*
X133847416Y-108331150D01*
X133953880Y-108233928D01*
X134053278Y-108139230D01*
X134143833Y-108048732D01*
X134223768Y-107964108D01*
X134291306Y-107887035D01*
X134344669Y-107819187D01*
X134382080Y-107762240D01*
X134401761Y-107717870D01*
X134404400Y-107700557D01*
X134396184Y-107670836D01*
X134371232Y-107629286D01*
X134329091Y-107575434D01*
X134269304Y-107508808D01*
X134191418Y-107428934D01*
X134094976Y-107335338D01*
X133979524Y-107227548D01*
X133844607Y-107105089D01*
X133756700Y-107026660D01*
X133656139Y-106937406D01*
X133572964Y-106863371D01*
X133505575Y-106802898D01*
X133452373Y-106754333D01*
X133411759Y-106716018D01*
X133382133Y-106686300D01*
X133361896Y-106663521D01*
X133349450Y-106646027D01*
X133343194Y-106632162D01*
X133341529Y-106620269D01*
X133342856Y-106608693D01*
X133344667Y-106600087D01*
X133353823Y-106568256D01*
X133369439Y-106530405D01*
X133393013Y-106483839D01*
X133426041Y-106425864D01*
X133470020Y-106353785D01*
X133526447Y-106264906D01*
X133557515Y-106216838D01*
X133713791Y-105966976D01*
X133851627Y-105727469D01*
X133970032Y-105500071D01*
X134011373Y-105413666D01*
X134055775Y-105319035D01*
X134091389Y-105245211D01*
X134119704Y-105189775D01*
X134142209Y-105150306D01*
X134160393Y-105124384D01*
X134175745Y-105109589D01*
X134189755Y-105103501D01*
X134202242Y-105103436D01*
X134221598Y-105108370D01*
X134261885Y-105120270D01*
X134319912Y-105138137D01*
X134392490Y-105160973D01*
X134476430Y-105187779D01*
X134568543Y-105217556D01*
X134613950Y-105232358D01*
X134787783Y-105288917D01*
X134939643Y-105337722D01*
X135071548Y-105379359D01*
X135185516Y-105414412D01*
X135283566Y-105443468D01*
X135367716Y-105467112D01*
X135439985Y-105485929D01*
X135502391Y-105500505D01*
X135556952Y-105511425D01*
X135600734Y-105518570D01*
X135638988Y-105522347D01*
X135663295Y-105517508D01*
X135684497Y-105500959D01*
X135692717Y-105492340D01*
X135731186Y-105438712D01*
X135769812Y-105361740D01*
X135808172Y-105263473D01*
X135845846Y-105145960D01*
X135882411Y-105011250D01*
X135917445Y-104861392D01*
X135950527Y-104698435D01*
X135981235Y-104524430D01*
X136009148Y-104341424D01*
X136033842Y-104151466D01*
X136054898Y-103956607D01*
X136071892Y-103758895D01*
X136082305Y-103599597D01*
X136088312Y-103414975D01*
X136086922Y-103216574D01*
X136078610Y-103008110D01*
X136063852Y-102793298D01*
X136043122Y-102575852D01*
X136016895Y-102359485D01*
X135985648Y-102147913D01*
X135949855Y-101944851D01*
X135909992Y-101754011D01*
X135866533Y-101579110D01*
X135819954Y-101423861D01*
X135794814Y-101352550D01*
X135760337Y-101267849D01*
X135728115Y-101205745D01*
X135696203Y-101163787D01*
X135662655Y-101139521D01*
X135625524Y-101130495D01*
X135618435Y-101130300D01*
X135583774Y-101134349D01*
X135527314Y-101146080D01*
X135451261Y-101164869D01*
X135357821Y-101190089D01*
X135249198Y-101221115D01*
X135127598Y-101257324D01*
X134995226Y-101298089D01*
X134854287Y-101342785D01*
X134753650Y-101375442D01*
X134616112Y-101420269D01*
X134500664Y-101457377D01*
X134405376Y-101487309D01*
X134328317Y-101510608D01*
X134267558Y-101527818D01*
X134221170Y-101539481D01*
X134187223Y-101546141D01*
X134163788Y-101548342D01*
X134148934Y-101546626D01*
X134147448Y-101546111D01*
X134135042Y-101530770D01*
X134121891Y-101498461D01*
X134114039Y-101469661D01*
X134102599Y-101434098D01*
X134080658Y-101379883D01*
X134049971Y-101310610D01*
X134012295Y-101229872D01*
X133969386Y-101141264D01*
X133923000Y-101048380D01*
X133874894Y-100954813D01*
X133826824Y-100864158D01*
X133780546Y-100780008D01*
X133755950Y-100736864D01*
X133680121Y-100608334D01*
X133609529Y-100494432D01*
X133538709Y-100386747D01*
X133462196Y-100276873D01*
X133410113Y-100204800D01*
X133361324Y-100136382D01*
X133328227Y-100085948D01*
X133310024Y-100052161D01*
X133305919Y-100033684D01*
X133306907Y-100031429D01*
X133319390Y-100018953D01*
X133348410Y-99992353D01*
X133391238Y-99954054D01*
X133445144Y-99906482D01*
X133507399Y-99852064D01*
X133562327Y-99804410D01*
X133697416Y-99686499D01*
X133838277Y-99561540D01*
X133979868Y-99434105D01*
X134117144Y-99308769D01*
X134245062Y-99190103D01*
X134358580Y-99082680D01*
X134363722Y-99077749D01*
X134494495Y-98952250D01*
X134270854Y-98720765D01*
X133988385Y-98441529D01*
X133701856Y-98184942D01*
X133407788Y-97948259D01*
X133102699Y-97728735D01*
X132783109Y-97523626D01*
X132660264Y-97450709D01*
X132534056Y-97380745D01*
X132395209Y-97309841D01*
X132246448Y-97238997D01*
X132090496Y-97169209D01*
X131930078Y-97101475D01*
X131767918Y-97036792D01*
X131606741Y-96976159D01*
X131449270Y-96920572D01*
X131298230Y-96871030D01*
X131156345Y-96828529D01*
X131026340Y-96794067D01*
X130910937Y-96768642D01*
X130812863Y-96753251D01*
X130743366Y-96748800D01*
X130691577Y-96749652D01*
X130657983Y-96753361D01*
X130635403Y-96761659D01*
X130616657Y-96776275D01*
X130612515Y-96780329D01*
X130596433Y-96798468D01*
X130581205Y-96820759D01*
X130566336Y-96849040D01*
X130551328Y-96885151D01*
X130535685Y-96930930D01*
X130518910Y-96988216D01*
X130500505Y-97058849D01*
X130479974Y-97144666D01*
X130456820Y-97247506D01*
X130430546Y-97369210D01*
X130400656Y-97511615D01*
X130366651Y-97676560D01*
X130355199Y-97732545D01*
X130256727Y-98214641D01*
X129654038Y-98215906D01*
X129504141Y-98216377D01*
X129376904Y-98217163D01*
X129269589Y-98218347D01*
X129179455Y-98220011D01*
X129103764Y-98222237D01*
X129039778Y-98225109D01*
X128984756Y-98228707D01*
X128935961Y-98233115D01*
X128890653Y-98238416D01*
X128886250Y-98238993D01*
X128812976Y-98247847D01*
X128738088Y-98255489D01*
X128670731Y-98261062D01*
X128623100Y-98263632D01*
X128594437Y-98265151D01*
X128569997Y-98266737D01*
X128549083Y-98266608D01*
X128530996Y-98262979D01*
X128515041Y-98254068D01*
X128500519Y-98238091D01*
X128486734Y-98213265D01*
X128472988Y-98177808D01*
X128458584Y-98129935D01*
X128442824Y-98067864D01*
X128425012Y-97989811D01*
X128404450Y-97893993D01*
X128380441Y-97778627D01*
X128352287Y-97641930D01*
X128321288Y-97491750D01*
X128292100Y-97353022D01*
X128266557Y-97236786D01*
X128243950Y-97140509D01*
X128223574Y-97061658D01*
X128204720Y-96997699D01*
X128186682Y-96946101D01*
X128168752Y-96904330D01*
X128150223Y-96869854D01*
X128145482Y-96862184D01*
X128114049Y-96820708D01*
X128077834Y-96790661D01*
X128033900Y-96771735D01*
X127979312Y-96763623D01*
X127911137Y-96766018D01*
X127826439Y-96778612D01*
X127722283Y-96801099D01*
X127674292Y-96812850D01*
X127393735Y-96891728D01*
X127106195Y-96988580D01*
X126816305Y-97101258D01*
X126528700Y-97227613D01*
X126248011Y-97365497D01*
X125978874Y-97512763D01*
X125725920Y-97667260D01*
X125504936Y-97818695D01*
X125378764Y-97912948D01*
X125250636Y-98013116D01*
X125122714Y-98117213D01*
X124997159Y-98223257D01*
X124876133Y-98329266D01*
X124761796Y-98433255D01*
X124656310Y-98533242D01*
X124561836Y-98627243D01*
X124480535Y-98713275D01*
X124414568Y-98789356D01*
X124366096Y-98853501D01*
X124350516Y-98878032D01*
X124328006Y-98927006D01*
X124325525Y-98963764D01*
X124325733Y-98964625D01*
X124343712Y-99003036D01*
X124382015Y-99056302D01*
X124440485Y-99124260D01*
X124518961Y-99206746D01*
X124617285Y-99303596D01*
X124735297Y-99414647D01*
X124872839Y-99539736D01*
X124968300Y-99624663D01*
X125068834Y-99713546D01*
X125151913Y-99787349D01*
X125219194Y-99847724D01*
X125272332Y-99896324D01*
X125312983Y-99934801D01*
X125342802Y-99964807D01*
X125363446Y-99987995D01*
X125376569Y-100006016D01*
X125383827Y-100020524D01*
X125386877Y-100033170D01*
X125387400Y-100042900D01*
X125384210Y-100067109D01*
X125373577Y-100097144D01*
X125353901Y-100135836D01*
X125323584Y-100186013D01*
X125281028Y-100250507D01*
X125224634Y-100332148D01*
X125221549Y-100336550D01*
X125141212Y-100456654D01*
X125054731Y-100596066D01*
X124964746Y-100750261D01*
X124873895Y-100914713D01*
X124784820Y-101084896D01*
X124783620Y-101087254D01*
X124727860Y-101198536D01*
X124684078Y-101289759D01*
X124651472Y-101362814D01*
X124629241Y-101419595D01*
X124616585Y-101461993D01*
X124612700Y-101491171D01*
X124611450Y-101511272D01*
X124606437Y-101526899D01*
X124595765Y-101537711D01*
X124577539Y-101543364D01*
X124549862Y-101543518D01*
X124510840Y-101537832D01*
X124458577Y-101525963D01*
X124391177Y-101507570D01*
X124306745Y-101482311D01*
X124203385Y-101449846D01*
X124079201Y-101409831D01*
X123977524Y-101376708D01*
X123822566Y-101326766D01*
X123677200Y-101281236D01*
X123543357Y-101240660D01*
X123422969Y-101205582D01*
X123317965Y-101176544D01*
X123230277Y-101154089D01*
X123161837Y-101138761D01*
X123114574Y-101131101D01*
X123101049Y-101130300D01*
X123064548Y-101138678D01*
X123038269Y-101155330D01*
X123002908Y-101202383D01*
X122966577Y-101272789D01*
X122929773Y-101364540D01*
X122892996Y-101475633D01*
X122856744Y-101604062D01*
X122821517Y-101747821D01*
X122787812Y-101904904D01*
X122756130Y-102073307D01*
X122726967Y-102251024D01*
X122700824Y-102436050D01*
X122682816Y-102584450D01*
X122654767Y-102892790D01*
X122641227Y-103195072D01*
X121748961Y-103195072D01*
X121749920Y-102985950D01*
X121753377Y-102774537D01*
X121759589Y-102581975D01*
X121768924Y-102405030D01*
X121781751Y-102240469D01*
X121798437Y-102085057D01*
X121819353Y-101935561D01*
X121844865Y-101788746D01*
X121875342Y-101641378D01*
X121911153Y-101490223D01*
X121952667Y-101332047D01*
X121971636Y-101263650D01*
X122099414Y-100846003D01*
X122242946Y-100447183D01*
X122403255Y-100065322D01*
X122581367Y-99698553D01*
X122778306Y-99345007D01*
X122995099Y-99002817D01*
X123232771Y-98670114D01*
X123492346Y-98345032D01*
X123710358Y-98095910D01*
X124021666Y-97771307D01*
X124346003Y-97468002D01*
X124682954Y-97186263D01*
X125032107Y-96926358D01*
X125393049Y-96688554D01*
X125765367Y-96473119D01*
X126148648Y-96280320D01*
X126542478Y-96110424D01*
X126946445Y-95963700D01*
X127056473Y-95928320D01*
X127458165Y-95815567D01*
X127870044Y-95725105D01*
X128289964Y-95657015D01*
X128715779Y-95611384D01*
X129145345Y-95588294D01*
X129576516Y-95587829D01*
X130007146Y-95610074D01*
G36*
X170882499Y-95588363D02*
X171314527Y-95611194D01*
X171742863Y-95656831D01*
X172165088Y-95725267D01*
X172578786Y-95816495D01*
X172626875Y-95828750D01*
X173039412Y-95948380D01*
X173441985Y-96091340D01*
X173834409Y-96257521D01*
X174216498Y-96446810D01*
X174588068Y-96659097D01*
X174948934Y-96894271D01*
X175298910Y-97152220D01*
X175637812Y-97432834D01*
X175965454Y-97736001D01*
X176198304Y-97972427D01*
X176497198Y-98304852D01*
X176772694Y-98646843D01*
X177025212Y-98999150D01*
X177255173Y-99362517D01*
X177462997Y-99737693D01*
X177649107Y-100125423D01*
X177813922Y-100526456D01*
X177957863Y-100941537D01*
X178052846Y-101264246D01*
X178095758Y-101425387D01*
X178132999Y-101574753D01*
X178164947Y-101715630D01*
X178191979Y-101851303D01*
X178214471Y-101985054D01*
X178232801Y-102120170D01*
X178247345Y-102259934D01*
X178258481Y-102407632D01*
X178266586Y-102566547D01*
X178272036Y-102739965D01*
X178275209Y-102931170D01*
X178276482Y-103143446D01*
X178276550Y-103213100D01*
X178275849Y-103428328D01*
X178273520Y-103621407D01*
X178269217Y-103795555D01*
X178262596Y-103953989D01*
X178253314Y-104099928D01*
X178241025Y-104236590D01*
X178225387Y-104367193D01*
X178206055Y-104494954D01*
X178182685Y-104623093D01*
X178154932Y-104754827D01*
X178122454Y-104893373D01*
X178084904Y-105041951D01*
X178078290Y-105067300D01*
X177951128Y-105504950D01*
X177802490Y-105929478D01*
X177632733Y-106340443D01*
X177442212Y-106737401D01*
X177231283Y-107119911D01*
X177000304Y-107487531D01*
X176749631Y-107839819D01*
X176479619Y-108176333D01*
X176190625Y-108496630D01*
X175883005Y-108800269D01*
X175557116Y-109086807D01*
X175213314Y-109355803D01*
X174851955Y-109606815D01*
X174473395Y-109839400D01*
X174077991Y-110053116D01*
X174047450Y-110068481D01*
X173671613Y-110243898D01*
X173290828Y-110396169D01*
X172903487Y-110525716D01*
X172507984Y-110632961D01*
X172102712Y-110718329D01*
X171686066Y-110782242D01*
X171256437Y-110825123D01*
X171145500Y-110832689D01*
X171070043Y-110836287D01*
X170974863Y-110839164D01*
X170865629Y-110841293D01*
X170748009Y-110842645D01*
X170627670Y-110843194D01*
X170510281Y-110842912D01*
X170401510Y-110841772D01*
X170307024Y-110839747D01*
X170237450Y-110837071D01*
X170199333Y-110834695D01*
X170141874Y-110830594D01*
X170071037Y-110825217D01*
X169992786Y-110819015D01*
X169932650Y-110814078D01*
X169510373Y-110766283D01*
X169093732Y-110694202D01*
X168683592Y-110598497D01*
X168280820Y-110479829D01*
X167886279Y-110338861D01*
X167500837Y-110176255D01*
X167125357Y-109992671D01*
X166760705Y-109788773D01*
X166407747Y-109565222D01*
X166067347Y-109322680D01*
X165740372Y-109061808D01*
X165427687Y-108783269D01*
X165130157Y-108487725D01*
X164848647Y-108175837D01*
X164584023Y-107848267D01*
X164337149Y-107505678D01*
X164108893Y-107148730D01*
X163900117Y-106778087D01*
X163711690Y-106394409D01*
X163544474Y-105998358D01*
X163506704Y-105899150D01*
X163402346Y-105603293D01*
X163310101Y-105309123D01*
X163231078Y-105020747D01*
X163166382Y-104742271D01*
X163117120Y-104477804D01*
X163108121Y-104419600D01*
X163095719Y-104333635D01*
X163085163Y-104254072D01*
X163076310Y-104177938D01*
X163069014Y-104102263D01*
X163063130Y-104024073D01*
X163058512Y-103940396D01*
X163055017Y-103848261D01*
X163052499Y-103744695D01*
X163050814Y-103626726D01*
X163049816Y-103491382D01*
X163049360Y-103335691D01*
X163049317Y-103263945D01*
X163937804Y-103263945D01*
X163942212Y-103569818D01*
X163961743Y-103880663D01*
X163996396Y-104202824D01*
X164015150Y-104340876D01*
X164042517Y-104517111D01*
X164072764Y-104685715D01*
X164105312Y-104844556D01*
X164139580Y-104991505D01*
X164174989Y-105124430D01*
X164210959Y-105241199D01*
X164246911Y-105339681D01*
X164282264Y-105417746D01*
X164316439Y-105473262D01*
X164326484Y-105485322D01*
X164351953Y-105510665D01*
X164373969Y-105521396D01*
X164403973Y-105521419D01*
X164424553Y-105518775D01*
X164488878Y-105506939D01*
X164575503Y-105486602D01*
X164682948Y-105458187D01*
X164809731Y-105422119D01*
X164954373Y-105378821D01*
X165115393Y-105328717D01*
X165291310Y-105272231D01*
X165329374Y-105259805D01*
X165434042Y-105225690D01*
X165532076Y-105194021D01*
X165620636Y-105165692D01*
X165696879Y-105141602D01*
X165757964Y-105122646D01*
X165801048Y-105109723D01*
X165823289Y-105103729D01*
X165824674Y-105103480D01*
X165834351Y-105103473D01*
X165844182Y-105107901D01*
X165855603Y-105119148D01*
X165870053Y-105139604D01*
X165888969Y-105171656D01*
X165913789Y-105217689D01*
X165945952Y-105280092D01*
X165986895Y-105361250D01*
X166021050Y-105429499D01*
X166084914Y-105556393D01*
X166140967Y-105665332D01*
X166192088Y-105761402D01*
X166241158Y-105849687D01*
X166291060Y-105935273D01*
X166344672Y-106023244D01*
X166404876Y-106118687D01*
X166459795Y-106203950D01*
X166525947Y-106307164D01*
X166578484Y-106391977D01*
X166618604Y-106460622D01*
X166647506Y-106515329D01*
X166666387Y-106558332D01*
X166676447Y-106591861D01*
X166678921Y-106612011D01*
X166679691Y-106623321D01*
X166680193Y-106632795D01*
X166678801Y-106642069D01*
X166673891Y-106652774D01*
X166663836Y-106666547D01*
X166647010Y-106685021D01*
X166621788Y-106709831D01*
X166586544Y-106742609D01*
X166539652Y-106784991D01*
X166479488Y-106838610D01*
X166404424Y-106905101D01*
X166312836Y-106986097D01*
X166262184Y-107030911D01*
X166114533Y-107163126D01*
X165986962Y-107280680D01*
X165879095Y-107383971D01*
X165790559Y-107473397D01*
X165720978Y-107549356D01*
X165669977Y-107612245D01*
X165637181Y-107662463D01*
X165622216Y-107700408D01*
X165621122Y-107711188D01*
X165631027Y-107744534D01*
X165659325Y-107791592D01*
X165704208Y-107850674D01*
X165763870Y-107920092D01*
X165836505Y-107998158D01*
X165920304Y-108083185D01*
X166013463Y-108173483D01*
X166114174Y-108267364D01*
X166220631Y-108363142D01*
X166331027Y-108459127D01*
X166443555Y-108553631D01*
X166556409Y-108644966D01*
X166667782Y-108731445D01*
X166775867Y-108811379D01*
X166866068Y-108874451D01*
X166975655Y-108945371D01*
X167104700Y-109023172D01*
X167248947Y-109105624D01*
X167404143Y-109190501D01*
X167566033Y-109275573D01*
X167730365Y-109358613D01*
X167892884Y-109437392D01*
X168049336Y-109509681D01*
X168195467Y-109573253D01*
X168218150Y-109582692D01*
X168357232Y-109638077D01*
X168498349Y-109690402D01*
X168638334Y-109738737D01*
X168774020Y-109782151D01*
X168902241Y-109819715D01*
X169019829Y-109850498D01*
X169123618Y-109873572D01*
X169210442Y-109888005D01*
X169274450Y-109892867D01*
X169324954Y-109891917D01*
X169358452Y-109887113D01*
X169383276Y-109876406D01*
X169403910Y-109861022D01*
X169430767Y-109829927D01*
X169456296Y-109786799D01*
X169466833Y-109762597D01*
X169487997Y-109698467D01*
X169512884Y-109610273D01*
X169541246Y-109499041D01*
X169572837Y-109365797D01*
X169607410Y-109211564D01*
X169644720Y-109037369D01*
X169666106Y-108934450D01*
X169691730Y-108809748D01*
X169712801Y-108707560D01*
X169730015Y-108625547D01*
X169744068Y-108561372D01*
X169755657Y-108512697D01*
X169765478Y-108477183D01*
X169774227Y-108452492D01*
X169782600Y-108436286D01*
X169791295Y-108426228D01*
X169801007Y-108419979D01*
X169812432Y-108415201D01*
X169821864Y-108411463D01*
X169859618Y-108400592D01*
X169917072Y-108391490D01*
X169994983Y-108384129D01*
X170094107Y-108378478D01*
X170215203Y-108374509D01*
X170359028Y-108372194D01*
X170526338Y-108371502D01*
X170717893Y-108372405D01*
X170815300Y-108373358D01*
X170964924Y-108375179D01*
X171091283Y-108377156D01*
X171196511Y-108379502D01*
X171282744Y-108382429D01*
X171352115Y-108386149D01*
X171406760Y-108390875D01*
X171448813Y-108396819D01*
X171480409Y-108404194D01*
X171503682Y-108413212D01*
X171520768Y-108424085D01*
X171533800Y-108437026D01*
X171540298Y-108445500D01*
X171549311Y-108467384D01*
X171562589Y-108513281D01*
X171579898Y-108582204D01*
X171601004Y-108673168D01*
X171625674Y-108785186D01*
X171653675Y-108917271D01*
X171665146Y-108972550D01*
X171699576Y-109138099D01*
X171729911Y-109280613D01*
X171756756Y-109402018D01*
X171780716Y-109504240D01*
X171802395Y-109589204D01*
X171822398Y-109658837D01*
X171841329Y-109715064D01*
X171859795Y-109759812D01*
X171878399Y-109795007D01*
X171897747Y-109822574D01*
X171918443Y-109844440D01*
X171941092Y-109862531D01*
X171945600Y-109865656D01*
X171973765Y-109882311D01*
X172001199Y-109890310D01*
X172037517Y-109891427D01*
X172072600Y-109889131D01*
X172186570Y-109873786D01*
X172319154Y-109845438D01*
X172467828Y-109805168D01*
X172630065Y-109754053D01*
X172803340Y-109693175D01*
X172985129Y-109623611D01*
X173172905Y-109546441D01*
X173364145Y-109462745D01*
X173556322Y-109373601D01*
X173746912Y-109280090D01*
X173933389Y-109183290D01*
X174113228Y-109084281D01*
X174283905Y-108984141D01*
X174442892Y-108883952D01*
X174476680Y-108861590D01*
X174579737Y-108790033D01*
X174687661Y-108710171D01*
X174798630Y-108623722D01*
X174910820Y-108532404D01*
X175022410Y-108437935D01*
X175131576Y-108342035D01*
X175236496Y-108246420D01*
X175335347Y-108152809D01*
X175426307Y-108062921D01*
X175507552Y-107978473D01*
X175577259Y-107901184D01*
X175633607Y-107832773D01*
X175674772Y-107774956D01*
X175698932Y-107729454D01*
X175704800Y-107703873D01*
X175696731Y-107674295D01*
X175672210Y-107633053D01*
X175630763Y-107579658D01*
X175571919Y-107513616D01*
X175495203Y-107434435D01*
X175400143Y-107341625D01*
X175286266Y-107234693D01*
X175153099Y-107113148D01*
X175035673Y-107008005D01*
X174951833Y-106933003D01*
X174873910Y-106862412D01*
X174803979Y-106798179D01*
X174744116Y-106742247D01*
X174696395Y-106696564D01*
X174662892Y-106663075D01*
X174645681Y-106643726D01*
X174643898Y-106640676D01*
X174643009Y-106607879D01*
X174656744Y-106559805D01*
X174685496Y-106495666D01*
X174729663Y-106414675D01*
X174789639Y-106316045D01*
X174865821Y-106198991D01*
X174866749Y-106197600D01*
X174980972Y-106018791D01*
X175093525Y-105828048D01*
X175199581Y-105634009D01*
X175294311Y-105445314D01*
X175330310Y-105368081D01*
X175360440Y-105303334D01*
X175390356Y-105241844D01*
X175416912Y-105189904D01*
X175436960Y-105153804D01*
X175439611Y-105149512D01*
X175474998Y-105093712D01*
X175542274Y-105113322D01*
X175570643Y-105122037D01*
X175619673Y-105137590D01*
X175685900Y-105158862D01*
X175765864Y-105184736D01*
X175856102Y-105214093D01*
X175953153Y-105245814D01*
X176010586Y-105264653D01*
X176195689Y-105324826D01*
X176358170Y-105376294D01*
X176499144Y-105419382D01*
X176619728Y-105454419D01*
X176721041Y-105481730D01*
X176804197Y-105501642D01*
X176857485Y-105512302D01*
X176905211Y-105520300D01*
X176935260Y-105522858D01*
X176954930Y-105519144D01*
X176971524Y-105508327D01*
X176983143Y-105497987D01*
X177018253Y-105454098D01*
X177054515Y-105386594D01*
X177091431Y-105297207D01*
X177128501Y-105187669D01*
X177165228Y-105059711D01*
X177201112Y-104915064D01*
X177235654Y-104755462D01*
X177268356Y-104582634D01*
X177297399Y-104406900D01*
X177344100Y-104054068D01*
X177373078Y-103712402D01*
X177384336Y-103376307D01*
X177377877Y-103040191D01*
X177353704Y-102698460D01*
X177311819Y-102345521D01*
X177298486Y-102254250D01*
X177269628Y-102077034D01*
X177238403Y-101910067D01*
X177205307Y-101754973D01*
X177170840Y-101613377D01*
X177135501Y-101486903D01*
X177099789Y-101377177D01*
X177064201Y-101285823D01*
X177029237Y-101214465D01*
X176995396Y-101164728D01*
X176963177Y-101138238D01*
X176954995Y-101135325D01*
X176923405Y-101133029D01*
X176874833Y-101138034D01*
X176808402Y-101150576D01*
X176723239Y-101170886D01*
X176618469Y-101199198D01*
X176493216Y-101235743D01*
X176346606Y-101280757D01*
X176177764Y-101334470D01*
X176046744Y-101377086D01*
X175909711Y-101421749D01*
X175794727Y-101458616D01*
X175699842Y-101488212D01*
X175623105Y-101511062D01*
X175562568Y-101527694D01*
X175516280Y-101538631D01*
X175482291Y-101544399D01*
X175458653Y-101545525D01*
X175443415Y-101542533D01*
X175439810Y-101540676D01*
X175424882Y-101520664D01*
X175412709Y-101486549D01*
X175410267Y-101474783D01*
X175397199Y-101426567D01*
X175371526Y-101358869D01*
X175334175Y-101273698D01*
X175286077Y-101173067D01*
X175228161Y-101058985D01*
X175161358Y-100933462D01*
X175151828Y-100915966D01*
X175061528Y-100753693D01*
X174977186Y-100609121D01*
X174895090Y-100476460D01*
X174811531Y-100349921D01*
X174722802Y-100223716D01*
X174625191Y-100092057D01*
X174616933Y-100081174D01*
X174586931Y-100041699D01*
X174754983Y-99897024D01*
X175216646Y-99489547D01*
X175548897Y-99184037D01*
X175793045Y-98955793D01*
X175575149Y-98728698D01*
X175271763Y-98428736D01*
X174958943Y-98151677D01*
X174635086Y-97896263D01*
X174298593Y-97661236D01*
X173947862Y-97445338D01*
X173926800Y-97433233D01*
X173795529Y-97361545D01*
X173651474Y-97289064D01*
X173497598Y-97216882D01*
X173336863Y-97146093D01*
X173172230Y-97077790D01*
X173006662Y-97013067D01*
X172843120Y-96953016D01*
X172684566Y-96898730D01*
X172533963Y-96851303D01*
X172394273Y-96811827D01*
X172268457Y-96781396D01*
X172159478Y-96761103D01*
X172082668Y-96752664D01*
X172011963Y-96750243D01*
X171960919Y-96754677D01*
X171924172Y-96768494D01*
X171896355Y-96794219D01*
X171872101Y-96834379D01*
X171861371Y-96856848D01*
X171849023Y-96885803D01*
X171836756Y-96919244D01*
X171824047Y-96959356D01*
X171810372Y-97008324D01*
X171795207Y-97068333D01*
X171778029Y-97141568D01*
X171758313Y-97230215D01*
X171735538Y-97336458D01*
X171709178Y-97462483D01*
X171678710Y-97610474D01*
X171666636Y-97669550D01*
X171644025Y-97780162D01*
X171622855Y-97883399D01*
X171603690Y-97976519D01*
X171587100Y-98056783D01*
X171573649Y-98121452D01*
X171563906Y-98167785D01*
X171558437Y-98193043D01*
X171557582Y-98196600D01*
X171553733Y-98201109D01*
X171543566Y-98204864D01*
X171524991Y-98207932D01*
X171495916Y-98210380D01*
X171454252Y-98212278D01*
X171397908Y-98213692D01*
X171324795Y-98214691D01*
X171232821Y-98215344D01*
X171119897Y-98215717D01*
X170983932Y-98215879D01*
X170964677Y-98215888D01*
X170821181Y-98216058D01*
X170699810Y-98216514D01*
X170597291Y-98217368D01*
X170510351Y-98218730D01*
X170435714Y-98220710D01*
X170370109Y-98223421D01*
X170310260Y-98226972D01*
X170252894Y-98231475D01*
X170194738Y-98237039D01*
X170132518Y-98243777D01*
X170128989Y-98244175D01*
X170027634Y-98254936D01*
X169948377Y-98261436D01*
X169888242Y-98263455D01*
X169844250Y-98260769D01*
X169813424Y-98253158D01*
X169792785Y-98240399D01*
X169779355Y-98222271D01*
X169777269Y-98217974D01*
X169771913Y-98199576D01*
X169762086Y-98159027D01*
X169748390Y-98099064D01*
X169731427Y-98022424D01*
X169711799Y-97931844D01*
X169690107Y-97830061D01*
X169666954Y-97719812D01*
X169653708Y-97656038D01*
X169618772Y-97489153D01*
X169587656Y-97345434D01*
X169559744Y-97223038D01*
X169534420Y-97120123D01*
X169511068Y-97034845D01*
X169489071Y-96965362D01*
X169467813Y-96909830D01*
X169446679Y-96866406D01*
X169425051Y-96833247D01*
X169402315Y-96808510D01*
X169377853Y-96790353D01*
X169361326Y-96781484D01*
X169316499Y-96767465D01*
X169258873Y-96762674D01*
X169186471Y-96767362D01*
X169097315Y-96781786D01*
X168989426Y-96806197D01*
X168860826Y-96840850D01*
X168830866Y-96849492D01*
X168530240Y-96944904D01*
X168228958Y-97055672D01*
X167931738Y-97179652D01*
X167643296Y-97314701D01*
X167368349Y-97458677D01*
X167111613Y-97609435D01*
X166998950Y-97681781D01*
X166882388Y-97761454D01*
X166761964Y-97848474D01*
X166639384Y-97941275D01*
X166516356Y-98038293D01*
X166394588Y-98137963D01*
X166275786Y-98238720D01*
X166161657Y-98338999D01*
X166053910Y-98437236D01*
X165954251Y-98531866D01*
X165864388Y-98621323D01*
X165786027Y-98704044D01*
X165720877Y-98778462D01*
X165670644Y-98843014D01*
X165637036Y-98896135D01*
X165621760Y-98936259D01*
X165621000Y-98944758D01*
X165630263Y-98975308D01*
X165656879Y-99020228D01*
X165699089Y-99077157D01*
X165755132Y-99143737D01*
X165823248Y-99217608D01*
X165828897Y-99223482D01*
X165855625Y-99249812D01*
X165898818Y-99290645D01*
X165955928Y-99343646D01*
X166024403Y-99406478D01*
X166101696Y-99476805D01*
X166185256Y-99552291D01*
X166272534Y-99630599D01*
X166297275Y-99652698D01*
X166397195Y-99742130D01*
X166479436Y-99816402D01*
X166545513Y-99876992D01*
X166596942Y-99925373D01*
X166635238Y-99963023D01*
X166661917Y-99991415D01*
X166678496Y-100012026D01*
X166686489Y-100026331D01*
X166687800Y-100032846D01*
X166681741Y-100067079D01*
X166662778Y-100112342D01*
X166629732Y-100170829D01*
X166581424Y-100244732D01*
X166548380Y-100292100D01*
X166494799Y-100370748D01*
X166436003Y-100462531D01*
X166373615Y-100564450D01*
X166309261Y-100673506D01*
X166244565Y-100786702D01*
X166181152Y-100901037D01*
X166120646Y-101013513D01*
X166064672Y-101121132D01*
X166014855Y-101220895D01*
X165972819Y-101309803D01*
X165940189Y-101384857D01*
X165918590Y-101443059D01*
X165912033Y-101466652D01*
X165900410Y-101506972D01*
X165887150Y-101536163D01*
X165877951Y-101546111D01*
X165864034Y-101548336D01*
X165841744Y-101546690D01*
X165809156Y-101540629D01*
X165764344Y-101529610D01*
X165705381Y-101513092D01*
X165630340Y-101490531D01*
X165537297Y-101461385D01*
X165424324Y-101425111D01*
X165289495Y-101381167D01*
X165271750Y-101375351D01*
X165117130Y-101325338D01*
X164972096Y-101279791D01*
X164838592Y-101239258D01*
X164718562Y-101204285D01*
X164613948Y-101175418D01*
X164526694Y-101153203D01*
X164458745Y-101138188D01*
X164412042Y-101130918D01*
X164400194Y-101130300D01*
X164359411Y-101140860D01*
X164325474Y-101168534D01*
X164292580Y-101215067D01*
X164258232Y-101284784D01*
X164223009Y-101375552D01*
X164187490Y-101485236D01*
X164152253Y-101611702D01*
X164117876Y-101752817D01*
X164084939Y-101906445D01*
X164054018Y-102070454D01*
X164025694Y-102242708D01*
X164015325Y-102312713D01*
X163974360Y-102641737D01*
X163948520Y-102956700D01*
X163937804Y-103263945D01*
X163049317Y-103263945D01*
X163049286Y-103213100D01*
X163049550Y-103032338D01*
X163050442Y-102873936D01*
X163052139Y-102734856D01*
X163054821Y-102612062D01*
X163058665Y-102502516D01*
X163063851Y-102403182D01*
X163070557Y-102311022D01*
X163078961Y-102223001D01*
X163089242Y-102136080D01*
X163101578Y-102047224D01*
X163116148Y-101953395D01*
X163127296Y-101885950D01*
X163167420Y-101678027D01*
X163220009Y-101453888D01*
X163283478Y-101218477D01*
X163356246Y-100976739D01*
X163436729Y-100733620D01*
X163523344Y-100494064D01*
X163614508Y-100263016D01*
X163708638Y-100045422D01*
X163734306Y-99989727D01*
X163920980Y-99619562D01*
X164131070Y-99256843D01*
X164363279Y-98903149D01*
X164616310Y-98560056D01*
X164888867Y-98229143D01*
X165179653Y-97911987D01*
X165487372Y-97610166D01*
X165810725Y-97325257D01*
X166135350Y-97068597D01*
X166491923Y-96816727D01*
X166856723Y-96588802D01*
X167230327Y-96384546D01*
X167613310Y-96203683D01*
X168006248Y-96045937D01*
X168409719Y-95911033D01*
X168751550Y-95816579D01*
X169165790Y-95725261D01*
X169588423Y-95656789D01*
X170017030Y-95611153D01*
X170449194Y-95588347D01*
X170882499Y-95588363D01*
X170882499Y-95588363D01*
G37*
X170882499Y-95588363D02*
X171314527Y-95611194D01*
X171742863Y-95656831D01*
X172165088Y-95725267D01*
X172578786Y-95816495D01*
X172626875Y-95828750D01*
X173039412Y-95948380D01*
X173441985Y-96091340D01*
X173834409Y-96257521D01*
X174216498Y-96446810D01*
X174588068Y-96659097D01*
X174948934Y-96894271D01*
X175298910Y-97152220D01*
X175637812Y-97432834D01*
X175965454Y-97736001D01*
X176198304Y-97972427D01*
X176497198Y-98304852D01*
X176772694Y-98646843D01*
X177025212Y-98999150D01*
X177255173Y-99362517D01*
X177462997Y-99737693D01*
X177649107Y-100125423D01*
X177813922Y-100526456D01*
X177957863Y-100941537D01*
X178052846Y-101264246D01*
X178095758Y-101425387D01*
X178132999Y-101574753D01*
X178164947Y-101715630D01*
X178191979Y-101851303D01*
X178214471Y-101985054D01*
X178232801Y-102120170D01*
X178247345Y-102259934D01*
X178258481Y-102407632D01*
X178266586Y-102566547D01*
X178272036Y-102739965D01*
X178275209Y-102931170D01*
X178276482Y-103143446D01*
X178276550Y-103213100D01*
X178275849Y-103428328D01*
X178273520Y-103621407D01*
X178269217Y-103795555D01*
X178262596Y-103953989D01*
X178253314Y-104099928D01*
X178241025Y-104236590D01*
X178225387Y-104367193D01*
X178206055Y-104494954D01*
X178182685Y-104623093D01*
X178154932Y-104754827D01*
X178122454Y-104893373D01*
X178084904Y-105041951D01*
X178078290Y-105067300D01*
X177951128Y-105504950D01*
X177802490Y-105929478D01*
X177632733Y-106340443D01*
X177442212Y-106737401D01*
X177231283Y-107119911D01*
X177000304Y-107487531D01*
X176749631Y-107839819D01*
X176479619Y-108176333D01*
X176190625Y-108496630D01*
X175883005Y-108800269D01*
X175557116Y-109086807D01*
X175213314Y-109355803D01*
X174851955Y-109606815D01*
X174473395Y-109839400D01*
X174077991Y-110053116D01*
X174047450Y-110068481D01*
X173671613Y-110243898D01*
X173290828Y-110396169D01*
X172903487Y-110525716D01*
X172507984Y-110632961D01*
X172102712Y-110718329D01*
X171686066Y-110782242D01*
X171256437Y-110825123D01*
X171145500Y-110832689D01*
X171070043Y-110836287D01*
X170974863Y-110839164D01*
X170865629Y-110841293D01*
X170748009Y-110842645D01*
X170627670Y-110843194D01*
X170510281Y-110842912D01*
X170401510Y-110841772D01*
X170307024Y-110839747D01*
X170237450Y-110837071D01*
X170199333Y-110834695D01*
X170141874Y-110830594D01*
X170071037Y-110825217D01*
X169992786Y-110819015D01*
X169932650Y-110814078D01*
X169510373Y-110766283D01*
X169093732Y-110694202D01*
X168683592Y-110598497D01*
X168280820Y-110479829D01*
X167886279Y-110338861D01*
X167500837Y-110176255D01*
X167125357Y-109992671D01*
X166760705Y-109788773D01*
X166407747Y-109565222D01*
X166067347Y-109322680D01*
X165740372Y-109061808D01*
X165427687Y-108783269D01*
X165130157Y-108487725D01*
X164848647Y-108175837D01*
X164584023Y-107848267D01*
X164337149Y-107505678D01*
X164108893Y-107148730D01*
X163900117Y-106778087D01*
X163711690Y-106394409D01*
X163544474Y-105998358D01*
X163506704Y-105899150D01*
X163402346Y-105603293D01*
X163310101Y-105309123D01*
X163231078Y-105020747D01*
X163166382Y-104742271D01*
X163117120Y-104477804D01*
X163108121Y-104419600D01*
X163095719Y-104333635D01*
X163085163Y-104254072D01*
X163076310Y-104177938D01*
X163069014Y-104102263D01*
X163063130Y-104024073D01*
X163058512Y-103940396D01*
X163055017Y-103848261D01*
X163052499Y-103744695D01*
X163050814Y-103626726D01*
X163049816Y-103491382D01*
X163049360Y-103335691D01*
X163049317Y-103263945D01*
X163937804Y-103263945D01*
X163942212Y-103569818D01*
X163961743Y-103880663D01*
X163996396Y-104202824D01*
X164015150Y-104340876D01*
X164042517Y-104517111D01*
X164072764Y-104685715D01*
X164105312Y-104844556D01*
X164139580Y-104991505D01*
X164174989Y-105124430D01*
X164210959Y-105241199D01*
X164246911Y-105339681D01*
X164282264Y-105417746D01*
X164316439Y-105473262D01*
X164326484Y-105485322D01*
X164351953Y-105510665D01*
X164373969Y-105521396D01*
X164403973Y-105521419D01*
X164424553Y-105518775D01*
X164488878Y-105506939D01*
X164575503Y-105486602D01*
X164682948Y-105458187D01*
X164809731Y-105422119D01*
X164954373Y-105378821D01*
X165115393Y-105328717D01*
X165291310Y-105272231D01*
X165329374Y-105259805D01*
X165434042Y-105225690D01*
X165532076Y-105194021D01*
X165620636Y-105165692D01*
X165696879Y-105141602D01*
X165757964Y-105122646D01*
X165801048Y-105109723D01*
X165823289Y-105103729D01*
X165824674Y-105103480D01*
X165834351Y-105103473D01*
X165844182Y-105107901D01*
X165855603Y-105119148D01*
X165870053Y-105139604D01*
X165888969Y-105171656D01*
X165913789Y-105217689D01*
X165945952Y-105280092D01*
X165986895Y-105361250D01*
X166021050Y-105429499D01*
X166084914Y-105556393D01*
X166140967Y-105665332D01*
X166192088Y-105761402D01*
X166241158Y-105849687D01*
X166291060Y-105935273D01*
X166344672Y-106023244D01*
X166404876Y-106118687D01*
X166459795Y-106203950D01*
X166525947Y-106307164D01*
X166578484Y-106391977D01*
X166618604Y-106460622D01*
X166647506Y-106515329D01*
X166666387Y-106558332D01*
X166676447Y-106591861D01*
X166678921Y-106612011D01*
X166679691Y-106623321D01*
X166680193Y-106632795D01*
X166678801Y-106642069D01*
X166673891Y-106652774D01*
X166663836Y-106666547D01*
X166647010Y-106685021D01*
X166621788Y-106709831D01*
X166586544Y-106742609D01*
X166539652Y-106784991D01*
X166479488Y-106838610D01*
X166404424Y-106905101D01*
X166312836Y-106986097D01*
X166262184Y-107030911D01*
X166114533Y-107163126D01*
X165986962Y-107280680D01*
X165879095Y-107383971D01*
X165790559Y-107473397D01*
X165720978Y-107549356D01*
X165669977Y-107612245D01*
X165637181Y-107662463D01*
X165622216Y-107700408D01*
X165621122Y-107711188D01*
X165631027Y-107744534D01*
X165659325Y-107791592D01*
X165704208Y-107850674D01*
X165763870Y-107920092D01*
X165836505Y-107998158D01*
X165920304Y-108083185D01*
X166013463Y-108173483D01*
X166114174Y-108267364D01*
X166220631Y-108363142D01*
X166331027Y-108459127D01*
X166443555Y-108553631D01*
X166556409Y-108644966D01*
X166667782Y-108731445D01*
X166775867Y-108811379D01*
X166866068Y-108874451D01*
X166975655Y-108945371D01*
X167104700Y-109023172D01*
X167248947Y-109105624D01*
X167404143Y-109190501D01*
X167566033Y-109275573D01*
X167730365Y-109358613D01*
X167892884Y-109437392D01*
X168049336Y-109509681D01*
X168195467Y-109573253D01*
X168218150Y-109582692D01*
X168357232Y-109638077D01*
X168498349Y-109690402D01*
X168638334Y-109738737D01*
X168774020Y-109782151D01*
X168902241Y-109819715D01*
X169019829Y-109850498D01*
X169123618Y-109873572D01*
X169210442Y-109888005D01*
X169274450Y-109892867D01*
X169324954Y-109891917D01*
X169358452Y-109887113D01*
X169383276Y-109876406D01*
X169403910Y-109861022D01*
X169430767Y-109829927D01*
X169456296Y-109786799D01*
X169466833Y-109762597D01*
X169487997Y-109698467D01*
X169512884Y-109610273D01*
X169541246Y-109499041D01*
X169572837Y-109365797D01*
X169607410Y-109211564D01*
X169644720Y-109037369D01*
X169666106Y-108934450D01*
X169691730Y-108809748D01*
X169712801Y-108707560D01*
X169730015Y-108625547D01*
X169744068Y-108561372D01*
X169755657Y-108512697D01*
X169765478Y-108477183D01*
X169774227Y-108452492D01*
X169782600Y-108436286D01*
X169791295Y-108426228D01*
X169801007Y-108419979D01*
X169812432Y-108415201D01*
X169821864Y-108411463D01*
X169859618Y-108400592D01*
X169917072Y-108391490D01*
X169994983Y-108384129D01*
X170094107Y-108378478D01*
X170215203Y-108374509D01*
X170359028Y-108372194D01*
X170526338Y-108371502D01*
X170717893Y-108372405D01*
X170815300Y-108373358D01*
X170964924Y-108375179D01*
X171091283Y-108377156D01*
X171196511Y-108379502D01*
X171282744Y-108382429D01*
X171352115Y-108386149D01*
X171406760Y-108390875D01*
X171448813Y-108396819D01*
X171480409Y-108404194D01*
X171503682Y-108413212D01*
X171520768Y-108424085D01*
X171533800Y-108437026D01*
X171540298Y-108445500D01*
X171549311Y-108467384D01*
X171562589Y-108513281D01*
X171579898Y-108582204D01*
X171601004Y-108673168D01*
X171625674Y-108785186D01*
X171653675Y-108917271D01*
X171665146Y-108972550D01*
X171699576Y-109138099D01*
X171729911Y-109280613D01*
X171756756Y-109402018D01*
X171780716Y-109504240D01*
X171802395Y-109589204D01*
X171822398Y-109658837D01*
X171841329Y-109715064D01*
X171859795Y-109759812D01*
X171878399Y-109795007D01*
X171897747Y-109822574D01*
X171918443Y-109844440D01*
X171941092Y-109862531D01*
X171945600Y-109865656D01*
X171973765Y-109882311D01*
X172001199Y-109890310D01*
X172037517Y-109891427D01*
X172072600Y-109889131D01*
X172186570Y-109873786D01*
X172319154Y-109845438D01*
X172467828Y-109805168D01*
X172630065Y-109754053D01*
X172803340Y-109693175D01*
X172985129Y-109623611D01*
X173172905Y-109546441D01*
X173364145Y-109462745D01*
X173556322Y-109373601D01*
X173746912Y-109280090D01*
X173933389Y-109183290D01*
X174113228Y-109084281D01*
X174283905Y-108984141D01*
X174442892Y-108883952D01*
X174476680Y-108861590D01*
X174579737Y-108790033D01*
X174687661Y-108710171D01*
X174798630Y-108623722D01*
X174910820Y-108532404D01*
X175022410Y-108437935D01*
X175131576Y-108342035D01*
X175236496Y-108246420D01*
X175335347Y-108152809D01*
X175426307Y-108062921D01*
X175507552Y-107978473D01*
X175577259Y-107901184D01*
X175633607Y-107832773D01*
X175674772Y-107774956D01*
X175698932Y-107729454D01*
X175704800Y-107703873D01*
X175696731Y-107674295D01*
X175672210Y-107633053D01*
X175630763Y-107579658D01*
X175571919Y-107513616D01*
X175495203Y-107434435D01*
X175400143Y-107341625D01*
X175286266Y-107234693D01*
X175153099Y-107113148D01*
X175035673Y-107008005D01*
X174951833Y-106933003D01*
X174873910Y-106862412D01*
X174803979Y-106798179D01*
X174744116Y-106742247D01*
X174696395Y-106696564D01*
X174662892Y-106663075D01*
X174645681Y-106643726D01*
X174643898Y-106640676D01*
X174643009Y-106607879D01*
X174656744Y-106559805D01*
X174685496Y-106495666D01*
X174729663Y-106414675D01*
X174789639Y-106316045D01*
X174865821Y-106198991D01*
X174866749Y-106197600D01*
X174980972Y-106018791D01*
X175093525Y-105828048D01*
X175199581Y-105634009D01*
X175294311Y-105445314D01*
X175330310Y-105368081D01*
X175360440Y-105303334D01*
X175390356Y-105241844D01*
X175416912Y-105189904D01*
X175436960Y-105153804D01*
X175439611Y-105149512D01*
X175474998Y-105093712D01*
X175542274Y-105113322D01*
X175570643Y-105122037D01*
X175619673Y-105137590D01*
X175685900Y-105158862D01*
X175765864Y-105184736D01*
X175856102Y-105214093D01*
X175953153Y-105245814D01*
X176010586Y-105264653D01*
X176195689Y-105324826D01*
X176358170Y-105376294D01*
X176499144Y-105419382D01*
X176619728Y-105454419D01*
X176721041Y-105481730D01*
X176804197Y-105501642D01*
X176857485Y-105512302D01*
X176905211Y-105520300D01*
X176935260Y-105522858D01*
X176954930Y-105519144D01*
X176971524Y-105508327D01*
X176983143Y-105497987D01*
X177018253Y-105454098D01*
X177054515Y-105386594D01*
X177091431Y-105297207D01*
X177128501Y-105187669D01*
X177165228Y-105059711D01*
X177201112Y-104915064D01*
X177235654Y-104755462D01*
X177268356Y-104582634D01*
X177297399Y-104406900D01*
X177344100Y-104054068D01*
X177373078Y-103712402D01*
X177384336Y-103376307D01*
X177377877Y-103040191D01*
X177353704Y-102698460D01*
X177311819Y-102345521D01*
X177298486Y-102254250D01*
X177269628Y-102077034D01*
X177238403Y-101910067D01*
X177205307Y-101754973D01*
X177170840Y-101613377D01*
X177135501Y-101486903D01*
X177099789Y-101377177D01*
X177064201Y-101285823D01*
X177029237Y-101214465D01*
X176995396Y-101164728D01*
X176963177Y-101138238D01*
X176954995Y-101135325D01*
X176923405Y-101133029D01*
X176874833Y-101138034D01*
X176808402Y-101150576D01*
X176723239Y-101170886D01*
X176618469Y-101199198D01*
X176493216Y-101235743D01*
X176346606Y-101280757D01*
X176177764Y-101334470D01*
X176046744Y-101377086D01*
X175909711Y-101421749D01*
X175794727Y-101458616D01*
X175699842Y-101488212D01*
X175623105Y-101511062D01*
X175562568Y-101527694D01*
X175516280Y-101538631D01*
X175482291Y-101544399D01*
X175458653Y-101545525D01*
X175443415Y-101542533D01*
X175439810Y-101540676D01*
X175424882Y-101520664D01*
X175412709Y-101486549D01*
X175410267Y-101474783D01*
X175397199Y-101426567D01*
X175371526Y-101358869D01*
X175334175Y-101273698D01*
X175286077Y-101173067D01*
X175228161Y-101058985D01*
X175161358Y-100933462D01*
X175151828Y-100915966D01*
X175061528Y-100753693D01*
X174977186Y-100609121D01*
X174895090Y-100476460D01*
X174811531Y-100349921D01*
X174722802Y-100223716D01*
X174625191Y-100092057D01*
X174616933Y-100081174D01*
X174586931Y-100041699D01*
X174754983Y-99897024D01*
X175216646Y-99489547D01*
X175548897Y-99184037D01*
X175793045Y-98955793D01*
X175575149Y-98728698D01*
X175271763Y-98428736D01*
X174958943Y-98151677D01*
X174635086Y-97896263D01*
X174298593Y-97661236D01*
X173947862Y-97445338D01*
X173926800Y-97433233D01*
X173795529Y-97361545D01*
X173651474Y-97289064D01*
X173497598Y-97216882D01*
X173336863Y-97146093D01*
X173172230Y-97077790D01*
X173006662Y-97013067D01*
X172843120Y-96953016D01*
X172684566Y-96898730D01*
X172533963Y-96851303D01*
X172394273Y-96811827D01*
X172268457Y-96781396D01*
X172159478Y-96761103D01*
X172082668Y-96752664D01*
X172011963Y-96750243D01*
X171960919Y-96754677D01*
X171924172Y-96768494D01*
X171896355Y-96794219D01*
X171872101Y-96834379D01*
X171861371Y-96856848D01*
X171849023Y-96885803D01*
X171836756Y-96919244D01*
X171824047Y-96959356D01*
X171810372Y-97008324D01*
X171795207Y-97068333D01*
X171778029Y-97141568D01*
X171758313Y-97230215D01*
X171735538Y-97336458D01*
X171709178Y-97462483D01*
X171678710Y-97610474D01*
X171666636Y-97669550D01*
X171644025Y-97780162D01*
X171622855Y-97883399D01*
X171603690Y-97976519D01*
X171587100Y-98056783D01*
X171573649Y-98121452D01*
X171563906Y-98167785D01*
X171558437Y-98193043D01*
X171557582Y-98196600D01*
X171553733Y-98201109D01*
X171543566Y-98204864D01*
X171524991Y-98207932D01*
X171495916Y-98210380D01*
X171454252Y-98212278D01*
X171397908Y-98213692D01*
X171324795Y-98214691D01*
X171232821Y-98215344D01*
X171119897Y-98215717D01*
X170983932Y-98215879D01*
X170964677Y-98215888D01*
X170821181Y-98216058D01*
X170699810Y-98216514D01*
X170597291Y-98217368D01*
X170510351Y-98218730D01*
X170435714Y-98220710D01*
X170370109Y-98223421D01*
X170310260Y-98226972D01*
X170252894Y-98231475D01*
X170194738Y-98237039D01*
X170132518Y-98243777D01*
X170128989Y-98244175D01*
X170027634Y-98254936D01*
X169948377Y-98261436D01*
X169888242Y-98263455D01*
X169844250Y-98260769D01*
X169813424Y-98253158D01*
X169792785Y-98240399D01*
X169779355Y-98222271D01*
X169777269Y-98217974D01*
X169771913Y-98199576D01*
X169762086Y-98159027D01*
X169748390Y-98099064D01*
X169731427Y-98022424D01*
X169711799Y-97931844D01*
X169690107Y-97830061D01*
X169666954Y-97719812D01*
X169653708Y-97656038D01*
X169618772Y-97489153D01*
X169587656Y-97345434D01*
X169559744Y-97223038D01*
X169534420Y-97120123D01*
X169511068Y-97034845D01*
X169489071Y-96965362D01*
X169467813Y-96909830D01*
X169446679Y-96866406D01*
X169425051Y-96833247D01*
X169402315Y-96808510D01*
X169377853Y-96790353D01*
X169361326Y-96781484D01*
X169316499Y-96767465D01*
X169258873Y-96762674D01*
X169186471Y-96767362D01*
X169097315Y-96781786D01*
X168989426Y-96806197D01*
X168860826Y-96840850D01*
X168830866Y-96849492D01*
X168530240Y-96944904D01*
X168228958Y-97055672D01*
X167931738Y-97179652D01*
X167643296Y-97314701D01*
X167368349Y-97458677D01*
X167111613Y-97609435D01*
X166998950Y-97681781D01*
X166882388Y-97761454D01*
X166761964Y-97848474D01*
X166639384Y-97941275D01*
X166516356Y-98038293D01*
X166394588Y-98137963D01*
X166275786Y-98238720D01*
X166161657Y-98338999D01*
X166053910Y-98437236D01*
X165954251Y-98531866D01*
X165864388Y-98621323D01*
X165786027Y-98704044D01*
X165720877Y-98778462D01*
X165670644Y-98843014D01*
X165637036Y-98896135D01*
X165621760Y-98936259D01*
X165621000Y-98944758D01*
X165630263Y-98975308D01*
X165656879Y-99020228D01*
X165699089Y-99077157D01*
X165755132Y-99143737D01*
X165823248Y-99217608D01*
X165828897Y-99223482D01*
X165855625Y-99249812D01*
X165898818Y-99290645D01*
X165955928Y-99343646D01*
X166024403Y-99406478D01*
X166101696Y-99476805D01*
X166185256Y-99552291D01*
X166272534Y-99630599D01*
X166297275Y-99652698D01*
X166397195Y-99742130D01*
X166479436Y-99816402D01*
X166545513Y-99876992D01*
X166596942Y-99925373D01*
X166635238Y-99963023D01*
X166661917Y-99991415D01*
X166678496Y-100012026D01*
X166686489Y-100026331D01*
X166687800Y-100032846D01*
X166681741Y-100067079D01*
X166662778Y-100112342D01*
X166629732Y-100170829D01*
X166581424Y-100244732D01*
X166548380Y-100292100D01*
X166494799Y-100370748D01*
X166436003Y-100462531D01*
X166373615Y-100564450D01*
X166309261Y-100673506D01*
X166244565Y-100786702D01*
X166181152Y-100901037D01*
X166120646Y-101013513D01*
X166064672Y-101121132D01*
X166014855Y-101220895D01*
X165972819Y-101309803D01*
X165940189Y-101384857D01*
X165918590Y-101443059D01*
X165912033Y-101466652D01*
X165900410Y-101506972D01*
X165887150Y-101536163D01*
X165877951Y-101546111D01*
X165864034Y-101548336D01*
X165841744Y-101546690D01*
X165809156Y-101540629D01*
X165764344Y-101529610D01*
X165705381Y-101513092D01*
X165630340Y-101490531D01*
X165537297Y-101461385D01*
X165424324Y-101425111D01*
X165289495Y-101381167D01*
X165271750Y-101375351D01*
X165117130Y-101325338D01*
X164972096Y-101279791D01*
X164838592Y-101239258D01*
X164718562Y-101204285D01*
X164613948Y-101175418D01*
X164526694Y-101153203D01*
X164458745Y-101138188D01*
X164412042Y-101130918D01*
X164400194Y-101130300D01*
X164359411Y-101140860D01*
X164325474Y-101168534D01*
X164292580Y-101215067D01*
X164258232Y-101284784D01*
X164223009Y-101375552D01*
X164187490Y-101485236D01*
X164152253Y-101611702D01*
X164117876Y-101752817D01*
X164084939Y-101906445D01*
X164054018Y-102070454D01*
X164025694Y-102242708D01*
X164015325Y-102312713D01*
X163974360Y-102641737D01*
X163948520Y-102956700D01*
X163937804Y-103263945D01*
X163049317Y-103263945D01*
X163049286Y-103213100D01*
X163049550Y-103032338D01*
X163050442Y-102873936D01*
X163052139Y-102734856D01*
X163054821Y-102612062D01*
X163058665Y-102502516D01*
X163063851Y-102403182D01*
X163070557Y-102311022D01*
X163078961Y-102223001D01*
X163089242Y-102136080D01*
X163101578Y-102047224D01*
X163116148Y-101953395D01*
X163127296Y-101885950D01*
X163167420Y-101678027D01*
X163220009Y-101453888D01*
X163283478Y-101218477D01*
X163356246Y-100976739D01*
X163436729Y-100733620D01*
X163523344Y-100494064D01*
X163614508Y-100263016D01*
X163708638Y-100045422D01*
X163734306Y-99989727D01*
X163920980Y-99619562D01*
X164131070Y-99256843D01*
X164363279Y-98903149D01*
X164616310Y-98560056D01*
X164888867Y-98229143D01*
X165179653Y-97911987D01*
X165487372Y-97610166D01*
X165810725Y-97325257D01*
X166135350Y-97068597D01*
X166491923Y-96816727D01*
X166856723Y-96588802D01*
X167230327Y-96384546D01*
X167613310Y-96203683D01*
X168006248Y-96045937D01*
X168409719Y-95911033D01*
X168751550Y-95816579D01*
X169165790Y-95725261D01*
X169588423Y-95656789D01*
X170017030Y-95611153D01*
X170449194Y-95588347D01*
X170882499Y-95588363D01*
G36*
X189751000Y-102616200D02*
X190055800Y-102616200D01*
X190055800Y-102921000D01*
X189751000Y-102921000D01*
X189751000Y-103543300D01*
X190055800Y-103543300D01*
X190055800Y-103848100D01*
X189751000Y-103848100D01*
X189751000Y-104457700D01*
X189446200Y-104457700D01*
X189446200Y-103848100D01*
X189141400Y-103848100D01*
X189141400Y-103543300D01*
X189446200Y-103543300D01*
X189446200Y-102921000D01*
X189141400Y-102921000D01*
X189141400Y-102616200D01*
X189446200Y-102616200D01*
X189446200Y-101384300D01*
X189751000Y-101384300D01*
X189751000Y-102616200D01*
X189751000Y-102616200D01*
G37*
X189751000Y-102616200D02*
X190055800Y-102616200D01*
X190055800Y-102921000D01*
X189751000Y-102921000D01*
X189751000Y-103543300D01*
X190055800Y-103543300D01*
X190055800Y-103848100D01*
X189751000Y-103848100D01*
X189751000Y-104457700D01*
X189446200Y-104457700D01*
X189446200Y-103848100D01*
X189141400Y-103848100D01*
X189141400Y-103543300D01*
X189446200Y-103543300D01*
X189446200Y-102921000D01*
X189141400Y-102921000D01*
X189141400Y-102616200D01*
X189446200Y-102616200D01*
X189446200Y-101384300D01*
X189751000Y-101384300D01*
X189751000Y-102616200D01*
G36*
X187604700Y-101384300D02*
X188214300Y-101384300D01*
X188214300Y-101689100D01*
X188519100Y-101689100D01*
X188519100Y-102921000D01*
X188214300Y-102921000D01*
X188214300Y-103238500D01*
X188518318Y-103238500D01*
X188525450Y-102927350D01*
X188830250Y-102927350D01*
X188833815Y-103082925D01*
X188837381Y-103238500D01*
X189141400Y-103238500D01*
X189141400Y-103543300D01*
X186982400Y-103543300D01*
X186982400Y-103238500D01*
X186677600Y-103238500D01*
X186677600Y-102921000D01*
X186372800Y-102921000D01*
X186372800Y-102006600D01*
X186677600Y-102006600D01*
X186677600Y-102921000D01*
X186982400Y-102921000D01*
X186982400Y-103238500D01*
X187909500Y-103238500D01*
X187909500Y-102921000D01*
X188214300Y-102921000D01*
X188214300Y-101689100D01*
X187604700Y-101689100D01*
X187604700Y-101384300D01*
X187287200Y-101384300D01*
X187287200Y-101079500D01*
X186982400Y-101079500D01*
X186982400Y-102006600D01*
X186677600Y-102006600D01*
X186677600Y-101079500D01*
X186982400Y-101079500D01*
X186982400Y-100774700D01*
X187604700Y-100774700D01*
X187604700Y-101384300D01*
X187604700Y-101384300D01*
G37*
X187604700Y-101384300D02*
X188214300Y-101384300D01*
X188214300Y-101689100D01*
X188519100Y-101689100D01*
X188519100Y-102921000D01*
X188214300Y-102921000D01*
X188214300Y-103238500D01*
X188518318Y-103238500D01*
X188525450Y-102927350D01*
X188830250Y-102927350D01*
X188833815Y-103082925D01*
X188837381Y-103238500D01*
X189141400Y-103238500D01*
X189141400Y-103543300D01*
X186982400Y-103543300D01*
X186982400Y-103238500D01*
X186677600Y-103238500D01*
X186677600Y-102921000D01*
X186372800Y-102921000D01*
X186372800Y-102006600D01*
X186677600Y-102006600D01*
X186677600Y-102921000D01*
X186982400Y-102921000D01*
X186982400Y-103238500D01*
X187909500Y-103238500D01*
X187909500Y-102921000D01*
X188214300Y-102921000D01*
X188214300Y-101689100D01*
X187604700Y-101689100D01*
X187604700Y-101384300D01*
X187287200Y-101384300D01*
X187287200Y-101079500D01*
X186982400Y-101079500D01*
X186982400Y-102006600D01*
X186677600Y-102006600D01*
X186677600Y-101079500D01*
X186982400Y-101079500D01*
X186982400Y-100774700D01*
X187604700Y-100774700D01*
X187604700Y-101384300D01*
G36*
X192833671Y-102308225D02*
X192836593Y-102921000D01*
X192519600Y-102921000D01*
X192519600Y-103238500D01*
X192214800Y-103238500D01*
X192214800Y-102921000D01*
X192519356Y-102921000D01*
X192525950Y-101695450D01*
X192830750Y-101695450D01*
X192833671Y-102308225D01*
X192833671Y-102308225D01*
G37*
X192833671Y-102308225D02*
X192836593Y-102921000D01*
X192519600Y-102921000D01*
X192519600Y-103238500D01*
X192214800Y-103238500D01*
X192214800Y-102921000D01*
X192519356Y-102921000D01*
X192525950Y-101695450D01*
X192830750Y-101695450D01*
X192833671Y-102308225D01*
G36*
X191605200Y-102921000D02*
X191287700Y-102921000D01*
X191287700Y-102616200D01*
X191605200Y-102616200D01*
X191605200Y-102921000D01*
X191605200Y-102921000D01*
G37*
X191605200Y-102921000D02*
X191287700Y-102921000D01*
X191287700Y-102616200D01*
X191605200Y-102616200D01*
X191605200Y-102921000D01*
G36*
X191910000Y-102616200D02*
X191605200Y-102616200D01*
X191605200Y-102006600D01*
X191910000Y-102006600D01*
X191910000Y-102616200D01*
X191910000Y-102616200D01*
G37*
X191910000Y-102616200D02*
X191605200Y-102616200D01*
X191605200Y-102006600D01*
X191910000Y-102006600D01*
X191910000Y-102616200D01*
G36*
X189141400Y-102616200D02*
X188836600Y-102616200D01*
X188836600Y-102006600D01*
X189141400Y-102006600D01*
X189141400Y-102616200D01*
X189141400Y-102616200D01*
G37*
X189141400Y-102616200D02*
X188836600Y-102616200D01*
X188836600Y-102006600D01*
X189141400Y-102006600D01*
X189141400Y-102616200D01*
G36*
X190373300Y-102616200D02*
X190055800Y-102616200D01*
X190055800Y-102006600D01*
X190373300Y-102006600D01*
X190373300Y-102616200D01*
X190373300Y-102616200D01*
G37*
X190373300Y-102616200D02*
X190055800Y-102616200D01*
X190055800Y-102006600D01*
X190373300Y-102006600D01*
X190373300Y-102616200D01*
G36*
X188836600Y-101689100D02*
X188519100Y-101689100D01*
X188519100Y-100774700D01*
X188836600Y-100774700D01*
X188836600Y-101689100D01*
X188836600Y-101689100D01*
G37*
X188836600Y-101689100D02*
X188519100Y-101689100D01*
X188519100Y-100774700D01*
X188836600Y-100774700D01*
X188836600Y-101689100D01*
G36*
X190678100Y-101689100D02*
X190373300Y-101689100D01*
X190373300Y-100774700D01*
X190678100Y-100774700D01*
X190678100Y-101689100D01*
X190678100Y-101689100D01*
G37*
X190678100Y-101689100D02*
X190373300Y-101689100D01*
X190373300Y-100774700D01*
X190678100Y-100774700D01*
X190678100Y-101689100D01*
G36*
X191605200Y-101689100D02*
X190982900Y-101689100D01*
X190982900Y-101384300D01*
X191605200Y-101384300D01*
X191605200Y-101689100D01*
X191605200Y-101689100D01*
G37*
X191605200Y-101689100D02*
X190982900Y-101689100D01*
X190982900Y-101384300D01*
X191605200Y-101384300D01*
X191605200Y-101689100D01*
G36*
X192519600Y-101689100D02*
X192214800Y-101689100D01*
X192214800Y-101079500D01*
X191910000Y-101079500D01*
X191910000Y-101384300D01*
X191605200Y-101384300D01*
X191605200Y-100774700D01*
X192519600Y-100774700D01*
X192519600Y-101689100D01*
X192519600Y-101689100D01*
G37*
X192519600Y-101689100D02*
X192214800Y-101689100D01*
X192214800Y-101079500D01*
X191910000Y-101079500D01*
X191910000Y-101384300D01*
X191605200Y-101384300D01*
X191605200Y-100774700D01*
X192519600Y-100774700D01*
X192519600Y-101689100D01*
G36*
X190373300Y-100774700D02*
X188836600Y-100774700D01*
X188836600Y-100469900D01*
X190373300Y-100469900D01*
X190373300Y-100774700D01*
X190373300Y-100774700D01*
G37*
X190373300Y-100774700D02*
X188836600Y-100774700D01*
X188836600Y-100469900D01*
X190373300Y-100469900D01*
X190373300Y-100774700D01*
G36*
X191286918Y-102921000D02*
X191294050Y-103232150D01*
X192214800Y-103238816D01*
X192214800Y-103543443D01*
X191138475Y-103540196D01*
X190062150Y-103536950D01*
X190058571Y-103387725D01*
X190054993Y-103238500D01*
X190373300Y-103238500D01*
X190373300Y-102921000D01*
X190678100Y-102921000D01*
X190678100Y-103238500D01*
X190982900Y-103238500D01*
X190982900Y-102921000D01*
X190678100Y-102921000D01*
X190678100Y-101689100D01*
X190982900Y-101689100D01*
X190982900Y-102921000D01*
X191286918Y-102921000D01*
X191286918Y-102921000D01*
G37*
X191286918Y-102921000D02*
X191294050Y-103232150D01*
X192214800Y-103238816D01*
X192214800Y-103543443D01*
X191138475Y-103540196D01*
X190062150Y-103536950D01*
X190058571Y-103387725D01*
X190054993Y-103238500D01*
X190373300Y-103238500D01*
X190373300Y-102921000D01*
X190678100Y-102921000D01*
X190678100Y-103238500D01*
X190982900Y-103238500D01*
X190982900Y-102921000D01*
X190678100Y-102921000D01*
X190678100Y-101689100D01*
X190982900Y-101689100D01*
X190982900Y-102921000D01*
X191286918Y-102921000D01*
G36*
X108610700Y-100939800D02*
X111836500Y-100939800D01*
X111836500Y-101346200D01*
X112649300Y-101346200D01*
X112649300Y-101752600D01*
X112449275Y-101752158D01*
X112358275Y-101751786D01*
X112254091Y-101751088D01*
X112148936Y-101750161D01*
X112055023Y-101749102D01*
X112046050Y-101748983D01*
X111842850Y-101746250D01*
X111839352Y-101546225D01*
X111835855Y-101346200D01*
X108610700Y-101346200D01*
X108610700Y-100939800D01*
X108610700Y-100939800D01*
G37*
X108610700Y-100939800D02*
X111836500Y-100939800D01*
X111836500Y-101346200D01*
X112649300Y-101346200D01*
X112649300Y-101752600D01*
X112449275Y-101752158D01*
X112358275Y-101751786D01*
X112254091Y-101751088D01*
X112148936Y-101750161D01*
X112055023Y-101749102D01*
X112046050Y-101748983D01*
X111842850Y-101746250D01*
X111839352Y-101546225D01*
X111835855Y-101346200D01*
X108610700Y-101346200D01*
X108610700Y-100939800D01*
G36*
X113462100Y-102146300D02*
X112649300Y-102146300D01*
X112649300Y-102552343D01*
X113052525Y-102555696D01*
X113455750Y-102559050D01*
X113455750Y-102952750D01*
X112649300Y-102959456D01*
X112649300Y-102552700D01*
X111835855Y-102552700D01*
X111839352Y-102352675D01*
X111842850Y-102152650D01*
X112246075Y-102149296D01*
X112649300Y-102145943D01*
X112649300Y-101752600D01*
X113462100Y-101752600D01*
X113462100Y-102146300D01*
X113462100Y-102146300D01*
G37*
X113462100Y-102146300D02*
X112649300Y-102146300D01*
X112649300Y-102552343D01*
X113052525Y-102555696D01*
X113455750Y-102559050D01*
X113455750Y-102952750D01*
X112649300Y-102959456D01*
X112649300Y-102552700D01*
X111835855Y-102552700D01*
X111839352Y-102352675D01*
X111842850Y-102152650D01*
X112246075Y-102149296D01*
X112649300Y-102145943D01*
X112649300Y-101752600D01*
X113462100Y-101752600D01*
X113462100Y-102146300D01*
G36*
X107810600Y-102959100D02*
X107404200Y-102959100D01*
X107404200Y-102552700D01*
X107810600Y-102552700D01*
X107810600Y-102959100D01*
X107810600Y-102959100D01*
G37*
X107810600Y-102959100D02*
X107404200Y-102959100D01*
X107404200Y-102552700D01*
X107810600Y-102552700D01*
X107810600Y-102959100D01*
G36*
X108610700Y-101752600D02*
X111836500Y-101752600D01*
X111836500Y-102146300D01*
X111443046Y-102146300D01*
X111436450Y-103359150D01*
X111036400Y-103366144D01*
X111036400Y-103759200D01*
X109423500Y-103759200D01*
X109423500Y-103365500D01*
X109017100Y-103365500D01*
X109017100Y-102146300D01*
X109423500Y-102146300D01*
X109423500Y-103365500D01*
X111036400Y-103365500D01*
X111036400Y-102146300D01*
X109423500Y-102146300D01*
X109017100Y-102146300D01*
X108610700Y-102146300D01*
X108610700Y-102552700D01*
X107810600Y-102552700D01*
X107810600Y-102146300D01*
X107404200Y-102146300D01*
X107404200Y-101753244D01*
X107810600Y-101753244D01*
X107810600Y-102146300D01*
X108610700Y-102146300D01*
X108610700Y-101753812D01*
X108404325Y-101750031D01*
X108313065Y-101748872D01*
X108210433Y-101748396D01*
X108108035Y-101748611D01*
X108017477Y-101749525D01*
X108004275Y-101749747D01*
X107810600Y-101753244D01*
X107404200Y-101753244D01*
X107404200Y-101752600D01*
X107810600Y-101752600D01*
X107810600Y-101346200D01*
X108610700Y-101346200D01*
X108610700Y-101752600D01*
X108610700Y-101752600D01*
G37*
X108610700Y-101752600D02*
X111836500Y-101752600D01*
X111836500Y-102146300D01*
X111443046Y-102146300D01*
X111436450Y-103359150D01*
X111036400Y-103366144D01*
X111036400Y-103759200D01*
X109423500Y-103759200D01*
X109423500Y-103365500D01*
X109017100Y-103365500D01*
X109017100Y-102146300D01*
X109423500Y-102146300D01*
X109423500Y-103365500D01*
X111036400Y-103365500D01*
X111036400Y-102146300D01*
X109423500Y-102146300D01*
X109017100Y-102146300D01*
X108610700Y-102146300D01*
X108610700Y-102552700D01*
X107810600Y-102552700D01*
X107810600Y-102146300D01*
X107404200Y-102146300D01*
X107404200Y-101753244D01*
X107810600Y-101753244D01*
X107810600Y-102146300D01*
X108610700Y-102146300D01*
X108610700Y-101753812D01*
X108404325Y-101750031D01*
X108313065Y-101748872D01*
X108210433Y-101748396D01*
X108108035Y-101748611D01*
X108017477Y-101749525D01*
X108004275Y-101749747D01*
X107810600Y-101753244D01*
X107404200Y-101753244D01*
X107404200Y-101752600D01*
X107810600Y-101752600D01*
X107810600Y-101346200D01*
X108610700Y-101346200D01*
X108610700Y-101752600D01*
G36*
X187909500Y-102921000D02*
X187604700Y-102921000D01*
X187604700Y-102616200D01*
X187909500Y-102616200D01*
X187909500Y-102921000D01*
X187909500Y-102921000D01*
G37*
X187909500Y-102921000D02*
X187604700Y-102921000D01*
X187604700Y-102616200D01*
X187909500Y-102616200D01*
X187909500Y-102921000D01*
G36*
X187604700Y-102616200D02*
X187287668Y-102616200D01*
X187287698Y-102311400D01*
X187287727Y-102006600D01*
X187604700Y-102006600D01*
X187604700Y-102616200D01*
X187604700Y-102616200D01*
G37*
X187604700Y-102616200D02*
X187287668Y-102616200D01*
X187287698Y-102311400D01*
X187287727Y-102006600D01*
X187604700Y-102006600D01*
X187604700Y-102616200D01*
G36*
X110169625Y-102555552D02*
X110369650Y-102559050D01*
X110369650Y-102952750D01*
X109969600Y-102959744D01*
X109969600Y-102552055D01*
X110169625Y-102555552D01*
X110169625Y-102555552D01*
G37*
X110169625Y-102555552D02*
X110369650Y-102559050D01*
X110369650Y-102952750D01*
X109969600Y-102959744D01*
X109969600Y-102552055D01*
X110169625Y-102555552D01*
D12*
M02*
