M48
;DRILL file {KiCad 4.0.7-e0-6372~58~ubuntu16.04.1} date Wed May  1 15:56:22 2019
;FORMAT={-:-/ absolute / metric / decimal}
FMAT,2
METRIC,TZ
T1C0.400
T2C0.800
T3C1.000
T4C1.200
T5C7.620
%
G90
G05
M71
T1
X108.712Y-83.82
X112.268Y-83.82
X116.84Y-121.666
X117.348Y-107.696
X126.2Y-77.724
X127.508Y-79.248
X129.54Y-75.946
X129.54Y-77.978
X132.588Y-76.2
X132.588Y-77.978
X135.89Y-75.946
X135.907Y-77.995
X137.16Y-116.078
X138.938Y-75.946
X138.99Y-77.99
X141.986Y-118.872
X142.24Y-75.946
X142.24Y-77.978
X143.002Y-114.554
X145.288Y-75.946
X145.288Y-77.978
X148.336Y-75.946
X148.59Y-77.978
X149.86Y-119.126
X151.638Y-77.978
X151.689Y-75.895
X152.4Y-92.71
X152.4Y-96.266
X154.686Y-75.946
X154.94Y-77.978
X156.718Y-114.3
X157.734Y-118.872
X157.988Y-76.2
X157.988Y-77.978
X161.036Y-75.946
X161.29Y-77.978
X164.338Y-76.2
X164.343Y-77.983
X167.386Y-75.946
X167.64Y-77.978
X170.688Y-76.2
X170.688Y-77.978
X173.736Y-76.2
X188.722Y-120.142
X190.754Y-90.17
X190.754Y-96.52
T2
X146.12Y-99.65
X146.12Y-102.19
X146.12Y-104.73
X146.12Y-107.27
X153.74Y-99.65
X153.74Y-102.19
X153.74Y-104.73
X153.74Y-107.27
T3
X110.39Y-106.85
X110.39Y-109.39
X110.39Y-111.93
X110.39Y-114.47
X186.34Y-89.15
X186.34Y-93.25
X186.34Y-97.35
X189.62Y-106.97
X189.62Y-109.51
X189.62Y-112.05
X189.62Y-114.59
T4
X104.304Y-77.75
X106.903Y-77.75
X109.402Y-72.751
X111.902Y-77.75
X114.5Y-77.75
X185.616Y-77.695
X188.214Y-77.695
X190.713Y-72.697
X193.213Y-77.695
X195.811Y-77.695
T5
X111.506Y-94.488
T4
X103.886Y-95.388G85X103.886Y-93.588
G05
X119.126Y-95.388G85X119.126Y-93.588
G05
X196.4Y-88.17G85X196.6Y-88.17
G05
X196.4Y-98.33G85X196.6Y-98.33
G05
T0
M30
