G04 #@! TF.FileFunction,Profile,NP*
%FSLAX46Y46*%
G04 Gerber Fmt 4.6, Leading zero omitted, Abs format (unit mm)*
G04 Created by KiCad (PCBNEW 4.0.7-e0-6372~58~ubuntu16.04.1) date Wed May  1 15:56:19 2019*
%MOMM*%
%LPD*%
G01*
G04 APERTURE LIST*
%ADD10C,0.100000*%
G04 APERTURE END LIST*
D10*
X115972317Y-67627762D02*
X115972317Y-67749650D01*
X115972317Y-67749650D02*
X115972317Y-67871537D01*
X115972317Y-67871537D02*
X115972317Y-67993424D01*
X115972317Y-67993424D02*
X115972317Y-68115313D01*
X115972317Y-68115313D02*
X115972317Y-68237200D01*
X115972317Y-68237200D02*
X115972317Y-68359087D01*
X115972317Y-68359087D02*
X115972317Y-68480976D01*
X115972317Y-68480976D02*
X115972317Y-68602863D01*
X115972317Y-68602863D02*
X114588559Y-68602863D01*
X114588559Y-68602863D02*
X113204804Y-68602863D01*
X113204804Y-68602863D02*
X111821045Y-68602863D01*
X111821045Y-68602863D02*
X110437288Y-68602863D01*
X110437288Y-68602863D02*
X109053524Y-68602863D01*
X109053524Y-68602863D02*
X107669766Y-68602863D01*
X107669766Y-68602863D02*
X106286011Y-68602863D01*
X106286011Y-68602863D02*
X104902253Y-68602863D01*
X104902253Y-68602863D02*
X104142006Y-68683223D01*
X104142006Y-68683223D02*
X103437994Y-68912650D01*
X103437994Y-68912650D02*
X102804126Y-69273670D01*
X102804126Y-69273670D02*
X102254314Y-69748806D01*
X102254314Y-69748806D02*
X101802468Y-70320579D01*
X101802468Y-70320579D02*
X101462500Y-70971517D01*
X101462500Y-70971517D02*
X101248316Y-71684141D01*
X101248316Y-71684141D02*
X101173831Y-72440973D01*
X101173831Y-72440973D02*
X101173831Y-72605441D01*
X101173831Y-72605441D02*
X101173831Y-72769913D01*
X101173831Y-72769913D02*
X101173831Y-72934380D01*
X101173831Y-72934380D02*
X101173831Y-73098849D01*
X101173831Y-73098849D02*
X101173831Y-73263319D01*
X101173831Y-73263319D02*
X101173831Y-73427786D01*
X101173831Y-73427786D02*
X101173831Y-73592258D01*
X101173831Y-73592258D02*
X101173831Y-73756725D01*
X101173831Y-73756725D02*
X101173831Y-73779665D01*
X101173831Y-73779665D02*
X101173831Y-73802605D01*
X101173831Y-73802605D02*
X101173831Y-73825545D01*
X101173831Y-73825545D02*
X101173831Y-73848485D01*
X101173831Y-73848485D02*
X101173831Y-73871425D01*
X101173831Y-73871425D02*
X101173831Y-73894365D01*
X101173831Y-73894365D02*
X101173831Y-73917305D01*
X101173831Y-73917305D02*
X101173831Y-73940245D01*
X101173831Y-73940245D02*
X101090531Y-74049936D01*
X101090531Y-74049936D02*
X101007231Y-74159627D01*
X101007231Y-74159627D02*
X100923931Y-74269318D01*
X100923931Y-74269318D02*
X100840631Y-74379013D01*
X100840631Y-74379013D02*
X100757331Y-74488704D01*
X100757331Y-74488704D02*
X100674031Y-74598395D01*
X100674031Y-74598395D02*
X100590731Y-74708087D01*
X100590731Y-74708087D02*
X100507431Y-74817778D01*
X100507431Y-74817778D02*
X100510831Y-76657597D01*
X100510831Y-76657597D02*
X100514231Y-78497418D01*
X100514231Y-78497418D02*
X100517631Y-80337236D01*
X100517631Y-80337236D02*
X100521031Y-82177057D01*
X100521031Y-82177057D02*
X100524431Y-84016874D01*
X100524431Y-84016874D02*
X100527831Y-85856692D01*
X100527831Y-85856692D02*
X100531231Y-87696513D01*
X100531231Y-87696513D02*
X100534631Y-89536331D01*
X100534631Y-89536331D02*
X100631021Y-89663455D01*
X100631021Y-89663455D02*
X100727411Y-89790579D01*
X100727411Y-89790579D02*
X100823801Y-89917703D01*
X100823801Y-89917703D02*
X100920191Y-90044825D01*
X100920191Y-90044825D02*
X101016581Y-90171949D01*
X101016581Y-90171949D02*
X101112981Y-90299073D01*
X101112981Y-90299073D02*
X101209371Y-90426197D01*
X101209371Y-90426197D02*
X101305764Y-90553321D01*
X101305764Y-90553321D02*
X101305764Y-90734878D01*
X101305764Y-90734878D02*
X101305764Y-90916434D01*
X101305764Y-90916434D02*
X101305764Y-91097990D01*
X101305764Y-91097990D02*
X101305764Y-91279547D01*
X101305764Y-91279547D02*
X101305764Y-91461106D01*
X101305764Y-91461106D02*
X101305764Y-91642662D01*
X101305764Y-91642662D02*
X101305764Y-91824219D01*
X101305764Y-91824219D02*
X101305764Y-92005775D01*
X101305764Y-92005775D02*
X101305764Y-96587890D01*
X101305764Y-96587890D02*
X101305764Y-101170005D01*
X101305764Y-101170005D02*
X101305764Y-105752119D01*
X101305764Y-105752119D02*
X101305764Y-110334234D01*
X101305764Y-110334234D02*
X101305764Y-114916348D01*
X101305764Y-114916348D02*
X101305764Y-119498463D01*
X101305764Y-119498463D02*
X101305764Y-124080579D01*
X101305764Y-124080579D02*
X101305764Y-128662699D01*
X101305764Y-128662699D02*
X101305764Y-128662909D01*
X101305764Y-128662909D02*
X101305764Y-128663119D01*
X101305764Y-128663119D02*
X101305764Y-128663329D01*
X101305764Y-128663329D02*
X101305764Y-128663549D01*
X101305764Y-128663549D02*
X101305764Y-128663759D01*
X101305764Y-128663759D02*
X101305764Y-128663969D01*
X101305764Y-128663969D02*
X101305764Y-128664179D01*
X101305764Y-128664179D02*
X101305764Y-128664389D01*
X101305764Y-128664389D02*
X101377993Y-129400589D01*
X101377993Y-129400589D02*
X101581035Y-130097208D01*
X101581035Y-130097208D02*
X101903384Y-130736208D01*
X101903384Y-130736208D02*
X102333530Y-131299507D01*
X102333530Y-131299507D02*
X102859962Y-131769067D01*
X102859962Y-131769067D02*
X103471173Y-132126826D01*
X103471173Y-132126826D02*
X104155653Y-132354716D01*
X104155653Y-132354716D02*
X104901893Y-132434716D01*
X104901893Y-132434716D02*
X116178594Y-132434716D01*
X116178594Y-132434716D02*
X127455285Y-132434716D01*
X127455285Y-132434716D02*
X138731979Y-132434716D01*
X138731979Y-132434716D02*
X150008670Y-132434716D01*
X150008670Y-132434716D02*
X161285363Y-132434716D01*
X161285363Y-132434716D02*
X172562056Y-132434716D01*
X172562056Y-132434716D02*
X183838747Y-132434716D01*
X183838747Y-132434716D02*
X195115440Y-132434716D01*
X195115440Y-132434716D02*
X195866958Y-132356816D01*
X195866958Y-132356816D02*
X196565281Y-132133896D01*
X196565281Y-132133896D02*
X197195923Y-131782217D01*
X197195923Y-131782217D02*
X197744391Y-131318007D01*
X197744391Y-131318007D02*
X198196200Y-130757498D01*
X198196200Y-130757498D02*
X198536860Y-130116928D01*
X198536860Y-130116928D02*
X198751879Y-129412539D01*
X198751879Y-129412539D02*
X198826769Y-128660559D01*
X198826769Y-128660559D02*
X198826769Y-123986609D01*
X198826769Y-123986609D02*
X198826769Y-119312639D01*
X198826769Y-119312639D02*
X198826769Y-114638678D01*
X198826769Y-114638678D02*
X198826769Y-109964717D01*
X198826769Y-109964717D02*
X198826769Y-105290759D01*
X198826769Y-105290759D02*
X198826769Y-100616798D01*
X198826769Y-100616798D02*
X198826769Y-95942837D01*
X198826769Y-95942837D02*
X198826769Y-91268874D01*
X198826769Y-91268874D02*
X198826769Y-91174134D01*
X198826769Y-91174134D02*
X198826769Y-91079394D01*
X198826769Y-91079394D02*
X198826769Y-90984654D01*
X198826769Y-90984654D02*
X198826769Y-90889914D01*
X198826769Y-90889914D02*
X198826769Y-90795174D01*
X198826769Y-90795174D02*
X198826769Y-90700434D01*
X198826769Y-90700434D02*
X198826769Y-90605694D01*
X198826769Y-90605694D02*
X198826769Y-90510954D01*
X198826769Y-90510954D02*
X198908349Y-90383762D01*
X198908349Y-90383762D02*
X198989929Y-90256568D01*
X198989929Y-90256568D02*
X199071509Y-90129376D01*
X199071509Y-90129376D02*
X199153089Y-90002181D01*
X199153089Y-90002181D02*
X199234669Y-89874989D01*
X199234669Y-89874989D02*
X199316249Y-89747797D01*
X199316249Y-89747797D02*
X199397829Y-89620603D01*
X199397829Y-89620603D02*
X199479429Y-89493411D01*
X199479429Y-89493411D02*
X199482429Y-87659449D01*
X199482429Y-87659449D02*
X199485429Y-85825487D01*
X199485429Y-85825487D02*
X199488429Y-83991525D01*
X199488429Y-83991525D02*
X199491429Y-82157564D01*
X199491429Y-82157564D02*
X199494429Y-80323602D01*
X199494429Y-80323602D02*
X199497429Y-78489640D01*
X199497429Y-78489640D02*
X199500429Y-76655677D01*
X199500429Y-76655677D02*
X199503429Y-74821715D01*
X199503429Y-74821715D02*
X199421529Y-74711945D01*
X199421529Y-74711945D02*
X199339329Y-74602187D01*
X199339329Y-74602187D02*
X199257129Y-74492424D01*
X199257129Y-74492424D02*
X199174929Y-74382665D01*
X199174929Y-74382665D02*
X199092729Y-74272903D01*
X199092729Y-74272903D02*
X199010529Y-74163141D01*
X199010529Y-74163141D02*
X198928329Y-74053382D01*
X198928329Y-74053382D02*
X198846129Y-73943620D01*
X198846129Y-73943620D02*
X198846129Y-73907580D01*
X198846129Y-73907580D02*
X198846129Y-73871550D01*
X198846129Y-73871550D02*
X198846129Y-73835510D01*
X198846129Y-73835510D02*
X198846129Y-73799480D01*
X198846129Y-73799480D02*
X198846129Y-73763440D01*
X198846129Y-73763440D02*
X198846129Y-73727400D01*
X198846129Y-73727400D02*
X198846129Y-73691370D01*
X198846129Y-73691370D02*
X198846129Y-73655330D01*
X198846129Y-73655330D02*
X198846129Y-73504296D01*
X198846129Y-73504296D02*
X198846129Y-73353266D01*
X198846129Y-73353266D02*
X198846129Y-73202231D01*
X198846129Y-73202231D02*
X198846129Y-73051201D01*
X198846129Y-73051201D02*
X198846129Y-72900165D01*
X198846129Y-72900165D02*
X198846129Y-72749131D01*
X198846129Y-72749131D02*
X198846129Y-72598100D01*
X198846129Y-72598100D02*
X198846129Y-72447066D01*
X198846129Y-72447066D02*
X198775089Y-71687155D01*
X198775089Y-71687155D02*
X198561992Y-70972574D01*
X198561992Y-70972574D02*
X198221338Y-70320578D01*
X198221338Y-70320578D02*
X197767627Y-69748429D01*
X197767627Y-69748429D02*
X197215360Y-69273384D01*
X197215360Y-69273384D02*
X196579034Y-68912699D01*
X196579034Y-68912699D02*
X195873148Y-68683633D01*
X195873148Y-68683633D02*
X195112201Y-68603443D01*
X195112201Y-68603443D02*
X193741535Y-68603443D01*
X193741535Y-68603443D02*
X192370869Y-68603443D01*
X192370869Y-68603443D02*
X191000203Y-68603443D01*
X191000203Y-68603443D02*
X189629540Y-68603443D01*
X189629540Y-68603443D02*
X188258875Y-68603443D01*
X188258875Y-68603443D02*
X186888209Y-68603443D01*
X186888209Y-68603443D02*
X185517543Y-68603443D01*
X185517543Y-68603443D02*
X184146877Y-68603443D01*
X184146877Y-68603443D02*
X184146877Y-68481487D01*
X184146877Y-68481487D02*
X184146877Y-68359530D01*
X184146877Y-68359530D02*
X184146877Y-68237575D01*
X184146877Y-68237575D02*
X184146877Y-68115618D01*
X184146877Y-68115618D02*
X184146877Y-67993662D01*
X184146877Y-67993662D02*
X184146877Y-67871706D01*
X184146877Y-67871706D02*
X184146877Y-67749750D01*
X184146877Y-67749750D02*
X184146877Y-67627793D01*
X184146877Y-67627793D02*
X175624608Y-67627793D01*
X175624608Y-67627793D02*
X167102338Y-67627793D01*
X167102338Y-67627793D02*
X158580069Y-67627793D01*
X158580069Y-67627793D02*
X150057799Y-67627793D01*
X150057799Y-67627793D02*
X141535527Y-67627793D01*
X141535527Y-67627793D02*
X133013257Y-67627793D01*
X133013257Y-67627793D02*
X124490986Y-67627793D01*
X124490986Y-67627793D02*
X115968717Y-67627793D01*
X115968717Y-67627793D02*
X115968715Y-67627788D01*
X115968715Y-67627788D02*
X115968712Y-67627783D01*
X115968712Y-67627783D02*
X115968709Y-67627778D01*
X115968709Y-67627778D02*
X115968706Y-67627773D01*
X115968706Y-67627773D02*
X115968704Y-67627769D01*
X115968704Y-67627769D02*
X115968701Y-67627763D01*
X115968701Y-67627763D02*
X115968698Y-67627759D01*
X115968698Y-67627759D02*
X115972298Y-67627793D01*
X115972298Y-67627793D02*
X115972317Y-67627762D01*
X122341739Y-71018131D02*
X122312599Y-71312681D01*
X122312599Y-71312681D02*
X122227349Y-71593224D01*
X122227349Y-71593224D02*
X122089255Y-71851882D01*
X122089255Y-71851882D02*
X121901584Y-72080765D01*
X121901584Y-72080765D02*
X121672699Y-72268438D01*
X121672699Y-72268438D02*
X121414042Y-72406531D01*
X121414042Y-72406531D02*
X121133498Y-72491782D01*
X121133498Y-72491782D02*
X120838948Y-72520922D01*
X120838948Y-72520922D02*
X120544398Y-72491782D01*
X120544398Y-72491782D02*
X120263854Y-72406531D01*
X120263854Y-72406531D02*
X120005197Y-72268438D01*
X120005197Y-72268438D02*
X119776312Y-72080765D01*
X119776312Y-72080765D02*
X119588641Y-71851882D01*
X119588641Y-71851882D02*
X119450547Y-71593224D01*
X119450547Y-71593224D02*
X119365297Y-71312681D01*
X119365297Y-71312681D02*
X119336157Y-71018131D01*
X119336157Y-71018131D02*
X119365297Y-70723580D01*
X119365297Y-70723580D02*
X119450547Y-70443037D01*
X119450547Y-70443037D02*
X119588641Y-70184380D01*
X119588641Y-70184380D02*
X119776312Y-69955495D01*
X119776312Y-69955495D02*
X120005197Y-69767824D01*
X120005197Y-69767824D02*
X120263854Y-69629730D01*
X120263854Y-69629730D02*
X120544398Y-69544480D01*
X120544398Y-69544480D02*
X120838948Y-69515340D01*
X120838948Y-69515340D02*
X121133498Y-69544480D01*
X121133498Y-69544480D02*
X121414042Y-69629730D01*
X121414042Y-69629730D02*
X121672699Y-69767824D01*
X121672699Y-69767824D02*
X121901584Y-69955495D01*
X121901584Y-69955495D02*
X122089255Y-70184380D01*
X122089255Y-70184380D02*
X122227349Y-70443037D01*
X122227349Y-70443037D02*
X122312599Y-70723580D01*
X122312599Y-70723580D02*
X122341739Y-71018131D01*
X122341739Y-71018131D02*
X122341739Y-71018131D01*
X122341739Y-71018131D02*
X122341739Y-71018131D01*
X180678623Y-71018131D02*
X180649483Y-71312681D01*
X180649483Y-71312681D02*
X180564233Y-71593224D01*
X180564233Y-71593224D02*
X180426138Y-71851882D01*
X180426138Y-71851882D02*
X180238466Y-72080765D01*
X180238466Y-72080765D02*
X180009581Y-72268438D01*
X180009581Y-72268438D02*
X179750925Y-72406531D01*
X179750925Y-72406531D02*
X179470382Y-72491782D01*
X179470382Y-72491782D02*
X179175829Y-72520922D01*
X179175829Y-72520922D02*
X178881279Y-72491782D01*
X178881279Y-72491782D02*
X178600736Y-72406531D01*
X178600736Y-72406531D02*
X178342080Y-72268438D01*
X178342080Y-72268438D02*
X178113195Y-72080765D01*
X178113195Y-72080765D02*
X177925523Y-71851882D01*
X177925523Y-71851882D02*
X177787428Y-71593224D01*
X177787428Y-71593224D02*
X177702178Y-71312681D01*
X177702178Y-71312681D02*
X177673038Y-71018131D01*
X177673038Y-71018131D02*
X177702178Y-70723580D01*
X177702178Y-70723580D02*
X177787428Y-70443037D01*
X177787428Y-70443037D02*
X177925523Y-70184380D01*
X177925523Y-70184380D02*
X178113195Y-69955495D01*
X178113195Y-69955495D02*
X178342080Y-69767824D01*
X178342080Y-69767824D02*
X178600736Y-69629730D01*
X178600736Y-69629730D02*
X178881279Y-69544480D01*
X178881279Y-69544480D02*
X179175829Y-69515340D01*
X179175829Y-69515340D02*
X179470382Y-69544480D01*
X179470382Y-69544480D02*
X179750925Y-69629730D01*
X179750925Y-69629730D02*
X180009581Y-69767824D01*
X180009581Y-69767824D02*
X180238466Y-69955495D01*
X180238466Y-69955495D02*
X180426138Y-70184380D01*
X180426138Y-70184380D02*
X180564233Y-70443037D01*
X180564233Y-70443037D02*
X180649483Y-70723580D01*
X180649483Y-70723580D02*
X180678623Y-71018131D01*
X180678623Y-71018131D02*
X180678623Y-71018131D01*
X180678623Y-71018131D02*
X180678623Y-71018131D01*
X130280979Y-98709271D02*
X130234479Y-98778521D01*
X130234479Y-98778521D02*
X130202439Y-98939752D01*
X130202439Y-98939752D02*
X130169889Y-99100980D01*
X130169889Y-99100980D02*
X130137329Y-99262210D01*
X130137329Y-99262210D02*
X130105289Y-99423444D01*
X130105289Y-99423444D02*
X130072739Y-99584675D01*
X130072739Y-99584675D02*
X130041219Y-99745389D01*
X130041219Y-99745389D02*
X130028799Y-99806369D01*
X130028799Y-99806369D02*
X129974539Y-99794999D01*
X129974539Y-99794999D02*
X129630895Y-99751079D01*
X129630895Y-99751079D02*
X129283629Y-99742279D01*
X129283629Y-99742279D02*
X128937913Y-99767599D01*
X128937913Y-99767599D02*
X128703818Y-99808429D01*
X128703818Y-99808429D02*
X128691368Y-99750499D01*
X128691368Y-99750499D02*
X128658808Y-99588752D01*
X128658808Y-99588752D02*
X128626248Y-99426488D01*
X128626248Y-99426488D02*
X128593688Y-99264741D01*
X128593688Y-99264741D02*
X128561138Y-99102477D01*
X128561138Y-99102477D02*
X128529098Y-98940211D01*
X128529098Y-98940211D02*
X128496548Y-98777950D01*
X128496548Y-98777950D02*
X128432468Y-98713870D01*
X128432468Y-98713870D02*
X128252143Y-98755090D01*
X128252143Y-98755090D02*
X128074128Y-98803370D01*
X128074128Y-98803370D02*
X127898610Y-98858610D01*
X127898610Y-98858610D02*
X127725784Y-98920700D01*
X127725784Y-98920700D02*
X127555832Y-98989520D01*
X127555832Y-98989520D02*
X127388954Y-99064970D01*
X127388954Y-99064970D02*
X127225334Y-99146940D01*
X127225334Y-99146940D02*
X127065163Y-99235310D01*
X127065163Y-99235310D02*
X126908631Y-99329980D01*
X126908631Y-99329980D02*
X126755929Y-99430838D01*
X126755929Y-99430838D02*
X126607249Y-99537778D01*
X126607249Y-99537778D02*
X126462780Y-99650683D01*
X126462780Y-99650683D02*
X126322710Y-99769445D01*
X126322710Y-99769445D02*
X126187233Y-99893956D01*
X126187233Y-99893956D02*
X126056535Y-100024106D01*
X126056535Y-100024106D02*
X125930810Y-100159781D01*
X125930810Y-100159781D02*
X125955110Y-100245561D01*
X125955110Y-100245561D02*
X126079649Y-100355630D01*
X126079649Y-100355630D02*
X126204707Y-100465186D01*
X126204707Y-100465186D02*
X126329246Y-100575256D01*
X126329246Y-100575256D02*
X126453785Y-100685325D01*
X126453785Y-100685325D02*
X126579360Y-100794881D01*
X126579360Y-100794881D02*
X126703902Y-100904437D01*
X126703902Y-100904437D02*
X126744212Y-100940087D01*
X126744212Y-100940087D02*
X126658422Y-101039307D01*
X126658422Y-101039307D02*
X126455335Y-101320426D01*
X126455335Y-101320426D02*
X126280671Y-101620668D01*
X126280671Y-101620668D02*
X126137008Y-101936410D01*
X126137008Y-101936410D02*
X126084818Y-102088855D01*
X126084818Y-102088855D02*
X126031588Y-102070765D01*
X126031588Y-102070765D02*
X125873458Y-102017535D01*
X125873458Y-102017535D02*
X125715846Y-101964305D01*
X125715846Y-101964305D02*
X125558233Y-101911075D01*
X125558233Y-101911075D02*
X125400621Y-101857845D01*
X125400621Y-101857845D02*
X125243005Y-101804615D01*
X125243005Y-101804615D02*
X125085392Y-101751395D01*
X125085392Y-101751395D02*
X125000122Y-101774115D01*
X125000122Y-101774115D02*
X124972102Y-101861335D01*
X124972102Y-101861335D02*
X124945852Y-101949035D01*
X124945852Y-101949035D02*
X124921352Y-102037195D01*
X124921352Y-102037195D02*
X124898632Y-102125775D01*
X124898632Y-102125775D02*
X124877662Y-102214755D01*
X124877662Y-102214755D02*
X124858472Y-102304115D01*
X124858472Y-102304115D02*
X124841082Y-102393815D01*
X124841082Y-102393815D02*
X124825472Y-102483835D01*
X124825472Y-102483835D02*
X124811672Y-102574145D01*
X124811672Y-102574145D02*
X124799652Y-102664725D01*
X124799652Y-102664725D02*
X124789432Y-102755545D01*
X124789432Y-102755545D02*
X124781032Y-102846575D01*
X124781032Y-102846575D02*
X124774432Y-102937785D01*
X124774432Y-102937785D02*
X124769632Y-103029155D01*
X124769632Y-103029155D02*
X124766632Y-103120655D01*
X124766632Y-103120655D02*
X124765532Y-103212265D01*
X124765532Y-103212265D02*
X124766932Y-103304845D01*
X124766932Y-103304845D02*
X124770132Y-103397315D01*
X124770132Y-103397315D02*
X124775132Y-103489645D01*
X124775132Y-103489645D02*
X124782032Y-103581815D01*
X124782032Y-103581815D02*
X124790732Y-103673795D01*
X124790732Y-103673795D02*
X124801292Y-103765555D01*
X124801292Y-103765555D02*
X124813682Y-103857065D01*
X124813682Y-103857065D02*
X124827882Y-103948295D01*
X124827882Y-103948295D02*
X124843942Y-104039225D01*
X124843942Y-104039225D02*
X124861812Y-104129825D01*
X124861812Y-104129825D02*
X124881482Y-104220055D01*
X124881482Y-104220055D02*
X124902992Y-104309905D01*
X124902992Y-104309905D02*
X124926302Y-104399345D01*
X124926302Y-104399345D02*
X124951422Y-104488335D01*
X124951422Y-104488335D02*
X124978342Y-104576865D01*
X124978342Y-104576865D02*
X125007052Y-104664895D01*
X125007052Y-104664895D02*
X125085602Y-104685555D01*
X125085602Y-104685555D02*
X125241663Y-104632325D01*
X125241663Y-104632325D02*
X125398245Y-104579615D01*
X125398245Y-104579615D02*
X125554825Y-104526905D01*
X125554825Y-104526905D02*
X125710885Y-104474195D01*
X125710885Y-104474195D02*
X125867468Y-104421485D01*
X125867468Y-104421485D02*
X126023528Y-104368255D01*
X126023528Y-104368255D02*
X126086578Y-104347065D01*
X126086578Y-104347065D02*
X126201818Y-104639551D01*
X126201818Y-104639551D02*
X126359430Y-104948060D01*
X126359430Y-104948060D02*
X126489653Y-105156317D01*
X126489653Y-105156317D02*
X126698427Y-105433818D01*
X126698427Y-105433818D02*
X126751647Y-105491698D01*
X126751647Y-105491698D02*
X126695317Y-105540788D01*
X126695317Y-105540788D02*
X126571811Y-105649308D01*
X126571811Y-105649308D02*
X126448305Y-105757831D01*
X126448305Y-105757831D02*
X126324796Y-105866349D01*
X126324796Y-105866349D02*
X126201292Y-105974872D01*
X126201292Y-105974872D02*
X126078300Y-106083392D01*
X126078300Y-106083392D02*
X125954794Y-106191912D01*
X125954794Y-106191912D02*
X125934134Y-106267362D01*
X125934134Y-106267362D02*
X126059912Y-106403427D01*
X126059912Y-106403427D02*
X126190685Y-106533949D01*
X126190685Y-106533949D02*
X126326258Y-106658815D01*
X126326258Y-106658815D02*
X126466448Y-106777925D01*
X126466448Y-106777925D02*
X126611055Y-106891158D01*
X126611055Y-106891158D02*
X126759897Y-106998405D01*
X126759897Y-106998405D02*
X126912774Y-107099559D01*
X126912774Y-107099559D02*
X127069500Y-107194509D01*
X127069500Y-107194509D02*
X127229883Y-107283139D01*
X127229883Y-107283139D02*
X127393731Y-107365339D01*
X127393731Y-107365339D02*
X127560852Y-107441009D01*
X127560852Y-107441009D02*
X127731060Y-107510029D01*
X127731060Y-107510029D02*
X127904157Y-107572289D01*
X127904157Y-107572289D02*
X128079954Y-107627679D01*
X128079954Y-107627679D02*
X128258264Y-107676089D01*
X128258264Y-107676089D02*
X128438890Y-107717409D01*
X128438890Y-107717409D02*
X128495730Y-107659529D01*
X128495730Y-107659529D02*
X128528290Y-107498299D01*
X128528290Y-107498299D02*
X128560330Y-107336552D01*
X128560330Y-107336552D02*
X128592890Y-107175324D01*
X128592890Y-107175324D02*
X128625450Y-107014087D01*
X128625450Y-107014087D02*
X128657490Y-106852859D01*
X128657490Y-106852859D02*
X128689530Y-106692145D01*
X128689530Y-106692145D02*
X128704520Y-106618765D01*
X128704520Y-106618765D02*
X128756710Y-106629605D01*
X128756710Y-106629605D02*
X129101391Y-106673525D01*
X129101391Y-106673525D02*
X129447625Y-106682325D01*
X129447625Y-106682325D02*
X129794373Y-106657545D01*
X129794373Y-106657545D02*
X130027429Y-106617235D01*
X130027429Y-106617235D02*
X130041369Y-106686485D01*
X130041369Y-106686485D02*
X130073409Y-106848233D01*
X130073409Y-106848233D02*
X130105969Y-107011016D01*
X130105969Y-107011016D02*
X130138519Y-107172760D01*
X130138519Y-107172760D02*
X130171079Y-107334507D01*
X130171079Y-107334507D02*
X130203639Y-107496771D01*
X130203639Y-107496771D02*
X130235679Y-107658518D01*
X130235679Y-107658518D02*
X130289939Y-107713808D01*
X130289939Y-107713808D02*
X130470637Y-107672818D01*
X130470637Y-107672818D02*
X130649027Y-107624738D01*
X130649027Y-107624738D02*
X130824919Y-107569678D01*
X130824919Y-107569678D02*
X130998127Y-107507738D01*
X130998127Y-107507738D02*
X131168451Y-107439038D01*
X131168451Y-107439038D02*
X131335707Y-107363678D01*
X131335707Y-107363678D02*
X131499701Y-107281778D01*
X131499701Y-107281778D02*
X131660240Y-107193438D01*
X131660240Y-107193438D02*
X131817136Y-107098788D01*
X131817136Y-107098788D02*
X131970194Y-106997919D01*
X131970194Y-106997919D02*
X132119227Y-106890946D01*
X132119227Y-106890946D02*
X132264041Y-106777986D01*
X132264041Y-106777986D02*
X132404446Y-106659146D01*
X132404446Y-106659146D02*
X132540246Y-106534527D01*
X132540246Y-106534527D02*
X132671253Y-106404251D01*
X132671253Y-106404251D02*
X132797280Y-106268423D01*
X132797280Y-106268423D02*
X132777130Y-106191423D01*
X132777130Y-106191423D02*
X132651555Y-106082387D01*
X132651555Y-106082387D02*
X132526500Y-105972314D01*
X132526500Y-105972314D02*
X132401958Y-105862245D01*
X132401958Y-105862245D02*
X132276903Y-105752173D01*
X132276903Y-105752173D02*
X132151331Y-105642620D01*
X132151331Y-105642620D02*
X132026789Y-105532547D01*
X132026789Y-105532547D02*
X131980799Y-105491727D01*
X131980799Y-105491727D02*
X132073299Y-105385273D01*
X132073299Y-105385273D02*
X132276389Y-105104154D01*
X132276389Y-105104154D02*
X132450540Y-104804431D01*
X132450540Y-104804431D02*
X132594199Y-104488170D01*
X132594199Y-104488170D02*
X132642779Y-104346576D01*
X132642779Y-104346576D02*
X132699619Y-104365706D01*
X132699619Y-104365706D02*
X132857751Y-104418936D01*
X132857751Y-104418936D02*
X133015363Y-104472676D01*
X133015363Y-104472676D02*
X133172976Y-104525386D01*
X133172976Y-104525386D02*
X133330588Y-104579136D01*
X133330588Y-104579136D02*
X133488718Y-104632356D01*
X133488718Y-104632356D02*
X133646333Y-104685586D01*
X133646333Y-104685586D02*
X133726433Y-104664926D01*
X133726433Y-104664926D02*
X133755013Y-104576876D01*
X133755013Y-104576876D02*
X133781793Y-104488336D01*
X133781793Y-104488336D02*
X133806773Y-104399326D01*
X133806773Y-104399326D02*
X133829943Y-104309876D01*
X133829943Y-104309876D02*
X133851303Y-104220016D01*
X133851303Y-104220016D02*
X133870863Y-104129766D01*
X133870863Y-104129766D02*
X133888583Y-104039166D01*
X133888583Y-104039166D02*
X133904503Y-103948236D01*
X133904503Y-103948236D02*
X133918583Y-103857006D01*
X133918583Y-103857006D02*
X133930833Y-103765506D01*
X133930833Y-103765506D02*
X133941243Y-103673756D01*
X133941243Y-103673756D02*
X133949843Y-103581786D01*
X133949843Y-103581786D02*
X133956543Y-103489626D01*
X133956543Y-103489626D02*
X133961443Y-103397306D01*
X133961443Y-103397306D02*
X133964443Y-103304846D01*
X133964443Y-103304846D02*
X133965543Y-103212286D01*
X133965543Y-103212286D02*
X133964143Y-103120586D01*
X133964143Y-103120586D02*
X133961043Y-103028996D01*
X133961043Y-103028996D02*
X133956143Y-102937546D01*
X133956143Y-102937546D02*
X133949443Y-102846246D01*
X133949443Y-102846246D02*
X133940843Y-102755146D01*
X133940843Y-102755146D02*
X133930483Y-102664256D01*
X133930483Y-102664256D02*
X133918323Y-102573606D01*
X133918323Y-102573606D02*
X133904353Y-102483226D01*
X133904353Y-102483226D02*
X133888573Y-102393136D01*
X133888573Y-102393136D02*
X133871023Y-102303376D01*
X133871023Y-102303376D02*
X133851693Y-102213966D01*
X133851693Y-102213966D02*
X133830583Y-102124926D01*
X133830583Y-102124926D02*
X133807693Y-102036296D01*
X133807693Y-102036296D02*
X133783023Y-101948096D01*
X133783023Y-101948096D02*
X133756583Y-101860346D01*
X133756583Y-101860346D02*
X133728393Y-101773086D01*
X133728393Y-101773086D02*
X133645713Y-101750846D01*
X133645713Y-101750846D02*
X133489133Y-101804066D01*
X133489133Y-101804066D02*
X133332556Y-101856776D01*
X133332556Y-101856776D02*
X133176493Y-101909486D01*
X133176493Y-101909486D02*
X133019913Y-101962716D01*
X133019913Y-101962716D02*
X132863850Y-102015426D01*
X132863850Y-102015426D02*
X132707273Y-102068126D01*
X132707273Y-102068126D02*
X132648873Y-102087766D01*
X132648873Y-102087766D02*
X132530532Y-101785461D01*
X132530532Y-101785461D02*
X132371886Y-101476436D01*
X132371886Y-101476436D02*
X132241660Y-101268182D01*
X132241660Y-101268182D02*
X132033406Y-100991195D01*
X132033406Y-100991195D02*
X131986376Y-100940035D01*
X131986376Y-100940035D02*
X132034956Y-100897145D01*
X132034956Y-100897145D02*
X132158462Y-100788628D01*
X132158462Y-100788628D02*
X132281971Y-100679588D01*
X132281971Y-100679588D02*
X132405474Y-100571585D01*
X132405474Y-100571585D02*
X132528983Y-100463065D01*
X132528983Y-100463065D02*
X132651973Y-100354545D01*
X132651973Y-100354545D02*
X132775479Y-100246025D01*
X132775479Y-100246025D02*
X132817859Y-100180395D01*
X132817859Y-100180395D02*
X132690814Y-100041146D01*
X132690814Y-100041146D02*
X132558562Y-99907607D01*
X132558562Y-99907607D02*
X132421314Y-99779896D01*
X132421314Y-99779896D02*
X132279266Y-99658126D01*
X132279266Y-99658126D02*
X132132627Y-99542417D01*
X132132627Y-99542417D02*
X131981595Y-99432884D01*
X131981595Y-99432884D02*
X131826370Y-99329647D01*
X131826370Y-99329647D02*
X131667152Y-99232817D01*
X131667152Y-99232817D02*
X131504143Y-99142517D01*
X131504143Y-99142517D02*
X131337547Y-99058857D01*
X131337547Y-99058857D02*
X131167562Y-98981957D01*
X131167562Y-98981957D02*
X130994393Y-98911937D01*
X130994393Y-98911937D02*
X130818230Y-98848907D01*
X130818230Y-98848907D02*
X130639287Y-98792987D01*
X130639287Y-98792987D02*
X130457756Y-98744297D01*
X130457756Y-98744297D02*
X130280972Y-98709277D01*
X130280972Y-98709277D02*
X130280979Y-98709271D01*
X171578650Y-98709271D02*
X171532150Y-98778521D01*
X171532150Y-98778521D02*
X171500110Y-98939752D01*
X171500110Y-98939752D02*
X171467560Y-99100980D01*
X171467560Y-99100980D02*
X171435000Y-99262210D01*
X171435000Y-99262210D02*
X171402960Y-99423444D01*
X171402960Y-99423444D02*
X171370410Y-99584675D01*
X171370410Y-99584675D02*
X171338890Y-99745389D01*
X171338890Y-99745389D02*
X171326470Y-99806369D01*
X171326470Y-99806369D02*
X171272210Y-99794999D01*
X171272210Y-99794999D02*
X170928566Y-99751079D01*
X170928566Y-99751079D02*
X170581300Y-99742279D01*
X170581300Y-99742279D02*
X170235584Y-99767599D01*
X170235584Y-99767599D02*
X170001489Y-99808429D01*
X170001489Y-99808429D02*
X169989039Y-99750499D01*
X169989039Y-99750499D02*
X169956479Y-99588752D01*
X169956479Y-99588752D02*
X169923919Y-99426488D01*
X169923919Y-99426488D02*
X169891359Y-99264741D01*
X169891359Y-99264741D02*
X169858809Y-99102477D01*
X169858809Y-99102477D02*
X169826769Y-98940211D01*
X169826769Y-98940211D02*
X169794219Y-98777950D01*
X169794219Y-98777950D02*
X169730139Y-98713870D01*
X169730139Y-98713870D02*
X169549814Y-98755090D01*
X169549814Y-98755090D02*
X169371799Y-98803370D01*
X169371799Y-98803370D02*
X169196281Y-98858610D01*
X169196281Y-98858610D02*
X169023455Y-98920700D01*
X169023455Y-98920700D02*
X168853503Y-98989520D01*
X168853503Y-98989520D02*
X168686625Y-99064970D01*
X168686625Y-99064970D02*
X168523005Y-99146940D01*
X168523005Y-99146940D02*
X168362834Y-99235310D01*
X168362834Y-99235310D02*
X168206302Y-99329980D01*
X168206302Y-99329980D02*
X168053600Y-99430838D01*
X168053600Y-99430838D02*
X167904920Y-99537778D01*
X167904920Y-99537778D02*
X167760451Y-99650683D01*
X167760451Y-99650683D02*
X167620381Y-99769445D01*
X167620381Y-99769445D02*
X167484904Y-99893956D01*
X167484904Y-99893956D02*
X167354206Y-100024106D01*
X167354206Y-100024106D02*
X167228481Y-100159781D01*
X167228481Y-100159781D02*
X167252781Y-100245561D01*
X167252781Y-100245561D02*
X167377320Y-100355630D01*
X167377320Y-100355630D02*
X167502378Y-100465186D01*
X167502378Y-100465186D02*
X167626917Y-100575256D01*
X167626917Y-100575256D02*
X167751456Y-100685325D01*
X167751456Y-100685325D02*
X167877031Y-100794881D01*
X167877031Y-100794881D02*
X168001573Y-100904437D01*
X168001573Y-100904437D02*
X168041883Y-100940087D01*
X168041883Y-100940087D02*
X167956093Y-101039307D01*
X167956093Y-101039307D02*
X167753006Y-101320426D01*
X167753006Y-101320426D02*
X167578342Y-101620668D01*
X167578342Y-101620668D02*
X167434679Y-101936410D01*
X167434679Y-101936410D02*
X167382489Y-102088855D01*
X167382489Y-102088855D02*
X167329259Y-102070765D01*
X167329259Y-102070765D02*
X167171129Y-102017535D01*
X167171129Y-102017535D02*
X167013517Y-101964305D01*
X167013517Y-101964305D02*
X166855904Y-101911075D01*
X166855904Y-101911075D02*
X166698292Y-101857845D01*
X166698292Y-101857845D02*
X166540676Y-101804615D01*
X166540676Y-101804615D02*
X166383063Y-101751395D01*
X166383063Y-101751395D02*
X166297793Y-101774115D01*
X166297793Y-101774115D02*
X166269773Y-101861335D01*
X166269773Y-101861335D02*
X166243523Y-101949035D01*
X166243523Y-101949035D02*
X166219023Y-102037195D01*
X166219023Y-102037195D02*
X166196303Y-102125775D01*
X166196303Y-102125775D02*
X166175333Y-102214755D01*
X166175333Y-102214755D02*
X166156143Y-102304115D01*
X166156143Y-102304115D02*
X166138753Y-102393815D01*
X166138753Y-102393815D02*
X166123143Y-102483835D01*
X166123143Y-102483835D02*
X166109343Y-102574145D01*
X166109343Y-102574145D02*
X166097323Y-102664725D01*
X166097323Y-102664725D02*
X166087103Y-102755545D01*
X166087103Y-102755545D02*
X166078703Y-102846575D01*
X166078703Y-102846575D02*
X166072103Y-102937785D01*
X166072103Y-102937785D02*
X166067303Y-103029155D01*
X166067303Y-103029155D02*
X166064303Y-103120655D01*
X166064303Y-103120655D02*
X166063203Y-103212265D01*
X166063203Y-103212265D02*
X166064603Y-103304845D01*
X166064603Y-103304845D02*
X166067803Y-103397315D01*
X166067803Y-103397315D02*
X166072803Y-103489645D01*
X166072803Y-103489645D02*
X166079703Y-103581815D01*
X166079703Y-103581815D02*
X166088403Y-103673795D01*
X166088403Y-103673795D02*
X166098963Y-103765555D01*
X166098963Y-103765555D02*
X166111353Y-103857065D01*
X166111353Y-103857065D02*
X166125553Y-103948295D01*
X166125553Y-103948295D02*
X166141613Y-104039225D01*
X166141613Y-104039225D02*
X166159483Y-104129825D01*
X166159483Y-104129825D02*
X166179153Y-104220055D01*
X166179153Y-104220055D02*
X166200663Y-104309905D01*
X166200663Y-104309905D02*
X166223973Y-104399345D01*
X166223973Y-104399345D02*
X166249093Y-104488335D01*
X166249093Y-104488335D02*
X166276013Y-104576865D01*
X166276013Y-104576865D02*
X166304723Y-104664895D01*
X166304723Y-104664895D02*
X166383273Y-104685555D01*
X166383273Y-104685555D02*
X166539334Y-104632325D01*
X166539334Y-104632325D02*
X166695916Y-104579615D01*
X166695916Y-104579615D02*
X166852496Y-104526905D01*
X166852496Y-104526905D02*
X167008556Y-104474195D01*
X167008556Y-104474195D02*
X167165139Y-104421485D01*
X167165139Y-104421485D02*
X167321199Y-104368255D01*
X167321199Y-104368255D02*
X167384249Y-104347065D01*
X167384249Y-104347065D02*
X167499489Y-104639551D01*
X167499489Y-104639551D02*
X167657101Y-104948060D01*
X167657101Y-104948060D02*
X167787324Y-105156317D01*
X167787324Y-105156317D02*
X167996098Y-105433818D01*
X167996098Y-105433818D02*
X168049318Y-105491698D01*
X168049318Y-105491698D02*
X167992988Y-105540788D01*
X167992988Y-105540788D02*
X167869482Y-105649308D01*
X167869482Y-105649308D02*
X167745976Y-105757831D01*
X167745976Y-105757831D02*
X167622467Y-105866349D01*
X167622467Y-105866349D02*
X167498963Y-105974872D01*
X167498963Y-105974872D02*
X167375971Y-106083392D01*
X167375971Y-106083392D02*
X167252465Y-106191912D01*
X167252465Y-106191912D02*
X167231805Y-106267362D01*
X167231805Y-106267362D02*
X167357583Y-106403427D01*
X167357583Y-106403427D02*
X167488356Y-106533949D01*
X167488356Y-106533949D02*
X167623929Y-106658815D01*
X167623929Y-106658815D02*
X167764119Y-106777925D01*
X167764119Y-106777925D02*
X167908726Y-106891158D01*
X167908726Y-106891158D02*
X168057568Y-106998405D01*
X168057568Y-106998405D02*
X168210445Y-107099559D01*
X168210445Y-107099559D02*
X168367171Y-107194509D01*
X168367171Y-107194509D02*
X168527554Y-107283139D01*
X168527554Y-107283139D02*
X168691402Y-107365339D01*
X168691402Y-107365339D02*
X168858523Y-107441009D01*
X168858523Y-107441009D02*
X169028731Y-107510029D01*
X169028731Y-107510029D02*
X169201828Y-107572289D01*
X169201828Y-107572289D02*
X169377625Y-107627679D01*
X169377625Y-107627679D02*
X169555935Y-107676089D01*
X169555935Y-107676089D02*
X169736561Y-107717409D01*
X169736561Y-107717409D02*
X169793401Y-107659529D01*
X169793401Y-107659529D02*
X169825961Y-107498299D01*
X169825961Y-107498299D02*
X169858001Y-107336552D01*
X169858001Y-107336552D02*
X169890561Y-107175324D01*
X169890561Y-107175324D02*
X169923121Y-107014087D01*
X169923121Y-107014087D02*
X169955161Y-106852859D01*
X169955161Y-106852859D02*
X169987201Y-106692145D01*
X169987201Y-106692145D02*
X170002191Y-106618765D01*
X170002191Y-106618765D02*
X170054381Y-106629605D01*
X170054381Y-106629605D02*
X170399062Y-106673525D01*
X170399062Y-106673525D02*
X170745296Y-106682325D01*
X170745296Y-106682325D02*
X171092044Y-106657545D01*
X171092044Y-106657545D02*
X171325100Y-106617235D01*
X171325100Y-106617235D02*
X171339040Y-106686485D01*
X171339040Y-106686485D02*
X171371080Y-106848233D01*
X171371080Y-106848233D02*
X171403640Y-107011016D01*
X171403640Y-107011016D02*
X171436190Y-107172760D01*
X171436190Y-107172760D02*
X171468750Y-107334507D01*
X171468750Y-107334507D02*
X171501310Y-107496771D01*
X171501310Y-107496771D02*
X171533350Y-107658518D01*
X171533350Y-107658518D02*
X171587610Y-107713808D01*
X171587610Y-107713808D02*
X171768308Y-107672818D01*
X171768308Y-107672818D02*
X171946698Y-107624738D01*
X171946698Y-107624738D02*
X172122590Y-107569678D01*
X172122590Y-107569678D02*
X172295798Y-107507738D01*
X172295798Y-107507738D02*
X172466122Y-107439038D01*
X172466122Y-107439038D02*
X172633378Y-107363678D01*
X172633378Y-107363678D02*
X172797372Y-107281778D01*
X172797372Y-107281778D02*
X172957911Y-107193438D01*
X172957911Y-107193438D02*
X173114807Y-107098788D01*
X173114807Y-107098788D02*
X173267865Y-106997919D01*
X173267865Y-106997919D02*
X173416898Y-106890946D01*
X173416898Y-106890946D02*
X173561712Y-106777986D01*
X173561712Y-106777986D02*
X173702117Y-106659146D01*
X173702117Y-106659146D02*
X173837917Y-106534527D01*
X173837917Y-106534527D02*
X173968924Y-106404251D01*
X173968924Y-106404251D02*
X174094951Y-106268423D01*
X174094951Y-106268423D02*
X174074801Y-106191423D01*
X174074801Y-106191423D02*
X173949226Y-106082387D01*
X173949226Y-106082387D02*
X173824171Y-105972314D01*
X173824171Y-105972314D02*
X173699629Y-105862245D01*
X173699629Y-105862245D02*
X173574574Y-105752173D01*
X173574574Y-105752173D02*
X173449002Y-105642620D01*
X173449002Y-105642620D02*
X173324460Y-105532547D01*
X173324460Y-105532547D02*
X173278470Y-105491727D01*
X173278470Y-105491727D02*
X173370970Y-105385273D01*
X173370970Y-105385273D02*
X173574060Y-105104154D01*
X173574060Y-105104154D02*
X173748211Y-104804431D01*
X173748211Y-104804431D02*
X173891870Y-104488170D01*
X173891870Y-104488170D02*
X173940450Y-104346576D01*
X173940450Y-104346576D02*
X173997290Y-104365706D01*
X173997290Y-104365706D02*
X174155422Y-104418936D01*
X174155422Y-104418936D02*
X174313034Y-104472676D01*
X174313034Y-104472676D02*
X174470647Y-104525386D01*
X174470647Y-104525386D02*
X174628259Y-104579136D01*
X174628259Y-104579136D02*
X174786389Y-104632356D01*
X174786389Y-104632356D02*
X174944004Y-104685586D01*
X174944004Y-104685586D02*
X175024104Y-104664926D01*
X175024104Y-104664926D02*
X175052684Y-104576876D01*
X175052684Y-104576876D02*
X175079464Y-104488336D01*
X175079464Y-104488336D02*
X175104444Y-104399326D01*
X175104444Y-104399326D02*
X175127614Y-104309876D01*
X175127614Y-104309876D02*
X175148974Y-104220016D01*
X175148974Y-104220016D02*
X175168534Y-104129766D01*
X175168534Y-104129766D02*
X175186254Y-104039166D01*
X175186254Y-104039166D02*
X175202174Y-103948236D01*
X175202174Y-103948236D02*
X175216254Y-103857006D01*
X175216254Y-103857006D02*
X175228504Y-103765506D01*
X175228504Y-103765506D02*
X175238914Y-103673756D01*
X175238914Y-103673756D02*
X175247514Y-103581786D01*
X175247514Y-103581786D02*
X175254214Y-103489626D01*
X175254214Y-103489626D02*
X175259114Y-103397306D01*
X175259114Y-103397306D02*
X175262114Y-103304846D01*
X175262114Y-103304846D02*
X175263214Y-103212286D01*
X175263214Y-103212286D02*
X175261814Y-103120586D01*
X175261814Y-103120586D02*
X175258714Y-103028996D01*
X175258714Y-103028996D02*
X175253814Y-102937546D01*
X175253814Y-102937546D02*
X175247114Y-102846246D01*
X175247114Y-102846246D02*
X175238514Y-102755146D01*
X175238514Y-102755146D02*
X175228154Y-102664256D01*
X175228154Y-102664256D02*
X175215994Y-102573606D01*
X175215994Y-102573606D02*
X175202024Y-102483226D01*
X175202024Y-102483226D02*
X175186244Y-102393136D01*
X175186244Y-102393136D02*
X175168694Y-102303376D01*
X175168694Y-102303376D02*
X175149364Y-102213966D01*
X175149364Y-102213966D02*
X175128254Y-102124926D01*
X175128254Y-102124926D02*
X175105364Y-102036296D01*
X175105364Y-102036296D02*
X175080694Y-101948096D01*
X175080694Y-101948096D02*
X175054254Y-101860346D01*
X175054254Y-101860346D02*
X175026064Y-101773086D01*
X175026064Y-101773086D02*
X174943384Y-101750846D01*
X174943384Y-101750846D02*
X174786804Y-101804066D01*
X174786804Y-101804066D02*
X174630227Y-101856776D01*
X174630227Y-101856776D02*
X174474164Y-101909486D01*
X174474164Y-101909486D02*
X174317584Y-101962716D01*
X174317584Y-101962716D02*
X174161521Y-102015426D01*
X174161521Y-102015426D02*
X174004944Y-102068126D01*
X174004944Y-102068126D02*
X173946544Y-102087766D01*
X173946544Y-102087766D02*
X173828203Y-101785461D01*
X173828203Y-101785461D02*
X173669557Y-101476436D01*
X173669557Y-101476436D02*
X173539331Y-101268182D01*
X173539331Y-101268182D02*
X173331077Y-100991195D01*
X173331077Y-100991195D02*
X173284047Y-100940035D01*
X173284047Y-100940035D02*
X173332627Y-100897145D01*
X173332627Y-100897145D02*
X173456133Y-100788628D01*
X173456133Y-100788628D02*
X173579642Y-100679588D01*
X173579642Y-100679588D02*
X173703145Y-100571585D01*
X173703145Y-100571585D02*
X173826654Y-100463065D01*
X173826654Y-100463065D02*
X173949644Y-100354545D01*
X173949644Y-100354545D02*
X174073150Y-100246025D01*
X174073150Y-100246025D02*
X174115530Y-100180395D01*
X174115530Y-100180395D02*
X173988485Y-100041146D01*
X173988485Y-100041146D02*
X173856233Y-99907607D01*
X173856233Y-99907607D02*
X173718985Y-99779896D01*
X173718985Y-99779896D02*
X173576937Y-99658126D01*
X173576937Y-99658126D02*
X173430298Y-99542417D01*
X173430298Y-99542417D02*
X173279266Y-99432884D01*
X173279266Y-99432884D02*
X173124041Y-99329647D01*
X173124041Y-99329647D02*
X172964823Y-99232817D01*
X172964823Y-99232817D02*
X172801814Y-99142517D01*
X172801814Y-99142517D02*
X172635218Y-99058857D01*
X172635218Y-99058857D02*
X172465233Y-98981957D01*
X172465233Y-98981957D02*
X172292064Y-98911937D01*
X172292064Y-98911937D02*
X172115901Y-98848907D01*
X172115901Y-98848907D02*
X171936958Y-98792987D01*
X171936958Y-98792987D02*
X171755427Y-98744297D01*
X171755427Y-98744297D02*
X171578643Y-98709277D01*
X171578643Y-98709277D02*
X171578650Y-98709271D01*
M02*
