G04 #@! TF.FileFunction,Copper,L2,Bot,Signal*
%FSLAX46Y46*%
G04 Gerber Fmt 4.6, Leading zero omitted, Abs format (unit mm)*
G04 Created by KiCad (PCBNEW 4.0.7-e0-6372~58~ubuntu16.04.1) date Wed May  1 15:56:19 2019*
%MOMM*%
%LPD*%
G01*
G04 APERTURE LIST*
%ADD10C,0.100000*%
%ADD11C,2.000000*%
%ADD12O,2.400000X2.000000*%
%ADD13R,0.800000X3.200000*%
%ADD14R,4.000000X7.000000*%
%ADD15R,1.600000X1.000000*%
%ADD16R,1.000000X1.600000*%
%ADD17C,1.800000*%
%ADD18R,1.510000X3.010000*%
%ADD19O,1.510000X3.010000*%
%ADD20C,2.181860*%
%ADD21R,1.700000X1.100000*%
%ADD22R,1.100000X1.700000*%
%ADD23O,2.200000X1.800000*%
%ADD24C,2.340000*%
%ADD25O,2.500000X3.500000*%
%ADD26O,1.700000X2.500000*%
%ADD27O,1.600000X3.500000*%
%ADD28C,8.000000*%
%ADD29R,1.750000X0.550000*%
%ADD30C,0.600000*%
%ADD31C,0.400000*%
%ADD32C,0.254000*%
G04 APERTURE END LIST*
D10*
D11*
X186340000Y-97350000D03*
X186340000Y-93250000D03*
X186340000Y-89150000D03*
D12*
X196500000Y-98330000D03*
X196500000Y-88170000D03*
D13*
X143160000Y-100930000D03*
X141560000Y-100930000D03*
D14*
X179590000Y-84500000D03*
X120590000Y-84500000D03*
X120370000Y-123726000D03*
X179370000Y-123726000D03*
D15*
X186690000Y-85852000D03*
X186690000Y-82296000D03*
D16*
X184404000Y-128270000D03*
X187960000Y-128270000D03*
X193802000Y-128270000D03*
X190246000Y-128270000D03*
D17*
X110390000Y-114470000D03*
X110390000Y-111930000D03*
X110390000Y-109390000D03*
X110390000Y-106850000D03*
X189620000Y-106970000D03*
X189620000Y-109510000D03*
X189620000Y-112050000D03*
X189620000Y-114590000D03*
D18*
X104902000Y-87884000D03*
D19*
X107442000Y-87884000D03*
D20*
X104304440Y-77750000D03*
X106902860Y-77750000D03*
X109402220Y-72751280D03*
X114500000Y-77750000D03*
X111901580Y-77750000D03*
X185615720Y-77695220D03*
X188214140Y-77695220D03*
X190713500Y-72696500D03*
X195811280Y-77695220D03*
X193212860Y-77695220D03*
D21*
X189484000Y-85852000D03*
X189484000Y-82296000D03*
D22*
X190754000Y-117856000D03*
X187198000Y-117856000D03*
D23*
X145920000Y-99650000D03*
X153940000Y-107270000D03*
X145920000Y-102190000D03*
X153940000Y-104730000D03*
X145920000Y-104730000D03*
X153940000Y-102190000D03*
X145920000Y-107270000D03*
X153940000Y-99650000D03*
D24*
X124340000Y-115696000D03*
X129260000Y-115696000D03*
X134340000Y-115696000D03*
D25*
X124332400Y-115899200D03*
X129260000Y-115950000D03*
X134340000Y-115950000D03*
D24*
X165660000Y-115696000D03*
X170580000Y-115696000D03*
X175660000Y-115696000D03*
D25*
X165652400Y-115899200D03*
X170580000Y-115950000D03*
X175660000Y-115950000D03*
D26*
X193040000Y-118364000D03*
X196088000Y-118364000D03*
D27*
X103886000Y-94488000D03*
X119126000Y-94488000D03*
D28*
X111506000Y-94488000D03*
D29*
X185564000Y-124841000D03*
X185564000Y-123571000D03*
X185564000Y-122301000D03*
X185564000Y-121031000D03*
X192168000Y-121031000D03*
X192168000Y-122301000D03*
X192168000Y-123571000D03*
X192168000Y-124841000D03*
D30*
X149860000Y-119126000D03*
X138990000Y-77990000D03*
X188722000Y-120142000D03*
X132588000Y-77978000D03*
X145288000Y-77978000D03*
X151638000Y-77978000D03*
X157988000Y-77978000D03*
X164342852Y-77982852D03*
X170688000Y-77978000D03*
X126200000Y-77724000D03*
X142240000Y-75946000D03*
X148336000Y-75946000D03*
X154686000Y-75946000D03*
X161036000Y-75946000D03*
X167386000Y-75946000D03*
X173736000Y-76200000D03*
X135890000Y-75946000D03*
X129540000Y-75946000D03*
X116840000Y-121666000D03*
X108712000Y-83820000D03*
X137160000Y-116078000D03*
X117348000Y-107696000D03*
X141986000Y-118872000D03*
X152400000Y-96266000D03*
X132588000Y-76200000D03*
X129540000Y-77978000D03*
X127508000Y-79248000D03*
X152400000Y-92710000D03*
X138938000Y-75946000D03*
X135907142Y-77995142D03*
X145288000Y-75946000D03*
X142240000Y-77978000D03*
X151688568Y-75895432D03*
X148590000Y-77978000D03*
X157988000Y-76200000D03*
X154940000Y-77978000D03*
X164338000Y-76200000D03*
X161290000Y-77978000D03*
X170688000Y-76200000D03*
X167640000Y-77978000D03*
X190754000Y-96520000D03*
X190754000Y-90170000D03*
X156718000Y-114300000D03*
X157734000Y-118872000D03*
X143002000Y-114554000D03*
X112268000Y-83820000D03*
D31*
X149860000Y-119126000D02*
X149860000Y-104394000D01*
X149860000Y-104394000D02*
X147656000Y-102190000D01*
X147656000Y-102190000D02*
X146120000Y-102190000D01*
X132588000Y-79756000D02*
X138870000Y-79756000D01*
X138870000Y-79756000D02*
X145288000Y-79756000D01*
X138990000Y-77990000D02*
X138990000Y-79636000D01*
X138990000Y-79636000D02*
X138870000Y-79756000D01*
X189132000Y-120142000D02*
X188722000Y-120142000D01*
X191291000Y-122301000D02*
X189132000Y-120142000D01*
X192532000Y-127508000D02*
X192532000Y-127900000D01*
X192532000Y-127900000D02*
X192902000Y-128270000D01*
X192902000Y-128270000D02*
X193802000Y-128270000D01*
X190500000Y-125476000D02*
X192532000Y-127508000D01*
X190500000Y-123092000D02*
X190500000Y-125476000D01*
X192566000Y-122301000D02*
X191291000Y-122301000D01*
X191291000Y-122301000D02*
X190500000Y-123092000D01*
X128524000Y-79756000D02*
X132588000Y-79756000D01*
X128524000Y-78232000D02*
X128524000Y-79756000D01*
X127508000Y-78232000D02*
X128524000Y-78232000D01*
X132588000Y-77978000D02*
X132588000Y-79756000D01*
X145288000Y-79756000D02*
X151638000Y-79756000D01*
X145288000Y-77978000D02*
X145288000Y-79756000D01*
X151638000Y-79756000D02*
X157988000Y-79756000D01*
X151638000Y-77978000D02*
X151638000Y-79756000D01*
X157988000Y-79756000D02*
X164338000Y-79756000D01*
X164338000Y-79756000D02*
X170688000Y-79756000D01*
X164342852Y-77982852D02*
X164342852Y-79751148D01*
X164342852Y-79751148D02*
X164338000Y-79756000D01*
X157988000Y-77978000D02*
X157988000Y-78402264D01*
X157988000Y-78402264D02*
X157988000Y-79756000D01*
X170688000Y-79756000D02*
X170688000Y-77978000D01*
X127000000Y-77724000D02*
X127508000Y-78232000D01*
X126200000Y-77724000D02*
X127000000Y-77724000D01*
X125984000Y-77724000D02*
X126200000Y-77724000D01*
X125476000Y-78232000D02*
X125984000Y-77724000D01*
X125476000Y-84582000D02*
X125476000Y-78232000D01*
X125476000Y-88646000D02*
X125476000Y-84582000D01*
X125476000Y-92964000D02*
X125476000Y-88646000D01*
X123952000Y-94488000D02*
X125476000Y-92964000D01*
X120226000Y-94488000D02*
X123952000Y-94488000D01*
X119126000Y-94488000D02*
X120226000Y-94488000D01*
X117094000Y-121663998D02*
X123533999Y-115223999D01*
X117094000Y-121920000D02*
X117094000Y-121663998D01*
X124460000Y-76708000D02*
X124460000Y-82296000D01*
X125768001Y-75399999D02*
X124460000Y-76708000D01*
X129540000Y-75946000D02*
X128993999Y-75399999D01*
X128993999Y-75399999D02*
X125768001Y-75399999D01*
X141986000Y-74676000D02*
X148336000Y-74676000D01*
X148336000Y-74676000D02*
X154686000Y-74676000D01*
X148336000Y-75946000D02*
X148336000Y-74676000D01*
X154686000Y-75946000D02*
X154686000Y-74676000D01*
X154686000Y-74676000D02*
X160782000Y-74676000D01*
X160782000Y-74676000D02*
X167386000Y-74676000D01*
X161036000Y-75946000D02*
X161036000Y-75521736D01*
X161036000Y-75521736D02*
X160782000Y-75267736D01*
X160782000Y-75267736D02*
X160782000Y-74676000D01*
X167386000Y-74676000D02*
X173736000Y-74676000D01*
X167386000Y-75946000D02*
X167386000Y-74676000D01*
X173736000Y-74676000D02*
X173736000Y-76200000D01*
X142240000Y-74930000D02*
X141986000Y-74676000D01*
X142240000Y-74930000D02*
X142240000Y-75946000D01*
X135890000Y-74676000D02*
X141986000Y-74676000D01*
X135890000Y-74676000D02*
X135890000Y-75946000D01*
X130810000Y-74676000D02*
X135890000Y-74676000D01*
X129540000Y-75946000D02*
X130810000Y-74676000D01*
X159727999Y-118071999D02*
X162795999Y-115003999D01*
X162795999Y-115003999D02*
X164853999Y-115003999D01*
X164853999Y-115003999D02*
X165660000Y-115003999D01*
X155702000Y-121666000D02*
X155702000Y-119719998D01*
X155702000Y-119719998D02*
X157349999Y-118071999D01*
X157349999Y-118071999D02*
X159727999Y-118071999D01*
X152400000Y-124968000D02*
X155702000Y-121666000D01*
X123638000Y-124968000D02*
X152400000Y-124968000D01*
X120360000Y-125846000D02*
X122760000Y-125846000D01*
X122760000Y-125846000D02*
X123638000Y-124968000D01*
X117094000Y-121920000D02*
X116840000Y-121666000D01*
X117348000Y-122174000D02*
X117094000Y-121920000D01*
X123533999Y-115223999D02*
X124340000Y-115223999D01*
X117348000Y-125234000D02*
X117348000Y-122174000D01*
X120360000Y-125846000D02*
X117960000Y-125846000D01*
X117960000Y-125846000D02*
X117348000Y-125234000D01*
X116586000Y-107950000D02*
X116586000Y-93218000D01*
X116586000Y-93218000D02*
X117602000Y-92202000D01*
X117602000Y-92202000D02*
X123190000Y-92202000D01*
X117500000Y-79820000D02*
X116840000Y-80480000D01*
X123190000Y-92202000D02*
X123444000Y-91948000D01*
X123444000Y-91948000D02*
X123444000Y-80254000D01*
X123444000Y-80254000D02*
X123010000Y-79820000D01*
X123010000Y-79820000D02*
X117500000Y-79820000D01*
X116840000Y-80480000D02*
X116840000Y-82804000D01*
X116840000Y-82804000D02*
X113792000Y-85852000D01*
X113792000Y-85852000D02*
X110744000Y-85852000D01*
X110744000Y-85852000D02*
X108712000Y-83820000D01*
X138591999Y-115477999D02*
X136652000Y-115477999D01*
X136652000Y-115477999D02*
X135240001Y-115477999D01*
X137160000Y-116078000D02*
X136860001Y-115778001D01*
X136860001Y-115778001D02*
X136860001Y-115686000D01*
X136860001Y-115686000D02*
X136652000Y-115477999D01*
X117094000Y-107950000D02*
X117348000Y-107696000D01*
X116586000Y-107950000D02*
X117094000Y-107950000D01*
X116586000Y-107950000D02*
X115146000Y-109390000D01*
X115146000Y-109390000D02*
X110390000Y-109390000D01*
X141986000Y-118872000D02*
X138591999Y-115477999D01*
X135240001Y-115477999D02*
X134340000Y-115477999D01*
X141694000Y-99568000D02*
X141694000Y-96866000D01*
X161280000Y-95390000D02*
X162520000Y-94150000D01*
X175768000Y-90678000D02*
X175768000Y-81282000D01*
X141694000Y-96866000D02*
X143170000Y-95390000D01*
X143170000Y-95390000D02*
X161280000Y-95390000D01*
X162520000Y-94150000D02*
X172128000Y-94150000D01*
X172128000Y-94150000D02*
X172212000Y-94234000D01*
X181942000Y-79580000D02*
X182626000Y-80264000D01*
X172212000Y-94234000D02*
X175768000Y-90678000D01*
X175768000Y-81282000D02*
X177470000Y-79580000D01*
X177470000Y-79580000D02*
X181942000Y-79580000D01*
X189620000Y-106970000D02*
X188770001Y-106120001D01*
X185194780Y-77695220D02*
X185615720Y-77695220D01*
X188770001Y-106120001D02*
X188162001Y-106120001D01*
X188162001Y-106120001D02*
X184150000Y-102108000D01*
X184150000Y-102108000D02*
X184150000Y-84328000D01*
X184150000Y-84328000D02*
X182626000Y-82804000D01*
X182626000Y-82804000D02*
X182626000Y-80264000D01*
X182626000Y-80264000D02*
X185194780Y-77695220D01*
X187452000Y-80010000D02*
X186690000Y-80772000D01*
X186690000Y-80772000D02*
X186690000Y-82296000D01*
X192440888Y-80010000D02*
X187452000Y-80010000D01*
X193212860Y-77695220D02*
X193212860Y-79238028D01*
X193212860Y-79238028D02*
X192440888Y-80010000D01*
X120552000Y-87170000D02*
X108156000Y-87170000D01*
X108156000Y-87170000D02*
X107442000Y-87884000D01*
X107442000Y-87884000D02*
X107442000Y-92032000D01*
X104986000Y-94488000D02*
X103886000Y-94488000D01*
X107442000Y-92032000D02*
X104986000Y-94488000D01*
X151100000Y-96270000D02*
X151100000Y-97506000D01*
X151100000Y-97506000D02*
X151130000Y-97536000D01*
X151971736Y-96270000D02*
X151100000Y-96270000D01*
X152400000Y-96266000D02*
X151975736Y-96266000D01*
X151975736Y-96266000D02*
X151971736Y-96270000D01*
X151130000Y-105918000D02*
X151130000Y-97536000D01*
X152482000Y-107270000D02*
X151130000Y-105918000D01*
X153740000Y-107270000D02*
X152482000Y-107270000D01*
X129540000Y-77978000D02*
X130810000Y-77978000D01*
X130810000Y-77978000D02*
X132588000Y-76200000D01*
X187706000Y-122936000D02*
X186436000Y-122936000D01*
X186436000Y-122936000D02*
X185801000Y-122936000D01*
X185801000Y-122936000D02*
X185166000Y-123571000D01*
X184404000Y-128270000D02*
X185304000Y-128270000D01*
X185304000Y-128270000D02*
X185420000Y-128154000D01*
X185801000Y-122936000D02*
X185166000Y-122301000D01*
X185420000Y-128154000D02*
X185420000Y-127762000D01*
X185420000Y-127762000D02*
X187706000Y-125476000D01*
X187706000Y-125476000D02*
X187706000Y-122936000D01*
X142664264Y-82550000D02*
X127508000Y-82550000D01*
X127508000Y-79248000D02*
X127508000Y-82550000D01*
X152400000Y-92710000D02*
X152400000Y-92285736D01*
X152400000Y-92285736D02*
X142664264Y-82550000D01*
X195834000Y-123190000D02*
X194183000Y-124841000D01*
X194183000Y-124841000D02*
X192566000Y-124841000D01*
X195834000Y-118364000D02*
X195834000Y-123190000D01*
X138938000Y-75946000D02*
X136888858Y-77995142D01*
X136888858Y-77995142D02*
X135907142Y-77995142D01*
X143256000Y-77978000D02*
X145288000Y-75946000D01*
X142240000Y-77978000D02*
X143256000Y-77978000D01*
X149860000Y-77724000D02*
X151688568Y-75895432D01*
X149860000Y-77978000D02*
X149860000Y-77724000D01*
X148590000Y-77978000D02*
X149860000Y-77978000D01*
X156210000Y-77978000D02*
X157988000Y-76200000D01*
X154940000Y-77978000D02*
X156210000Y-77978000D01*
X162560000Y-77978000D02*
X164338000Y-76200000D01*
X161290000Y-77978000D02*
X162560000Y-77978000D01*
X168910000Y-77978000D02*
X170688000Y-76200000D01*
X167640000Y-77978000D02*
X168910000Y-77978000D01*
X186690000Y-85852000D02*
X186690000Y-84836000D01*
X186690000Y-84836000D02*
X187452000Y-84074000D01*
X187452000Y-84074000D02*
X188722000Y-84074000D01*
X189484000Y-83312000D02*
X189484000Y-82296000D01*
X188722000Y-84074000D02*
X189484000Y-83312000D01*
X190754000Y-96520000D02*
X191053999Y-96819999D01*
X187472000Y-116332000D02*
X187198000Y-116606000D01*
X191053999Y-96819999D02*
X191053999Y-115228003D01*
X191053999Y-115228003D02*
X189950002Y-116332000D01*
X189950002Y-116332000D02*
X187472000Y-116332000D01*
X187198000Y-116606000D02*
X187198000Y-117856000D01*
X189484000Y-85852000D02*
X189484000Y-88900000D01*
X189484000Y-88900000D02*
X190754000Y-90170000D01*
X187198000Y-117856000D02*
X186248000Y-117856000D01*
X186248000Y-117856000D02*
X185166000Y-118938000D01*
X185166000Y-118938000D02*
X185166000Y-120356000D01*
X185166000Y-120356000D02*
X185166000Y-121031000D01*
X193294000Y-118364000D02*
X193294000Y-120303000D01*
X193294000Y-120303000D02*
X192566000Y-121031000D01*
X190754000Y-117856000D02*
X192786000Y-117856000D01*
X192786000Y-117856000D02*
X193294000Y-118364000D01*
X157734000Y-113284000D02*
X168134000Y-113284000D01*
X168134000Y-113284000D02*
X169853999Y-115003999D01*
X169853999Y-115003999D02*
X170580000Y-115003999D01*
X156718000Y-114300000D02*
X157734000Y-113284000D01*
X173228000Y-121158000D02*
X173228000Y-116789998D01*
X173228000Y-116789998D02*
X174759999Y-115257999D01*
X174759999Y-115257999D02*
X175660000Y-115257999D01*
X172720000Y-121666000D02*
X173228000Y-121158000D01*
X162052000Y-121666000D02*
X172720000Y-121666000D01*
X159258000Y-118872000D02*
X162052000Y-121666000D01*
X157734000Y-118872000D02*
X159258000Y-118872000D01*
X143002000Y-114554000D02*
X141986000Y-113538000D01*
X141986000Y-113538000D02*
X130302000Y-113538000D01*
X130302000Y-113538000D02*
X129260000Y-114580000D01*
X129260000Y-114580000D02*
X129260000Y-115223999D01*
X179552000Y-87884000D02*
X179552000Y-124304000D01*
X179552000Y-124304000D02*
X179396000Y-124460000D01*
X146120000Y-99650000D02*
X143376000Y-99650000D01*
X143376000Y-99650000D02*
X143294000Y-99568000D01*
X186340000Y-93250000D02*
X187754213Y-93250000D01*
X187754213Y-93250000D02*
X187786213Y-93218000D01*
X187786213Y-93218000D02*
X189738000Y-93218000D01*
X195834000Y-80010000D02*
X195811280Y-79987280D01*
X195811280Y-79987280D02*
X195811280Y-77695220D01*
X194310000Y-81534000D02*
X195834000Y-80010000D01*
X194310000Y-88646000D02*
X194310000Y-81534000D01*
X189738000Y-93218000D02*
X194310000Y-88646000D01*
X113284000Y-83820000D02*
X112268000Y-83820000D01*
X114500000Y-82604000D02*
X113284000Y-83820000D01*
X114500000Y-77750000D02*
X114500000Y-82604000D01*
D32*
G36*
X183461877Y-68603443D02*
X183514020Y-68865581D01*
X183662509Y-69087811D01*
X183884739Y-69236300D01*
X184146877Y-69288443D01*
X195076206Y-69288443D01*
X195729985Y-69357339D01*
X196301604Y-69542835D01*
X196819378Y-69836322D01*
X197271455Y-70225186D01*
X197644274Y-70695327D01*
X197924375Y-71231426D01*
X198099351Y-71818175D01*
X198161129Y-72479012D01*
X198161129Y-73943620D01*
X198177839Y-74027627D01*
X198182440Y-74113153D01*
X198203676Y-74157518D01*
X198213272Y-74205758D01*
X198260857Y-74276975D01*
X198297838Y-74354231D01*
X198380038Y-74463994D01*
X198380041Y-74463997D01*
X198380043Y-74464001D01*
X198462238Y-74573752D01*
X198544438Y-74683515D01*
X198544440Y-74683517D01*
X198626638Y-74793277D01*
X198626641Y-74793280D01*
X198626643Y-74793284D01*
X198708836Y-74903032D01*
X198708836Y-74903033D01*
X198791036Y-75012796D01*
X198791042Y-75012801D01*
X198791045Y-75012808D01*
X198818057Y-75048875D01*
X198815430Y-76654556D01*
X198815430Y-76654557D01*
X198812430Y-78488519D01*
X198812430Y-78488520D01*
X198809430Y-80322481D01*
X198809430Y-80322482D01*
X198806430Y-82156443D01*
X198806430Y-82156444D01*
X198803430Y-83990404D01*
X198803430Y-83990405D01*
X198800430Y-85824366D01*
X198800430Y-85824367D01*
X198797430Y-87658328D01*
X198797430Y-87658329D01*
X198794758Y-89292068D01*
X198739658Y-89377976D01*
X198576498Y-89632360D01*
X198576497Y-89632363D01*
X198576494Y-89632366D01*
X198494918Y-89759555D01*
X198413338Y-89886747D01*
X198413337Y-89886748D01*
X198413335Y-89886751D01*
X198331758Y-90013941D01*
X198250178Y-90141133D01*
X198227857Y-90198013D01*
X198193912Y-90248816D01*
X198179510Y-90321217D01*
X198152544Y-90389936D01*
X198153690Y-90451026D01*
X198141769Y-90510954D01*
X198141769Y-97547582D01*
X197892070Y-97173880D01*
X197361637Y-96819457D01*
X196735950Y-96695000D01*
X196264050Y-96695000D01*
X195638363Y-96819457D01*
X195107930Y-97173880D01*
X194753507Y-97704313D01*
X194629050Y-98330000D01*
X194753507Y-98955687D01*
X195107930Y-99486120D01*
X195638363Y-99840543D01*
X196264050Y-99965000D01*
X196735950Y-99965000D01*
X197361637Y-99840543D01*
X197892070Y-99486120D01*
X198141769Y-99112418D01*
X198141769Y-128626534D01*
X198076960Y-129277292D01*
X197901011Y-129853689D01*
X197621999Y-130378337D01*
X197252036Y-130837308D01*
X196804182Y-131216362D01*
X196291596Y-131502207D01*
X195726000Y-131682757D01*
X195080035Y-131749716D01*
X104938503Y-131749716D01*
X104302034Y-131681484D01*
X103755451Y-131499505D01*
X103264949Y-131212401D01*
X102838277Y-130831824D01*
X102486361Y-130370970D01*
X102221024Y-129844987D01*
X102053488Y-129270187D01*
X101990764Y-128630864D01*
X101990764Y-124011750D01*
X117735000Y-124011750D01*
X117735000Y-127352310D01*
X117831673Y-127585699D01*
X118010302Y-127764327D01*
X118243691Y-127861000D01*
X120084250Y-127861000D01*
X120243000Y-127702250D01*
X120243000Y-123853000D01*
X120497000Y-123853000D01*
X120497000Y-127702250D01*
X120655750Y-127861000D01*
X122496309Y-127861000D01*
X122729698Y-127764327D01*
X122908327Y-127585699D01*
X123005000Y-127352310D01*
X123005000Y-124011750D01*
X122846250Y-123853000D01*
X120497000Y-123853000D01*
X120243000Y-123853000D01*
X117893750Y-123853000D01*
X117735000Y-124011750D01*
X101990764Y-124011750D01*
X101990764Y-120099690D01*
X117735000Y-120099690D01*
X117735000Y-123440250D01*
X117893750Y-123599000D01*
X120243000Y-123599000D01*
X120243000Y-119749750D01*
X120497000Y-119749750D01*
X120497000Y-123599000D01*
X122846250Y-123599000D01*
X123005000Y-123440250D01*
X123005000Y-120099690D01*
X122908327Y-119866301D01*
X122729698Y-119687673D01*
X122496309Y-119591000D01*
X120655750Y-119591000D01*
X120497000Y-119749750D01*
X120243000Y-119749750D01*
X120084250Y-119591000D01*
X118243691Y-119591000D01*
X118010302Y-119687673D01*
X117831673Y-119866301D01*
X117735000Y-120099690D01*
X101990764Y-120099690D01*
X101990764Y-115550159D01*
X109489446Y-115550159D01*
X109575852Y-115806643D01*
X110149336Y-116016458D01*
X110759460Y-115990839D01*
X111204148Y-115806643D01*
X111290554Y-115550159D01*
X110390000Y-114649605D01*
X109489446Y-115550159D01*
X101990764Y-115550159D01*
X101990764Y-114229336D01*
X108843542Y-114229336D01*
X108869161Y-114839460D01*
X109053357Y-115284148D01*
X109309841Y-115370554D01*
X110210395Y-114470000D01*
X110569605Y-114470000D01*
X111470159Y-115370554D01*
X111523823Y-115352475D01*
X122447400Y-115352475D01*
X122447400Y-116445925D01*
X122590887Y-117167283D01*
X122999504Y-117778821D01*
X123611042Y-118187438D01*
X124332400Y-118330925D01*
X125053758Y-118187438D01*
X125665296Y-117778821D01*
X126073913Y-117167283D01*
X126217400Y-116445925D01*
X126217400Y-115403275D01*
X127375000Y-115403275D01*
X127375000Y-116496725D01*
X127518487Y-117218083D01*
X127927104Y-117829621D01*
X128538642Y-118238238D01*
X129260000Y-118381725D01*
X129981358Y-118238238D01*
X130592896Y-117829621D01*
X131001513Y-117218083D01*
X131145000Y-116496725D01*
X131145000Y-115403275D01*
X131001513Y-114681917D01*
X130795101Y-114373000D01*
X132804899Y-114373000D01*
X132598487Y-114681917D01*
X132455000Y-115403275D01*
X132455000Y-116496725D01*
X132598487Y-117218083D01*
X133007104Y-117829621D01*
X133618642Y-118238238D01*
X134340000Y-118381725D01*
X135061358Y-118238238D01*
X135672896Y-117829621D01*
X136081513Y-117218083D01*
X136225000Y-116496725D01*
X136225000Y-116312999D01*
X136232526Y-116312999D01*
X136266335Y-116363598D01*
X136366883Y-116606943D01*
X136629673Y-116870192D01*
X136973201Y-117012838D01*
X137345167Y-117013162D01*
X137688943Y-116871117D01*
X137952192Y-116608327D01*
X138074824Y-116312999D01*
X138246131Y-116312999D01*
X141093465Y-119160333D01*
X141192883Y-119400943D01*
X141455673Y-119664192D01*
X141799201Y-119806838D01*
X142171167Y-119807162D01*
X142514943Y-119665117D01*
X142778192Y-119402327D01*
X142920838Y-119058799D01*
X142921162Y-118686833D01*
X142779117Y-118343057D01*
X142516327Y-118079808D01*
X142274090Y-117979222D01*
X139182433Y-114887565D01*
X139161443Y-114873540D01*
X138911540Y-114706560D01*
X138591999Y-114642999D01*
X136055509Y-114642999D01*
X135875101Y-114373000D01*
X141640132Y-114373000D01*
X142109465Y-114842333D01*
X142208883Y-115082943D01*
X142471673Y-115346192D01*
X142815201Y-115488838D01*
X143187167Y-115489162D01*
X143530943Y-115347117D01*
X143794192Y-115084327D01*
X143936838Y-114740799D01*
X143937162Y-114368833D01*
X143795117Y-114025057D01*
X143532327Y-113761808D01*
X143290090Y-113661222D01*
X142576434Y-112947566D01*
X142305541Y-112766561D01*
X141986000Y-112703000D01*
X130302000Y-112703000D01*
X129982460Y-112766560D01*
X129711566Y-112947566D01*
X129111273Y-113547859D01*
X128538642Y-113661762D01*
X127927104Y-114070379D01*
X127518487Y-114681917D01*
X127375000Y-115403275D01*
X126217400Y-115403275D01*
X126217400Y-115352475D01*
X126073913Y-114631117D01*
X125665296Y-114019579D01*
X125053758Y-113610962D01*
X124332400Y-113467475D01*
X123611042Y-113610962D01*
X122999504Y-114019579D01*
X122590887Y-114631117D01*
X122447400Y-115352475D01*
X111523823Y-115352475D01*
X111726643Y-115284148D01*
X111936458Y-114710664D01*
X111910839Y-114100540D01*
X111726643Y-113655852D01*
X111470159Y-113569446D01*
X110569605Y-114470000D01*
X110210395Y-114470000D01*
X109309841Y-113569446D01*
X109053357Y-113655852D01*
X108843542Y-114229336D01*
X101990764Y-114229336D01*
X101990764Y-93491275D01*
X102451000Y-93491275D01*
X102451000Y-95484725D01*
X102560233Y-96033876D01*
X102871302Y-96499423D01*
X103336849Y-96810492D01*
X103886000Y-96919725D01*
X104435151Y-96810492D01*
X104900698Y-96499423D01*
X105211767Y-96033876D01*
X105321000Y-95484725D01*
X105321000Y-95249110D01*
X105576434Y-95078434D01*
X106871613Y-93783256D01*
X106870197Y-95405914D01*
X107574347Y-97110087D01*
X108877055Y-98415071D01*
X110579997Y-99122194D01*
X112423914Y-99123803D01*
X114128087Y-98419653D01*
X115433071Y-97116945D01*
X115751000Y-96351287D01*
X115751000Y-107604132D01*
X114800132Y-108555000D01*
X111705857Y-108555000D01*
X111692068Y-108521629D01*
X111290818Y-108119677D01*
X111690551Y-107720643D01*
X111924733Y-107156670D01*
X111925265Y-106546009D01*
X111692068Y-105981629D01*
X111260643Y-105549449D01*
X110696670Y-105315267D01*
X110086009Y-105314735D01*
X109521629Y-105547932D01*
X109089449Y-105979357D01*
X108855267Y-106543330D01*
X108854735Y-107153991D01*
X109087932Y-107718371D01*
X109489182Y-108120323D01*
X109089449Y-108519357D01*
X108855267Y-109083330D01*
X108854735Y-109693991D01*
X109087932Y-110258371D01*
X109489182Y-110660323D01*
X109089449Y-111059357D01*
X108855267Y-111623330D01*
X108854735Y-112233991D01*
X109087932Y-112798371D01*
X109519357Y-113230551D01*
X109540194Y-113239203D01*
X109489446Y-113389841D01*
X110390000Y-114290395D01*
X111290554Y-113389841D01*
X111239965Y-113239673D01*
X111258371Y-113232068D01*
X111690551Y-112800643D01*
X111924733Y-112236670D01*
X111925265Y-111626009D01*
X111692068Y-111061629D01*
X111290818Y-110659677D01*
X111690551Y-110260643D01*
X111705351Y-110225000D01*
X115146000Y-110225000D01*
X115465541Y-110161439D01*
X115736434Y-109980434D01*
X116931868Y-108785000D01*
X117094000Y-108785000D01*
X117413541Y-108721439D01*
X117573739Y-108614398D01*
X117876943Y-108489117D01*
X118140192Y-108226327D01*
X118282838Y-107882799D01*
X118283162Y-107510833D01*
X118141117Y-107167057D01*
X117878327Y-106903808D01*
X117534799Y-106761162D01*
X117421000Y-106761063D01*
X117421000Y-103204041D01*
X124080581Y-103204041D01*
X124082313Y-103213329D01*
X124080610Y-103222622D01*
X124082010Y-103315203D01*
X124083435Y-103321840D01*
X124082342Y-103328536D01*
X124085542Y-103421005D01*
X124087098Y-103427623D01*
X124086134Y-103434356D01*
X124091134Y-103526686D01*
X124092915Y-103533648D01*
X124092043Y-103540782D01*
X124098943Y-103632952D01*
X124100771Y-103639530D01*
X124100076Y-103646318D01*
X124108776Y-103738299D01*
X124110801Y-103745069D01*
X124110224Y-103752110D01*
X124120784Y-103843870D01*
X124122916Y-103850505D01*
X124122486Y-103857462D01*
X124134876Y-103948972D01*
X124137122Y-103955509D01*
X124136832Y-103962417D01*
X124151032Y-104053648D01*
X124153475Y-104060325D01*
X124153322Y-104067435D01*
X124169382Y-104158365D01*
X124171901Y-104164838D01*
X124171890Y-104171781D01*
X124189760Y-104262381D01*
X124192404Y-104268794D01*
X124192531Y-104275727D01*
X124212201Y-104365957D01*
X124215032Y-104372454D01*
X124215306Y-104379537D01*
X124236816Y-104469387D01*
X124239726Y-104475711D01*
X124240134Y-104482660D01*
X124263444Y-104572100D01*
X124266510Y-104578426D01*
X124267063Y-104585434D01*
X124292183Y-104674424D01*
X124295361Y-104680657D01*
X124296051Y-104687619D01*
X124322971Y-104776148D01*
X124326272Y-104782314D01*
X124327102Y-104789260D01*
X124355812Y-104877289D01*
X124391596Y-104941021D01*
X124415409Y-105010124D01*
X124456393Y-105056425D01*
X124486665Y-105110340D01*
X124544114Y-105155526D01*
X124592559Y-105210257D01*
X124648141Y-105237350D01*
X124696741Y-105275576D01*
X124767106Y-105295337D01*
X124832811Y-105327364D01*
X124911362Y-105348024D01*
X124977637Y-105352061D01*
X125041800Y-105369153D01*
X125109736Y-105360108D01*
X125178141Y-105364275D01*
X125240915Y-105342643D01*
X125306736Y-105333880D01*
X125461572Y-105281068D01*
X125616785Y-105228818D01*
X125616788Y-105228818D01*
X125716500Y-105195252D01*
X125749426Y-105259701D01*
X125768003Y-105283214D01*
X125778629Y-105311234D01*
X125828330Y-105390717D01*
X125749139Y-105460302D01*
X125748705Y-105460869D01*
X125748087Y-105461228D01*
X125625635Y-105569272D01*
X125502652Y-105677332D01*
X125462955Y-105729168D01*
X125413638Y-105771943D01*
X125382494Y-105834235D01*
X125340149Y-105889529D01*
X125323312Y-105952606D01*
X125294115Y-106011003D01*
X125273455Y-106086452D01*
X125267915Y-106164442D01*
X125249662Y-106240471D01*
X125258534Y-106296488D01*
X125254516Y-106353054D01*
X125279242Y-106427226D01*
X125291474Y-106504454D01*
X125321106Y-106552808D01*
X125339041Y-106606610D01*
X125390272Y-106665676D01*
X125431125Y-106732342D01*
X125556903Y-106868407D01*
X125568223Y-106876631D01*
X125576009Y-106888260D01*
X125706783Y-107018783D01*
X125718397Y-107026527D01*
X125726622Y-107037805D01*
X125862195Y-107162671D01*
X125874082Y-107169925D01*
X125882730Y-107180838D01*
X126022920Y-107299948D01*
X126035069Y-107306711D01*
X126044133Y-107317253D01*
X126188740Y-107430486D01*
X126201138Y-107436752D01*
X126210608Y-107446916D01*
X126359449Y-107554163D01*
X126372060Y-107559917D01*
X126381906Y-107569674D01*
X126534783Y-107670828D01*
X126547611Y-107676074D01*
X126557834Y-107685428D01*
X126714560Y-107780378D01*
X126727590Y-107785110D01*
X126738183Y-107794054D01*
X126898566Y-107882684D01*
X126911775Y-107886893D01*
X126922717Y-107895409D01*
X127086565Y-107977608D01*
X127099921Y-107981285D01*
X127111186Y-107989353D01*
X127278307Y-108065023D01*
X127291833Y-108068173D01*
X127303440Y-108075804D01*
X127473649Y-108144824D01*
X127487305Y-108147435D01*
X127499218Y-108154602D01*
X127672315Y-108216862D01*
X127686091Y-108218929D01*
X127698304Y-108225626D01*
X127874101Y-108281016D01*
X127887977Y-108282533D01*
X127900478Y-108288749D01*
X128078788Y-108337159D01*
X128092743Y-108338120D01*
X128105509Y-108343840D01*
X128286135Y-108385160D01*
X128366303Y-108387448D01*
X128445100Y-108402381D01*
X128498639Y-108391226D01*
X128553300Y-108392786D01*
X128628237Y-108364223D01*
X128706754Y-108347864D01*
X128751946Y-108317071D01*
X128803047Y-108297594D01*
X128861353Y-108242525D01*
X128927629Y-108197366D01*
X128984469Y-108139486D01*
X129019213Y-108086454D01*
X129064173Y-108041755D01*
X129091738Y-107975753D01*
X129130938Y-107915919D01*
X129142743Y-107853627D01*
X129167175Y-107795126D01*
X129199735Y-107633896D01*
X129199739Y-107632600D01*
X129200234Y-107631402D01*
X129232025Y-107470915D01*
X129253894Y-107362622D01*
X129430221Y-107367104D01*
X129463225Y-107361407D01*
X129478130Y-107363279D01*
X129499550Y-107469688D01*
X129531811Y-107630460D01*
X129563735Y-107791622D01*
X129588389Y-107851274D01*
X129600385Y-107914694D01*
X129638938Y-107973584D01*
X129665821Y-108038631D01*
X129711423Y-108084305D01*
X129746778Y-108138311D01*
X129801038Y-108193601D01*
X129866888Y-108238501D01*
X129924725Y-108293328D01*
X129976262Y-108313079D01*
X130021863Y-108344173D01*
X130099880Y-108360456D01*
X130174298Y-108388976D01*
X130229469Y-108387502D01*
X130283499Y-108398778D01*
X130361809Y-108383965D01*
X130441476Y-108381836D01*
X130622174Y-108340846D01*
X130634947Y-108335151D01*
X130648898Y-108334216D01*
X130827289Y-108286136D01*
X130839790Y-108279948D01*
X130853663Y-108278458D01*
X131029554Y-108223398D01*
X131041787Y-108216720D01*
X131055574Y-108214677D01*
X131228782Y-108152737D01*
X131240707Y-108145593D01*
X131254363Y-108143008D01*
X131424686Y-108074308D01*
X131436307Y-108066699D01*
X131449845Y-108063572D01*
X131617101Y-107988212D01*
X131628386Y-107980161D01*
X131641758Y-107976506D01*
X131805753Y-107894605D01*
X131816716Y-107886105D01*
X131829940Y-107881917D01*
X131990480Y-107793577D01*
X132001066Y-107784671D01*
X132014077Y-107779974D01*
X132170973Y-107685324D01*
X132181225Y-107675979D01*
X132194074Y-107670752D01*
X132248718Y-107634740D01*
X144228964Y-107634740D01*
X144241525Y-107700025D01*
X144518631Y-108233079D01*
X144978634Y-108619513D01*
X145551503Y-108800496D01*
X145793000Y-108649262D01*
X145793000Y-107397000D01*
X146047000Y-107397000D01*
X146047000Y-108649262D01*
X146288497Y-108800496D01*
X146861366Y-108619513D01*
X147321369Y-108233079D01*
X147598475Y-107700025D01*
X147611036Y-107634740D01*
X147490378Y-107397000D01*
X146047000Y-107397000D01*
X145793000Y-107397000D01*
X144349622Y-107397000D01*
X144228964Y-107634740D01*
X132248718Y-107634740D01*
X132347133Y-107569883D01*
X132357003Y-107560138D01*
X132369629Y-107554405D01*
X132518662Y-107447432D01*
X132528139Y-107437297D01*
X132540536Y-107431061D01*
X132685349Y-107318101D01*
X132694430Y-107307578D01*
X132706589Y-107300840D01*
X132846994Y-107182000D01*
X132855676Y-107171087D01*
X132867591Y-107163845D01*
X133003392Y-107039226D01*
X133011635Y-107027966D01*
X133023257Y-107020248D01*
X133154264Y-106889972D01*
X133162067Y-106878364D01*
X133173399Y-106870163D01*
X133299426Y-106734336D01*
X133338725Y-106670472D01*
X133388493Y-106614388D01*
X133408089Y-106557750D01*
X133439499Y-106506707D01*
X133451366Y-106432669D01*
X133475885Y-106361805D01*
X133472315Y-106301976D01*
X133481800Y-106242802D01*
X133464432Y-106169861D01*
X133459965Y-106095006D01*
X133439815Y-106018006D01*
X133408733Y-105954037D01*
X133389987Y-105885431D01*
X133350893Y-105835000D01*
X133323007Y-105777608D01*
X133269812Y-105730403D01*
X133226238Y-105674193D01*
X133102362Y-105566632D01*
X132979470Y-105458462D01*
X132902357Y-105390311D01*
X133015581Y-105195447D01*
X133109488Y-105227472D01*
X133110874Y-105227657D01*
X133112088Y-105228353D01*
X133269538Y-105281344D01*
X133269540Y-105281345D01*
X133427156Y-105334575D01*
X133490384Y-105342799D01*
X133550561Y-105363857D01*
X133621620Y-105359868D01*
X133692197Y-105369048D01*
X133753754Y-105352451D01*
X133817414Y-105348878D01*
X133897514Y-105328218D01*
X133965250Y-105295600D01*
X134037599Y-105275172D01*
X134084499Y-105238176D01*
X134138322Y-105212258D01*
X134188421Y-105156200D01*
X134247444Y-105109641D01*
X134276616Y-105057514D01*
X134316423Y-105012972D01*
X134341254Y-104942013D01*
X134377970Y-104876407D01*
X134406550Y-104788358D01*
X134407373Y-104781385D01*
X134410678Y-104775190D01*
X134437458Y-104686650D01*
X134438139Y-104679673D01*
X134441313Y-104673425D01*
X134466293Y-104584415D01*
X134466835Y-104577415D01*
X134469888Y-104571091D01*
X134493058Y-104481641D01*
X134493458Y-104474653D01*
X134496374Y-104468289D01*
X134517734Y-104378429D01*
X134517991Y-104371482D01*
X134520760Y-104365108D01*
X134540320Y-104274859D01*
X134540441Y-104267789D01*
X134543125Y-104261250D01*
X134560846Y-104170650D01*
X134560824Y-104163741D01*
X134563320Y-104157299D01*
X134579240Y-104066369D01*
X134579078Y-104059332D01*
X134581488Y-104052719D01*
X134595568Y-103961489D01*
X134595266Y-103954510D01*
X134597525Y-103947903D01*
X134609775Y-103856403D01*
X134609332Y-103849409D01*
X134611466Y-103842731D01*
X134621876Y-103750981D01*
X134621303Y-103744125D01*
X134623268Y-103737531D01*
X134631868Y-103645561D01*
X134631127Y-103638397D01*
X134633040Y-103631454D01*
X134639740Y-103539294D01*
X134638899Y-103532533D01*
X134640580Y-103525932D01*
X134645480Y-103433612D01*
X134644455Y-103426511D01*
X134646083Y-103419520D01*
X134649083Y-103327060D01*
X134647914Y-103319994D01*
X134649395Y-103312986D01*
X134650495Y-103220426D01*
X134648760Y-103211130D01*
X134650463Y-103201830D01*
X134649063Y-103110129D01*
X134647704Y-103103802D01*
X134648751Y-103097414D01*
X134645651Y-103005824D01*
X134644085Y-102999141D01*
X134645062Y-102992345D01*
X134640162Y-102900895D01*
X134638462Y-102894234D01*
X134639306Y-102887413D01*
X134632606Y-102796112D01*
X134630669Y-102789102D01*
X134631411Y-102781867D01*
X134622811Y-102690767D01*
X134620877Y-102684298D01*
X134621436Y-102677570D01*
X134611076Y-102586679D01*
X134608966Y-102580090D01*
X134609402Y-102573184D01*
X134597242Y-102482534D01*
X134594984Y-102475936D01*
X134595284Y-102468968D01*
X134581314Y-102378588D01*
X134578921Y-102372026D01*
X134579081Y-102365042D01*
X134563301Y-102274952D01*
X134560822Y-102268555D01*
X134560844Y-102261693D01*
X134543294Y-102171933D01*
X134540669Y-102165538D01*
X134540555Y-102158627D01*
X134521225Y-102069217D01*
X134518469Y-102062864D01*
X134518217Y-102055943D01*
X134497107Y-101966904D01*
X134494213Y-101960579D01*
X134493821Y-101953635D01*
X134470931Y-101865005D01*
X134467906Y-101858728D01*
X134467374Y-101851780D01*
X134442704Y-101763580D01*
X134439565Y-101757386D01*
X134438897Y-101750474D01*
X134412457Y-101662724D01*
X134409213Y-101656628D01*
X134408413Y-101649768D01*
X134380223Y-101562508D01*
X134345076Y-101499499D01*
X134321952Y-101431162D01*
X134280605Y-101383922D01*
X134250020Y-101329093D01*
X134193437Y-101284331D01*
X134145921Y-101230044D01*
X134089642Y-101202222D01*
X134040405Y-101163272D01*
X133971003Y-101143572D01*
X133906326Y-101111599D01*
X133823646Y-101089359D01*
X133755864Y-101084850D01*
X133690247Y-101067296D01*
X133623821Y-101076067D01*
X133556961Y-101071620D01*
X133492617Y-101093392D01*
X133425273Y-101102285D01*
X133269536Y-101155218D01*
X133114009Y-101207575D01*
X133113707Y-101207748D01*
X133113363Y-101207793D01*
X133020131Y-101239282D01*
X132981273Y-101163591D01*
X132963069Y-101140644D01*
X132952681Y-101113252D01*
X132908039Y-101041862D01*
X132981118Y-100977651D01*
X132981562Y-100977071D01*
X132982192Y-100976705D01*
X133104751Y-100868566D01*
X133227621Y-100760605D01*
X133285116Y-100685527D01*
X133350930Y-100617618D01*
X133393310Y-100551988D01*
X133410447Y-100508709D01*
X133438052Y-100471231D01*
X133459217Y-100385542D01*
X133491708Y-100303486D01*
X133490979Y-100256948D01*
X133502141Y-100211755D01*
X133488903Y-100124493D01*
X133487520Y-100036245D01*
X133469034Y-99993523D01*
X133462053Y-99947505D01*
X133416432Y-99871955D01*
X133381381Y-99790950D01*
X133347955Y-99758555D01*
X133323894Y-99718710D01*
X133196849Y-99579461D01*
X133185380Y-99571013D01*
X133177522Y-99559129D01*
X133045270Y-99425590D01*
X133033503Y-99417645D01*
X133025194Y-99406129D01*
X132887945Y-99278418D01*
X132875888Y-99270975D01*
X132867137Y-99259832D01*
X132725089Y-99138062D01*
X132712767Y-99131132D01*
X132703590Y-99120377D01*
X132556951Y-99004668D01*
X132544375Y-98998253D01*
X132534783Y-98987894D01*
X132383752Y-98878362D01*
X132370936Y-98872467D01*
X132360938Y-98862512D01*
X132205713Y-98759275D01*
X132192683Y-98753911D01*
X132182305Y-98744382D01*
X132023087Y-98647552D01*
X132009846Y-98642718D01*
X131999085Y-98633613D01*
X131836076Y-98543313D01*
X131822661Y-98539023D01*
X131811548Y-98530367D01*
X131644952Y-98446707D01*
X131631355Y-98442958D01*
X131619888Y-98434751D01*
X131449903Y-98357851D01*
X131436149Y-98354653D01*
X131424341Y-98346906D01*
X131251172Y-98276886D01*
X131237281Y-98274245D01*
X131225155Y-98266977D01*
X131048993Y-98203947D01*
X131034982Y-98201869D01*
X131022549Y-98195089D01*
X130843606Y-98139169D01*
X130829484Y-98137659D01*
X130816744Y-98131372D01*
X130635213Y-98082682D01*
X130612188Y-98081167D01*
X130590864Y-98072354D01*
X130416167Y-98037748D01*
X130416147Y-98037739D01*
X130416124Y-98037739D01*
X130414080Y-98037334D01*
X130373061Y-98037366D01*
X130333516Y-98026289D01*
X130241531Y-98037341D01*
X130148874Y-98037130D01*
X130147868Y-98037544D01*
X130146807Y-98037545D01*
X130108915Y-98053275D01*
X130068151Y-98058173D01*
X129987395Y-98103586D01*
X129901713Y-98138848D01*
X129900948Y-98139609D01*
X129899959Y-98140020D01*
X129870964Y-98169061D01*
X129835187Y-98189180D01*
X129835180Y-98189186D01*
X129777946Y-98262052D01*
X129712291Y-98327408D01*
X129665791Y-98396658D01*
X129665459Y-98397453D01*
X129664853Y-98398060D01*
X129614063Y-98520740D01*
X129562948Y-98643354D01*
X129562946Y-98644212D01*
X129562617Y-98645007D01*
X129530819Y-98805020D01*
X129498444Y-98965383D01*
X129478931Y-99062008D01*
X129300982Y-99057499D01*
X129267407Y-99063297D01*
X129251530Y-99061331D01*
X129232999Y-98968951D01*
X129201123Y-98807517D01*
X129200720Y-98806540D01*
X129200718Y-98805483D01*
X129168168Y-98643221D01*
X129142459Y-98581439D01*
X129129405Y-98515812D01*
X129091617Y-98459258D01*
X129065485Y-98396459D01*
X129018092Y-98349220D01*
X128980916Y-98293582D01*
X128916836Y-98229502D01*
X128852746Y-98186679D01*
X128796720Y-98133745D01*
X128742687Y-98113140D01*
X128694606Y-98081013D01*
X128619010Y-98065976D01*
X128546989Y-98038511D01*
X128489184Y-98040152D01*
X128432468Y-98028870D01*
X128356872Y-98043907D01*
X128279823Y-98046094D01*
X128099498Y-98087314D01*
X128086762Y-98093018D01*
X128072840Y-98093973D01*
X127894824Y-98142253D01*
X127882342Y-98148456D01*
X127868486Y-98149966D01*
X127692967Y-98205207D01*
X127680767Y-98211892D01*
X127667008Y-98213951D01*
X127494182Y-98276041D01*
X127482301Y-98283183D01*
X127468681Y-98285780D01*
X127298729Y-98354600D01*
X127287138Y-98362213D01*
X127273629Y-98365351D01*
X127106751Y-98440801D01*
X127095488Y-98448859D01*
X127082133Y-98452527D01*
X126918514Y-98534497D01*
X126907600Y-98542981D01*
X126894427Y-98547169D01*
X126734256Y-98635539D01*
X126723678Y-98644458D01*
X126710669Y-98649171D01*
X126554136Y-98743841D01*
X126543920Y-98753174D01*
X126531109Y-98758401D01*
X126378407Y-98859259D01*
X126368558Y-98869004D01*
X126355950Y-98874743D01*
X126207270Y-98981683D01*
X126197817Y-98991812D01*
X126185443Y-98998051D01*
X126040974Y-99110956D01*
X126031917Y-99121470D01*
X126019785Y-99128207D01*
X125879715Y-99246969D01*
X125871064Y-99257862D01*
X125859184Y-99265095D01*
X125723707Y-99389606D01*
X125715484Y-99400855D01*
X125703884Y-99408571D01*
X125573186Y-99538721D01*
X125565403Y-99550317D01*
X125554094Y-99558512D01*
X125428369Y-99694187D01*
X125385665Y-99763683D01*
X125332762Y-99825770D01*
X125316348Y-99876488D01*
X125288440Y-99921905D01*
X125275581Y-100002454D01*
X125250466Y-100080058D01*
X125254710Y-100133194D01*
X125246306Y-100185836D01*
X125265250Y-100265171D01*
X125271744Y-100346483D01*
X125296044Y-100432262D01*
X125323948Y-100486870D01*
X125339591Y-100546161D01*
X125384171Y-100604724D01*
X125417661Y-100670264D01*
X125464334Y-100710033D01*
X125501478Y-100758828D01*
X125626017Y-100868897D01*
X125627337Y-100869666D01*
X125628269Y-100870879D01*
X125752170Y-100979421D01*
X125824199Y-101043082D01*
X125710032Y-101239331D01*
X125619802Y-101208858D01*
X125619800Y-101208858D01*
X125619797Y-101208856D01*
X125462181Y-101155626D01*
X125462163Y-101155624D01*
X125462148Y-101155615D01*
X125304535Y-101102395D01*
X125238643Y-101093828D01*
X125175754Y-101072382D01*
X125107408Y-101076765D01*
X125039492Y-101067935D01*
X124975339Y-101085235D01*
X124909028Y-101089488D01*
X124823758Y-101112208D01*
X124757789Y-101144626D01*
X124687116Y-101164811D01*
X124639007Y-101202996D01*
X124583883Y-101230085D01*
X124535342Y-101285279D01*
X124477772Y-101330974D01*
X124447940Y-101384659D01*
X124407375Y-101430784D01*
X124383650Y-101500355D01*
X124347950Y-101564601D01*
X124319930Y-101651820D01*
X124319133Y-101658749D01*
X124315867Y-101664914D01*
X124289618Y-101752614D01*
X124288968Y-101759472D01*
X124285864Y-101765622D01*
X124261364Y-101853782D01*
X124260844Y-101860727D01*
X124257830Y-101867008D01*
X124235110Y-101955587D01*
X124234736Y-101962419D01*
X124231897Y-101968645D01*
X124210927Y-102057625D01*
X124210683Y-102064561D01*
X124207931Y-102070931D01*
X124188741Y-102160291D01*
X124188635Y-102167276D01*
X124185993Y-102173743D01*
X124168603Y-102263443D01*
X124168637Y-102270341D01*
X124166154Y-102276779D01*
X124150544Y-102366799D01*
X124150716Y-102373791D01*
X124148332Y-102380364D01*
X124134532Y-102470673D01*
X124134839Y-102477535D01*
X124132625Y-102484035D01*
X124120605Y-102574615D01*
X124121051Y-102581525D01*
X124118948Y-102588125D01*
X124108728Y-102678945D01*
X124109316Y-102685906D01*
X124107330Y-102692602D01*
X124098930Y-102783632D01*
X124099648Y-102790489D01*
X124097818Y-102797138D01*
X124091218Y-102888347D01*
X124092070Y-102895178D01*
X124090375Y-102901849D01*
X124085575Y-102993219D01*
X124086560Y-103000019D01*
X124085000Y-103006708D01*
X124082000Y-103098208D01*
X124083178Y-103105348D01*
X124081681Y-103112430D01*
X124080581Y-103204041D01*
X117421000Y-103204041D01*
X117421000Y-93563868D01*
X117740017Y-93244851D01*
X117691000Y-93491275D01*
X117691000Y-95484725D01*
X117800233Y-96033876D01*
X118111302Y-96499423D01*
X118576849Y-96810492D01*
X119126000Y-96919725D01*
X119675151Y-96810492D01*
X120140698Y-96499423D01*
X120451767Y-96033876D01*
X120561000Y-95484725D01*
X120561000Y-95323000D01*
X123952000Y-95323000D01*
X124271541Y-95259439D01*
X124542434Y-95078434D01*
X126066434Y-93554434D01*
X126101341Y-93502192D01*
X126247439Y-93283541D01*
X126311000Y-92964000D01*
X126311000Y-91024971D01*
X145774821Y-91024971D01*
X145932058Y-91405515D01*
X146222954Y-91696919D01*
X146603223Y-91854820D01*
X147014971Y-91855179D01*
X147395515Y-91697942D01*
X147686919Y-91407046D01*
X147844820Y-91026777D01*
X147845179Y-90615029D01*
X147687942Y-90234485D01*
X147397046Y-89943081D01*
X147016777Y-89785180D01*
X146605029Y-89784821D01*
X146224485Y-89942058D01*
X145933081Y-90232954D01*
X145775180Y-90613223D01*
X145774821Y-91024971D01*
X126311000Y-91024971D01*
X126311000Y-78659097D01*
X126385167Y-78659162D01*
X126627578Y-78559000D01*
X126654132Y-78559000D01*
X126764348Y-78669217D01*
X126715808Y-78717673D01*
X126573162Y-79061201D01*
X126572838Y-79433167D01*
X126673000Y-79675578D01*
X126673000Y-82550000D01*
X126736561Y-82869541D01*
X126917566Y-83140434D01*
X127188459Y-83321439D01*
X127508000Y-83385000D01*
X142318396Y-83385000D01*
X149094778Y-90161382D01*
X149023081Y-90232954D01*
X148865180Y-90613223D01*
X148864821Y-91024971D01*
X149022058Y-91405515D01*
X149312954Y-91696919D01*
X149693223Y-91854820D01*
X150104971Y-91855179D01*
X150485515Y-91697942D01*
X150558490Y-91625094D01*
X151465155Y-92531759D01*
X151464838Y-92895167D01*
X151606883Y-93238943D01*
X151821807Y-93454243D01*
X151813081Y-93462954D01*
X151655180Y-93843223D01*
X151654821Y-94254971D01*
X151778790Y-94555000D01*
X147740987Y-94555000D01*
X147864820Y-94256777D01*
X147865179Y-93845029D01*
X147707942Y-93464485D01*
X147417046Y-93173081D01*
X147036777Y-93015180D01*
X146625029Y-93014821D01*
X146244485Y-93172058D01*
X145953081Y-93462954D01*
X145795180Y-93843223D01*
X145794821Y-94254971D01*
X145918790Y-94555000D01*
X143650987Y-94555000D01*
X143774820Y-94256777D01*
X143775179Y-93845029D01*
X143617942Y-93464485D01*
X143327046Y-93173081D01*
X142946777Y-93015180D01*
X142535029Y-93014821D01*
X142154485Y-93172058D01*
X141863081Y-93462954D01*
X141705180Y-93843223D01*
X141704821Y-94254971D01*
X141862058Y-94635515D01*
X142152954Y-94926919D01*
X142364409Y-95014723D01*
X141103566Y-96275566D01*
X140922561Y-96546459D01*
X140859000Y-96866000D01*
X140859000Y-98769104D01*
X140708559Y-98865910D01*
X140563569Y-99078110D01*
X140512560Y-99330000D01*
X140512560Y-102530000D01*
X140556838Y-102765317D01*
X140695910Y-102981441D01*
X140908110Y-103126431D01*
X141160000Y-103177440D01*
X141960000Y-103177440D01*
X142195317Y-103133162D01*
X142361477Y-103026241D01*
X142508110Y-103126431D01*
X142760000Y-103177440D01*
X143560000Y-103177440D01*
X143795317Y-103133162D01*
X144011441Y-102994090D01*
X144156431Y-102781890D01*
X144207440Y-102530000D01*
X144207440Y-102473698D01*
X144267854Y-102777419D01*
X144600600Y-103275409D01*
X144876860Y-103460000D01*
X144600600Y-103644591D01*
X144267854Y-104142581D01*
X144151009Y-104730000D01*
X144267854Y-105317419D01*
X144600600Y-105815409D01*
X144880828Y-106002651D01*
X144518631Y-106306921D01*
X144241525Y-106839975D01*
X144228964Y-106905260D01*
X144349622Y-107143000D01*
X145793000Y-107143000D01*
X145793000Y-107123000D01*
X146047000Y-107123000D01*
X146047000Y-107143000D01*
X147490378Y-107143000D01*
X147611036Y-106905260D01*
X147598475Y-106839975D01*
X147321369Y-106306921D01*
X146959172Y-106002651D01*
X147239400Y-105815409D01*
X147572146Y-105317419D01*
X147688991Y-104730000D01*
X147572146Y-104142581D01*
X147239400Y-103644591D01*
X146963140Y-103460000D01*
X147239400Y-103275409D01*
X147368031Y-103082899D01*
X149025000Y-104739868D01*
X149025000Y-118698766D01*
X148925162Y-118939201D01*
X148924838Y-119311167D01*
X149066883Y-119654943D01*
X149329673Y-119918192D01*
X149673201Y-120060838D01*
X150045167Y-120061162D01*
X150388943Y-119919117D01*
X150652192Y-119656327D01*
X150794838Y-119312799D01*
X150795162Y-118940833D01*
X150695000Y-118698422D01*
X150695000Y-114485167D01*
X155782838Y-114485167D01*
X155924883Y-114828943D01*
X156187673Y-115092192D01*
X156531201Y-115234838D01*
X156903167Y-115235162D01*
X157246943Y-115093117D01*
X157510192Y-114830327D01*
X157610778Y-114588090D01*
X158079868Y-114119000D01*
X164253073Y-114119000D01*
X163910887Y-114631117D01*
X163767400Y-115352475D01*
X163767400Y-116445925D01*
X163910887Y-117167283D01*
X164319504Y-117778821D01*
X164931042Y-118187438D01*
X165652400Y-118330925D01*
X166373758Y-118187438D01*
X166985296Y-117778821D01*
X167393913Y-117167283D01*
X167537400Y-116445925D01*
X167537400Y-115352475D01*
X167393913Y-114631117D01*
X167051727Y-114119000D01*
X167788132Y-114119000D01*
X168757616Y-115088484D01*
X168695000Y-115403275D01*
X168695000Y-116496725D01*
X168838487Y-117218083D01*
X169247104Y-117829621D01*
X169858642Y-118238238D01*
X170580000Y-118381725D01*
X171301358Y-118238238D01*
X171912896Y-117829621D01*
X172321513Y-117218083D01*
X172393000Y-116858694D01*
X172393000Y-120812131D01*
X172374132Y-120831000D01*
X162397868Y-120831000D01*
X159848434Y-118281566D01*
X159783589Y-118238238D01*
X159577541Y-118100561D01*
X159258000Y-118037000D01*
X158161234Y-118037000D01*
X157920799Y-117937162D01*
X157548833Y-117936838D01*
X157205057Y-118078883D01*
X156941808Y-118341673D01*
X156799162Y-118685201D01*
X156798838Y-119057167D01*
X156940883Y-119400943D01*
X157203673Y-119664192D01*
X157547201Y-119806838D01*
X157919167Y-119807162D01*
X158161578Y-119707000D01*
X158912132Y-119707000D01*
X161461566Y-122256434D01*
X161732460Y-122437440D01*
X162052000Y-122501000D01*
X172720000Y-122501000D01*
X173039541Y-122437439D01*
X173310434Y-122256434D01*
X173818434Y-121748435D01*
X173908936Y-121612988D01*
X173999439Y-121477541D01*
X174063000Y-121158000D01*
X174063000Y-117434362D01*
X174327104Y-117829621D01*
X174938642Y-118238238D01*
X175660000Y-118381725D01*
X176381358Y-118238238D01*
X176992896Y-117829621D01*
X177401513Y-117218083D01*
X177545000Y-116496725D01*
X177545000Y-115403275D01*
X177401513Y-114681917D01*
X176992896Y-114070379D01*
X176381358Y-113661762D01*
X175660000Y-113518275D01*
X174938642Y-113661762D01*
X174327104Y-114070379D01*
X173918487Y-114681917D01*
X173859707Y-114977423D01*
X172637566Y-116199564D01*
X172465000Y-116457827D01*
X172465000Y-115403275D01*
X172321513Y-114681917D01*
X171912896Y-114070379D01*
X171301358Y-113661762D01*
X170580000Y-113518275D01*
X169858642Y-113661762D01*
X169759125Y-113728257D01*
X168724434Y-112693566D01*
X168453541Y-112512561D01*
X168134000Y-112449000D01*
X157734000Y-112449000D01*
X157414459Y-112512561D01*
X157143566Y-112693566D01*
X156429667Y-113407465D01*
X156189057Y-113506883D01*
X155925808Y-113769673D01*
X155783162Y-114113201D01*
X155782838Y-114485167D01*
X150695000Y-114485167D01*
X150695000Y-106663868D01*
X151891566Y-107860434D01*
X152162460Y-108041440D01*
X152448880Y-108098412D01*
X152620600Y-108355409D01*
X153118590Y-108688155D01*
X153706009Y-108805000D01*
X154173991Y-108805000D01*
X154761410Y-108688155D01*
X155259400Y-108355409D01*
X155592146Y-107857419D01*
X155708991Y-107270000D01*
X155592146Y-106682581D01*
X155259400Y-106184591D01*
X154983140Y-106000000D01*
X155259400Y-105815409D01*
X155592146Y-105317419D01*
X155708991Y-104730000D01*
X155592146Y-104142581D01*
X155259400Y-103644591D01*
X154983140Y-103460000D01*
X155259400Y-103275409D01*
X155307086Y-103204041D01*
X165378252Y-103204041D01*
X165379984Y-103213329D01*
X165378281Y-103222622D01*
X165379681Y-103315203D01*
X165381106Y-103321840D01*
X165380013Y-103328536D01*
X165383213Y-103421005D01*
X165384769Y-103427623D01*
X165383805Y-103434356D01*
X165388805Y-103526686D01*
X165390586Y-103533648D01*
X165389714Y-103540782D01*
X165396614Y-103632952D01*
X165398442Y-103639530D01*
X165397747Y-103646318D01*
X165406447Y-103738299D01*
X165408472Y-103745069D01*
X165407895Y-103752110D01*
X165418455Y-103843870D01*
X165420587Y-103850505D01*
X165420157Y-103857462D01*
X165432547Y-103948972D01*
X165434793Y-103955509D01*
X165434503Y-103962417D01*
X165448703Y-104053648D01*
X165451146Y-104060325D01*
X165450993Y-104067435D01*
X165467053Y-104158365D01*
X165469572Y-104164838D01*
X165469561Y-104171781D01*
X165487431Y-104262381D01*
X165490075Y-104268794D01*
X165490202Y-104275727D01*
X165509872Y-104365957D01*
X165512703Y-104372454D01*
X165512977Y-104379537D01*
X165534487Y-104469387D01*
X165537397Y-104475711D01*
X165537805Y-104482660D01*
X165561115Y-104572100D01*
X165564181Y-104578426D01*
X165564734Y-104585434D01*
X165589854Y-104674424D01*
X165593032Y-104680657D01*
X165593722Y-104687619D01*
X165620642Y-104776148D01*
X165623943Y-104782314D01*
X165624773Y-104789260D01*
X165653483Y-104877289D01*
X165689267Y-104941021D01*
X165713080Y-105010124D01*
X165754064Y-105056425D01*
X165784336Y-105110340D01*
X165841785Y-105155526D01*
X165890230Y-105210257D01*
X165945812Y-105237350D01*
X165994412Y-105275576D01*
X166064777Y-105295337D01*
X166130482Y-105327364D01*
X166209033Y-105348024D01*
X166275308Y-105352061D01*
X166339471Y-105369153D01*
X166407407Y-105360108D01*
X166475812Y-105364275D01*
X166538586Y-105342643D01*
X166604407Y-105333880D01*
X166759243Y-105281068D01*
X166914456Y-105228818D01*
X166914459Y-105228818D01*
X167014171Y-105195252D01*
X167047097Y-105259701D01*
X167065674Y-105283214D01*
X167076300Y-105311234D01*
X167126001Y-105390717D01*
X167046810Y-105460302D01*
X167046376Y-105460869D01*
X167045758Y-105461228D01*
X166923306Y-105569272D01*
X166800323Y-105677332D01*
X166760626Y-105729168D01*
X166711309Y-105771943D01*
X166680165Y-105834235D01*
X166637820Y-105889529D01*
X166620983Y-105952606D01*
X166591786Y-106011003D01*
X166571126Y-106086452D01*
X166565586Y-106164442D01*
X166547333Y-106240471D01*
X166556205Y-106296488D01*
X166552187Y-106353054D01*
X166576913Y-106427226D01*
X166589145Y-106504454D01*
X166618777Y-106552808D01*
X166636712Y-106606610D01*
X166687943Y-106665676D01*
X166728796Y-106732342D01*
X166854574Y-106868407D01*
X166865894Y-106876631D01*
X166873680Y-106888260D01*
X167004454Y-107018783D01*
X167016068Y-107026527D01*
X167024293Y-107037805D01*
X167159866Y-107162671D01*
X167171753Y-107169925D01*
X167180401Y-107180838D01*
X167320591Y-107299948D01*
X167332740Y-107306711D01*
X167341804Y-107317253D01*
X167486411Y-107430486D01*
X167498809Y-107436752D01*
X167508279Y-107446916D01*
X167657120Y-107554163D01*
X167669731Y-107559917D01*
X167679577Y-107569674D01*
X167832454Y-107670828D01*
X167845282Y-107676074D01*
X167855505Y-107685428D01*
X168012231Y-107780378D01*
X168025261Y-107785110D01*
X168035854Y-107794054D01*
X168196237Y-107882684D01*
X168209446Y-107886893D01*
X168220388Y-107895409D01*
X168384236Y-107977608D01*
X168397592Y-107981285D01*
X168408857Y-107989353D01*
X168575978Y-108065023D01*
X168589504Y-108068173D01*
X168601111Y-108075804D01*
X168771320Y-108144824D01*
X168784976Y-108147435D01*
X168796889Y-108154602D01*
X168969986Y-108216862D01*
X168983762Y-108218929D01*
X168995975Y-108225626D01*
X169171772Y-108281016D01*
X169185648Y-108282533D01*
X169198149Y-108288749D01*
X169376459Y-108337159D01*
X169390414Y-108338120D01*
X169403180Y-108343840D01*
X169583806Y-108385160D01*
X169663974Y-108387448D01*
X169742771Y-108402381D01*
X169796310Y-108391226D01*
X169850971Y-108392786D01*
X169925908Y-108364223D01*
X170004425Y-108347864D01*
X170049617Y-108317071D01*
X170100718Y-108297594D01*
X170159024Y-108242525D01*
X170225300Y-108197366D01*
X170282140Y-108139486D01*
X170316884Y-108086454D01*
X170361844Y-108041755D01*
X170389409Y-107975753D01*
X170428609Y-107915919D01*
X170440414Y-107853627D01*
X170464846Y-107795126D01*
X170497406Y-107633896D01*
X170497410Y-107632600D01*
X170497905Y-107631402D01*
X170529696Y-107470915D01*
X170551565Y-107362622D01*
X170727892Y-107367104D01*
X170760896Y-107361407D01*
X170775801Y-107363279D01*
X170797221Y-107469688D01*
X170829482Y-107630460D01*
X170861406Y-107791622D01*
X170886060Y-107851274D01*
X170898056Y-107914694D01*
X170936609Y-107973584D01*
X170963492Y-108038631D01*
X171009094Y-108084305D01*
X171044449Y-108138311D01*
X171098709Y-108193601D01*
X171164559Y-108238501D01*
X171222396Y-108293328D01*
X171273933Y-108313079D01*
X171319534Y-108344173D01*
X171397551Y-108360456D01*
X171471969Y-108388976D01*
X171527140Y-108387502D01*
X171581170Y-108398778D01*
X171659480Y-108383965D01*
X171739147Y-108381836D01*
X171919845Y-108340846D01*
X171932618Y-108335151D01*
X171946569Y-108334216D01*
X172124960Y-108286136D01*
X172137461Y-108279948D01*
X172151334Y-108278458D01*
X172327225Y-108223398D01*
X172339458Y-108216720D01*
X172353245Y-108214677D01*
X172526453Y-108152737D01*
X172538378Y-108145593D01*
X172552034Y-108143008D01*
X172722357Y-108074308D01*
X172733978Y-108066699D01*
X172747516Y-108063572D01*
X172914772Y-107988212D01*
X172926057Y-107980161D01*
X172939429Y-107976506D01*
X173103424Y-107894605D01*
X173114387Y-107886105D01*
X173127611Y-107881917D01*
X173288151Y-107793577D01*
X173298737Y-107784671D01*
X173311748Y-107779974D01*
X173468644Y-107685324D01*
X173478896Y-107675979D01*
X173491745Y-107670752D01*
X173644804Y-107569883D01*
X173654674Y-107560138D01*
X173667300Y-107554405D01*
X173816333Y-107447432D01*
X173825810Y-107437297D01*
X173838207Y-107431061D01*
X173983020Y-107318101D01*
X173992101Y-107307578D01*
X174004260Y-107300840D01*
X174144665Y-107182000D01*
X174153347Y-107171087D01*
X174165262Y-107163845D01*
X174301063Y-107039226D01*
X174309306Y-107027966D01*
X174320928Y-107020248D01*
X174451935Y-106889972D01*
X174459738Y-106878364D01*
X174471070Y-106870163D01*
X174597097Y-106734336D01*
X174636396Y-106670472D01*
X174686164Y-106614388D01*
X174705760Y-106557750D01*
X174737170Y-106506707D01*
X174749037Y-106432669D01*
X174773556Y-106361805D01*
X174769986Y-106301976D01*
X174779471Y-106242802D01*
X174762103Y-106169861D01*
X174757636Y-106095006D01*
X174737486Y-106018006D01*
X174706404Y-105954037D01*
X174687658Y-105885431D01*
X174648564Y-105835000D01*
X174620678Y-105777608D01*
X174567483Y-105730403D01*
X174523909Y-105674193D01*
X174400033Y-105566632D01*
X174277141Y-105458462D01*
X174200028Y-105390311D01*
X174313252Y-105195447D01*
X174407159Y-105227472D01*
X174408545Y-105227657D01*
X174409759Y-105228353D01*
X174567209Y-105281344D01*
X174567211Y-105281345D01*
X174724827Y-105334575D01*
X174788055Y-105342799D01*
X174848232Y-105363857D01*
X174919291Y-105359868D01*
X174989868Y-105369048D01*
X175051425Y-105352451D01*
X175115085Y-105348878D01*
X175195185Y-105328218D01*
X175262921Y-105295600D01*
X175335270Y-105275172D01*
X175382170Y-105238176D01*
X175435993Y-105212258D01*
X175486092Y-105156200D01*
X175545115Y-105109641D01*
X175574287Y-105057514D01*
X175614094Y-105012972D01*
X175638925Y-104942013D01*
X175675641Y-104876407D01*
X175704221Y-104788358D01*
X175705044Y-104781385D01*
X175708349Y-104775190D01*
X175735129Y-104686650D01*
X175735810Y-104679673D01*
X175738984Y-104673425D01*
X175763964Y-104584415D01*
X175764506Y-104577415D01*
X175767559Y-104571091D01*
X175790729Y-104481641D01*
X175791129Y-104474653D01*
X175794045Y-104468289D01*
X175815405Y-104378429D01*
X175815662Y-104371482D01*
X175818431Y-104365108D01*
X175837991Y-104274859D01*
X175838112Y-104267789D01*
X175840796Y-104261250D01*
X175858517Y-104170650D01*
X175858495Y-104163741D01*
X175860991Y-104157299D01*
X175876911Y-104066369D01*
X175876749Y-104059332D01*
X175879159Y-104052719D01*
X175893239Y-103961489D01*
X175892937Y-103954510D01*
X175895196Y-103947903D01*
X175907446Y-103856403D01*
X175907003Y-103849409D01*
X175909137Y-103842731D01*
X175919547Y-103750981D01*
X175918974Y-103744125D01*
X175920939Y-103737531D01*
X175929539Y-103645561D01*
X175928798Y-103638397D01*
X175930711Y-103631454D01*
X175937411Y-103539294D01*
X175936570Y-103532533D01*
X175938251Y-103525932D01*
X175943151Y-103433612D01*
X175942126Y-103426511D01*
X175943754Y-103419520D01*
X175946754Y-103327060D01*
X175945585Y-103319994D01*
X175947066Y-103312986D01*
X175948166Y-103220426D01*
X175946431Y-103211130D01*
X175948134Y-103201830D01*
X175946734Y-103110129D01*
X175945375Y-103103802D01*
X175946422Y-103097414D01*
X175943322Y-103005824D01*
X175941756Y-102999141D01*
X175942733Y-102992345D01*
X175937833Y-102900895D01*
X175936133Y-102894234D01*
X175936977Y-102887413D01*
X175930277Y-102796112D01*
X175928340Y-102789102D01*
X175929082Y-102781867D01*
X175920482Y-102690767D01*
X175918548Y-102684298D01*
X175919107Y-102677570D01*
X175908747Y-102586679D01*
X175906637Y-102580090D01*
X175907073Y-102573184D01*
X175894913Y-102482534D01*
X175892655Y-102475936D01*
X175892955Y-102468968D01*
X175878985Y-102378588D01*
X175876592Y-102372026D01*
X175876752Y-102365042D01*
X175860972Y-102274952D01*
X175858493Y-102268555D01*
X175858515Y-102261693D01*
X175840965Y-102171933D01*
X175838340Y-102165538D01*
X175838226Y-102158627D01*
X175818896Y-102069217D01*
X175816140Y-102062864D01*
X175815888Y-102055943D01*
X175794778Y-101966904D01*
X175791884Y-101960579D01*
X175791492Y-101953635D01*
X175768602Y-101865005D01*
X175765577Y-101858728D01*
X175765045Y-101851780D01*
X175740375Y-101763580D01*
X175737236Y-101757386D01*
X175736568Y-101750474D01*
X175710128Y-101662724D01*
X175706884Y-101656628D01*
X175706084Y-101649768D01*
X175677894Y-101562508D01*
X175642747Y-101499499D01*
X175619623Y-101431162D01*
X175578276Y-101383922D01*
X175547691Y-101329093D01*
X175491108Y-101284331D01*
X175443592Y-101230044D01*
X175387313Y-101202222D01*
X175338076Y-101163272D01*
X175268674Y-101143572D01*
X175203997Y-101111599D01*
X175121317Y-101089359D01*
X175053535Y-101084850D01*
X174987918Y-101067296D01*
X174921492Y-101076067D01*
X174854632Y-101071620D01*
X174790288Y-101093392D01*
X174722944Y-101102285D01*
X174567207Y-101155218D01*
X174411680Y-101207575D01*
X174411378Y-101207748D01*
X174411034Y-101207793D01*
X174317802Y-101239282D01*
X174278944Y-101163591D01*
X174260740Y-101140644D01*
X174250352Y-101113252D01*
X174205710Y-101041862D01*
X174278789Y-100977651D01*
X174279233Y-100977071D01*
X174279863Y-100976705D01*
X174402422Y-100868566D01*
X174525292Y-100760605D01*
X174582787Y-100685527D01*
X174648601Y-100617618D01*
X174690981Y-100551988D01*
X174708118Y-100508709D01*
X174735723Y-100471231D01*
X174756888Y-100385542D01*
X174789379Y-100303486D01*
X174788650Y-100256948D01*
X174799812Y-100211755D01*
X174786574Y-100124493D01*
X174785191Y-100036245D01*
X174766705Y-99993523D01*
X174759724Y-99947505D01*
X174714103Y-99871955D01*
X174679052Y-99790950D01*
X174645626Y-99758555D01*
X174621565Y-99718710D01*
X174494520Y-99579461D01*
X174483051Y-99571013D01*
X174475193Y-99559129D01*
X174342941Y-99425590D01*
X174331174Y-99417645D01*
X174322865Y-99406129D01*
X174185616Y-99278418D01*
X174173559Y-99270975D01*
X174164808Y-99259832D01*
X174022760Y-99138062D01*
X174010438Y-99131132D01*
X174001261Y-99120377D01*
X173854622Y-99004668D01*
X173842046Y-98998253D01*
X173832454Y-98987894D01*
X173681423Y-98878362D01*
X173668607Y-98872467D01*
X173658609Y-98862512D01*
X173503384Y-98759275D01*
X173490354Y-98753911D01*
X173479976Y-98744382D01*
X173320758Y-98647552D01*
X173307517Y-98642718D01*
X173296756Y-98633613D01*
X173133747Y-98543313D01*
X173120332Y-98539023D01*
X173109219Y-98530367D01*
X172942623Y-98446707D01*
X172929026Y-98442958D01*
X172917559Y-98434751D01*
X172747574Y-98357851D01*
X172733820Y-98354653D01*
X172722012Y-98346906D01*
X172548843Y-98276886D01*
X172534952Y-98274245D01*
X172522826Y-98266977D01*
X172346664Y-98203947D01*
X172332653Y-98201869D01*
X172320220Y-98195089D01*
X172141277Y-98139169D01*
X172127155Y-98137659D01*
X172114415Y-98131372D01*
X171932884Y-98082682D01*
X171909859Y-98081167D01*
X171888535Y-98072354D01*
X171713838Y-98037748D01*
X171713818Y-98037739D01*
X171713795Y-98037739D01*
X171711751Y-98037334D01*
X171670732Y-98037366D01*
X171631187Y-98026289D01*
X171539202Y-98037341D01*
X171446545Y-98037130D01*
X171445539Y-98037544D01*
X171444478Y-98037545D01*
X171406586Y-98053275D01*
X171365822Y-98058173D01*
X171285066Y-98103586D01*
X171199384Y-98138848D01*
X171198619Y-98139609D01*
X171197630Y-98140020D01*
X171168635Y-98169061D01*
X171132858Y-98189180D01*
X171132851Y-98189186D01*
X171075617Y-98262052D01*
X171009962Y-98327408D01*
X170963462Y-98396658D01*
X170963130Y-98397453D01*
X170962524Y-98398060D01*
X170911734Y-98520740D01*
X170860619Y-98643354D01*
X170860617Y-98644212D01*
X170860288Y-98645007D01*
X170828490Y-98805020D01*
X170796115Y-98965383D01*
X170776602Y-99062008D01*
X170598653Y-99057499D01*
X170565078Y-99063297D01*
X170549201Y-99061331D01*
X170530670Y-98968951D01*
X170498794Y-98807517D01*
X170498391Y-98806540D01*
X170498389Y-98805483D01*
X170465839Y-98643221D01*
X170440130Y-98581439D01*
X170427076Y-98515812D01*
X170389288Y-98459258D01*
X170363156Y-98396459D01*
X170315763Y-98349220D01*
X170278587Y-98293582D01*
X170214507Y-98229502D01*
X170150417Y-98186679D01*
X170094391Y-98133745D01*
X170040358Y-98113140D01*
X169992277Y-98081013D01*
X169916681Y-98065976D01*
X169844660Y-98038511D01*
X169786855Y-98040152D01*
X169730139Y-98028870D01*
X169654543Y-98043907D01*
X169577494Y-98046094D01*
X169397169Y-98087314D01*
X169384433Y-98093018D01*
X169370511Y-98093973D01*
X169192495Y-98142253D01*
X169180013Y-98148456D01*
X169166157Y-98149966D01*
X168990638Y-98205207D01*
X168978438Y-98211892D01*
X168964679Y-98213951D01*
X168791853Y-98276041D01*
X168779972Y-98283183D01*
X168766352Y-98285780D01*
X168596400Y-98354600D01*
X168584809Y-98362213D01*
X168571300Y-98365351D01*
X168404422Y-98440801D01*
X168393159Y-98448859D01*
X168379804Y-98452527D01*
X168216185Y-98534497D01*
X168205271Y-98542981D01*
X168192098Y-98547169D01*
X168031927Y-98635539D01*
X168021349Y-98644458D01*
X168008340Y-98649171D01*
X167851807Y-98743841D01*
X167841591Y-98753174D01*
X167828780Y-98758401D01*
X167676078Y-98859259D01*
X167666229Y-98869004D01*
X167653621Y-98874743D01*
X167504941Y-98981683D01*
X167495488Y-98991812D01*
X167483114Y-98998051D01*
X167338645Y-99110956D01*
X167329588Y-99121470D01*
X167317456Y-99128207D01*
X167177386Y-99246969D01*
X167168735Y-99257862D01*
X167156855Y-99265095D01*
X167021378Y-99389606D01*
X167013155Y-99400855D01*
X167001555Y-99408571D01*
X166870857Y-99538721D01*
X166863074Y-99550317D01*
X166851765Y-99558512D01*
X166726040Y-99694187D01*
X166683336Y-99763683D01*
X166630433Y-99825770D01*
X166614019Y-99876488D01*
X166586111Y-99921905D01*
X166573252Y-100002454D01*
X166548137Y-100080058D01*
X166552381Y-100133194D01*
X166543977Y-100185836D01*
X166562921Y-100265171D01*
X166569415Y-100346483D01*
X166593715Y-100432262D01*
X166621619Y-100486870D01*
X166637262Y-100546161D01*
X166681842Y-100604724D01*
X166715332Y-100670264D01*
X166762005Y-100710033D01*
X166799149Y-100758828D01*
X166923688Y-100868897D01*
X166925008Y-100869666D01*
X166925940Y-100870879D01*
X167049841Y-100979421D01*
X167121870Y-101043082D01*
X167007703Y-101239331D01*
X166917473Y-101208858D01*
X166917471Y-101208858D01*
X166917468Y-101208856D01*
X166759852Y-101155626D01*
X166759834Y-101155624D01*
X166759819Y-101155615D01*
X166602206Y-101102395D01*
X166536314Y-101093828D01*
X166473425Y-101072382D01*
X166405079Y-101076765D01*
X166337163Y-101067935D01*
X166273010Y-101085235D01*
X166206699Y-101089488D01*
X166121429Y-101112208D01*
X166055460Y-101144626D01*
X165984787Y-101164811D01*
X165936678Y-101202996D01*
X165881554Y-101230085D01*
X165833013Y-101285279D01*
X165775443Y-101330974D01*
X165745611Y-101384659D01*
X165705046Y-101430784D01*
X165681321Y-101500355D01*
X165645621Y-101564601D01*
X165617601Y-101651820D01*
X165616804Y-101658749D01*
X165613538Y-101664914D01*
X165587289Y-101752614D01*
X165586639Y-101759472D01*
X165583535Y-101765622D01*
X165559035Y-101853782D01*
X165558515Y-101860727D01*
X165555501Y-101867008D01*
X165532781Y-101955587D01*
X165532407Y-101962419D01*
X165529568Y-101968645D01*
X165508598Y-102057625D01*
X165508354Y-102064561D01*
X165505602Y-102070931D01*
X165486412Y-102160291D01*
X165486306Y-102167276D01*
X165483664Y-102173743D01*
X165466274Y-102263443D01*
X165466308Y-102270341D01*
X165463825Y-102276779D01*
X165448215Y-102366799D01*
X165448387Y-102373791D01*
X165446003Y-102380364D01*
X165432203Y-102470673D01*
X165432510Y-102477535D01*
X165430296Y-102484035D01*
X165418276Y-102574615D01*
X165418722Y-102581525D01*
X165416619Y-102588125D01*
X165406399Y-102678945D01*
X165406987Y-102685906D01*
X165405001Y-102692602D01*
X165396601Y-102783632D01*
X165397319Y-102790489D01*
X165395489Y-102797138D01*
X165388889Y-102888347D01*
X165389741Y-102895178D01*
X165388046Y-102901849D01*
X165383246Y-102993219D01*
X165384231Y-103000019D01*
X165382671Y-103006708D01*
X165379671Y-103098208D01*
X165380849Y-103105348D01*
X165379352Y-103112430D01*
X165378252Y-103204041D01*
X155307086Y-103204041D01*
X155592146Y-102777419D01*
X155708991Y-102190000D01*
X155592146Y-101602581D01*
X155259400Y-101104591D01*
X154983140Y-100920000D01*
X155259400Y-100735409D01*
X155592146Y-100237419D01*
X155708991Y-99650000D01*
X155592146Y-99062581D01*
X155259400Y-98564591D01*
X154761410Y-98231845D01*
X154173991Y-98115000D01*
X153706009Y-98115000D01*
X153166553Y-98222305D01*
X153225515Y-98197942D01*
X153516919Y-97907046D01*
X153674820Y-97526777D01*
X153675179Y-97115029D01*
X153517942Y-96734485D01*
X153306022Y-96522195D01*
X153334838Y-96452799D01*
X153335036Y-96225000D01*
X161280000Y-96225000D01*
X161599541Y-96161439D01*
X161870434Y-95980434D01*
X162865868Y-94985000D01*
X171861871Y-94985000D01*
X171892460Y-95005439D01*
X172212000Y-95069000D01*
X172531540Y-95005439D01*
X172802434Y-94824434D01*
X176358434Y-91268434D01*
X176378401Y-91238551D01*
X176539439Y-90997541D01*
X176603000Y-90678000D01*
X176603000Y-81627868D01*
X176942560Y-81288308D01*
X176942560Y-88000000D01*
X176986838Y-88235317D01*
X177125910Y-88451441D01*
X177338110Y-88596431D01*
X177590000Y-88647440D01*
X178717000Y-88647440D01*
X178717000Y-119578560D01*
X177370000Y-119578560D01*
X177134683Y-119622838D01*
X176918559Y-119761910D01*
X176773569Y-119974110D01*
X176722560Y-120226000D01*
X176722560Y-127226000D01*
X176766838Y-127461317D01*
X176905910Y-127677441D01*
X177118110Y-127822431D01*
X177370000Y-127873440D01*
X181370000Y-127873440D01*
X181605317Y-127829162D01*
X181821441Y-127690090D01*
X181966431Y-127477890D01*
X182017440Y-127226000D01*
X182017440Y-125126750D01*
X184054000Y-125126750D01*
X184054000Y-125242310D01*
X184150673Y-125475699D01*
X184329302Y-125654327D01*
X184562691Y-125751000D01*
X185278250Y-125751000D01*
X185437000Y-125592250D01*
X185437000Y-124968000D01*
X184212750Y-124968000D01*
X184054000Y-125126750D01*
X182017440Y-125126750D01*
X182017440Y-120226000D01*
X181973162Y-119990683D01*
X181834090Y-119774559D01*
X181621890Y-119629569D01*
X181370000Y-119578560D01*
X180387000Y-119578560D01*
X180387000Y-88647440D01*
X181590000Y-88647440D01*
X181825317Y-88603162D01*
X182041441Y-88464090D01*
X182186431Y-88251890D01*
X182237440Y-88000000D01*
X182237440Y-83596308D01*
X183315000Y-84673868D01*
X183315000Y-102108000D01*
X183378561Y-102427541D01*
X183525712Y-102647768D01*
X183559566Y-102698434D01*
X187571567Y-106710435D01*
X187842460Y-106891440D01*
X188085026Y-106939690D01*
X188084735Y-107273991D01*
X188317932Y-107838371D01*
X188719182Y-108240323D01*
X188319449Y-108639357D01*
X188085267Y-109203330D01*
X188084735Y-109813991D01*
X188317932Y-110378371D01*
X188719182Y-110780323D01*
X188319449Y-111179357D01*
X188085267Y-111743330D01*
X188084735Y-112353991D01*
X188317932Y-112918371D01*
X188749357Y-113350551D01*
X188770194Y-113359203D01*
X188719446Y-113509841D01*
X189620000Y-114410395D01*
X189634143Y-114396253D01*
X189813748Y-114575858D01*
X189799605Y-114590000D01*
X189813748Y-114604143D01*
X189634143Y-114783748D01*
X189620000Y-114769605D01*
X189605858Y-114783748D01*
X189426253Y-114604143D01*
X189440395Y-114590000D01*
X188539841Y-113689446D01*
X188283357Y-113775852D01*
X188073542Y-114349336D01*
X188099161Y-114959460D01*
X188283357Y-115404148D01*
X188539839Y-115490553D01*
X188533392Y-115497000D01*
X187472000Y-115497000D01*
X187152460Y-115560560D01*
X186881566Y-115741565D01*
X186607566Y-116015566D01*
X186426561Y-116286459D01*
X186402051Y-116409680D01*
X186196559Y-116541910D01*
X186051569Y-116754110D01*
X186000560Y-117006000D01*
X186000560Y-117070219D01*
X185928459Y-117084561D01*
X185657566Y-117265566D01*
X184575566Y-118347566D01*
X184394561Y-118618459D01*
X184331000Y-118938000D01*
X184331000Y-120231782D01*
X184237559Y-120291910D01*
X184092569Y-120504110D01*
X184041560Y-120756000D01*
X184041560Y-121306000D01*
X184085838Y-121541317D01*
X184166248Y-121666277D01*
X184092569Y-121774110D01*
X184041560Y-122026000D01*
X184041560Y-122576000D01*
X184085838Y-122811317D01*
X184166248Y-122936277D01*
X184092569Y-123044110D01*
X184041560Y-123296000D01*
X184041560Y-123846000D01*
X184085838Y-124081317D01*
X184160159Y-124196815D01*
X184150673Y-124206301D01*
X184054000Y-124439690D01*
X184054000Y-124555250D01*
X184212750Y-124714000D01*
X185437000Y-124714000D01*
X185437000Y-124694000D01*
X185691000Y-124694000D01*
X185691000Y-124714000D01*
X185711000Y-124714000D01*
X185711000Y-124968000D01*
X185691000Y-124968000D01*
X185691000Y-125592250D01*
X185849750Y-125751000D01*
X186250132Y-125751000D01*
X185132333Y-126868799D01*
X184904000Y-126822560D01*
X183904000Y-126822560D01*
X183668683Y-126866838D01*
X183452559Y-127005910D01*
X183307569Y-127218110D01*
X183256560Y-127470000D01*
X183256560Y-129070000D01*
X183300838Y-129305317D01*
X183439910Y-129521441D01*
X183652110Y-129666431D01*
X183904000Y-129717440D01*
X184904000Y-129717440D01*
X185139317Y-129673162D01*
X185355441Y-129534090D01*
X185500431Y-129321890D01*
X185551440Y-129070000D01*
X185551440Y-129055781D01*
X185623541Y-129041439D01*
X185894434Y-128860434D01*
X186010434Y-128744434D01*
X186136508Y-128555750D01*
X186825000Y-128555750D01*
X186825000Y-129196310D01*
X186921673Y-129429699D01*
X187100302Y-129608327D01*
X187333691Y-129705000D01*
X187674250Y-129705000D01*
X187833000Y-129546250D01*
X187833000Y-128397000D01*
X188087000Y-128397000D01*
X188087000Y-129546250D01*
X188245750Y-129705000D01*
X188586309Y-129705000D01*
X188819698Y-129608327D01*
X188998327Y-129429699D01*
X189095000Y-129196310D01*
X189095000Y-128555750D01*
X189111000Y-128555750D01*
X189111000Y-129196310D01*
X189207673Y-129429699D01*
X189386302Y-129608327D01*
X189619691Y-129705000D01*
X189960250Y-129705000D01*
X190119000Y-129546250D01*
X190119000Y-128397000D01*
X190373000Y-128397000D01*
X190373000Y-129546250D01*
X190531750Y-129705000D01*
X190872309Y-129705000D01*
X191105698Y-129608327D01*
X191284327Y-129429699D01*
X191381000Y-129196310D01*
X191381000Y-128555750D01*
X191222250Y-128397000D01*
X190373000Y-128397000D01*
X190119000Y-128397000D01*
X189269750Y-128397000D01*
X189111000Y-128555750D01*
X189095000Y-128555750D01*
X188936250Y-128397000D01*
X188087000Y-128397000D01*
X187833000Y-128397000D01*
X186983750Y-128397000D01*
X186825000Y-128555750D01*
X186136508Y-128555750D01*
X186191440Y-128473540D01*
X186255000Y-128154000D01*
X186255000Y-128107868D01*
X186825000Y-127537868D01*
X186825000Y-127984250D01*
X186983750Y-128143000D01*
X187833000Y-128143000D01*
X187833000Y-126993750D01*
X188087000Y-126993750D01*
X188087000Y-128143000D01*
X188936250Y-128143000D01*
X189095000Y-127984250D01*
X189095000Y-127343690D01*
X189111000Y-127343690D01*
X189111000Y-127984250D01*
X189269750Y-128143000D01*
X190119000Y-128143000D01*
X190119000Y-126993750D01*
X189960250Y-126835000D01*
X189619691Y-126835000D01*
X189386302Y-126931673D01*
X189207673Y-127110301D01*
X189111000Y-127343690D01*
X189095000Y-127343690D01*
X188998327Y-127110301D01*
X188819698Y-126931673D01*
X188586309Y-126835000D01*
X188245750Y-126835000D01*
X188087000Y-126993750D01*
X187833000Y-126993750D01*
X187674250Y-126835000D01*
X187527868Y-126835000D01*
X188296434Y-126066434D01*
X188477439Y-125795541D01*
X188541000Y-125476000D01*
X188541000Y-122936000D01*
X188477439Y-122616459D01*
X188296434Y-122345566D01*
X188025541Y-122164561D01*
X187706000Y-122101000D01*
X187086440Y-122101000D01*
X187086440Y-122026000D01*
X187042162Y-121790683D01*
X186961752Y-121665723D01*
X187035431Y-121557890D01*
X187086440Y-121306000D01*
X187086440Y-120756000D01*
X187042162Y-120520683D01*
X186903090Y-120304559D01*
X186690890Y-120159569D01*
X186439000Y-120108560D01*
X186001000Y-120108560D01*
X186001000Y-119283868D01*
X186161795Y-119123073D01*
X186183910Y-119157441D01*
X186396110Y-119302431D01*
X186648000Y-119353440D01*
X187748000Y-119353440D01*
X187983317Y-119309162D01*
X188199441Y-119170090D01*
X188344431Y-118957890D01*
X188395440Y-118706000D01*
X188395440Y-117167000D01*
X189556560Y-117167000D01*
X189556560Y-118706000D01*
X189600838Y-118941317D01*
X189739910Y-119157441D01*
X189952110Y-119302431D01*
X190204000Y-119353440D01*
X191304000Y-119353440D01*
X191539317Y-119309162D01*
X191642843Y-119242545D01*
X191668039Y-119369214D01*
X191989946Y-119850983D01*
X192334755Y-120081377D01*
X192307572Y-120108560D01*
X191293000Y-120108560D01*
X191057683Y-120152838D01*
X190841559Y-120291910D01*
X190696569Y-120504110D01*
X190692933Y-120522065D01*
X189722434Y-119551566D01*
X189692494Y-119531561D01*
X189451541Y-119370561D01*
X189165082Y-119313580D01*
X188908799Y-119207162D01*
X188536833Y-119206838D01*
X188193057Y-119348883D01*
X187929808Y-119611673D01*
X187787162Y-119955201D01*
X187786838Y-120327167D01*
X187928883Y-120670943D01*
X188191673Y-120934192D01*
X188535201Y-121076838D01*
X188886276Y-121077144D01*
X190110132Y-122301000D01*
X189909566Y-122501566D01*
X189728561Y-122772459D01*
X189665000Y-123092000D01*
X189665000Y-125476000D01*
X189728561Y-125795541D01*
X189909566Y-126066434D01*
X190678132Y-126835000D01*
X190531750Y-126835000D01*
X190373000Y-126993750D01*
X190373000Y-128143000D01*
X191222250Y-128143000D01*
X191381000Y-127984250D01*
X191381000Y-127537868D01*
X191697000Y-127853868D01*
X191697000Y-127900000D01*
X191760561Y-128219541D01*
X191882504Y-128402041D01*
X191941566Y-128490434D01*
X192311566Y-128860434D01*
X192582459Y-129041439D01*
X192654560Y-129055781D01*
X192654560Y-129070000D01*
X192698838Y-129305317D01*
X192837910Y-129521441D01*
X193050110Y-129666431D01*
X193302000Y-129717440D01*
X194302000Y-129717440D01*
X194537317Y-129673162D01*
X194753441Y-129534090D01*
X194898431Y-129321890D01*
X194949440Y-129070000D01*
X194949440Y-127470000D01*
X194905162Y-127234683D01*
X194766090Y-127018559D01*
X194553890Y-126873569D01*
X194302000Y-126822560D01*
X193302000Y-126822560D01*
X193070911Y-126866043D01*
X191968308Y-125763440D01*
X193043000Y-125763440D01*
X193278317Y-125719162D01*
X193345393Y-125676000D01*
X194183000Y-125676000D01*
X194502541Y-125612439D01*
X194773434Y-125431434D01*
X196424434Y-123780434D01*
X196605440Y-123509540D01*
X196669000Y-123190000D01*
X196669000Y-120164394D01*
X197138054Y-119850983D01*
X197459961Y-119369214D01*
X197573000Y-118800929D01*
X197573000Y-117927071D01*
X197459961Y-117358786D01*
X197138054Y-116877017D01*
X196656285Y-116555110D01*
X196088000Y-116442071D01*
X195519715Y-116555110D01*
X195037946Y-116877017D01*
X194716039Y-117358786D01*
X194603000Y-117927071D01*
X194603000Y-118800929D01*
X194716039Y-119369214D01*
X194999000Y-119792696D01*
X194999000Y-122844132D01*
X193837132Y-124006000D01*
X193664045Y-124006000D01*
X193678000Y-123972310D01*
X193678000Y-123856750D01*
X193519250Y-123698000D01*
X192295000Y-123698000D01*
X192295000Y-123718000D01*
X192041000Y-123718000D01*
X192041000Y-123698000D01*
X192021000Y-123698000D01*
X192021000Y-123444000D01*
X192041000Y-123444000D01*
X192041000Y-123424000D01*
X192295000Y-123424000D01*
X192295000Y-123444000D01*
X193519250Y-123444000D01*
X193678000Y-123285250D01*
X193678000Y-123169690D01*
X193581327Y-122936301D01*
X193571839Y-122926814D01*
X193639431Y-122827890D01*
X193690440Y-122576000D01*
X193690440Y-122026000D01*
X193646162Y-121790683D01*
X193565752Y-121665723D01*
X193639431Y-121557890D01*
X193690440Y-121306000D01*
X193690440Y-121087428D01*
X193884434Y-120893434D01*
X193926151Y-120831000D01*
X194065439Y-120622541D01*
X194129000Y-120303000D01*
X194129000Y-119792696D01*
X194411961Y-119369214D01*
X194525000Y-118800929D01*
X194525000Y-117927071D01*
X194411961Y-117358786D01*
X194090054Y-116877017D01*
X193608285Y-116555110D01*
X193040000Y-116442071D01*
X192471715Y-116555110D01*
X191989946Y-116877017D01*
X191940964Y-116950324D01*
X191907162Y-116770683D01*
X191768090Y-116554559D01*
X191555890Y-116409569D01*
X191304000Y-116358560D01*
X191104310Y-116358560D01*
X191644433Y-115818437D01*
X191825439Y-115547543D01*
X191888999Y-115228003D01*
X191888999Y-96819999D01*
X191866482Y-96706799D01*
X191825439Y-96500459D01*
X191647665Y-96234401D01*
X191547117Y-95991057D01*
X191284327Y-95727808D01*
X190940799Y-95585162D01*
X190568833Y-95584838D01*
X190225057Y-95726883D01*
X189961808Y-95989673D01*
X189819162Y-96333201D01*
X189818838Y-96705167D01*
X189960883Y-97048943D01*
X190218999Y-97307510D01*
X190218999Y-105556653D01*
X189926670Y-105435267D01*
X189316009Y-105434735D01*
X189255764Y-105459628D01*
X189089542Y-105348562D01*
X188770001Y-105285001D01*
X188507869Y-105285001D01*
X184985000Y-101762132D01*
X184985000Y-98502532D01*
X185367073Y-98502532D01*
X185465736Y-98769387D01*
X186075461Y-98995908D01*
X186725460Y-98971856D01*
X187214264Y-98769387D01*
X187312927Y-98502532D01*
X186340000Y-97529605D01*
X185367073Y-98502532D01*
X184985000Y-98502532D01*
X184985000Y-98248069D01*
X185187468Y-98322927D01*
X186160395Y-97350000D01*
X186519605Y-97350000D01*
X187492532Y-98322927D01*
X187759387Y-98224264D01*
X187985908Y-97614539D01*
X187961856Y-96964540D01*
X187759387Y-96475736D01*
X187492532Y-96377073D01*
X186519605Y-97350000D01*
X186160395Y-97350000D01*
X185187468Y-96377073D01*
X184985000Y-96451931D01*
X184985000Y-96197468D01*
X185367073Y-96197468D01*
X186340000Y-97170395D01*
X187312927Y-96197468D01*
X187214264Y-95930613D01*
X186604539Y-95704092D01*
X185954540Y-95728144D01*
X185465736Y-95930613D01*
X185367073Y-96197468D01*
X184985000Y-96197468D01*
X184985000Y-94206893D01*
X185412637Y-94635278D01*
X186013352Y-94884716D01*
X186663795Y-94885284D01*
X187264943Y-94636894D01*
X187725278Y-94177363D01*
X187764478Y-94082958D01*
X187915087Y-94053000D01*
X189738000Y-94053000D01*
X190057541Y-93989439D01*
X190328434Y-93808434D01*
X194900434Y-89236434D01*
X194972946Y-89127912D01*
X194974219Y-89126007D01*
X195107930Y-89326120D01*
X195638363Y-89680543D01*
X196264050Y-89805000D01*
X196735950Y-89805000D01*
X197361637Y-89680543D01*
X197892070Y-89326120D01*
X198246493Y-88795687D01*
X198370950Y-88170000D01*
X198246493Y-87544313D01*
X197892070Y-87013880D01*
X197361637Y-86659457D01*
X196735950Y-86535000D01*
X196264050Y-86535000D01*
X195638363Y-86659457D01*
X195145000Y-86989111D01*
X195145000Y-81879868D01*
X196424434Y-80600434D01*
X196605439Y-80329540D01*
X196625948Y-80226434D01*
X196669000Y-80010000D01*
X196646280Y-79895780D01*
X196646280Y-79217664D01*
X196787664Y-79159245D01*
X197273599Y-78674157D01*
X197536910Y-78040035D01*
X197537509Y-77353417D01*
X197275305Y-76718836D01*
X196790217Y-76232901D01*
X196156095Y-75969590D01*
X195469477Y-75968991D01*
X194834896Y-76231195D01*
X194511933Y-76553596D01*
X194191797Y-76232901D01*
X193557675Y-75969590D01*
X192871057Y-75968991D01*
X192236476Y-76231195D01*
X191750541Y-76716283D01*
X191487230Y-77350405D01*
X191486631Y-78037023D01*
X191748835Y-78671604D01*
X192173255Y-79096765D01*
X192095020Y-79175000D01*
X189152394Y-79175000D01*
X189190524Y-79159245D01*
X189676459Y-78674157D01*
X189939770Y-78040035D01*
X189940369Y-77353417D01*
X189678165Y-76718836D01*
X189193077Y-76232901D01*
X188558955Y-75969590D01*
X187872337Y-75968991D01*
X187237756Y-76231195D01*
X186914793Y-76553596D01*
X186594657Y-76232901D01*
X185960535Y-75969590D01*
X185273917Y-75968991D01*
X184639336Y-76231195D01*
X184153401Y-76716283D01*
X183890090Y-77350405D01*
X183889681Y-77819450D01*
X182626000Y-79083132D01*
X182532434Y-78989566D01*
X182261541Y-78808561D01*
X181942000Y-78745000D01*
X177470000Y-78745000D01*
X177150459Y-78808561D01*
X177066651Y-78864560D01*
X176879565Y-78989566D01*
X175177566Y-80691566D01*
X174996561Y-80962459D01*
X174933000Y-81282000D01*
X174933000Y-90332132D01*
X171950132Y-93315000D01*
X162520000Y-93315000D01*
X162200459Y-93378561D01*
X162014048Y-93503117D01*
X161929566Y-93559566D01*
X160934132Y-94555000D01*
X157610987Y-94555000D01*
X157734820Y-94256777D01*
X157735179Y-93845029D01*
X157577942Y-93464485D01*
X157287046Y-93173081D01*
X156906777Y-93015180D01*
X156495029Y-93014821D01*
X156114485Y-93172058D01*
X155823081Y-93462954D01*
X155665180Y-93843223D01*
X155664821Y-94254971D01*
X155788790Y-94555000D01*
X153600987Y-94555000D01*
X153724820Y-94256777D01*
X153725179Y-93845029D01*
X153567942Y-93464485D01*
X153277046Y-93173081D01*
X153228488Y-93152918D01*
X153334838Y-92896799D01*
X153335162Y-92524833D01*
X153233729Y-92279345D01*
X153171439Y-91966195D01*
X153049167Y-91783203D01*
X153255515Y-91697942D01*
X153546919Y-91407046D01*
X153704820Y-91026777D01*
X153705179Y-90615029D01*
X153547942Y-90234485D01*
X153257046Y-89943081D01*
X152876777Y-89785180D01*
X152465029Y-89784821D01*
X152084485Y-89942058D01*
X151793081Y-90232954D01*
X151715331Y-90420199D01*
X143254698Y-81959566D01*
X143189630Y-81916089D01*
X142983805Y-81778561D01*
X142664264Y-81715000D01*
X128343000Y-81715000D01*
X128343000Y-80554997D01*
X128524000Y-80591000D01*
X170688000Y-80591000D01*
X171007541Y-80527439D01*
X171278434Y-80346434D01*
X171459439Y-80075541D01*
X171523000Y-79756000D01*
X171523000Y-78405234D01*
X171622838Y-78164799D01*
X171623162Y-77792833D01*
X171481117Y-77449057D01*
X171218327Y-77185808D01*
X170985039Y-77088938D01*
X171216943Y-76993117D01*
X171480192Y-76730327D01*
X171622838Y-76386799D01*
X171623162Y-76014833D01*
X171481117Y-75671057D01*
X171218327Y-75407808D01*
X170874799Y-75265162D01*
X170502833Y-75264838D01*
X170159057Y-75406883D01*
X169895808Y-75669673D01*
X169795222Y-75911910D01*
X168564132Y-77143000D01*
X168067234Y-77143000D01*
X167826799Y-77043162D01*
X167454833Y-77042838D01*
X167111057Y-77184883D01*
X166847808Y-77447673D01*
X166705162Y-77791201D01*
X166704838Y-78163167D01*
X166846883Y-78506943D01*
X167109673Y-78770192D01*
X167453201Y-78912838D01*
X167825167Y-78913162D01*
X168067578Y-78813000D01*
X168910000Y-78813000D01*
X169229541Y-78749439D01*
X169500434Y-78568434D01*
X169797532Y-78271336D01*
X169853000Y-78405578D01*
X169853000Y-78921000D01*
X165177852Y-78921000D01*
X165177852Y-78410086D01*
X165277690Y-78169651D01*
X165278014Y-77797685D01*
X165135969Y-77453909D01*
X164873179Y-77190660D01*
X164631614Y-77090353D01*
X164866943Y-76993117D01*
X165130192Y-76730327D01*
X165272838Y-76386799D01*
X165273162Y-76014833D01*
X165131117Y-75671057D01*
X164868327Y-75407808D01*
X164524799Y-75265162D01*
X164152833Y-75264838D01*
X163809057Y-75406883D01*
X163545808Y-75669673D01*
X163445222Y-75911910D01*
X162214132Y-77143000D01*
X161717234Y-77143000D01*
X161476799Y-77043162D01*
X161104833Y-77042838D01*
X160761057Y-77184883D01*
X160497808Y-77447673D01*
X160355162Y-77791201D01*
X160354838Y-78163167D01*
X160496883Y-78506943D01*
X160759673Y-78770192D01*
X161103201Y-78912838D01*
X161475167Y-78913162D01*
X161717578Y-78813000D01*
X162560000Y-78813000D01*
X162879541Y-78749439D01*
X163150434Y-78568434D01*
X163449547Y-78269321D01*
X163507852Y-78410430D01*
X163507852Y-78921000D01*
X158823000Y-78921000D01*
X158823000Y-78405234D01*
X158922838Y-78164799D01*
X158923162Y-77792833D01*
X158781117Y-77449057D01*
X158518327Y-77185808D01*
X158285039Y-77088938D01*
X158516943Y-76993117D01*
X158780192Y-76730327D01*
X158922838Y-76386799D01*
X158923162Y-76014833D01*
X158781117Y-75671057D01*
X158518327Y-75407808D01*
X158174799Y-75265162D01*
X157802833Y-75264838D01*
X157459057Y-75406883D01*
X157195808Y-75669673D01*
X157095222Y-75911910D01*
X155864132Y-77143000D01*
X155367234Y-77143000D01*
X155126799Y-77043162D01*
X154754833Y-77042838D01*
X154411057Y-77184883D01*
X154147808Y-77447673D01*
X154005162Y-77791201D01*
X154004838Y-78163167D01*
X154146883Y-78506943D01*
X154409673Y-78770192D01*
X154753201Y-78912838D01*
X155125167Y-78913162D01*
X155367578Y-78813000D01*
X156210000Y-78813000D01*
X156529541Y-78749439D01*
X156800434Y-78568434D01*
X157097532Y-78271336D01*
X157153000Y-78405578D01*
X157153000Y-78921000D01*
X152473000Y-78921000D01*
X152473000Y-78405234D01*
X152572838Y-78164799D01*
X152573162Y-77792833D01*
X152431117Y-77449057D01*
X152168327Y-77185808D01*
X151824799Y-77043162D01*
X151721796Y-77043072D01*
X151976901Y-76787967D01*
X152217511Y-76688549D01*
X152480760Y-76425759D01*
X152623406Y-76082231D01*
X152623730Y-75710265D01*
X152481685Y-75366489D01*
X152218895Y-75103240D01*
X151875367Y-74960594D01*
X151503401Y-74960270D01*
X151159625Y-75102315D01*
X150896376Y-75365105D01*
X150795790Y-75607342D01*
X149269566Y-77133566D01*
X149263262Y-77143000D01*
X149017234Y-77143000D01*
X148776799Y-77043162D01*
X148404833Y-77042838D01*
X148061057Y-77184883D01*
X147797808Y-77447673D01*
X147655162Y-77791201D01*
X147654838Y-78163167D01*
X147796883Y-78506943D01*
X148059673Y-78770192D01*
X148403201Y-78912838D01*
X148775167Y-78913162D01*
X149017578Y-78813000D01*
X149860000Y-78813000D01*
X150179541Y-78749439D01*
X150450434Y-78568434D01*
X150631439Y-78297541D01*
X150672189Y-78092679D01*
X150702926Y-78061942D01*
X150702838Y-78163167D01*
X150803000Y-78405578D01*
X150803000Y-78921000D01*
X146123000Y-78921000D01*
X146123000Y-78405234D01*
X146222838Y-78164799D01*
X146223162Y-77792833D01*
X146081117Y-77449057D01*
X145818327Y-77185808D01*
X145474799Y-77043162D01*
X145371796Y-77043072D01*
X145576333Y-76838535D01*
X145816943Y-76739117D01*
X146080192Y-76476327D01*
X146222838Y-76132799D01*
X146223162Y-75760833D01*
X146081117Y-75417057D01*
X145818327Y-75153808D01*
X145474799Y-75011162D01*
X145102833Y-75010838D01*
X144759057Y-75152883D01*
X144495808Y-75415673D01*
X144395222Y-75657910D01*
X142910132Y-77143000D01*
X142667234Y-77143000D01*
X142426799Y-77043162D01*
X142054833Y-77042838D01*
X141711057Y-77184883D01*
X141447808Y-77447673D01*
X141305162Y-77791201D01*
X141304838Y-78163167D01*
X141446883Y-78506943D01*
X141709673Y-78770192D01*
X142053201Y-78912838D01*
X142425167Y-78913162D01*
X142667578Y-78813000D01*
X143256000Y-78813000D01*
X143575541Y-78749439D01*
X143846434Y-78568434D01*
X144352926Y-78061942D01*
X144352838Y-78163167D01*
X144453000Y-78405578D01*
X144453000Y-78921000D01*
X139825000Y-78921000D01*
X139825000Y-78417234D01*
X139924838Y-78176799D01*
X139925162Y-77804833D01*
X139783117Y-77461057D01*
X139520327Y-77197808D01*
X139176799Y-77055162D01*
X139009851Y-77055017D01*
X139226333Y-76838535D01*
X139466943Y-76739117D01*
X139730192Y-76476327D01*
X139872838Y-76132799D01*
X139873162Y-75760833D01*
X139731117Y-75417057D01*
X139468327Y-75153808D01*
X139124799Y-75011162D01*
X138752833Y-75010838D01*
X138409057Y-75152883D01*
X138145808Y-75415673D01*
X138045222Y-75657910D01*
X136542990Y-77160142D01*
X136334376Y-77160142D01*
X136093941Y-77060304D01*
X135721975Y-77059980D01*
X135378199Y-77202025D01*
X135114950Y-77464815D01*
X134972304Y-77808343D01*
X134971980Y-78180309D01*
X135114025Y-78524085D01*
X135376815Y-78787334D01*
X135698717Y-78921000D01*
X133423000Y-78921000D01*
X133423000Y-78405234D01*
X133522838Y-78164799D01*
X133523162Y-77792833D01*
X133381117Y-77449057D01*
X133118327Y-77185808D01*
X132885039Y-77088938D01*
X133116943Y-76993117D01*
X133380192Y-76730327D01*
X133522838Y-76386799D01*
X133523162Y-76014833D01*
X133381117Y-75671057D01*
X133118327Y-75407808D01*
X132774799Y-75265162D01*
X132402833Y-75264838D01*
X132059057Y-75406883D01*
X131795808Y-75669673D01*
X131695222Y-75911910D01*
X130464132Y-77143000D01*
X129967234Y-77143000D01*
X129726799Y-77043162D01*
X129354833Y-77042838D01*
X129011057Y-77184883D01*
X128752949Y-77442541D01*
X128524000Y-77397000D01*
X127853869Y-77397000D01*
X127590434Y-77133566D01*
X127547360Y-77104785D01*
X127319541Y-76952561D01*
X127000000Y-76889000D01*
X126627234Y-76889000D01*
X126386799Y-76789162D01*
X126014833Y-76788838D01*
X125671057Y-76930883D01*
X125618738Y-76983111D01*
X125603763Y-76993117D01*
X125393565Y-77133566D01*
X124885567Y-77641565D01*
X124885566Y-77641566D01*
X124704561Y-77912459D01*
X124641000Y-78232000D01*
X124641000Y-92618132D01*
X123606132Y-93653000D01*
X120561000Y-93653000D01*
X120561000Y-93491275D01*
X120470639Y-93037000D01*
X123190000Y-93037000D01*
X123509541Y-92973439D01*
X123780434Y-92792434D01*
X124034434Y-92538434D01*
X124074440Y-92478561D01*
X124215439Y-92267541D01*
X124279000Y-91948000D01*
X124279000Y-80254000D01*
X124273517Y-80226434D01*
X124215440Y-79934460D01*
X124034434Y-79663566D01*
X123600434Y-79229566D01*
X123574622Y-79212319D01*
X123329541Y-79048561D01*
X123010000Y-78985000D01*
X117500000Y-78985000D01*
X117180459Y-79048561D01*
X116935378Y-79212319D01*
X116909566Y-79229566D01*
X116249566Y-79889566D01*
X116068561Y-80160459D01*
X116005000Y-80480000D01*
X116005000Y-82458132D01*
X113446132Y-85017000D01*
X111089868Y-85017000D01*
X109604535Y-83531667D01*
X109505117Y-83291057D01*
X109242327Y-83027808D01*
X108898799Y-82885162D01*
X108526833Y-82884838D01*
X108183057Y-83026883D01*
X107919808Y-83289673D01*
X107777162Y-83633201D01*
X107776838Y-84005167D01*
X107918883Y-84348943D01*
X108181673Y-84612192D01*
X108423910Y-84712778D01*
X110046132Y-86335000D01*
X108575755Y-86335000D01*
X108424878Y-86109197D01*
X107973930Y-85807882D01*
X107442000Y-85702075D01*
X106910070Y-85807882D01*
X106459122Y-86109197D01*
X106292000Y-86359312D01*
X106292000Y-86252690D01*
X106195327Y-86019301D01*
X106016698Y-85840673D01*
X105783309Y-85744000D01*
X105187750Y-85744000D01*
X105029000Y-85902750D01*
X105029000Y-87757000D01*
X105049000Y-87757000D01*
X105049000Y-88011000D01*
X105029000Y-88011000D01*
X105029000Y-89865250D01*
X105187750Y-90024000D01*
X105783309Y-90024000D01*
X106016698Y-89927327D01*
X106195327Y-89748699D01*
X106292000Y-89515310D01*
X106292000Y-89408688D01*
X106459122Y-89658803D01*
X106607000Y-89757612D01*
X106607000Y-91686131D01*
X105234869Y-93058263D01*
X105211767Y-92942124D01*
X104900698Y-92476577D01*
X104435151Y-92165508D01*
X103886000Y-92056275D01*
X103336849Y-92165508D01*
X102871302Y-92476577D01*
X102560233Y-92942124D01*
X102451000Y-93491275D01*
X101990764Y-93491275D01*
X101990764Y-90553321D01*
X101973660Y-90467336D01*
X101968428Y-90379826D01*
X101947819Y-90337424D01*
X101938621Y-90291183D01*
X101889915Y-90218290D01*
X101851592Y-90139441D01*
X101755199Y-90012317D01*
X101658816Y-89885202D01*
X101658803Y-89885190D01*
X101658795Y-89885174D01*
X101562395Y-89758050D01*
X101562394Y-89758049D01*
X101466026Y-89630954D01*
X101466024Y-89630952D01*
X101466023Y-89630950D01*
X101369632Y-89503827D01*
X101273246Y-89376708D01*
X101273245Y-89376707D01*
X101219206Y-89305437D01*
X101217107Y-88169750D01*
X103512000Y-88169750D01*
X103512000Y-89515310D01*
X103608673Y-89748699D01*
X103787302Y-89927327D01*
X104020691Y-90024000D01*
X104616250Y-90024000D01*
X104775000Y-89865250D01*
X104775000Y-88011000D01*
X103670750Y-88011000D01*
X103512000Y-88169750D01*
X101217107Y-88169750D01*
X101216230Y-87695247D01*
X101213565Y-86252690D01*
X103512000Y-86252690D01*
X103512000Y-87598250D01*
X103670750Y-87757000D01*
X104775000Y-87757000D01*
X104775000Y-85902750D01*
X104616250Y-85744000D01*
X104020691Y-85744000D01*
X103787302Y-85840673D01*
X103608673Y-86019301D01*
X103512000Y-86252690D01*
X101213565Y-86252690D01*
X101212830Y-85855426D01*
X101209430Y-84015608D01*
X101206030Y-82175791D01*
X101202630Y-80335970D01*
X101199230Y-78496152D01*
X101198483Y-78091803D01*
X102578211Y-78091803D01*
X102840415Y-78726384D01*
X103325503Y-79212319D01*
X103959625Y-79475630D01*
X104646243Y-79476229D01*
X105280824Y-79214025D01*
X105603787Y-78891624D01*
X105923923Y-79212319D01*
X106558045Y-79475630D01*
X107244663Y-79476229D01*
X107879244Y-79214025D01*
X108365179Y-78728937D01*
X108628490Y-78094815D01*
X108628492Y-78091803D01*
X110175351Y-78091803D01*
X110437555Y-78726384D01*
X110922643Y-79212319D01*
X111556765Y-79475630D01*
X112243383Y-79476229D01*
X112877964Y-79214025D01*
X113200927Y-78891624D01*
X113521063Y-79212319D01*
X113665000Y-79272087D01*
X113665000Y-82258132D01*
X112938132Y-82985000D01*
X112695234Y-82985000D01*
X112454799Y-82885162D01*
X112082833Y-82884838D01*
X111739057Y-83026883D01*
X111475808Y-83289673D01*
X111333162Y-83633201D01*
X111332838Y-84005167D01*
X111474883Y-84348943D01*
X111737673Y-84612192D01*
X112081201Y-84754838D01*
X112453167Y-84755162D01*
X112695578Y-84655000D01*
X113284000Y-84655000D01*
X113603541Y-84591439D01*
X113874434Y-84410434D01*
X115090434Y-83194434D01*
X115271440Y-82923540D01*
X115335000Y-82604000D01*
X115335000Y-79272444D01*
X115476384Y-79214025D01*
X115962319Y-78728937D01*
X116225630Y-78094815D01*
X116226229Y-77408197D01*
X115964025Y-76773616D01*
X115478937Y-76287681D01*
X114844815Y-76024370D01*
X114158197Y-76023771D01*
X113523616Y-76285975D01*
X113200653Y-76608376D01*
X112880517Y-76287681D01*
X112246395Y-76024370D01*
X111559777Y-76023771D01*
X110925196Y-76285975D01*
X110439261Y-76771063D01*
X110175950Y-77405185D01*
X110175351Y-78091803D01*
X108628492Y-78091803D01*
X108629089Y-77408197D01*
X108366885Y-76773616D01*
X107881797Y-76287681D01*
X107247675Y-76024370D01*
X106561057Y-76023771D01*
X105926476Y-76285975D01*
X105603513Y-76608376D01*
X105283377Y-76287681D01*
X104649255Y-76024370D01*
X103962637Y-76023771D01*
X103328056Y-76285975D01*
X102842121Y-76771063D01*
X102578810Y-77405185D01*
X102578211Y-78091803D01*
X101198483Y-78091803D01*
X101195830Y-76656331D01*
X101192857Y-75047832D01*
X101219560Y-75012669D01*
X101302858Y-74902981D01*
X101386158Y-74793290D01*
X101386161Y-74793283D01*
X101386165Y-74793280D01*
X101469456Y-74683597D01*
X101469458Y-74683595D01*
X101719358Y-74354522D01*
X101757848Y-74275478D01*
X101806688Y-74202383D01*
X101815837Y-74156389D01*
X101836369Y-74114223D01*
X101841679Y-74026471D01*
X101858831Y-73940245D01*
X101858831Y-73059359D01*
X103150506Y-73059359D01*
X103338128Y-73513437D01*
X103685235Y-73861151D01*
X104138986Y-74049565D01*
X104630299Y-74049994D01*
X104824895Y-73969588D01*
X108363517Y-73969588D01*
X108473311Y-74245878D01*
X109115978Y-74487587D01*
X109802223Y-74464959D01*
X110331129Y-74245878D01*
X110440923Y-73969588D01*
X109402220Y-72930885D01*
X108363517Y-73969588D01*
X104824895Y-73969588D01*
X105084377Y-73862372D01*
X105432091Y-73515265D01*
X105620505Y-73061514D01*
X105620934Y-72570201D01*
X105577482Y-72465038D01*
X107665913Y-72465038D01*
X107688541Y-73151283D01*
X107907622Y-73680189D01*
X108183912Y-73789983D01*
X109222615Y-72751280D01*
X109581825Y-72751280D01*
X110620528Y-73789983D01*
X110896818Y-73680189D01*
X111130314Y-73059359D01*
X113183506Y-73059359D01*
X113371128Y-73513437D01*
X113718235Y-73861151D01*
X114171986Y-74049565D01*
X114663299Y-74049994D01*
X115117377Y-73862372D01*
X115465091Y-73515265D01*
X115653505Y-73061514D01*
X115653934Y-72570201D01*
X115466312Y-72116123D01*
X115119205Y-71768409D01*
X114665454Y-71579995D01*
X114174141Y-71579566D01*
X113720063Y-71767188D01*
X113372349Y-72114295D01*
X113183935Y-72568046D01*
X113183506Y-73059359D01*
X111130314Y-73059359D01*
X111138527Y-73037522D01*
X111115899Y-72351277D01*
X110896818Y-71822371D01*
X110620528Y-71712577D01*
X109581825Y-72751280D01*
X109222615Y-72751280D01*
X108183912Y-71712577D01*
X107907622Y-71822371D01*
X107665913Y-72465038D01*
X105577482Y-72465038D01*
X105433312Y-72116123D01*
X105086205Y-71768409D01*
X104632454Y-71579995D01*
X104141141Y-71579566D01*
X103687063Y-71767188D01*
X103339349Y-72114295D01*
X103150935Y-72568046D01*
X103150506Y-73059359D01*
X101858831Y-73059359D01*
X101858831Y-72474594D01*
X101923498Y-71817520D01*
X102009020Y-71532972D01*
X108363517Y-71532972D01*
X109402220Y-72571675D01*
X110440923Y-71532972D01*
X110331129Y-71256682D01*
X109688462Y-71014973D01*
X109002217Y-71037601D01*
X108473311Y-71256682D01*
X108363517Y-71532972D01*
X102009020Y-71532972D01*
X102099788Y-71230976D01*
X102246172Y-70950693D01*
X118654485Y-70950693D01*
X118661098Y-71018131D01*
X118654485Y-71085569D01*
X118683625Y-71380119D01*
X118703242Y-71444687D01*
X118709889Y-71511843D01*
X118795139Y-71792386D01*
X118826816Y-71851580D01*
X118846274Y-71915837D01*
X118984368Y-72174495D01*
X119027154Y-72226681D01*
X119058938Y-72286208D01*
X119246609Y-72515091D01*
X119298970Y-72558101D01*
X119341985Y-72610468D01*
X119570870Y-72798141D01*
X119630401Y-72829927D01*
X119682585Y-72872711D01*
X119941242Y-73010805D01*
X120005500Y-73030263D01*
X120064690Y-73061938D01*
X120345234Y-73147189D01*
X120412391Y-73153836D01*
X120476960Y-73173454D01*
X120771510Y-73202594D01*
X120838948Y-73195981D01*
X120906386Y-73202594D01*
X121200936Y-73173454D01*
X121265505Y-73153836D01*
X121332662Y-73147189D01*
X121613206Y-73061938D01*
X121672399Y-73030261D01*
X121736654Y-73010804D01*
X121995312Y-72872711D01*
X122047497Y-72829926D01*
X122107026Y-72798141D01*
X122335911Y-72610468D01*
X122378925Y-72558102D01*
X122431287Y-72515091D01*
X122618958Y-72286209D01*
X122650743Y-72226680D01*
X122693528Y-72174495D01*
X122831622Y-71915837D01*
X122851080Y-71851580D01*
X122882757Y-71792386D01*
X122968007Y-71511843D01*
X122974654Y-71444685D01*
X122994271Y-71380119D01*
X123023411Y-71085569D01*
X123020081Y-71051604D01*
X123026739Y-71018131D01*
X123020081Y-70984658D01*
X123023411Y-70950693D01*
X176991366Y-70950693D01*
X176997979Y-71018131D01*
X176991366Y-71085569D01*
X177020506Y-71380119D01*
X177040123Y-71444687D01*
X177046770Y-71511843D01*
X177132020Y-71792386D01*
X177163698Y-71851582D01*
X177183156Y-71915839D01*
X177321251Y-72174497D01*
X177364036Y-72226682D01*
X177395821Y-72286210D01*
X177583493Y-72515093D01*
X177635856Y-72558105D01*
X177678868Y-72610468D01*
X177907753Y-72798141D01*
X177967282Y-72829926D01*
X178019467Y-72872711D01*
X178278123Y-73010804D01*
X178342380Y-73030262D01*
X178401572Y-73061938D01*
X178682115Y-73147189D01*
X178749272Y-73153836D01*
X178813841Y-73173454D01*
X179108391Y-73202594D01*
X179175829Y-73195981D01*
X179243267Y-73202594D01*
X179537820Y-73173454D01*
X179602389Y-73153836D01*
X179669546Y-73147189D01*
X179950089Y-73061938D01*
X180009281Y-73030262D01*
X180073538Y-73010804D01*
X180085197Y-73004579D01*
X184461786Y-73004579D01*
X184649408Y-73458657D01*
X184996515Y-73806371D01*
X185450266Y-73994785D01*
X185941579Y-73995214D01*
X186136175Y-73914808D01*
X189674797Y-73914808D01*
X189784591Y-74191098D01*
X190427258Y-74432807D01*
X191113503Y-74410179D01*
X191642409Y-74191098D01*
X191752203Y-73914808D01*
X190713500Y-72876105D01*
X189674797Y-73914808D01*
X186136175Y-73914808D01*
X186395657Y-73807592D01*
X186743371Y-73460485D01*
X186931785Y-73006734D01*
X186932214Y-72515421D01*
X186888762Y-72410258D01*
X188977193Y-72410258D01*
X188999821Y-73096503D01*
X189218902Y-73625409D01*
X189495192Y-73735203D01*
X190533895Y-72696500D01*
X190893105Y-72696500D01*
X191931808Y-73735203D01*
X192208098Y-73625409D01*
X192441594Y-73004579D01*
X194494786Y-73004579D01*
X194682408Y-73458657D01*
X195029515Y-73806371D01*
X195483266Y-73994785D01*
X195974579Y-73995214D01*
X196428657Y-73807592D01*
X196776371Y-73460485D01*
X196964785Y-73006734D01*
X196965214Y-72515421D01*
X196777592Y-72061343D01*
X196430485Y-71713629D01*
X195976734Y-71525215D01*
X195485421Y-71524786D01*
X195031343Y-71712408D01*
X194683629Y-72059515D01*
X194495215Y-72513266D01*
X194494786Y-73004579D01*
X192441594Y-73004579D01*
X192449807Y-72982742D01*
X192427179Y-72296497D01*
X192208098Y-71767591D01*
X191931808Y-71657797D01*
X190893105Y-72696500D01*
X190533895Y-72696500D01*
X189495192Y-71657797D01*
X189218902Y-71767591D01*
X188977193Y-72410258D01*
X186888762Y-72410258D01*
X186744592Y-72061343D01*
X186397485Y-71713629D01*
X185943734Y-71525215D01*
X185452421Y-71524786D01*
X184998343Y-71712408D01*
X184650629Y-72059515D01*
X184462215Y-72513266D01*
X184461786Y-73004579D01*
X180085197Y-73004579D01*
X180332194Y-72872711D01*
X180384379Y-72829926D01*
X180443908Y-72798141D01*
X180672793Y-72610468D01*
X180715805Y-72558104D01*
X180768168Y-72515093D01*
X180955840Y-72286210D01*
X180987625Y-72226682D01*
X181030410Y-72174497D01*
X181168505Y-71915839D01*
X181187964Y-71851581D01*
X181219641Y-71792386D01*
X181304891Y-71511843D01*
X181308221Y-71478192D01*
X189674797Y-71478192D01*
X190713500Y-72516895D01*
X191752203Y-71478192D01*
X191642409Y-71201902D01*
X190999742Y-70960193D01*
X190313497Y-70982821D01*
X189784591Y-71201902D01*
X189674797Y-71478192D01*
X181308221Y-71478192D01*
X181311538Y-71444685D01*
X181331155Y-71380119D01*
X181360295Y-71085569D01*
X181356965Y-71051604D01*
X181363623Y-71018131D01*
X181356965Y-70984658D01*
X181360295Y-70950693D01*
X181331155Y-70656142D01*
X181311538Y-70591576D01*
X181304891Y-70524418D01*
X181219641Y-70243875D01*
X181187964Y-70184681D01*
X181168505Y-70120421D01*
X181030409Y-69861764D01*
X180987626Y-69809582D01*
X180955842Y-69750054D01*
X180768170Y-69521169D01*
X180715803Y-69478154D01*
X180672790Y-69425790D01*
X180443905Y-69238119D01*
X180384380Y-69206336D01*
X180332196Y-69163552D01*
X180073540Y-69025458D01*
X180009282Y-69006000D01*
X179950087Y-68974322D01*
X179669544Y-68889072D01*
X179602388Y-68882425D01*
X179537820Y-68862808D01*
X179243267Y-68833668D01*
X179175829Y-68840281D01*
X179108391Y-68833668D01*
X178813841Y-68862808D01*
X178749275Y-68882425D01*
X178682117Y-68889072D01*
X178401574Y-68974322D01*
X178342379Y-69006000D01*
X178278121Y-69025458D01*
X178019465Y-69163552D01*
X177967281Y-69206337D01*
X177907756Y-69238119D01*
X177678871Y-69425790D01*
X177635856Y-69478156D01*
X177583491Y-69521170D01*
X177395819Y-69750054D01*
X177364035Y-69809581D01*
X177321252Y-69861764D01*
X177183157Y-70120421D01*
X177163699Y-70184677D01*
X177132020Y-70243875D01*
X177046770Y-70524418D01*
X177040123Y-70591574D01*
X177020506Y-70656142D01*
X176991366Y-70950693D01*
X123023411Y-70950693D01*
X122994271Y-70656142D01*
X122974654Y-70591576D01*
X122968007Y-70524418D01*
X122882757Y-70243875D01*
X122851079Y-70184678D01*
X122831621Y-70120423D01*
X122693527Y-69861766D01*
X122650744Y-69809583D01*
X122618960Y-69750056D01*
X122431289Y-69521171D01*
X122378923Y-69478156D01*
X122335908Y-69425790D01*
X122107023Y-69238119D01*
X122047499Y-69206337D01*
X121995313Y-69163551D01*
X121736656Y-69025458D01*
X121672402Y-69006001D01*
X121613204Y-68974322D01*
X121332659Y-68889072D01*
X121265504Y-68882425D01*
X121200936Y-68862808D01*
X120906386Y-68833668D01*
X120838948Y-68840281D01*
X120771510Y-68833668D01*
X120476960Y-68862808D01*
X120412392Y-68882425D01*
X120345237Y-68889072D01*
X120064693Y-68974322D01*
X120005496Y-69006000D01*
X119941240Y-69025458D01*
X119682583Y-69163552D01*
X119630400Y-69206335D01*
X119570873Y-69238119D01*
X119341988Y-69425790D01*
X119298973Y-69478156D01*
X119246607Y-69521171D01*
X119058936Y-69750056D01*
X119027154Y-69809580D01*
X118984368Y-69861766D01*
X118846275Y-70120423D01*
X118826818Y-70184678D01*
X118795139Y-70243875D01*
X118709889Y-70524418D01*
X118703242Y-70591574D01*
X118683625Y-70656142D01*
X118654485Y-70950693D01*
X102246172Y-70950693D01*
X102379833Y-70694774D01*
X102751421Y-70224560D01*
X103201340Y-69835748D01*
X103716474Y-69542354D01*
X104285707Y-69356850D01*
X104938355Y-69287863D01*
X115972317Y-69287863D01*
X116234455Y-69235720D01*
X116456685Y-69087231D01*
X116605174Y-68865001D01*
X116657317Y-68602863D01*
X116657317Y-68312793D01*
X183461877Y-68312793D01*
X183461877Y-68603443D01*
X183461877Y-68603443D01*
G37*
X183461877Y-68603443D02*
X183514020Y-68865581D01*
X183662509Y-69087811D01*
X183884739Y-69236300D01*
X184146877Y-69288443D01*
X195076206Y-69288443D01*
X195729985Y-69357339D01*
X196301604Y-69542835D01*
X196819378Y-69836322D01*
X197271455Y-70225186D01*
X197644274Y-70695327D01*
X197924375Y-71231426D01*
X198099351Y-71818175D01*
X198161129Y-72479012D01*
X198161129Y-73943620D01*
X198177839Y-74027627D01*
X198182440Y-74113153D01*
X198203676Y-74157518D01*
X198213272Y-74205758D01*
X198260857Y-74276975D01*
X198297838Y-74354231D01*
X198380038Y-74463994D01*
X198380041Y-74463997D01*
X198380043Y-74464001D01*
X198462238Y-74573752D01*
X198544438Y-74683515D01*
X198544440Y-74683517D01*
X198626638Y-74793277D01*
X198626641Y-74793280D01*
X198626643Y-74793284D01*
X198708836Y-74903032D01*
X198708836Y-74903033D01*
X198791036Y-75012796D01*
X198791042Y-75012801D01*
X198791045Y-75012808D01*
X198818057Y-75048875D01*
X198815430Y-76654556D01*
X198815430Y-76654557D01*
X198812430Y-78488519D01*
X198812430Y-78488520D01*
X198809430Y-80322481D01*
X198809430Y-80322482D01*
X198806430Y-82156443D01*
X198806430Y-82156444D01*
X198803430Y-83990404D01*
X198803430Y-83990405D01*
X198800430Y-85824366D01*
X198800430Y-85824367D01*
X198797430Y-87658328D01*
X198797430Y-87658329D01*
X198794758Y-89292068D01*
X198739658Y-89377976D01*
X198576498Y-89632360D01*
X198576497Y-89632363D01*
X198576494Y-89632366D01*
X198494918Y-89759555D01*
X198413338Y-89886747D01*
X198413337Y-89886748D01*
X198413335Y-89886751D01*
X198331758Y-90013941D01*
X198250178Y-90141133D01*
X198227857Y-90198013D01*
X198193912Y-90248816D01*
X198179510Y-90321217D01*
X198152544Y-90389936D01*
X198153690Y-90451026D01*
X198141769Y-90510954D01*
X198141769Y-97547582D01*
X197892070Y-97173880D01*
X197361637Y-96819457D01*
X196735950Y-96695000D01*
X196264050Y-96695000D01*
X195638363Y-96819457D01*
X195107930Y-97173880D01*
X194753507Y-97704313D01*
X194629050Y-98330000D01*
X194753507Y-98955687D01*
X195107930Y-99486120D01*
X195638363Y-99840543D01*
X196264050Y-99965000D01*
X196735950Y-99965000D01*
X197361637Y-99840543D01*
X197892070Y-99486120D01*
X198141769Y-99112418D01*
X198141769Y-128626534D01*
X198076960Y-129277292D01*
X197901011Y-129853689D01*
X197621999Y-130378337D01*
X197252036Y-130837308D01*
X196804182Y-131216362D01*
X196291596Y-131502207D01*
X195726000Y-131682757D01*
X195080035Y-131749716D01*
X104938503Y-131749716D01*
X104302034Y-131681484D01*
X103755451Y-131499505D01*
X103264949Y-131212401D01*
X102838277Y-130831824D01*
X102486361Y-130370970D01*
X102221024Y-129844987D01*
X102053488Y-129270187D01*
X101990764Y-128630864D01*
X101990764Y-124011750D01*
X117735000Y-124011750D01*
X117735000Y-127352310D01*
X117831673Y-127585699D01*
X118010302Y-127764327D01*
X118243691Y-127861000D01*
X120084250Y-127861000D01*
X120243000Y-127702250D01*
X120243000Y-123853000D01*
X120497000Y-123853000D01*
X120497000Y-127702250D01*
X120655750Y-127861000D01*
X122496309Y-127861000D01*
X122729698Y-127764327D01*
X122908327Y-127585699D01*
X123005000Y-127352310D01*
X123005000Y-124011750D01*
X122846250Y-123853000D01*
X120497000Y-123853000D01*
X120243000Y-123853000D01*
X117893750Y-123853000D01*
X117735000Y-124011750D01*
X101990764Y-124011750D01*
X101990764Y-120099690D01*
X117735000Y-120099690D01*
X117735000Y-123440250D01*
X117893750Y-123599000D01*
X120243000Y-123599000D01*
X120243000Y-119749750D01*
X120497000Y-119749750D01*
X120497000Y-123599000D01*
X122846250Y-123599000D01*
X123005000Y-123440250D01*
X123005000Y-120099690D01*
X122908327Y-119866301D01*
X122729698Y-119687673D01*
X122496309Y-119591000D01*
X120655750Y-119591000D01*
X120497000Y-119749750D01*
X120243000Y-119749750D01*
X120084250Y-119591000D01*
X118243691Y-119591000D01*
X118010302Y-119687673D01*
X117831673Y-119866301D01*
X117735000Y-120099690D01*
X101990764Y-120099690D01*
X101990764Y-115550159D01*
X109489446Y-115550159D01*
X109575852Y-115806643D01*
X110149336Y-116016458D01*
X110759460Y-115990839D01*
X111204148Y-115806643D01*
X111290554Y-115550159D01*
X110390000Y-114649605D01*
X109489446Y-115550159D01*
X101990764Y-115550159D01*
X101990764Y-114229336D01*
X108843542Y-114229336D01*
X108869161Y-114839460D01*
X109053357Y-115284148D01*
X109309841Y-115370554D01*
X110210395Y-114470000D01*
X110569605Y-114470000D01*
X111470159Y-115370554D01*
X111523823Y-115352475D01*
X122447400Y-115352475D01*
X122447400Y-116445925D01*
X122590887Y-117167283D01*
X122999504Y-117778821D01*
X123611042Y-118187438D01*
X124332400Y-118330925D01*
X125053758Y-118187438D01*
X125665296Y-117778821D01*
X126073913Y-117167283D01*
X126217400Y-116445925D01*
X126217400Y-115403275D01*
X127375000Y-115403275D01*
X127375000Y-116496725D01*
X127518487Y-117218083D01*
X127927104Y-117829621D01*
X128538642Y-118238238D01*
X129260000Y-118381725D01*
X129981358Y-118238238D01*
X130592896Y-117829621D01*
X131001513Y-117218083D01*
X131145000Y-116496725D01*
X131145000Y-115403275D01*
X131001513Y-114681917D01*
X130795101Y-114373000D01*
X132804899Y-114373000D01*
X132598487Y-114681917D01*
X132455000Y-115403275D01*
X132455000Y-116496725D01*
X132598487Y-117218083D01*
X133007104Y-117829621D01*
X133618642Y-118238238D01*
X134340000Y-118381725D01*
X135061358Y-118238238D01*
X135672896Y-117829621D01*
X136081513Y-117218083D01*
X136225000Y-116496725D01*
X136225000Y-116312999D01*
X136232526Y-116312999D01*
X136266335Y-116363598D01*
X136366883Y-116606943D01*
X136629673Y-116870192D01*
X136973201Y-117012838D01*
X137345167Y-117013162D01*
X137688943Y-116871117D01*
X137952192Y-116608327D01*
X138074824Y-116312999D01*
X138246131Y-116312999D01*
X141093465Y-119160333D01*
X141192883Y-119400943D01*
X141455673Y-119664192D01*
X141799201Y-119806838D01*
X142171167Y-119807162D01*
X142514943Y-119665117D01*
X142778192Y-119402327D01*
X142920838Y-119058799D01*
X142921162Y-118686833D01*
X142779117Y-118343057D01*
X142516327Y-118079808D01*
X142274090Y-117979222D01*
X139182433Y-114887565D01*
X139161443Y-114873540D01*
X138911540Y-114706560D01*
X138591999Y-114642999D01*
X136055509Y-114642999D01*
X135875101Y-114373000D01*
X141640132Y-114373000D01*
X142109465Y-114842333D01*
X142208883Y-115082943D01*
X142471673Y-115346192D01*
X142815201Y-115488838D01*
X143187167Y-115489162D01*
X143530943Y-115347117D01*
X143794192Y-115084327D01*
X143936838Y-114740799D01*
X143937162Y-114368833D01*
X143795117Y-114025057D01*
X143532327Y-113761808D01*
X143290090Y-113661222D01*
X142576434Y-112947566D01*
X142305541Y-112766561D01*
X141986000Y-112703000D01*
X130302000Y-112703000D01*
X129982460Y-112766560D01*
X129711566Y-112947566D01*
X129111273Y-113547859D01*
X128538642Y-113661762D01*
X127927104Y-114070379D01*
X127518487Y-114681917D01*
X127375000Y-115403275D01*
X126217400Y-115403275D01*
X126217400Y-115352475D01*
X126073913Y-114631117D01*
X125665296Y-114019579D01*
X125053758Y-113610962D01*
X124332400Y-113467475D01*
X123611042Y-113610962D01*
X122999504Y-114019579D01*
X122590887Y-114631117D01*
X122447400Y-115352475D01*
X111523823Y-115352475D01*
X111726643Y-115284148D01*
X111936458Y-114710664D01*
X111910839Y-114100540D01*
X111726643Y-113655852D01*
X111470159Y-113569446D01*
X110569605Y-114470000D01*
X110210395Y-114470000D01*
X109309841Y-113569446D01*
X109053357Y-113655852D01*
X108843542Y-114229336D01*
X101990764Y-114229336D01*
X101990764Y-93491275D01*
X102451000Y-93491275D01*
X102451000Y-95484725D01*
X102560233Y-96033876D01*
X102871302Y-96499423D01*
X103336849Y-96810492D01*
X103886000Y-96919725D01*
X104435151Y-96810492D01*
X104900698Y-96499423D01*
X105211767Y-96033876D01*
X105321000Y-95484725D01*
X105321000Y-95249110D01*
X105576434Y-95078434D01*
X106871613Y-93783256D01*
X106870197Y-95405914D01*
X107574347Y-97110087D01*
X108877055Y-98415071D01*
X110579997Y-99122194D01*
X112423914Y-99123803D01*
X114128087Y-98419653D01*
X115433071Y-97116945D01*
X115751000Y-96351287D01*
X115751000Y-107604132D01*
X114800132Y-108555000D01*
X111705857Y-108555000D01*
X111692068Y-108521629D01*
X111290818Y-108119677D01*
X111690551Y-107720643D01*
X111924733Y-107156670D01*
X111925265Y-106546009D01*
X111692068Y-105981629D01*
X111260643Y-105549449D01*
X110696670Y-105315267D01*
X110086009Y-105314735D01*
X109521629Y-105547932D01*
X109089449Y-105979357D01*
X108855267Y-106543330D01*
X108854735Y-107153991D01*
X109087932Y-107718371D01*
X109489182Y-108120323D01*
X109089449Y-108519357D01*
X108855267Y-109083330D01*
X108854735Y-109693991D01*
X109087932Y-110258371D01*
X109489182Y-110660323D01*
X109089449Y-111059357D01*
X108855267Y-111623330D01*
X108854735Y-112233991D01*
X109087932Y-112798371D01*
X109519357Y-113230551D01*
X109540194Y-113239203D01*
X109489446Y-113389841D01*
X110390000Y-114290395D01*
X111290554Y-113389841D01*
X111239965Y-113239673D01*
X111258371Y-113232068D01*
X111690551Y-112800643D01*
X111924733Y-112236670D01*
X111925265Y-111626009D01*
X111692068Y-111061629D01*
X111290818Y-110659677D01*
X111690551Y-110260643D01*
X111705351Y-110225000D01*
X115146000Y-110225000D01*
X115465541Y-110161439D01*
X115736434Y-109980434D01*
X116931868Y-108785000D01*
X117094000Y-108785000D01*
X117413541Y-108721439D01*
X117573739Y-108614398D01*
X117876943Y-108489117D01*
X118140192Y-108226327D01*
X118282838Y-107882799D01*
X118283162Y-107510833D01*
X118141117Y-107167057D01*
X117878327Y-106903808D01*
X117534799Y-106761162D01*
X117421000Y-106761063D01*
X117421000Y-103204041D01*
X124080581Y-103204041D01*
X124082313Y-103213329D01*
X124080610Y-103222622D01*
X124082010Y-103315203D01*
X124083435Y-103321840D01*
X124082342Y-103328536D01*
X124085542Y-103421005D01*
X124087098Y-103427623D01*
X124086134Y-103434356D01*
X124091134Y-103526686D01*
X124092915Y-103533648D01*
X124092043Y-103540782D01*
X124098943Y-103632952D01*
X124100771Y-103639530D01*
X124100076Y-103646318D01*
X124108776Y-103738299D01*
X124110801Y-103745069D01*
X124110224Y-103752110D01*
X124120784Y-103843870D01*
X124122916Y-103850505D01*
X124122486Y-103857462D01*
X124134876Y-103948972D01*
X124137122Y-103955509D01*
X124136832Y-103962417D01*
X124151032Y-104053648D01*
X124153475Y-104060325D01*
X124153322Y-104067435D01*
X124169382Y-104158365D01*
X124171901Y-104164838D01*
X124171890Y-104171781D01*
X124189760Y-104262381D01*
X124192404Y-104268794D01*
X124192531Y-104275727D01*
X124212201Y-104365957D01*
X124215032Y-104372454D01*
X124215306Y-104379537D01*
X124236816Y-104469387D01*
X124239726Y-104475711D01*
X124240134Y-104482660D01*
X124263444Y-104572100D01*
X124266510Y-104578426D01*
X124267063Y-104585434D01*
X124292183Y-104674424D01*
X124295361Y-104680657D01*
X124296051Y-104687619D01*
X124322971Y-104776148D01*
X124326272Y-104782314D01*
X124327102Y-104789260D01*
X124355812Y-104877289D01*
X124391596Y-104941021D01*
X124415409Y-105010124D01*
X124456393Y-105056425D01*
X124486665Y-105110340D01*
X124544114Y-105155526D01*
X124592559Y-105210257D01*
X124648141Y-105237350D01*
X124696741Y-105275576D01*
X124767106Y-105295337D01*
X124832811Y-105327364D01*
X124911362Y-105348024D01*
X124977637Y-105352061D01*
X125041800Y-105369153D01*
X125109736Y-105360108D01*
X125178141Y-105364275D01*
X125240915Y-105342643D01*
X125306736Y-105333880D01*
X125461572Y-105281068D01*
X125616785Y-105228818D01*
X125616788Y-105228818D01*
X125716500Y-105195252D01*
X125749426Y-105259701D01*
X125768003Y-105283214D01*
X125778629Y-105311234D01*
X125828330Y-105390717D01*
X125749139Y-105460302D01*
X125748705Y-105460869D01*
X125748087Y-105461228D01*
X125625635Y-105569272D01*
X125502652Y-105677332D01*
X125462955Y-105729168D01*
X125413638Y-105771943D01*
X125382494Y-105834235D01*
X125340149Y-105889529D01*
X125323312Y-105952606D01*
X125294115Y-106011003D01*
X125273455Y-106086452D01*
X125267915Y-106164442D01*
X125249662Y-106240471D01*
X125258534Y-106296488D01*
X125254516Y-106353054D01*
X125279242Y-106427226D01*
X125291474Y-106504454D01*
X125321106Y-106552808D01*
X125339041Y-106606610D01*
X125390272Y-106665676D01*
X125431125Y-106732342D01*
X125556903Y-106868407D01*
X125568223Y-106876631D01*
X125576009Y-106888260D01*
X125706783Y-107018783D01*
X125718397Y-107026527D01*
X125726622Y-107037805D01*
X125862195Y-107162671D01*
X125874082Y-107169925D01*
X125882730Y-107180838D01*
X126022920Y-107299948D01*
X126035069Y-107306711D01*
X126044133Y-107317253D01*
X126188740Y-107430486D01*
X126201138Y-107436752D01*
X126210608Y-107446916D01*
X126359449Y-107554163D01*
X126372060Y-107559917D01*
X126381906Y-107569674D01*
X126534783Y-107670828D01*
X126547611Y-107676074D01*
X126557834Y-107685428D01*
X126714560Y-107780378D01*
X126727590Y-107785110D01*
X126738183Y-107794054D01*
X126898566Y-107882684D01*
X126911775Y-107886893D01*
X126922717Y-107895409D01*
X127086565Y-107977608D01*
X127099921Y-107981285D01*
X127111186Y-107989353D01*
X127278307Y-108065023D01*
X127291833Y-108068173D01*
X127303440Y-108075804D01*
X127473649Y-108144824D01*
X127487305Y-108147435D01*
X127499218Y-108154602D01*
X127672315Y-108216862D01*
X127686091Y-108218929D01*
X127698304Y-108225626D01*
X127874101Y-108281016D01*
X127887977Y-108282533D01*
X127900478Y-108288749D01*
X128078788Y-108337159D01*
X128092743Y-108338120D01*
X128105509Y-108343840D01*
X128286135Y-108385160D01*
X128366303Y-108387448D01*
X128445100Y-108402381D01*
X128498639Y-108391226D01*
X128553300Y-108392786D01*
X128628237Y-108364223D01*
X128706754Y-108347864D01*
X128751946Y-108317071D01*
X128803047Y-108297594D01*
X128861353Y-108242525D01*
X128927629Y-108197366D01*
X128984469Y-108139486D01*
X129019213Y-108086454D01*
X129064173Y-108041755D01*
X129091738Y-107975753D01*
X129130938Y-107915919D01*
X129142743Y-107853627D01*
X129167175Y-107795126D01*
X129199735Y-107633896D01*
X129199739Y-107632600D01*
X129200234Y-107631402D01*
X129232025Y-107470915D01*
X129253894Y-107362622D01*
X129430221Y-107367104D01*
X129463225Y-107361407D01*
X129478130Y-107363279D01*
X129499550Y-107469688D01*
X129531811Y-107630460D01*
X129563735Y-107791622D01*
X129588389Y-107851274D01*
X129600385Y-107914694D01*
X129638938Y-107973584D01*
X129665821Y-108038631D01*
X129711423Y-108084305D01*
X129746778Y-108138311D01*
X129801038Y-108193601D01*
X129866888Y-108238501D01*
X129924725Y-108293328D01*
X129976262Y-108313079D01*
X130021863Y-108344173D01*
X130099880Y-108360456D01*
X130174298Y-108388976D01*
X130229469Y-108387502D01*
X130283499Y-108398778D01*
X130361809Y-108383965D01*
X130441476Y-108381836D01*
X130622174Y-108340846D01*
X130634947Y-108335151D01*
X130648898Y-108334216D01*
X130827289Y-108286136D01*
X130839790Y-108279948D01*
X130853663Y-108278458D01*
X131029554Y-108223398D01*
X131041787Y-108216720D01*
X131055574Y-108214677D01*
X131228782Y-108152737D01*
X131240707Y-108145593D01*
X131254363Y-108143008D01*
X131424686Y-108074308D01*
X131436307Y-108066699D01*
X131449845Y-108063572D01*
X131617101Y-107988212D01*
X131628386Y-107980161D01*
X131641758Y-107976506D01*
X131805753Y-107894605D01*
X131816716Y-107886105D01*
X131829940Y-107881917D01*
X131990480Y-107793577D01*
X132001066Y-107784671D01*
X132014077Y-107779974D01*
X132170973Y-107685324D01*
X132181225Y-107675979D01*
X132194074Y-107670752D01*
X132248718Y-107634740D01*
X144228964Y-107634740D01*
X144241525Y-107700025D01*
X144518631Y-108233079D01*
X144978634Y-108619513D01*
X145551503Y-108800496D01*
X145793000Y-108649262D01*
X145793000Y-107397000D01*
X146047000Y-107397000D01*
X146047000Y-108649262D01*
X146288497Y-108800496D01*
X146861366Y-108619513D01*
X147321369Y-108233079D01*
X147598475Y-107700025D01*
X147611036Y-107634740D01*
X147490378Y-107397000D01*
X146047000Y-107397000D01*
X145793000Y-107397000D01*
X144349622Y-107397000D01*
X144228964Y-107634740D01*
X132248718Y-107634740D01*
X132347133Y-107569883D01*
X132357003Y-107560138D01*
X132369629Y-107554405D01*
X132518662Y-107447432D01*
X132528139Y-107437297D01*
X132540536Y-107431061D01*
X132685349Y-107318101D01*
X132694430Y-107307578D01*
X132706589Y-107300840D01*
X132846994Y-107182000D01*
X132855676Y-107171087D01*
X132867591Y-107163845D01*
X133003392Y-107039226D01*
X133011635Y-107027966D01*
X133023257Y-107020248D01*
X133154264Y-106889972D01*
X133162067Y-106878364D01*
X133173399Y-106870163D01*
X133299426Y-106734336D01*
X133338725Y-106670472D01*
X133388493Y-106614388D01*
X133408089Y-106557750D01*
X133439499Y-106506707D01*
X133451366Y-106432669D01*
X133475885Y-106361805D01*
X133472315Y-106301976D01*
X133481800Y-106242802D01*
X133464432Y-106169861D01*
X133459965Y-106095006D01*
X133439815Y-106018006D01*
X133408733Y-105954037D01*
X133389987Y-105885431D01*
X133350893Y-105835000D01*
X133323007Y-105777608D01*
X133269812Y-105730403D01*
X133226238Y-105674193D01*
X133102362Y-105566632D01*
X132979470Y-105458462D01*
X132902357Y-105390311D01*
X133015581Y-105195447D01*
X133109488Y-105227472D01*
X133110874Y-105227657D01*
X133112088Y-105228353D01*
X133269538Y-105281344D01*
X133269540Y-105281345D01*
X133427156Y-105334575D01*
X133490384Y-105342799D01*
X133550561Y-105363857D01*
X133621620Y-105359868D01*
X133692197Y-105369048D01*
X133753754Y-105352451D01*
X133817414Y-105348878D01*
X133897514Y-105328218D01*
X133965250Y-105295600D01*
X134037599Y-105275172D01*
X134084499Y-105238176D01*
X134138322Y-105212258D01*
X134188421Y-105156200D01*
X134247444Y-105109641D01*
X134276616Y-105057514D01*
X134316423Y-105012972D01*
X134341254Y-104942013D01*
X134377970Y-104876407D01*
X134406550Y-104788358D01*
X134407373Y-104781385D01*
X134410678Y-104775190D01*
X134437458Y-104686650D01*
X134438139Y-104679673D01*
X134441313Y-104673425D01*
X134466293Y-104584415D01*
X134466835Y-104577415D01*
X134469888Y-104571091D01*
X134493058Y-104481641D01*
X134493458Y-104474653D01*
X134496374Y-104468289D01*
X134517734Y-104378429D01*
X134517991Y-104371482D01*
X134520760Y-104365108D01*
X134540320Y-104274859D01*
X134540441Y-104267789D01*
X134543125Y-104261250D01*
X134560846Y-104170650D01*
X134560824Y-104163741D01*
X134563320Y-104157299D01*
X134579240Y-104066369D01*
X134579078Y-104059332D01*
X134581488Y-104052719D01*
X134595568Y-103961489D01*
X134595266Y-103954510D01*
X134597525Y-103947903D01*
X134609775Y-103856403D01*
X134609332Y-103849409D01*
X134611466Y-103842731D01*
X134621876Y-103750981D01*
X134621303Y-103744125D01*
X134623268Y-103737531D01*
X134631868Y-103645561D01*
X134631127Y-103638397D01*
X134633040Y-103631454D01*
X134639740Y-103539294D01*
X134638899Y-103532533D01*
X134640580Y-103525932D01*
X134645480Y-103433612D01*
X134644455Y-103426511D01*
X134646083Y-103419520D01*
X134649083Y-103327060D01*
X134647914Y-103319994D01*
X134649395Y-103312986D01*
X134650495Y-103220426D01*
X134648760Y-103211130D01*
X134650463Y-103201830D01*
X134649063Y-103110129D01*
X134647704Y-103103802D01*
X134648751Y-103097414D01*
X134645651Y-103005824D01*
X134644085Y-102999141D01*
X134645062Y-102992345D01*
X134640162Y-102900895D01*
X134638462Y-102894234D01*
X134639306Y-102887413D01*
X134632606Y-102796112D01*
X134630669Y-102789102D01*
X134631411Y-102781867D01*
X134622811Y-102690767D01*
X134620877Y-102684298D01*
X134621436Y-102677570D01*
X134611076Y-102586679D01*
X134608966Y-102580090D01*
X134609402Y-102573184D01*
X134597242Y-102482534D01*
X134594984Y-102475936D01*
X134595284Y-102468968D01*
X134581314Y-102378588D01*
X134578921Y-102372026D01*
X134579081Y-102365042D01*
X134563301Y-102274952D01*
X134560822Y-102268555D01*
X134560844Y-102261693D01*
X134543294Y-102171933D01*
X134540669Y-102165538D01*
X134540555Y-102158627D01*
X134521225Y-102069217D01*
X134518469Y-102062864D01*
X134518217Y-102055943D01*
X134497107Y-101966904D01*
X134494213Y-101960579D01*
X134493821Y-101953635D01*
X134470931Y-101865005D01*
X134467906Y-101858728D01*
X134467374Y-101851780D01*
X134442704Y-101763580D01*
X134439565Y-101757386D01*
X134438897Y-101750474D01*
X134412457Y-101662724D01*
X134409213Y-101656628D01*
X134408413Y-101649768D01*
X134380223Y-101562508D01*
X134345076Y-101499499D01*
X134321952Y-101431162D01*
X134280605Y-101383922D01*
X134250020Y-101329093D01*
X134193437Y-101284331D01*
X134145921Y-101230044D01*
X134089642Y-101202222D01*
X134040405Y-101163272D01*
X133971003Y-101143572D01*
X133906326Y-101111599D01*
X133823646Y-101089359D01*
X133755864Y-101084850D01*
X133690247Y-101067296D01*
X133623821Y-101076067D01*
X133556961Y-101071620D01*
X133492617Y-101093392D01*
X133425273Y-101102285D01*
X133269536Y-101155218D01*
X133114009Y-101207575D01*
X133113707Y-101207748D01*
X133113363Y-101207793D01*
X133020131Y-101239282D01*
X132981273Y-101163591D01*
X132963069Y-101140644D01*
X132952681Y-101113252D01*
X132908039Y-101041862D01*
X132981118Y-100977651D01*
X132981562Y-100977071D01*
X132982192Y-100976705D01*
X133104751Y-100868566D01*
X133227621Y-100760605D01*
X133285116Y-100685527D01*
X133350930Y-100617618D01*
X133393310Y-100551988D01*
X133410447Y-100508709D01*
X133438052Y-100471231D01*
X133459217Y-100385542D01*
X133491708Y-100303486D01*
X133490979Y-100256948D01*
X133502141Y-100211755D01*
X133488903Y-100124493D01*
X133487520Y-100036245D01*
X133469034Y-99993523D01*
X133462053Y-99947505D01*
X133416432Y-99871955D01*
X133381381Y-99790950D01*
X133347955Y-99758555D01*
X133323894Y-99718710D01*
X133196849Y-99579461D01*
X133185380Y-99571013D01*
X133177522Y-99559129D01*
X133045270Y-99425590D01*
X133033503Y-99417645D01*
X133025194Y-99406129D01*
X132887945Y-99278418D01*
X132875888Y-99270975D01*
X132867137Y-99259832D01*
X132725089Y-99138062D01*
X132712767Y-99131132D01*
X132703590Y-99120377D01*
X132556951Y-99004668D01*
X132544375Y-98998253D01*
X132534783Y-98987894D01*
X132383752Y-98878362D01*
X132370936Y-98872467D01*
X132360938Y-98862512D01*
X132205713Y-98759275D01*
X132192683Y-98753911D01*
X132182305Y-98744382D01*
X132023087Y-98647552D01*
X132009846Y-98642718D01*
X131999085Y-98633613D01*
X131836076Y-98543313D01*
X131822661Y-98539023D01*
X131811548Y-98530367D01*
X131644952Y-98446707D01*
X131631355Y-98442958D01*
X131619888Y-98434751D01*
X131449903Y-98357851D01*
X131436149Y-98354653D01*
X131424341Y-98346906D01*
X131251172Y-98276886D01*
X131237281Y-98274245D01*
X131225155Y-98266977D01*
X131048993Y-98203947D01*
X131034982Y-98201869D01*
X131022549Y-98195089D01*
X130843606Y-98139169D01*
X130829484Y-98137659D01*
X130816744Y-98131372D01*
X130635213Y-98082682D01*
X130612188Y-98081167D01*
X130590864Y-98072354D01*
X130416167Y-98037748D01*
X130416147Y-98037739D01*
X130416124Y-98037739D01*
X130414080Y-98037334D01*
X130373061Y-98037366D01*
X130333516Y-98026289D01*
X130241531Y-98037341D01*
X130148874Y-98037130D01*
X130147868Y-98037544D01*
X130146807Y-98037545D01*
X130108915Y-98053275D01*
X130068151Y-98058173D01*
X129987395Y-98103586D01*
X129901713Y-98138848D01*
X129900948Y-98139609D01*
X129899959Y-98140020D01*
X129870964Y-98169061D01*
X129835187Y-98189180D01*
X129835180Y-98189186D01*
X129777946Y-98262052D01*
X129712291Y-98327408D01*
X129665791Y-98396658D01*
X129665459Y-98397453D01*
X129664853Y-98398060D01*
X129614063Y-98520740D01*
X129562948Y-98643354D01*
X129562946Y-98644212D01*
X129562617Y-98645007D01*
X129530819Y-98805020D01*
X129498444Y-98965383D01*
X129478931Y-99062008D01*
X129300982Y-99057499D01*
X129267407Y-99063297D01*
X129251530Y-99061331D01*
X129232999Y-98968951D01*
X129201123Y-98807517D01*
X129200720Y-98806540D01*
X129200718Y-98805483D01*
X129168168Y-98643221D01*
X129142459Y-98581439D01*
X129129405Y-98515812D01*
X129091617Y-98459258D01*
X129065485Y-98396459D01*
X129018092Y-98349220D01*
X128980916Y-98293582D01*
X128916836Y-98229502D01*
X128852746Y-98186679D01*
X128796720Y-98133745D01*
X128742687Y-98113140D01*
X128694606Y-98081013D01*
X128619010Y-98065976D01*
X128546989Y-98038511D01*
X128489184Y-98040152D01*
X128432468Y-98028870D01*
X128356872Y-98043907D01*
X128279823Y-98046094D01*
X128099498Y-98087314D01*
X128086762Y-98093018D01*
X128072840Y-98093973D01*
X127894824Y-98142253D01*
X127882342Y-98148456D01*
X127868486Y-98149966D01*
X127692967Y-98205207D01*
X127680767Y-98211892D01*
X127667008Y-98213951D01*
X127494182Y-98276041D01*
X127482301Y-98283183D01*
X127468681Y-98285780D01*
X127298729Y-98354600D01*
X127287138Y-98362213D01*
X127273629Y-98365351D01*
X127106751Y-98440801D01*
X127095488Y-98448859D01*
X127082133Y-98452527D01*
X126918514Y-98534497D01*
X126907600Y-98542981D01*
X126894427Y-98547169D01*
X126734256Y-98635539D01*
X126723678Y-98644458D01*
X126710669Y-98649171D01*
X126554136Y-98743841D01*
X126543920Y-98753174D01*
X126531109Y-98758401D01*
X126378407Y-98859259D01*
X126368558Y-98869004D01*
X126355950Y-98874743D01*
X126207270Y-98981683D01*
X126197817Y-98991812D01*
X126185443Y-98998051D01*
X126040974Y-99110956D01*
X126031917Y-99121470D01*
X126019785Y-99128207D01*
X125879715Y-99246969D01*
X125871064Y-99257862D01*
X125859184Y-99265095D01*
X125723707Y-99389606D01*
X125715484Y-99400855D01*
X125703884Y-99408571D01*
X125573186Y-99538721D01*
X125565403Y-99550317D01*
X125554094Y-99558512D01*
X125428369Y-99694187D01*
X125385665Y-99763683D01*
X125332762Y-99825770D01*
X125316348Y-99876488D01*
X125288440Y-99921905D01*
X125275581Y-100002454D01*
X125250466Y-100080058D01*
X125254710Y-100133194D01*
X125246306Y-100185836D01*
X125265250Y-100265171D01*
X125271744Y-100346483D01*
X125296044Y-100432262D01*
X125323948Y-100486870D01*
X125339591Y-100546161D01*
X125384171Y-100604724D01*
X125417661Y-100670264D01*
X125464334Y-100710033D01*
X125501478Y-100758828D01*
X125626017Y-100868897D01*
X125627337Y-100869666D01*
X125628269Y-100870879D01*
X125752170Y-100979421D01*
X125824199Y-101043082D01*
X125710032Y-101239331D01*
X125619802Y-101208858D01*
X125619800Y-101208858D01*
X125619797Y-101208856D01*
X125462181Y-101155626D01*
X125462163Y-101155624D01*
X125462148Y-101155615D01*
X125304535Y-101102395D01*
X125238643Y-101093828D01*
X125175754Y-101072382D01*
X125107408Y-101076765D01*
X125039492Y-101067935D01*
X124975339Y-101085235D01*
X124909028Y-101089488D01*
X124823758Y-101112208D01*
X124757789Y-101144626D01*
X124687116Y-101164811D01*
X124639007Y-101202996D01*
X124583883Y-101230085D01*
X124535342Y-101285279D01*
X124477772Y-101330974D01*
X124447940Y-101384659D01*
X124407375Y-101430784D01*
X124383650Y-101500355D01*
X124347950Y-101564601D01*
X124319930Y-101651820D01*
X124319133Y-101658749D01*
X124315867Y-101664914D01*
X124289618Y-101752614D01*
X124288968Y-101759472D01*
X124285864Y-101765622D01*
X124261364Y-101853782D01*
X124260844Y-101860727D01*
X124257830Y-101867008D01*
X124235110Y-101955587D01*
X124234736Y-101962419D01*
X124231897Y-101968645D01*
X124210927Y-102057625D01*
X124210683Y-102064561D01*
X124207931Y-102070931D01*
X124188741Y-102160291D01*
X124188635Y-102167276D01*
X124185993Y-102173743D01*
X124168603Y-102263443D01*
X124168637Y-102270341D01*
X124166154Y-102276779D01*
X124150544Y-102366799D01*
X124150716Y-102373791D01*
X124148332Y-102380364D01*
X124134532Y-102470673D01*
X124134839Y-102477535D01*
X124132625Y-102484035D01*
X124120605Y-102574615D01*
X124121051Y-102581525D01*
X124118948Y-102588125D01*
X124108728Y-102678945D01*
X124109316Y-102685906D01*
X124107330Y-102692602D01*
X124098930Y-102783632D01*
X124099648Y-102790489D01*
X124097818Y-102797138D01*
X124091218Y-102888347D01*
X124092070Y-102895178D01*
X124090375Y-102901849D01*
X124085575Y-102993219D01*
X124086560Y-103000019D01*
X124085000Y-103006708D01*
X124082000Y-103098208D01*
X124083178Y-103105348D01*
X124081681Y-103112430D01*
X124080581Y-103204041D01*
X117421000Y-103204041D01*
X117421000Y-93563868D01*
X117740017Y-93244851D01*
X117691000Y-93491275D01*
X117691000Y-95484725D01*
X117800233Y-96033876D01*
X118111302Y-96499423D01*
X118576849Y-96810492D01*
X119126000Y-96919725D01*
X119675151Y-96810492D01*
X120140698Y-96499423D01*
X120451767Y-96033876D01*
X120561000Y-95484725D01*
X120561000Y-95323000D01*
X123952000Y-95323000D01*
X124271541Y-95259439D01*
X124542434Y-95078434D01*
X126066434Y-93554434D01*
X126101341Y-93502192D01*
X126247439Y-93283541D01*
X126311000Y-92964000D01*
X126311000Y-91024971D01*
X145774821Y-91024971D01*
X145932058Y-91405515D01*
X146222954Y-91696919D01*
X146603223Y-91854820D01*
X147014971Y-91855179D01*
X147395515Y-91697942D01*
X147686919Y-91407046D01*
X147844820Y-91026777D01*
X147845179Y-90615029D01*
X147687942Y-90234485D01*
X147397046Y-89943081D01*
X147016777Y-89785180D01*
X146605029Y-89784821D01*
X146224485Y-89942058D01*
X145933081Y-90232954D01*
X145775180Y-90613223D01*
X145774821Y-91024971D01*
X126311000Y-91024971D01*
X126311000Y-78659097D01*
X126385167Y-78659162D01*
X126627578Y-78559000D01*
X126654132Y-78559000D01*
X126764348Y-78669217D01*
X126715808Y-78717673D01*
X126573162Y-79061201D01*
X126572838Y-79433167D01*
X126673000Y-79675578D01*
X126673000Y-82550000D01*
X126736561Y-82869541D01*
X126917566Y-83140434D01*
X127188459Y-83321439D01*
X127508000Y-83385000D01*
X142318396Y-83385000D01*
X149094778Y-90161382D01*
X149023081Y-90232954D01*
X148865180Y-90613223D01*
X148864821Y-91024971D01*
X149022058Y-91405515D01*
X149312954Y-91696919D01*
X149693223Y-91854820D01*
X150104971Y-91855179D01*
X150485515Y-91697942D01*
X150558490Y-91625094D01*
X151465155Y-92531759D01*
X151464838Y-92895167D01*
X151606883Y-93238943D01*
X151821807Y-93454243D01*
X151813081Y-93462954D01*
X151655180Y-93843223D01*
X151654821Y-94254971D01*
X151778790Y-94555000D01*
X147740987Y-94555000D01*
X147864820Y-94256777D01*
X147865179Y-93845029D01*
X147707942Y-93464485D01*
X147417046Y-93173081D01*
X147036777Y-93015180D01*
X146625029Y-93014821D01*
X146244485Y-93172058D01*
X145953081Y-93462954D01*
X145795180Y-93843223D01*
X145794821Y-94254971D01*
X145918790Y-94555000D01*
X143650987Y-94555000D01*
X143774820Y-94256777D01*
X143775179Y-93845029D01*
X143617942Y-93464485D01*
X143327046Y-93173081D01*
X142946777Y-93015180D01*
X142535029Y-93014821D01*
X142154485Y-93172058D01*
X141863081Y-93462954D01*
X141705180Y-93843223D01*
X141704821Y-94254971D01*
X141862058Y-94635515D01*
X142152954Y-94926919D01*
X142364409Y-95014723D01*
X141103566Y-96275566D01*
X140922561Y-96546459D01*
X140859000Y-96866000D01*
X140859000Y-98769104D01*
X140708559Y-98865910D01*
X140563569Y-99078110D01*
X140512560Y-99330000D01*
X140512560Y-102530000D01*
X140556838Y-102765317D01*
X140695910Y-102981441D01*
X140908110Y-103126431D01*
X141160000Y-103177440D01*
X141960000Y-103177440D01*
X142195317Y-103133162D01*
X142361477Y-103026241D01*
X142508110Y-103126431D01*
X142760000Y-103177440D01*
X143560000Y-103177440D01*
X143795317Y-103133162D01*
X144011441Y-102994090D01*
X144156431Y-102781890D01*
X144207440Y-102530000D01*
X144207440Y-102473698D01*
X144267854Y-102777419D01*
X144600600Y-103275409D01*
X144876860Y-103460000D01*
X144600600Y-103644591D01*
X144267854Y-104142581D01*
X144151009Y-104730000D01*
X144267854Y-105317419D01*
X144600600Y-105815409D01*
X144880828Y-106002651D01*
X144518631Y-106306921D01*
X144241525Y-106839975D01*
X144228964Y-106905260D01*
X144349622Y-107143000D01*
X145793000Y-107143000D01*
X145793000Y-107123000D01*
X146047000Y-107123000D01*
X146047000Y-107143000D01*
X147490378Y-107143000D01*
X147611036Y-106905260D01*
X147598475Y-106839975D01*
X147321369Y-106306921D01*
X146959172Y-106002651D01*
X147239400Y-105815409D01*
X147572146Y-105317419D01*
X147688991Y-104730000D01*
X147572146Y-104142581D01*
X147239400Y-103644591D01*
X146963140Y-103460000D01*
X147239400Y-103275409D01*
X147368031Y-103082899D01*
X149025000Y-104739868D01*
X149025000Y-118698766D01*
X148925162Y-118939201D01*
X148924838Y-119311167D01*
X149066883Y-119654943D01*
X149329673Y-119918192D01*
X149673201Y-120060838D01*
X150045167Y-120061162D01*
X150388943Y-119919117D01*
X150652192Y-119656327D01*
X150794838Y-119312799D01*
X150795162Y-118940833D01*
X150695000Y-118698422D01*
X150695000Y-114485167D01*
X155782838Y-114485167D01*
X155924883Y-114828943D01*
X156187673Y-115092192D01*
X156531201Y-115234838D01*
X156903167Y-115235162D01*
X157246943Y-115093117D01*
X157510192Y-114830327D01*
X157610778Y-114588090D01*
X158079868Y-114119000D01*
X164253073Y-114119000D01*
X163910887Y-114631117D01*
X163767400Y-115352475D01*
X163767400Y-116445925D01*
X163910887Y-117167283D01*
X164319504Y-117778821D01*
X164931042Y-118187438D01*
X165652400Y-118330925D01*
X166373758Y-118187438D01*
X166985296Y-117778821D01*
X167393913Y-117167283D01*
X167537400Y-116445925D01*
X167537400Y-115352475D01*
X167393913Y-114631117D01*
X167051727Y-114119000D01*
X167788132Y-114119000D01*
X168757616Y-115088484D01*
X168695000Y-115403275D01*
X168695000Y-116496725D01*
X168838487Y-117218083D01*
X169247104Y-117829621D01*
X169858642Y-118238238D01*
X170580000Y-118381725D01*
X171301358Y-118238238D01*
X171912896Y-117829621D01*
X172321513Y-117218083D01*
X172393000Y-116858694D01*
X172393000Y-120812131D01*
X172374132Y-120831000D01*
X162397868Y-120831000D01*
X159848434Y-118281566D01*
X159783589Y-118238238D01*
X159577541Y-118100561D01*
X159258000Y-118037000D01*
X158161234Y-118037000D01*
X157920799Y-117937162D01*
X157548833Y-117936838D01*
X157205057Y-118078883D01*
X156941808Y-118341673D01*
X156799162Y-118685201D01*
X156798838Y-119057167D01*
X156940883Y-119400943D01*
X157203673Y-119664192D01*
X157547201Y-119806838D01*
X157919167Y-119807162D01*
X158161578Y-119707000D01*
X158912132Y-119707000D01*
X161461566Y-122256434D01*
X161732460Y-122437440D01*
X162052000Y-122501000D01*
X172720000Y-122501000D01*
X173039541Y-122437439D01*
X173310434Y-122256434D01*
X173818434Y-121748435D01*
X173908936Y-121612988D01*
X173999439Y-121477541D01*
X174063000Y-121158000D01*
X174063000Y-117434362D01*
X174327104Y-117829621D01*
X174938642Y-118238238D01*
X175660000Y-118381725D01*
X176381358Y-118238238D01*
X176992896Y-117829621D01*
X177401513Y-117218083D01*
X177545000Y-116496725D01*
X177545000Y-115403275D01*
X177401513Y-114681917D01*
X176992896Y-114070379D01*
X176381358Y-113661762D01*
X175660000Y-113518275D01*
X174938642Y-113661762D01*
X174327104Y-114070379D01*
X173918487Y-114681917D01*
X173859707Y-114977423D01*
X172637566Y-116199564D01*
X172465000Y-116457827D01*
X172465000Y-115403275D01*
X172321513Y-114681917D01*
X171912896Y-114070379D01*
X171301358Y-113661762D01*
X170580000Y-113518275D01*
X169858642Y-113661762D01*
X169759125Y-113728257D01*
X168724434Y-112693566D01*
X168453541Y-112512561D01*
X168134000Y-112449000D01*
X157734000Y-112449000D01*
X157414459Y-112512561D01*
X157143566Y-112693566D01*
X156429667Y-113407465D01*
X156189057Y-113506883D01*
X155925808Y-113769673D01*
X155783162Y-114113201D01*
X155782838Y-114485167D01*
X150695000Y-114485167D01*
X150695000Y-106663868D01*
X151891566Y-107860434D01*
X152162460Y-108041440D01*
X152448880Y-108098412D01*
X152620600Y-108355409D01*
X153118590Y-108688155D01*
X153706009Y-108805000D01*
X154173991Y-108805000D01*
X154761410Y-108688155D01*
X155259400Y-108355409D01*
X155592146Y-107857419D01*
X155708991Y-107270000D01*
X155592146Y-106682581D01*
X155259400Y-106184591D01*
X154983140Y-106000000D01*
X155259400Y-105815409D01*
X155592146Y-105317419D01*
X155708991Y-104730000D01*
X155592146Y-104142581D01*
X155259400Y-103644591D01*
X154983140Y-103460000D01*
X155259400Y-103275409D01*
X155307086Y-103204041D01*
X165378252Y-103204041D01*
X165379984Y-103213329D01*
X165378281Y-103222622D01*
X165379681Y-103315203D01*
X165381106Y-103321840D01*
X165380013Y-103328536D01*
X165383213Y-103421005D01*
X165384769Y-103427623D01*
X165383805Y-103434356D01*
X165388805Y-103526686D01*
X165390586Y-103533648D01*
X165389714Y-103540782D01*
X165396614Y-103632952D01*
X165398442Y-103639530D01*
X165397747Y-103646318D01*
X165406447Y-103738299D01*
X165408472Y-103745069D01*
X165407895Y-103752110D01*
X165418455Y-103843870D01*
X165420587Y-103850505D01*
X165420157Y-103857462D01*
X165432547Y-103948972D01*
X165434793Y-103955509D01*
X165434503Y-103962417D01*
X165448703Y-104053648D01*
X165451146Y-104060325D01*
X165450993Y-104067435D01*
X165467053Y-104158365D01*
X165469572Y-104164838D01*
X165469561Y-104171781D01*
X165487431Y-104262381D01*
X165490075Y-104268794D01*
X165490202Y-104275727D01*
X165509872Y-104365957D01*
X165512703Y-104372454D01*
X165512977Y-104379537D01*
X165534487Y-104469387D01*
X165537397Y-104475711D01*
X165537805Y-104482660D01*
X165561115Y-104572100D01*
X165564181Y-104578426D01*
X165564734Y-104585434D01*
X165589854Y-104674424D01*
X165593032Y-104680657D01*
X165593722Y-104687619D01*
X165620642Y-104776148D01*
X165623943Y-104782314D01*
X165624773Y-104789260D01*
X165653483Y-104877289D01*
X165689267Y-104941021D01*
X165713080Y-105010124D01*
X165754064Y-105056425D01*
X165784336Y-105110340D01*
X165841785Y-105155526D01*
X165890230Y-105210257D01*
X165945812Y-105237350D01*
X165994412Y-105275576D01*
X166064777Y-105295337D01*
X166130482Y-105327364D01*
X166209033Y-105348024D01*
X166275308Y-105352061D01*
X166339471Y-105369153D01*
X166407407Y-105360108D01*
X166475812Y-105364275D01*
X166538586Y-105342643D01*
X166604407Y-105333880D01*
X166759243Y-105281068D01*
X166914456Y-105228818D01*
X166914459Y-105228818D01*
X167014171Y-105195252D01*
X167047097Y-105259701D01*
X167065674Y-105283214D01*
X167076300Y-105311234D01*
X167126001Y-105390717D01*
X167046810Y-105460302D01*
X167046376Y-105460869D01*
X167045758Y-105461228D01*
X166923306Y-105569272D01*
X166800323Y-105677332D01*
X166760626Y-105729168D01*
X166711309Y-105771943D01*
X166680165Y-105834235D01*
X166637820Y-105889529D01*
X166620983Y-105952606D01*
X166591786Y-106011003D01*
X166571126Y-106086452D01*
X166565586Y-106164442D01*
X166547333Y-106240471D01*
X166556205Y-106296488D01*
X166552187Y-106353054D01*
X166576913Y-106427226D01*
X166589145Y-106504454D01*
X166618777Y-106552808D01*
X166636712Y-106606610D01*
X166687943Y-106665676D01*
X166728796Y-106732342D01*
X166854574Y-106868407D01*
X166865894Y-106876631D01*
X166873680Y-106888260D01*
X167004454Y-107018783D01*
X167016068Y-107026527D01*
X167024293Y-107037805D01*
X167159866Y-107162671D01*
X167171753Y-107169925D01*
X167180401Y-107180838D01*
X167320591Y-107299948D01*
X167332740Y-107306711D01*
X167341804Y-107317253D01*
X167486411Y-107430486D01*
X167498809Y-107436752D01*
X167508279Y-107446916D01*
X167657120Y-107554163D01*
X167669731Y-107559917D01*
X167679577Y-107569674D01*
X167832454Y-107670828D01*
X167845282Y-107676074D01*
X167855505Y-107685428D01*
X168012231Y-107780378D01*
X168025261Y-107785110D01*
X168035854Y-107794054D01*
X168196237Y-107882684D01*
X168209446Y-107886893D01*
X168220388Y-107895409D01*
X168384236Y-107977608D01*
X168397592Y-107981285D01*
X168408857Y-107989353D01*
X168575978Y-108065023D01*
X168589504Y-108068173D01*
X168601111Y-108075804D01*
X168771320Y-108144824D01*
X168784976Y-108147435D01*
X168796889Y-108154602D01*
X168969986Y-108216862D01*
X168983762Y-108218929D01*
X168995975Y-108225626D01*
X169171772Y-108281016D01*
X169185648Y-108282533D01*
X169198149Y-108288749D01*
X169376459Y-108337159D01*
X169390414Y-108338120D01*
X169403180Y-108343840D01*
X169583806Y-108385160D01*
X169663974Y-108387448D01*
X169742771Y-108402381D01*
X169796310Y-108391226D01*
X169850971Y-108392786D01*
X169925908Y-108364223D01*
X170004425Y-108347864D01*
X170049617Y-108317071D01*
X170100718Y-108297594D01*
X170159024Y-108242525D01*
X170225300Y-108197366D01*
X170282140Y-108139486D01*
X170316884Y-108086454D01*
X170361844Y-108041755D01*
X170389409Y-107975753D01*
X170428609Y-107915919D01*
X170440414Y-107853627D01*
X170464846Y-107795126D01*
X170497406Y-107633896D01*
X170497410Y-107632600D01*
X170497905Y-107631402D01*
X170529696Y-107470915D01*
X170551565Y-107362622D01*
X170727892Y-107367104D01*
X170760896Y-107361407D01*
X170775801Y-107363279D01*
X170797221Y-107469688D01*
X170829482Y-107630460D01*
X170861406Y-107791622D01*
X170886060Y-107851274D01*
X170898056Y-107914694D01*
X170936609Y-107973584D01*
X170963492Y-108038631D01*
X171009094Y-108084305D01*
X171044449Y-108138311D01*
X171098709Y-108193601D01*
X171164559Y-108238501D01*
X171222396Y-108293328D01*
X171273933Y-108313079D01*
X171319534Y-108344173D01*
X171397551Y-108360456D01*
X171471969Y-108388976D01*
X171527140Y-108387502D01*
X171581170Y-108398778D01*
X171659480Y-108383965D01*
X171739147Y-108381836D01*
X171919845Y-108340846D01*
X171932618Y-108335151D01*
X171946569Y-108334216D01*
X172124960Y-108286136D01*
X172137461Y-108279948D01*
X172151334Y-108278458D01*
X172327225Y-108223398D01*
X172339458Y-108216720D01*
X172353245Y-108214677D01*
X172526453Y-108152737D01*
X172538378Y-108145593D01*
X172552034Y-108143008D01*
X172722357Y-108074308D01*
X172733978Y-108066699D01*
X172747516Y-108063572D01*
X172914772Y-107988212D01*
X172926057Y-107980161D01*
X172939429Y-107976506D01*
X173103424Y-107894605D01*
X173114387Y-107886105D01*
X173127611Y-107881917D01*
X173288151Y-107793577D01*
X173298737Y-107784671D01*
X173311748Y-107779974D01*
X173468644Y-107685324D01*
X173478896Y-107675979D01*
X173491745Y-107670752D01*
X173644804Y-107569883D01*
X173654674Y-107560138D01*
X173667300Y-107554405D01*
X173816333Y-107447432D01*
X173825810Y-107437297D01*
X173838207Y-107431061D01*
X173983020Y-107318101D01*
X173992101Y-107307578D01*
X174004260Y-107300840D01*
X174144665Y-107182000D01*
X174153347Y-107171087D01*
X174165262Y-107163845D01*
X174301063Y-107039226D01*
X174309306Y-107027966D01*
X174320928Y-107020248D01*
X174451935Y-106889972D01*
X174459738Y-106878364D01*
X174471070Y-106870163D01*
X174597097Y-106734336D01*
X174636396Y-106670472D01*
X174686164Y-106614388D01*
X174705760Y-106557750D01*
X174737170Y-106506707D01*
X174749037Y-106432669D01*
X174773556Y-106361805D01*
X174769986Y-106301976D01*
X174779471Y-106242802D01*
X174762103Y-106169861D01*
X174757636Y-106095006D01*
X174737486Y-106018006D01*
X174706404Y-105954037D01*
X174687658Y-105885431D01*
X174648564Y-105835000D01*
X174620678Y-105777608D01*
X174567483Y-105730403D01*
X174523909Y-105674193D01*
X174400033Y-105566632D01*
X174277141Y-105458462D01*
X174200028Y-105390311D01*
X174313252Y-105195447D01*
X174407159Y-105227472D01*
X174408545Y-105227657D01*
X174409759Y-105228353D01*
X174567209Y-105281344D01*
X174567211Y-105281345D01*
X174724827Y-105334575D01*
X174788055Y-105342799D01*
X174848232Y-105363857D01*
X174919291Y-105359868D01*
X174989868Y-105369048D01*
X175051425Y-105352451D01*
X175115085Y-105348878D01*
X175195185Y-105328218D01*
X175262921Y-105295600D01*
X175335270Y-105275172D01*
X175382170Y-105238176D01*
X175435993Y-105212258D01*
X175486092Y-105156200D01*
X175545115Y-105109641D01*
X175574287Y-105057514D01*
X175614094Y-105012972D01*
X175638925Y-104942013D01*
X175675641Y-104876407D01*
X175704221Y-104788358D01*
X175705044Y-104781385D01*
X175708349Y-104775190D01*
X175735129Y-104686650D01*
X175735810Y-104679673D01*
X175738984Y-104673425D01*
X175763964Y-104584415D01*
X175764506Y-104577415D01*
X175767559Y-104571091D01*
X175790729Y-104481641D01*
X175791129Y-104474653D01*
X175794045Y-104468289D01*
X175815405Y-104378429D01*
X175815662Y-104371482D01*
X175818431Y-104365108D01*
X175837991Y-104274859D01*
X175838112Y-104267789D01*
X175840796Y-104261250D01*
X175858517Y-104170650D01*
X175858495Y-104163741D01*
X175860991Y-104157299D01*
X175876911Y-104066369D01*
X175876749Y-104059332D01*
X175879159Y-104052719D01*
X175893239Y-103961489D01*
X175892937Y-103954510D01*
X175895196Y-103947903D01*
X175907446Y-103856403D01*
X175907003Y-103849409D01*
X175909137Y-103842731D01*
X175919547Y-103750981D01*
X175918974Y-103744125D01*
X175920939Y-103737531D01*
X175929539Y-103645561D01*
X175928798Y-103638397D01*
X175930711Y-103631454D01*
X175937411Y-103539294D01*
X175936570Y-103532533D01*
X175938251Y-103525932D01*
X175943151Y-103433612D01*
X175942126Y-103426511D01*
X175943754Y-103419520D01*
X175946754Y-103327060D01*
X175945585Y-103319994D01*
X175947066Y-103312986D01*
X175948166Y-103220426D01*
X175946431Y-103211130D01*
X175948134Y-103201830D01*
X175946734Y-103110129D01*
X175945375Y-103103802D01*
X175946422Y-103097414D01*
X175943322Y-103005824D01*
X175941756Y-102999141D01*
X175942733Y-102992345D01*
X175937833Y-102900895D01*
X175936133Y-102894234D01*
X175936977Y-102887413D01*
X175930277Y-102796112D01*
X175928340Y-102789102D01*
X175929082Y-102781867D01*
X175920482Y-102690767D01*
X175918548Y-102684298D01*
X175919107Y-102677570D01*
X175908747Y-102586679D01*
X175906637Y-102580090D01*
X175907073Y-102573184D01*
X175894913Y-102482534D01*
X175892655Y-102475936D01*
X175892955Y-102468968D01*
X175878985Y-102378588D01*
X175876592Y-102372026D01*
X175876752Y-102365042D01*
X175860972Y-102274952D01*
X175858493Y-102268555D01*
X175858515Y-102261693D01*
X175840965Y-102171933D01*
X175838340Y-102165538D01*
X175838226Y-102158627D01*
X175818896Y-102069217D01*
X175816140Y-102062864D01*
X175815888Y-102055943D01*
X175794778Y-101966904D01*
X175791884Y-101960579D01*
X175791492Y-101953635D01*
X175768602Y-101865005D01*
X175765577Y-101858728D01*
X175765045Y-101851780D01*
X175740375Y-101763580D01*
X175737236Y-101757386D01*
X175736568Y-101750474D01*
X175710128Y-101662724D01*
X175706884Y-101656628D01*
X175706084Y-101649768D01*
X175677894Y-101562508D01*
X175642747Y-101499499D01*
X175619623Y-101431162D01*
X175578276Y-101383922D01*
X175547691Y-101329093D01*
X175491108Y-101284331D01*
X175443592Y-101230044D01*
X175387313Y-101202222D01*
X175338076Y-101163272D01*
X175268674Y-101143572D01*
X175203997Y-101111599D01*
X175121317Y-101089359D01*
X175053535Y-101084850D01*
X174987918Y-101067296D01*
X174921492Y-101076067D01*
X174854632Y-101071620D01*
X174790288Y-101093392D01*
X174722944Y-101102285D01*
X174567207Y-101155218D01*
X174411680Y-101207575D01*
X174411378Y-101207748D01*
X174411034Y-101207793D01*
X174317802Y-101239282D01*
X174278944Y-101163591D01*
X174260740Y-101140644D01*
X174250352Y-101113252D01*
X174205710Y-101041862D01*
X174278789Y-100977651D01*
X174279233Y-100977071D01*
X174279863Y-100976705D01*
X174402422Y-100868566D01*
X174525292Y-100760605D01*
X174582787Y-100685527D01*
X174648601Y-100617618D01*
X174690981Y-100551988D01*
X174708118Y-100508709D01*
X174735723Y-100471231D01*
X174756888Y-100385542D01*
X174789379Y-100303486D01*
X174788650Y-100256948D01*
X174799812Y-100211755D01*
X174786574Y-100124493D01*
X174785191Y-100036245D01*
X174766705Y-99993523D01*
X174759724Y-99947505D01*
X174714103Y-99871955D01*
X174679052Y-99790950D01*
X174645626Y-99758555D01*
X174621565Y-99718710D01*
X174494520Y-99579461D01*
X174483051Y-99571013D01*
X174475193Y-99559129D01*
X174342941Y-99425590D01*
X174331174Y-99417645D01*
X174322865Y-99406129D01*
X174185616Y-99278418D01*
X174173559Y-99270975D01*
X174164808Y-99259832D01*
X174022760Y-99138062D01*
X174010438Y-99131132D01*
X174001261Y-99120377D01*
X173854622Y-99004668D01*
X173842046Y-98998253D01*
X173832454Y-98987894D01*
X173681423Y-98878362D01*
X173668607Y-98872467D01*
X173658609Y-98862512D01*
X173503384Y-98759275D01*
X173490354Y-98753911D01*
X173479976Y-98744382D01*
X173320758Y-98647552D01*
X173307517Y-98642718D01*
X173296756Y-98633613D01*
X173133747Y-98543313D01*
X173120332Y-98539023D01*
X173109219Y-98530367D01*
X172942623Y-98446707D01*
X172929026Y-98442958D01*
X172917559Y-98434751D01*
X172747574Y-98357851D01*
X172733820Y-98354653D01*
X172722012Y-98346906D01*
X172548843Y-98276886D01*
X172534952Y-98274245D01*
X172522826Y-98266977D01*
X172346664Y-98203947D01*
X172332653Y-98201869D01*
X172320220Y-98195089D01*
X172141277Y-98139169D01*
X172127155Y-98137659D01*
X172114415Y-98131372D01*
X171932884Y-98082682D01*
X171909859Y-98081167D01*
X171888535Y-98072354D01*
X171713838Y-98037748D01*
X171713818Y-98037739D01*
X171713795Y-98037739D01*
X171711751Y-98037334D01*
X171670732Y-98037366D01*
X171631187Y-98026289D01*
X171539202Y-98037341D01*
X171446545Y-98037130D01*
X171445539Y-98037544D01*
X171444478Y-98037545D01*
X171406586Y-98053275D01*
X171365822Y-98058173D01*
X171285066Y-98103586D01*
X171199384Y-98138848D01*
X171198619Y-98139609D01*
X171197630Y-98140020D01*
X171168635Y-98169061D01*
X171132858Y-98189180D01*
X171132851Y-98189186D01*
X171075617Y-98262052D01*
X171009962Y-98327408D01*
X170963462Y-98396658D01*
X170963130Y-98397453D01*
X170962524Y-98398060D01*
X170911734Y-98520740D01*
X170860619Y-98643354D01*
X170860617Y-98644212D01*
X170860288Y-98645007D01*
X170828490Y-98805020D01*
X170796115Y-98965383D01*
X170776602Y-99062008D01*
X170598653Y-99057499D01*
X170565078Y-99063297D01*
X170549201Y-99061331D01*
X170530670Y-98968951D01*
X170498794Y-98807517D01*
X170498391Y-98806540D01*
X170498389Y-98805483D01*
X170465839Y-98643221D01*
X170440130Y-98581439D01*
X170427076Y-98515812D01*
X170389288Y-98459258D01*
X170363156Y-98396459D01*
X170315763Y-98349220D01*
X170278587Y-98293582D01*
X170214507Y-98229502D01*
X170150417Y-98186679D01*
X170094391Y-98133745D01*
X170040358Y-98113140D01*
X169992277Y-98081013D01*
X169916681Y-98065976D01*
X169844660Y-98038511D01*
X169786855Y-98040152D01*
X169730139Y-98028870D01*
X169654543Y-98043907D01*
X169577494Y-98046094D01*
X169397169Y-98087314D01*
X169384433Y-98093018D01*
X169370511Y-98093973D01*
X169192495Y-98142253D01*
X169180013Y-98148456D01*
X169166157Y-98149966D01*
X168990638Y-98205207D01*
X168978438Y-98211892D01*
X168964679Y-98213951D01*
X168791853Y-98276041D01*
X168779972Y-98283183D01*
X168766352Y-98285780D01*
X168596400Y-98354600D01*
X168584809Y-98362213D01*
X168571300Y-98365351D01*
X168404422Y-98440801D01*
X168393159Y-98448859D01*
X168379804Y-98452527D01*
X168216185Y-98534497D01*
X168205271Y-98542981D01*
X168192098Y-98547169D01*
X168031927Y-98635539D01*
X168021349Y-98644458D01*
X168008340Y-98649171D01*
X167851807Y-98743841D01*
X167841591Y-98753174D01*
X167828780Y-98758401D01*
X167676078Y-98859259D01*
X167666229Y-98869004D01*
X167653621Y-98874743D01*
X167504941Y-98981683D01*
X167495488Y-98991812D01*
X167483114Y-98998051D01*
X167338645Y-99110956D01*
X167329588Y-99121470D01*
X167317456Y-99128207D01*
X167177386Y-99246969D01*
X167168735Y-99257862D01*
X167156855Y-99265095D01*
X167021378Y-99389606D01*
X167013155Y-99400855D01*
X167001555Y-99408571D01*
X166870857Y-99538721D01*
X166863074Y-99550317D01*
X166851765Y-99558512D01*
X166726040Y-99694187D01*
X166683336Y-99763683D01*
X166630433Y-99825770D01*
X166614019Y-99876488D01*
X166586111Y-99921905D01*
X166573252Y-100002454D01*
X166548137Y-100080058D01*
X166552381Y-100133194D01*
X166543977Y-100185836D01*
X166562921Y-100265171D01*
X166569415Y-100346483D01*
X166593715Y-100432262D01*
X166621619Y-100486870D01*
X166637262Y-100546161D01*
X166681842Y-100604724D01*
X166715332Y-100670264D01*
X166762005Y-100710033D01*
X166799149Y-100758828D01*
X166923688Y-100868897D01*
X166925008Y-100869666D01*
X166925940Y-100870879D01*
X167049841Y-100979421D01*
X167121870Y-101043082D01*
X167007703Y-101239331D01*
X166917473Y-101208858D01*
X166917471Y-101208858D01*
X166917468Y-101208856D01*
X166759852Y-101155626D01*
X166759834Y-101155624D01*
X166759819Y-101155615D01*
X166602206Y-101102395D01*
X166536314Y-101093828D01*
X166473425Y-101072382D01*
X166405079Y-101076765D01*
X166337163Y-101067935D01*
X166273010Y-101085235D01*
X166206699Y-101089488D01*
X166121429Y-101112208D01*
X166055460Y-101144626D01*
X165984787Y-101164811D01*
X165936678Y-101202996D01*
X165881554Y-101230085D01*
X165833013Y-101285279D01*
X165775443Y-101330974D01*
X165745611Y-101384659D01*
X165705046Y-101430784D01*
X165681321Y-101500355D01*
X165645621Y-101564601D01*
X165617601Y-101651820D01*
X165616804Y-101658749D01*
X165613538Y-101664914D01*
X165587289Y-101752614D01*
X165586639Y-101759472D01*
X165583535Y-101765622D01*
X165559035Y-101853782D01*
X165558515Y-101860727D01*
X165555501Y-101867008D01*
X165532781Y-101955587D01*
X165532407Y-101962419D01*
X165529568Y-101968645D01*
X165508598Y-102057625D01*
X165508354Y-102064561D01*
X165505602Y-102070931D01*
X165486412Y-102160291D01*
X165486306Y-102167276D01*
X165483664Y-102173743D01*
X165466274Y-102263443D01*
X165466308Y-102270341D01*
X165463825Y-102276779D01*
X165448215Y-102366799D01*
X165448387Y-102373791D01*
X165446003Y-102380364D01*
X165432203Y-102470673D01*
X165432510Y-102477535D01*
X165430296Y-102484035D01*
X165418276Y-102574615D01*
X165418722Y-102581525D01*
X165416619Y-102588125D01*
X165406399Y-102678945D01*
X165406987Y-102685906D01*
X165405001Y-102692602D01*
X165396601Y-102783632D01*
X165397319Y-102790489D01*
X165395489Y-102797138D01*
X165388889Y-102888347D01*
X165389741Y-102895178D01*
X165388046Y-102901849D01*
X165383246Y-102993219D01*
X165384231Y-103000019D01*
X165382671Y-103006708D01*
X165379671Y-103098208D01*
X165380849Y-103105348D01*
X165379352Y-103112430D01*
X165378252Y-103204041D01*
X155307086Y-103204041D01*
X155592146Y-102777419D01*
X155708991Y-102190000D01*
X155592146Y-101602581D01*
X155259400Y-101104591D01*
X154983140Y-100920000D01*
X155259400Y-100735409D01*
X155592146Y-100237419D01*
X155708991Y-99650000D01*
X155592146Y-99062581D01*
X155259400Y-98564591D01*
X154761410Y-98231845D01*
X154173991Y-98115000D01*
X153706009Y-98115000D01*
X153166553Y-98222305D01*
X153225515Y-98197942D01*
X153516919Y-97907046D01*
X153674820Y-97526777D01*
X153675179Y-97115029D01*
X153517942Y-96734485D01*
X153306022Y-96522195D01*
X153334838Y-96452799D01*
X153335036Y-96225000D01*
X161280000Y-96225000D01*
X161599541Y-96161439D01*
X161870434Y-95980434D01*
X162865868Y-94985000D01*
X171861871Y-94985000D01*
X171892460Y-95005439D01*
X172212000Y-95069000D01*
X172531540Y-95005439D01*
X172802434Y-94824434D01*
X176358434Y-91268434D01*
X176378401Y-91238551D01*
X176539439Y-90997541D01*
X176603000Y-90678000D01*
X176603000Y-81627868D01*
X176942560Y-81288308D01*
X176942560Y-88000000D01*
X176986838Y-88235317D01*
X177125910Y-88451441D01*
X177338110Y-88596431D01*
X177590000Y-88647440D01*
X178717000Y-88647440D01*
X178717000Y-119578560D01*
X177370000Y-119578560D01*
X177134683Y-119622838D01*
X176918559Y-119761910D01*
X176773569Y-119974110D01*
X176722560Y-120226000D01*
X176722560Y-127226000D01*
X176766838Y-127461317D01*
X176905910Y-127677441D01*
X177118110Y-127822431D01*
X177370000Y-127873440D01*
X181370000Y-127873440D01*
X181605317Y-127829162D01*
X181821441Y-127690090D01*
X181966431Y-127477890D01*
X182017440Y-127226000D01*
X182017440Y-125126750D01*
X184054000Y-125126750D01*
X184054000Y-125242310D01*
X184150673Y-125475699D01*
X184329302Y-125654327D01*
X184562691Y-125751000D01*
X185278250Y-125751000D01*
X185437000Y-125592250D01*
X185437000Y-124968000D01*
X184212750Y-124968000D01*
X184054000Y-125126750D01*
X182017440Y-125126750D01*
X182017440Y-120226000D01*
X181973162Y-119990683D01*
X181834090Y-119774559D01*
X181621890Y-119629569D01*
X181370000Y-119578560D01*
X180387000Y-119578560D01*
X180387000Y-88647440D01*
X181590000Y-88647440D01*
X181825317Y-88603162D01*
X182041441Y-88464090D01*
X182186431Y-88251890D01*
X182237440Y-88000000D01*
X182237440Y-83596308D01*
X183315000Y-84673868D01*
X183315000Y-102108000D01*
X183378561Y-102427541D01*
X183525712Y-102647768D01*
X183559566Y-102698434D01*
X187571567Y-106710435D01*
X187842460Y-106891440D01*
X188085026Y-106939690D01*
X188084735Y-107273991D01*
X188317932Y-107838371D01*
X188719182Y-108240323D01*
X188319449Y-108639357D01*
X188085267Y-109203330D01*
X188084735Y-109813991D01*
X188317932Y-110378371D01*
X188719182Y-110780323D01*
X188319449Y-111179357D01*
X188085267Y-111743330D01*
X188084735Y-112353991D01*
X188317932Y-112918371D01*
X188749357Y-113350551D01*
X188770194Y-113359203D01*
X188719446Y-113509841D01*
X189620000Y-114410395D01*
X189634143Y-114396253D01*
X189813748Y-114575858D01*
X189799605Y-114590000D01*
X189813748Y-114604143D01*
X189634143Y-114783748D01*
X189620000Y-114769605D01*
X189605858Y-114783748D01*
X189426253Y-114604143D01*
X189440395Y-114590000D01*
X188539841Y-113689446D01*
X188283357Y-113775852D01*
X188073542Y-114349336D01*
X188099161Y-114959460D01*
X188283357Y-115404148D01*
X188539839Y-115490553D01*
X188533392Y-115497000D01*
X187472000Y-115497000D01*
X187152460Y-115560560D01*
X186881566Y-115741565D01*
X186607566Y-116015566D01*
X186426561Y-116286459D01*
X186402051Y-116409680D01*
X186196559Y-116541910D01*
X186051569Y-116754110D01*
X186000560Y-117006000D01*
X186000560Y-117070219D01*
X185928459Y-117084561D01*
X185657566Y-117265566D01*
X184575566Y-118347566D01*
X184394561Y-118618459D01*
X184331000Y-118938000D01*
X184331000Y-120231782D01*
X184237559Y-120291910D01*
X184092569Y-120504110D01*
X184041560Y-120756000D01*
X184041560Y-121306000D01*
X184085838Y-121541317D01*
X184166248Y-121666277D01*
X184092569Y-121774110D01*
X184041560Y-122026000D01*
X184041560Y-122576000D01*
X184085838Y-122811317D01*
X184166248Y-122936277D01*
X184092569Y-123044110D01*
X184041560Y-123296000D01*
X184041560Y-123846000D01*
X184085838Y-124081317D01*
X184160159Y-124196815D01*
X184150673Y-124206301D01*
X184054000Y-124439690D01*
X184054000Y-124555250D01*
X184212750Y-124714000D01*
X185437000Y-124714000D01*
X185437000Y-124694000D01*
X185691000Y-124694000D01*
X185691000Y-124714000D01*
X185711000Y-124714000D01*
X185711000Y-124968000D01*
X185691000Y-124968000D01*
X185691000Y-125592250D01*
X185849750Y-125751000D01*
X186250132Y-125751000D01*
X185132333Y-126868799D01*
X184904000Y-126822560D01*
X183904000Y-126822560D01*
X183668683Y-126866838D01*
X183452559Y-127005910D01*
X183307569Y-127218110D01*
X183256560Y-127470000D01*
X183256560Y-129070000D01*
X183300838Y-129305317D01*
X183439910Y-129521441D01*
X183652110Y-129666431D01*
X183904000Y-129717440D01*
X184904000Y-129717440D01*
X185139317Y-129673162D01*
X185355441Y-129534090D01*
X185500431Y-129321890D01*
X185551440Y-129070000D01*
X185551440Y-129055781D01*
X185623541Y-129041439D01*
X185894434Y-128860434D01*
X186010434Y-128744434D01*
X186136508Y-128555750D01*
X186825000Y-128555750D01*
X186825000Y-129196310D01*
X186921673Y-129429699D01*
X187100302Y-129608327D01*
X187333691Y-129705000D01*
X187674250Y-129705000D01*
X187833000Y-129546250D01*
X187833000Y-128397000D01*
X188087000Y-128397000D01*
X188087000Y-129546250D01*
X188245750Y-129705000D01*
X188586309Y-129705000D01*
X188819698Y-129608327D01*
X188998327Y-129429699D01*
X189095000Y-129196310D01*
X189095000Y-128555750D01*
X189111000Y-128555750D01*
X189111000Y-129196310D01*
X189207673Y-129429699D01*
X189386302Y-129608327D01*
X189619691Y-129705000D01*
X189960250Y-129705000D01*
X190119000Y-129546250D01*
X190119000Y-128397000D01*
X190373000Y-128397000D01*
X190373000Y-129546250D01*
X190531750Y-129705000D01*
X190872309Y-129705000D01*
X191105698Y-129608327D01*
X191284327Y-129429699D01*
X191381000Y-129196310D01*
X191381000Y-128555750D01*
X191222250Y-128397000D01*
X190373000Y-128397000D01*
X190119000Y-128397000D01*
X189269750Y-128397000D01*
X189111000Y-128555750D01*
X189095000Y-128555750D01*
X188936250Y-128397000D01*
X188087000Y-128397000D01*
X187833000Y-128397000D01*
X186983750Y-128397000D01*
X186825000Y-128555750D01*
X186136508Y-128555750D01*
X186191440Y-128473540D01*
X186255000Y-128154000D01*
X186255000Y-128107868D01*
X186825000Y-127537868D01*
X186825000Y-127984250D01*
X186983750Y-128143000D01*
X187833000Y-128143000D01*
X187833000Y-126993750D01*
X188087000Y-126993750D01*
X188087000Y-128143000D01*
X188936250Y-128143000D01*
X189095000Y-127984250D01*
X189095000Y-127343690D01*
X189111000Y-127343690D01*
X189111000Y-127984250D01*
X189269750Y-128143000D01*
X190119000Y-128143000D01*
X190119000Y-126993750D01*
X189960250Y-126835000D01*
X189619691Y-126835000D01*
X189386302Y-126931673D01*
X189207673Y-127110301D01*
X189111000Y-127343690D01*
X189095000Y-127343690D01*
X188998327Y-127110301D01*
X188819698Y-126931673D01*
X188586309Y-126835000D01*
X188245750Y-126835000D01*
X188087000Y-126993750D01*
X187833000Y-126993750D01*
X187674250Y-126835000D01*
X187527868Y-126835000D01*
X188296434Y-126066434D01*
X188477439Y-125795541D01*
X188541000Y-125476000D01*
X188541000Y-122936000D01*
X188477439Y-122616459D01*
X188296434Y-122345566D01*
X188025541Y-122164561D01*
X187706000Y-122101000D01*
X187086440Y-122101000D01*
X187086440Y-122026000D01*
X187042162Y-121790683D01*
X186961752Y-121665723D01*
X187035431Y-121557890D01*
X187086440Y-121306000D01*
X187086440Y-120756000D01*
X187042162Y-120520683D01*
X186903090Y-120304559D01*
X186690890Y-120159569D01*
X186439000Y-120108560D01*
X186001000Y-120108560D01*
X186001000Y-119283868D01*
X186161795Y-119123073D01*
X186183910Y-119157441D01*
X186396110Y-119302431D01*
X186648000Y-119353440D01*
X187748000Y-119353440D01*
X187983317Y-119309162D01*
X188199441Y-119170090D01*
X188344431Y-118957890D01*
X188395440Y-118706000D01*
X188395440Y-117167000D01*
X189556560Y-117167000D01*
X189556560Y-118706000D01*
X189600838Y-118941317D01*
X189739910Y-119157441D01*
X189952110Y-119302431D01*
X190204000Y-119353440D01*
X191304000Y-119353440D01*
X191539317Y-119309162D01*
X191642843Y-119242545D01*
X191668039Y-119369214D01*
X191989946Y-119850983D01*
X192334755Y-120081377D01*
X192307572Y-120108560D01*
X191293000Y-120108560D01*
X191057683Y-120152838D01*
X190841559Y-120291910D01*
X190696569Y-120504110D01*
X190692933Y-120522065D01*
X189722434Y-119551566D01*
X189692494Y-119531561D01*
X189451541Y-119370561D01*
X189165082Y-119313580D01*
X188908799Y-119207162D01*
X188536833Y-119206838D01*
X188193057Y-119348883D01*
X187929808Y-119611673D01*
X187787162Y-119955201D01*
X187786838Y-120327167D01*
X187928883Y-120670943D01*
X188191673Y-120934192D01*
X188535201Y-121076838D01*
X188886276Y-121077144D01*
X190110132Y-122301000D01*
X189909566Y-122501566D01*
X189728561Y-122772459D01*
X189665000Y-123092000D01*
X189665000Y-125476000D01*
X189728561Y-125795541D01*
X189909566Y-126066434D01*
X190678132Y-126835000D01*
X190531750Y-126835000D01*
X190373000Y-126993750D01*
X190373000Y-128143000D01*
X191222250Y-128143000D01*
X191381000Y-127984250D01*
X191381000Y-127537868D01*
X191697000Y-127853868D01*
X191697000Y-127900000D01*
X191760561Y-128219541D01*
X191882504Y-128402041D01*
X191941566Y-128490434D01*
X192311566Y-128860434D01*
X192582459Y-129041439D01*
X192654560Y-129055781D01*
X192654560Y-129070000D01*
X192698838Y-129305317D01*
X192837910Y-129521441D01*
X193050110Y-129666431D01*
X193302000Y-129717440D01*
X194302000Y-129717440D01*
X194537317Y-129673162D01*
X194753441Y-129534090D01*
X194898431Y-129321890D01*
X194949440Y-129070000D01*
X194949440Y-127470000D01*
X194905162Y-127234683D01*
X194766090Y-127018559D01*
X194553890Y-126873569D01*
X194302000Y-126822560D01*
X193302000Y-126822560D01*
X193070911Y-126866043D01*
X191968308Y-125763440D01*
X193043000Y-125763440D01*
X193278317Y-125719162D01*
X193345393Y-125676000D01*
X194183000Y-125676000D01*
X194502541Y-125612439D01*
X194773434Y-125431434D01*
X196424434Y-123780434D01*
X196605440Y-123509540D01*
X196669000Y-123190000D01*
X196669000Y-120164394D01*
X197138054Y-119850983D01*
X197459961Y-119369214D01*
X197573000Y-118800929D01*
X197573000Y-117927071D01*
X197459961Y-117358786D01*
X197138054Y-116877017D01*
X196656285Y-116555110D01*
X196088000Y-116442071D01*
X195519715Y-116555110D01*
X195037946Y-116877017D01*
X194716039Y-117358786D01*
X194603000Y-117927071D01*
X194603000Y-118800929D01*
X194716039Y-119369214D01*
X194999000Y-119792696D01*
X194999000Y-122844132D01*
X193837132Y-124006000D01*
X193664045Y-124006000D01*
X193678000Y-123972310D01*
X193678000Y-123856750D01*
X193519250Y-123698000D01*
X192295000Y-123698000D01*
X192295000Y-123718000D01*
X192041000Y-123718000D01*
X192041000Y-123698000D01*
X192021000Y-123698000D01*
X192021000Y-123444000D01*
X192041000Y-123444000D01*
X192041000Y-123424000D01*
X192295000Y-123424000D01*
X192295000Y-123444000D01*
X193519250Y-123444000D01*
X193678000Y-123285250D01*
X193678000Y-123169690D01*
X193581327Y-122936301D01*
X193571839Y-122926814D01*
X193639431Y-122827890D01*
X193690440Y-122576000D01*
X193690440Y-122026000D01*
X193646162Y-121790683D01*
X193565752Y-121665723D01*
X193639431Y-121557890D01*
X193690440Y-121306000D01*
X193690440Y-121087428D01*
X193884434Y-120893434D01*
X193926151Y-120831000D01*
X194065439Y-120622541D01*
X194129000Y-120303000D01*
X194129000Y-119792696D01*
X194411961Y-119369214D01*
X194525000Y-118800929D01*
X194525000Y-117927071D01*
X194411961Y-117358786D01*
X194090054Y-116877017D01*
X193608285Y-116555110D01*
X193040000Y-116442071D01*
X192471715Y-116555110D01*
X191989946Y-116877017D01*
X191940964Y-116950324D01*
X191907162Y-116770683D01*
X191768090Y-116554559D01*
X191555890Y-116409569D01*
X191304000Y-116358560D01*
X191104310Y-116358560D01*
X191644433Y-115818437D01*
X191825439Y-115547543D01*
X191888999Y-115228003D01*
X191888999Y-96819999D01*
X191866482Y-96706799D01*
X191825439Y-96500459D01*
X191647665Y-96234401D01*
X191547117Y-95991057D01*
X191284327Y-95727808D01*
X190940799Y-95585162D01*
X190568833Y-95584838D01*
X190225057Y-95726883D01*
X189961808Y-95989673D01*
X189819162Y-96333201D01*
X189818838Y-96705167D01*
X189960883Y-97048943D01*
X190218999Y-97307510D01*
X190218999Y-105556653D01*
X189926670Y-105435267D01*
X189316009Y-105434735D01*
X189255764Y-105459628D01*
X189089542Y-105348562D01*
X188770001Y-105285001D01*
X188507869Y-105285001D01*
X184985000Y-101762132D01*
X184985000Y-98502532D01*
X185367073Y-98502532D01*
X185465736Y-98769387D01*
X186075461Y-98995908D01*
X186725460Y-98971856D01*
X187214264Y-98769387D01*
X187312927Y-98502532D01*
X186340000Y-97529605D01*
X185367073Y-98502532D01*
X184985000Y-98502532D01*
X184985000Y-98248069D01*
X185187468Y-98322927D01*
X186160395Y-97350000D01*
X186519605Y-97350000D01*
X187492532Y-98322927D01*
X187759387Y-98224264D01*
X187985908Y-97614539D01*
X187961856Y-96964540D01*
X187759387Y-96475736D01*
X187492532Y-96377073D01*
X186519605Y-97350000D01*
X186160395Y-97350000D01*
X185187468Y-96377073D01*
X184985000Y-96451931D01*
X184985000Y-96197468D01*
X185367073Y-96197468D01*
X186340000Y-97170395D01*
X187312927Y-96197468D01*
X187214264Y-95930613D01*
X186604539Y-95704092D01*
X185954540Y-95728144D01*
X185465736Y-95930613D01*
X185367073Y-96197468D01*
X184985000Y-96197468D01*
X184985000Y-94206893D01*
X185412637Y-94635278D01*
X186013352Y-94884716D01*
X186663795Y-94885284D01*
X187264943Y-94636894D01*
X187725278Y-94177363D01*
X187764478Y-94082958D01*
X187915087Y-94053000D01*
X189738000Y-94053000D01*
X190057541Y-93989439D01*
X190328434Y-93808434D01*
X194900434Y-89236434D01*
X194972946Y-89127912D01*
X194974219Y-89126007D01*
X195107930Y-89326120D01*
X195638363Y-89680543D01*
X196264050Y-89805000D01*
X196735950Y-89805000D01*
X197361637Y-89680543D01*
X197892070Y-89326120D01*
X198246493Y-88795687D01*
X198370950Y-88170000D01*
X198246493Y-87544313D01*
X197892070Y-87013880D01*
X197361637Y-86659457D01*
X196735950Y-86535000D01*
X196264050Y-86535000D01*
X195638363Y-86659457D01*
X195145000Y-86989111D01*
X195145000Y-81879868D01*
X196424434Y-80600434D01*
X196605439Y-80329540D01*
X196625948Y-80226434D01*
X196669000Y-80010000D01*
X196646280Y-79895780D01*
X196646280Y-79217664D01*
X196787664Y-79159245D01*
X197273599Y-78674157D01*
X197536910Y-78040035D01*
X197537509Y-77353417D01*
X197275305Y-76718836D01*
X196790217Y-76232901D01*
X196156095Y-75969590D01*
X195469477Y-75968991D01*
X194834896Y-76231195D01*
X194511933Y-76553596D01*
X194191797Y-76232901D01*
X193557675Y-75969590D01*
X192871057Y-75968991D01*
X192236476Y-76231195D01*
X191750541Y-76716283D01*
X191487230Y-77350405D01*
X191486631Y-78037023D01*
X191748835Y-78671604D01*
X192173255Y-79096765D01*
X192095020Y-79175000D01*
X189152394Y-79175000D01*
X189190524Y-79159245D01*
X189676459Y-78674157D01*
X189939770Y-78040035D01*
X189940369Y-77353417D01*
X189678165Y-76718836D01*
X189193077Y-76232901D01*
X188558955Y-75969590D01*
X187872337Y-75968991D01*
X187237756Y-76231195D01*
X186914793Y-76553596D01*
X186594657Y-76232901D01*
X185960535Y-75969590D01*
X185273917Y-75968991D01*
X184639336Y-76231195D01*
X184153401Y-76716283D01*
X183890090Y-77350405D01*
X183889681Y-77819450D01*
X182626000Y-79083132D01*
X182532434Y-78989566D01*
X182261541Y-78808561D01*
X181942000Y-78745000D01*
X177470000Y-78745000D01*
X177150459Y-78808561D01*
X177066651Y-78864560D01*
X176879565Y-78989566D01*
X175177566Y-80691566D01*
X174996561Y-80962459D01*
X174933000Y-81282000D01*
X174933000Y-90332132D01*
X171950132Y-93315000D01*
X162520000Y-93315000D01*
X162200459Y-93378561D01*
X162014048Y-93503117D01*
X161929566Y-93559566D01*
X160934132Y-94555000D01*
X157610987Y-94555000D01*
X157734820Y-94256777D01*
X157735179Y-93845029D01*
X157577942Y-93464485D01*
X157287046Y-93173081D01*
X156906777Y-93015180D01*
X156495029Y-93014821D01*
X156114485Y-93172058D01*
X155823081Y-93462954D01*
X155665180Y-93843223D01*
X155664821Y-94254971D01*
X155788790Y-94555000D01*
X153600987Y-94555000D01*
X153724820Y-94256777D01*
X153725179Y-93845029D01*
X153567942Y-93464485D01*
X153277046Y-93173081D01*
X153228488Y-93152918D01*
X153334838Y-92896799D01*
X153335162Y-92524833D01*
X153233729Y-92279345D01*
X153171439Y-91966195D01*
X153049167Y-91783203D01*
X153255515Y-91697942D01*
X153546919Y-91407046D01*
X153704820Y-91026777D01*
X153705179Y-90615029D01*
X153547942Y-90234485D01*
X153257046Y-89943081D01*
X152876777Y-89785180D01*
X152465029Y-89784821D01*
X152084485Y-89942058D01*
X151793081Y-90232954D01*
X151715331Y-90420199D01*
X143254698Y-81959566D01*
X143189630Y-81916089D01*
X142983805Y-81778561D01*
X142664264Y-81715000D01*
X128343000Y-81715000D01*
X128343000Y-80554997D01*
X128524000Y-80591000D01*
X170688000Y-80591000D01*
X171007541Y-80527439D01*
X171278434Y-80346434D01*
X171459439Y-80075541D01*
X171523000Y-79756000D01*
X171523000Y-78405234D01*
X171622838Y-78164799D01*
X171623162Y-77792833D01*
X171481117Y-77449057D01*
X171218327Y-77185808D01*
X170985039Y-77088938D01*
X171216943Y-76993117D01*
X171480192Y-76730327D01*
X171622838Y-76386799D01*
X171623162Y-76014833D01*
X171481117Y-75671057D01*
X171218327Y-75407808D01*
X170874799Y-75265162D01*
X170502833Y-75264838D01*
X170159057Y-75406883D01*
X169895808Y-75669673D01*
X169795222Y-75911910D01*
X168564132Y-77143000D01*
X168067234Y-77143000D01*
X167826799Y-77043162D01*
X167454833Y-77042838D01*
X167111057Y-77184883D01*
X166847808Y-77447673D01*
X166705162Y-77791201D01*
X166704838Y-78163167D01*
X166846883Y-78506943D01*
X167109673Y-78770192D01*
X167453201Y-78912838D01*
X167825167Y-78913162D01*
X168067578Y-78813000D01*
X168910000Y-78813000D01*
X169229541Y-78749439D01*
X169500434Y-78568434D01*
X169797532Y-78271336D01*
X169853000Y-78405578D01*
X169853000Y-78921000D01*
X165177852Y-78921000D01*
X165177852Y-78410086D01*
X165277690Y-78169651D01*
X165278014Y-77797685D01*
X165135969Y-77453909D01*
X164873179Y-77190660D01*
X164631614Y-77090353D01*
X164866943Y-76993117D01*
X165130192Y-76730327D01*
X165272838Y-76386799D01*
X165273162Y-76014833D01*
X165131117Y-75671057D01*
X164868327Y-75407808D01*
X164524799Y-75265162D01*
X164152833Y-75264838D01*
X163809057Y-75406883D01*
X163545808Y-75669673D01*
X163445222Y-75911910D01*
X162214132Y-77143000D01*
X161717234Y-77143000D01*
X161476799Y-77043162D01*
X161104833Y-77042838D01*
X160761057Y-77184883D01*
X160497808Y-77447673D01*
X160355162Y-77791201D01*
X160354838Y-78163167D01*
X160496883Y-78506943D01*
X160759673Y-78770192D01*
X161103201Y-78912838D01*
X161475167Y-78913162D01*
X161717578Y-78813000D01*
X162560000Y-78813000D01*
X162879541Y-78749439D01*
X163150434Y-78568434D01*
X163449547Y-78269321D01*
X163507852Y-78410430D01*
X163507852Y-78921000D01*
X158823000Y-78921000D01*
X158823000Y-78405234D01*
X158922838Y-78164799D01*
X158923162Y-77792833D01*
X158781117Y-77449057D01*
X158518327Y-77185808D01*
X158285039Y-77088938D01*
X158516943Y-76993117D01*
X158780192Y-76730327D01*
X158922838Y-76386799D01*
X158923162Y-76014833D01*
X158781117Y-75671057D01*
X158518327Y-75407808D01*
X158174799Y-75265162D01*
X157802833Y-75264838D01*
X157459057Y-75406883D01*
X157195808Y-75669673D01*
X157095222Y-75911910D01*
X155864132Y-77143000D01*
X155367234Y-77143000D01*
X155126799Y-77043162D01*
X154754833Y-77042838D01*
X154411057Y-77184883D01*
X154147808Y-77447673D01*
X154005162Y-77791201D01*
X154004838Y-78163167D01*
X154146883Y-78506943D01*
X154409673Y-78770192D01*
X154753201Y-78912838D01*
X155125167Y-78913162D01*
X155367578Y-78813000D01*
X156210000Y-78813000D01*
X156529541Y-78749439D01*
X156800434Y-78568434D01*
X157097532Y-78271336D01*
X157153000Y-78405578D01*
X157153000Y-78921000D01*
X152473000Y-78921000D01*
X152473000Y-78405234D01*
X152572838Y-78164799D01*
X152573162Y-77792833D01*
X152431117Y-77449057D01*
X152168327Y-77185808D01*
X151824799Y-77043162D01*
X151721796Y-77043072D01*
X151976901Y-76787967D01*
X152217511Y-76688549D01*
X152480760Y-76425759D01*
X152623406Y-76082231D01*
X152623730Y-75710265D01*
X152481685Y-75366489D01*
X152218895Y-75103240D01*
X151875367Y-74960594D01*
X151503401Y-74960270D01*
X151159625Y-75102315D01*
X150896376Y-75365105D01*
X150795790Y-75607342D01*
X149269566Y-77133566D01*
X149263262Y-77143000D01*
X149017234Y-77143000D01*
X148776799Y-77043162D01*
X148404833Y-77042838D01*
X148061057Y-77184883D01*
X147797808Y-77447673D01*
X147655162Y-77791201D01*
X147654838Y-78163167D01*
X147796883Y-78506943D01*
X148059673Y-78770192D01*
X148403201Y-78912838D01*
X148775167Y-78913162D01*
X149017578Y-78813000D01*
X149860000Y-78813000D01*
X150179541Y-78749439D01*
X150450434Y-78568434D01*
X150631439Y-78297541D01*
X150672189Y-78092679D01*
X150702926Y-78061942D01*
X150702838Y-78163167D01*
X150803000Y-78405578D01*
X150803000Y-78921000D01*
X146123000Y-78921000D01*
X146123000Y-78405234D01*
X146222838Y-78164799D01*
X146223162Y-77792833D01*
X146081117Y-77449057D01*
X145818327Y-77185808D01*
X145474799Y-77043162D01*
X145371796Y-77043072D01*
X145576333Y-76838535D01*
X145816943Y-76739117D01*
X146080192Y-76476327D01*
X146222838Y-76132799D01*
X146223162Y-75760833D01*
X146081117Y-75417057D01*
X145818327Y-75153808D01*
X145474799Y-75011162D01*
X145102833Y-75010838D01*
X144759057Y-75152883D01*
X144495808Y-75415673D01*
X144395222Y-75657910D01*
X142910132Y-77143000D01*
X142667234Y-77143000D01*
X142426799Y-77043162D01*
X142054833Y-77042838D01*
X141711057Y-77184883D01*
X141447808Y-77447673D01*
X141305162Y-77791201D01*
X141304838Y-78163167D01*
X141446883Y-78506943D01*
X141709673Y-78770192D01*
X142053201Y-78912838D01*
X142425167Y-78913162D01*
X142667578Y-78813000D01*
X143256000Y-78813000D01*
X143575541Y-78749439D01*
X143846434Y-78568434D01*
X144352926Y-78061942D01*
X144352838Y-78163167D01*
X144453000Y-78405578D01*
X144453000Y-78921000D01*
X139825000Y-78921000D01*
X139825000Y-78417234D01*
X139924838Y-78176799D01*
X139925162Y-77804833D01*
X139783117Y-77461057D01*
X139520327Y-77197808D01*
X139176799Y-77055162D01*
X139009851Y-77055017D01*
X139226333Y-76838535D01*
X139466943Y-76739117D01*
X139730192Y-76476327D01*
X139872838Y-76132799D01*
X139873162Y-75760833D01*
X139731117Y-75417057D01*
X139468327Y-75153808D01*
X139124799Y-75011162D01*
X138752833Y-75010838D01*
X138409057Y-75152883D01*
X138145808Y-75415673D01*
X138045222Y-75657910D01*
X136542990Y-77160142D01*
X136334376Y-77160142D01*
X136093941Y-77060304D01*
X135721975Y-77059980D01*
X135378199Y-77202025D01*
X135114950Y-77464815D01*
X134972304Y-77808343D01*
X134971980Y-78180309D01*
X135114025Y-78524085D01*
X135376815Y-78787334D01*
X135698717Y-78921000D01*
X133423000Y-78921000D01*
X133423000Y-78405234D01*
X133522838Y-78164799D01*
X133523162Y-77792833D01*
X133381117Y-77449057D01*
X133118327Y-77185808D01*
X132885039Y-77088938D01*
X133116943Y-76993117D01*
X133380192Y-76730327D01*
X133522838Y-76386799D01*
X133523162Y-76014833D01*
X133381117Y-75671057D01*
X133118327Y-75407808D01*
X132774799Y-75265162D01*
X132402833Y-75264838D01*
X132059057Y-75406883D01*
X131795808Y-75669673D01*
X131695222Y-75911910D01*
X130464132Y-77143000D01*
X129967234Y-77143000D01*
X129726799Y-77043162D01*
X129354833Y-77042838D01*
X129011057Y-77184883D01*
X128752949Y-77442541D01*
X128524000Y-77397000D01*
X127853869Y-77397000D01*
X127590434Y-77133566D01*
X127547360Y-77104785D01*
X127319541Y-76952561D01*
X127000000Y-76889000D01*
X126627234Y-76889000D01*
X126386799Y-76789162D01*
X126014833Y-76788838D01*
X125671057Y-76930883D01*
X125618738Y-76983111D01*
X125603763Y-76993117D01*
X125393565Y-77133566D01*
X124885567Y-77641565D01*
X124885566Y-77641566D01*
X124704561Y-77912459D01*
X124641000Y-78232000D01*
X124641000Y-92618132D01*
X123606132Y-93653000D01*
X120561000Y-93653000D01*
X120561000Y-93491275D01*
X120470639Y-93037000D01*
X123190000Y-93037000D01*
X123509541Y-92973439D01*
X123780434Y-92792434D01*
X124034434Y-92538434D01*
X124074440Y-92478561D01*
X124215439Y-92267541D01*
X124279000Y-91948000D01*
X124279000Y-80254000D01*
X124273517Y-80226434D01*
X124215440Y-79934460D01*
X124034434Y-79663566D01*
X123600434Y-79229566D01*
X123574622Y-79212319D01*
X123329541Y-79048561D01*
X123010000Y-78985000D01*
X117500000Y-78985000D01*
X117180459Y-79048561D01*
X116935378Y-79212319D01*
X116909566Y-79229566D01*
X116249566Y-79889566D01*
X116068561Y-80160459D01*
X116005000Y-80480000D01*
X116005000Y-82458132D01*
X113446132Y-85017000D01*
X111089868Y-85017000D01*
X109604535Y-83531667D01*
X109505117Y-83291057D01*
X109242327Y-83027808D01*
X108898799Y-82885162D01*
X108526833Y-82884838D01*
X108183057Y-83026883D01*
X107919808Y-83289673D01*
X107777162Y-83633201D01*
X107776838Y-84005167D01*
X107918883Y-84348943D01*
X108181673Y-84612192D01*
X108423910Y-84712778D01*
X110046132Y-86335000D01*
X108575755Y-86335000D01*
X108424878Y-86109197D01*
X107973930Y-85807882D01*
X107442000Y-85702075D01*
X106910070Y-85807882D01*
X106459122Y-86109197D01*
X106292000Y-86359312D01*
X106292000Y-86252690D01*
X106195327Y-86019301D01*
X106016698Y-85840673D01*
X105783309Y-85744000D01*
X105187750Y-85744000D01*
X105029000Y-85902750D01*
X105029000Y-87757000D01*
X105049000Y-87757000D01*
X105049000Y-88011000D01*
X105029000Y-88011000D01*
X105029000Y-89865250D01*
X105187750Y-90024000D01*
X105783309Y-90024000D01*
X106016698Y-89927327D01*
X106195327Y-89748699D01*
X106292000Y-89515310D01*
X106292000Y-89408688D01*
X106459122Y-89658803D01*
X106607000Y-89757612D01*
X106607000Y-91686131D01*
X105234869Y-93058263D01*
X105211767Y-92942124D01*
X104900698Y-92476577D01*
X104435151Y-92165508D01*
X103886000Y-92056275D01*
X103336849Y-92165508D01*
X102871302Y-92476577D01*
X102560233Y-92942124D01*
X102451000Y-93491275D01*
X101990764Y-93491275D01*
X101990764Y-90553321D01*
X101973660Y-90467336D01*
X101968428Y-90379826D01*
X101947819Y-90337424D01*
X101938621Y-90291183D01*
X101889915Y-90218290D01*
X101851592Y-90139441D01*
X101755199Y-90012317D01*
X101658816Y-89885202D01*
X101658803Y-89885190D01*
X101658795Y-89885174D01*
X101562395Y-89758050D01*
X101562394Y-89758049D01*
X101466026Y-89630954D01*
X101466024Y-89630952D01*
X101466023Y-89630950D01*
X101369632Y-89503827D01*
X101273246Y-89376708D01*
X101273245Y-89376707D01*
X101219206Y-89305437D01*
X101217107Y-88169750D01*
X103512000Y-88169750D01*
X103512000Y-89515310D01*
X103608673Y-89748699D01*
X103787302Y-89927327D01*
X104020691Y-90024000D01*
X104616250Y-90024000D01*
X104775000Y-89865250D01*
X104775000Y-88011000D01*
X103670750Y-88011000D01*
X103512000Y-88169750D01*
X101217107Y-88169750D01*
X101216230Y-87695247D01*
X101213565Y-86252690D01*
X103512000Y-86252690D01*
X103512000Y-87598250D01*
X103670750Y-87757000D01*
X104775000Y-87757000D01*
X104775000Y-85902750D01*
X104616250Y-85744000D01*
X104020691Y-85744000D01*
X103787302Y-85840673D01*
X103608673Y-86019301D01*
X103512000Y-86252690D01*
X101213565Y-86252690D01*
X101212830Y-85855426D01*
X101209430Y-84015608D01*
X101206030Y-82175791D01*
X101202630Y-80335970D01*
X101199230Y-78496152D01*
X101198483Y-78091803D01*
X102578211Y-78091803D01*
X102840415Y-78726384D01*
X103325503Y-79212319D01*
X103959625Y-79475630D01*
X104646243Y-79476229D01*
X105280824Y-79214025D01*
X105603787Y-78891624D01*
X105923923Y-79212319D01*
X106558045Y-79475630D01*
X107244663Y-79476229D01*
X107879244Y-79214025D01*
X108365179Y-78728937D01*
X108628490Y-78094815D01*
X108628492Y-78091803D01*
X110175351Y-78091803D01*
X110437555Y-78726384D01*
X110922643Y-79212319D01*
X111556765Y-79475630D01*
X112243383Y-79476229D01*
X112877964Y-79214025D01*
X113200927Y-78891624D01*
X113521063Y-79212319D01*
X113665000Y-79272087D01*
X113665000Y-82258132D01*
X112938132Y-82985000D01*
X112695234Y-82985000D01*
X112454799Y-82885162D01*
X112082833Y-82884838D01*
X111739057Y-83026883D01*
X111475808Y-83289673D01*
X111333162Y-83633201D01*
X111332838Y-84005167D01*
X111474883Y-84348943D01*
X111737673Y-84612192D01*
X112081201Y-84754838D01*
X112453167Y-84755162D01*
X112695578Y-84655000D01*
X113284000Y-84655000D01*
X113603541Y-84591439D01*
X113874434Y-84410434D01*
X115090434Y-83194434D01*
X115271440Y-82923540D01*
X115335000Y-82604000D01*
X115335000Y-79272444D01*
X115476384Y-79214025D01*
X115962319Y-78728937D01*
X116225630Y-78094815D01*
X116226229Y-77408197D01*
X115964025Y-76773616D01*
X115478937Y-76287681D01*
X114844815Y-76024370D01*
X114158197Y-76023771D01*
X113523616Y-76285975D01*
X113200653Y-76608376D01*
X112880517Y-76287681D01*
X112246395Y-76024370D01*
X111559777Y-76023771D01*
X110925196Y-76285975D01*
X110439261Y-76771063D01*
X110175950Y-77405185D01*
X110175351Y-78091803D01*
X108628492Y-78091803D01*
X108629089Y-77408197D01*
X108366885Y-76773616D01*
X107881797Y-76287681D01*
X107247675Y-76024370D01*
X106561057Y-76023771D01*
X105926476Y-76285975D01*
X105603513Y-76608376D01*
X105283377Y-76287681D01*
X104649255Y-76024370D01*
X103962637Y-76023771D01*
X103328056Y-76285975D01*
X102842121Y-76771063D01*
X102578810Y-77405185D01*
X102578211Y-78091803D01*
X101198483Y-78091803D01*
X101195830Y-76656331D01*
X101192857Y-75047832D01*
X101219560Y-75012669D01*
X101302858Y-74902981D01*
X101386158Y-74793290D01*
X101386161Y-74793283D01*
X101386165Y-74793280D01*
X101469456Y-74683597D01*
X101469458Y-74683595D01*
X101719358Y-74354522D01*
X101757848Y-74275478D01*
X101806688Y-74202383D01*
X101815837Y-74156389D01*
X101836369Y-74114223D01*
X101841679Y-74026471D01*
X101858831Y-73940245D01*
X101858831Y-73059359D01*
X103150506Y-73059359D01*
X103338128Y-73513437D01*
X103685235Y-73861151D01*
X104138986Y-74049565D01*
X104630299Y-74049994D01*
X104824895Y-73969588D01*
X108363517Y-73969588D01*
X108473311Y-74245878D01*
X109115978Y-74487587D01*
X109802223Y-74464959D01*
X110331129Y-74245878D01*
X110440923Y-73969588D01*
X109402220Y-72930885D01*
X108363517Y-73969588D01*
X104824895Y-73969588D01*
X105084377Y-73862372D01*
X105432091Y-73515265D01*
X105620505Y-73061514D01*
X105620934Y-72570201D01*
X105577482Y-72465038D01*
X107665913Y-72465038D01*
X107688541Y-73151283D01*
X107907622Y-73680189D01*
X108183912Y-73789983D01*
X109222615Y-72751280D01*
X109581825Y-72751280D01*
X110620528Y-73789983D01*
X110896818Y-73680189D01*
X111130314Y-73059359D01*
X113183506Y-73059359D01*
X113371128Y-73513437D01*
X113718235Y-73861151D01*
X114171986Y-74049565D01*
X114663299Y-74049994D01*
X115117377Y-73862372D01*
X115465091Y-73515265D01*
X115653505Y-73061514D01*
X115653934Y-72570201D01*
X115466312Y-72116123D01*
X115119205Y-71768409D01*
X114665454Y-71579995D01*
X114174141Y-71579566D01*
X113720063Y-71767188D01*
X113372349Y-72114295D01*
X113183935Y-72568046D01*
X113183506Y-73059359D01*
X111130314Y-73059359D01*
X111138527Y-73037522D01*
X111115899Y-72351277D01*
X110896818Y-71822371D01*
X110620528Y-71712577D01*
X109581825Y-72751280D01*
X109222615Y-72751280D01*
X108183912Y-71712577D01*
X107907622Y-71822371D01*
X107665913Y-72465038D01*
X105577482Y-72465038D01*
X105433312Y-72116123D01*
X105086205Y-71768409D01*
X104632454Y-71579995D01*
X104141141Y-71579566D01*
X103687063Y-71767188D01*
X103339349Y-72114295D01*
X103150935Y-72568046D01*
X103150506Y-73059359D01*
X101858831Y-73059359D01*
X101858831Y-72474594D01*
X101923498Y-71817520D01*
X102009020Y-71532972D01*
X108363517Y-71532972D01*
X109402220Y-72571675D01*
X110440923Y-71532972D01*
X110331129Y-71256682D01*
X109688462Y-71014973D01*
X109002217Y-71037601D01*
X108473311Y-71256682D01*
X108363517Y-71532972D01*
X102009020Y-71532972D01*
X102099788Y-71230976D01*
X102246172Y-70950693D01*
X118654485Y-70950693D01*
X118661098Y-71018131D01*
X118654485Y-71085569D01*
X118683625Y-71380119D01*
X118703242Y-71444687D01*
X118709889Y-71511843D01*
X118795139Y-71792386D01*
X118826816Y-71851580D01*
X118846274Y-71915837D01*
X118984368Y-72174495D01*
X119027154Y-72226681D01*
X119058938Y-72286208D01*
X119246609Y-72515091D01*
X119298970Y-72558101D01*
X119341985Y-72610468D01*
X119570870Y-72798141D01*
X119630401Y-72829927D01*
X119682585Y-72872711D01*
X119941242Y-73010805D01*
X120005500Y-73030263D01*
X120064690Y-73061938D01*
X120345234Y-73147189D01*
X120412391Y-73153836D01*
X120476960Y-73173454D01*
X120771510Y-73202594D01*
X120838948Y-73195981D01*
X120906386Y-73202594D01*
X121200936Y-73173454D01*
X121265505Y-73153836D01*
X121332662Y-73147189D01*
X121613206Y-73061938D01*
X121672399Y-73030261D01*
X121736654Y-73010804D01*
X121995312Y-72872711D01*
X122047497Y-72829926D01*
X122107026Y-72798141D01*
X122335911Y-72610468D01*
X122378925Y-72558102D01*
X122431287Y-72515091D01*
X122618958Y-72286209D01*
X122650743Y-72226680D01*
X122693528Y-72174495D01*
X122831622Y-71915837D01*
X122851080Y-71851580D01*
X122882757Y-71792386D01*
X122968007Y-71511843D01*
X122974654Y-71444685D01*
X122994271Y-71380119D01*
X123023411Y-71085569D01*
X123020081Y-71051604D01*
X123026739Y-71018131D01*
X123020081Y-70984658D01*
X123023411Y-70950693D01*
X176991366Y-70950693D01*
X176997979Y-71018131D01*
X176991366Y-71085569D01*
X177020506Y-71380119D01*
X177040123Y-71444687D01*
X177046770Y-71511843D01*
X177132020Y-71792386D01*
X177163698Y-71851582D01*
X177183156Y-71915839D01*
X177321251Y-72174497D01*
X177364036Y-72226682D01*
X177395821Y-72286210D01*
X177583493Y-72515093D01*
X177635856Y-72558105D01*
X177678868Y-72610468D01*
X177907753Y-72798141D01*
X177967282Y-72829926D01*
X178019467Y-72872711D01*
X178278123Y-73010804D01*
X178342380Y-73030262D01*
X178401572Y-73061938D01*
X178682115Y-73147189D01*
X178749272Y-73153836D01*
X178813841Y-73173454D01*
X179108391Y-73202594D01*
X179175829Y-73195981D01*
X179243267Y-73202594D01*
X179537820Y-73173454D01*
X179602389Y-73153836D01*
X179669546Y-73147189D01*
X179950089Y-73061938D01*
X180009281Y-73030262D01*
X180073538Y-73010804D01*
X180085197Y-73004579D01*
X184461786Y-73004579D01*
X184649408Y-73458657D01*
X184996515Y-73806371D01*
X185450266Y-73994785D01*
X185941579Y-73995214D01*
X186136175Y-73914808D01*
X189674797Y-73914808D01*
X189784591Y-74191098D01*
X190427258Y-74432807D01*
X191113503Y-74410179D01*
X191642409Y-74191098D01*
X191752203Y-73914808D01*
X190713500Y-72876105D01*
X189674797Y-73914808D01*
X186136175Y-73914808D01*
X186395657Y-73807592D01*
X186743371Y-73460485D01*
X186931785Y-73006734D01*
X186932214Y-72515421D01*
X186888762Y-72410258D01*
X188977193Y-72410258D01*
X188999821Y-73096503D01*
X189218902Y-73625409D01*
X189495192Y-73735203D01*
X190533895Y-72696500D01*
X190893105Y-72696500D01*
X191931808Y-73735203D01*
X192208098Y-73625409D01*
X192441594Y-73004579D01*
X194494786Y-73004579D01*
X194682408Y-73458657D01*
X195029515Y-73806371D01*
X195483266Y-73994785D01*
X195974579Y-73995214D01*
X196428657Y-73807592D01*
X196776371Y-73460485D01*
X196964785Y-73006734D01*
X196965214Y-72515421D01*
X196777592Y-72061343D01*
X196430485Y-71713629D01*
X195976734Y-71525215D01*
X195485421Y-71524786D01*
X195031343Y-71712408D01*
X194683629Y-72059515D01*
X194495215Y-72513266D01*
X194494786Y-73004579D01*
X192441594Y-73004579D01*
X192449807Y-72982742D01*
X192427179Y-72296497D01*
X192208098Y-71767591D01*
X191931808Y-71657797D01*
X190893105Y-72696500D01*
X190533895Y-72696500D01*
X189495192Y-71657797D01*
X189218902Y-71767591D01*
X188977193Y-72410258D01*
X186888762Y-72410258D01*
X186744592Y-72061343D01*
X186397485Y-71713629D01*
X185943734Y-71525215D01*
X185452421Y-71524786D01*
X184998343Y-71712408D01*
X184650629Y-72059515D01*
X184462215Y-72513266D01*
X184461786Y-73004579D01*
X180085197Y-73004579D01*
X180332194Y-72872711D01*
X180384379Y-72829926D01*
X180443908Y-72798141D01*
X180672793Y-72610468D01*
X180715805Y-72558104D01*
X180768168Y-72515093D01*
X180955840Y-72286210D01*
X180987625Y-72226682D01*
X181030410Y-72174497D01*
X181168505Y-71915839D01*
X181187964Y-71851581D01*
X181219641Y-71792386D01*
X181304891Y-71511843D01*
X181308221Y-71478192D01*
X189674797Y-71478192D01*
X190713500Y-72516895D01*
X191752203Y-71478192D01*
X191642409Y-71201902D01*
X190999742Y-70960193D01*
X190313497Y-70982821D01*
X189784591Y-71201902D01*
X189674797Y-71478192D01*
X181308221Y-71478192D01*
X181311538Y-71444685D01*
X181331155Y-71380119D01*
X181360295Y-71085569D01*
X181356965Y-71051604D01*
X181363623Y-71018131D01*
X181356965Y-70984658D01*
X181360295Y-70950693D01*
X181331155Y-70656142D01*
X181311538Y-70591576D01*
X181304891Y-70524418D01*
X181219641Y-70243875D01*
X181187964Y-70184681D01*
X181168505Y-70120421D01*
X181030409Y-69861764D01*
X180987626Y-69809582D01*
X180955842Y-69750054D01*
X180768170Y-69521169D01*
X180715803Y-69478154D01*
X180672790Y-69425790D01*
X180443905Y-69238119D01*
X180384380Y-69206336D01*
X180332196Y-69163552D01*
X180073540Y-69025458D01*
X180009282Y-69006000D01*
X179950087Y-68974322D01*
X179669544Y-68889072D01*
X179602388Y-68882425D01*
X179537820Y-68862808D01*
X179243267Y-68833668D01*
X179175829Y-68840281D01*
X179108391Y-68833668D01*
X178813841Y-68862808D01*
X178749275Y-68882425D01*
X178682117Y-68889072D01*
X178401574Y-68974322D01*
X178342379Y-69006000D01*
X178278121Y-69025458D01*
X178019465Y-69163552D01*
X177967281Y-69206337D01*
X177907756Y-69238119D01*
X177678871Y-69425790D01*
X177635856Y-69478156D01*
X177583491Y-69521170D01*
X177395819Y-69750054D01*
X177364035Y-69809581D01*
X177321252Y-69861764D01*
X177183157Y-70120421D01*
X177163699Y-70184677D01*
X177132020Y-70243875D01*
X177046770Y-70524418D01*
X177040123Y-70591574D01*
X177020506Y-70656142D01*
X176991366Y-70950693D01*
X123023411Y-70950693D01*
X122994271Y-70656142D01*
X122974654Y-70591576D01*
X122968007Y-70524418D01*
X122882757Y-70243875D01*
X122851079Y-70184678D01*
X122831621Y-70120423D01*
X122693527Y-69861766D01*
X122650744Y-69809583D01*
X122618960Y-69750056D01*
X122431289Y-69521171D01*
X122378923Y-69478156D01*
X122335908Y-69425790D01*
X122107023Y-69238119D01*
X122047499Y-69206337D01*
X121995313Y-69163551D01*
X121736656Y-69025458D01*
X121672402Y-69006001D01*
X121613204Y-68974322D01*
X121332659Y-68889072D01*
X121265504Y-68882425D01*
X121200936Y-68862808D01*
X120906386Y-68833668D01*
X120838948Y-68840281D01*
X120771510Y-68833668D01*
X120476960Y-68862808D01*
X120412392Y-68882425D01*
X120345237Y-68889072D01*
X120064693Y-68974322D01*
X120005496Y-69006000D01*
X119941240Y-69025458D01*
X119682583Y-69163552D01*
X119630400Y-69206335D01*
X119570873Y-69238119D01*
X119341988Y-69425790D01*
X119298973Y-69478156D01*
X119246607Y-69521171D01*
X119058936Y-69750056D01*
X119027154Y-69809580D01*
X118984368Y-69861766D01*
X118846275Y-70120423D01*
X118826818Y-70184678D01*
X118795139Y-70243875D01*
X118709889Y-70524418D01*
X118703242Y-70591574D01*
X118683625Y-70656142D01*
X118654485Y-70950693D01*
X102246172Y-70950693D01*
X102379833Y-70694774D01*
X102751421Y-70224560D01*
X103201340Y-69835748D01*
X103716474Y-69542354D01*
X104285707Y-69356850D01*
X104938355Y-69287863D01*
X115972317Y-69287863D01*
X116234455Y-69235720D01*
X116456685Y-69087231D01*
X116605174Y-68865001D01*
X116657317Y-68602863D01*
X116657317Y-68312793D01*
X183461877Y-68312793D01*
X183461877Y-68603443D01*
M02*
